<svg width="71" height="75" viewBox="0 0 71 75" fill="none" xmlns="http://www.w3.org/2000/svg">
<rect width="70" height="74" transform="translate(0.5 0.799988)" fill="#67B0CF"/>
<g clip-path="url(#clip0_68_935)">
<path d="M50.4707 28.593C50.4707 28.1633 50.3242 27.8019 50.0312 27.509C49.7383 27.216 49.377 27.0695 48.9473 27.0695L22.0234 27.0988C21.8281 27.0988 21.6377 27.1379 21.4521 27.216C21.2666 27.2941 21.0957 27.4016 20.9395 27.5383C20.8027 27.6945 20.6953 27.8654 20.6172 28.051C20.5391 28.2365 20.5 28.4269 20.5 28.6223L20.5293 43.7687C20.5293 43.9641 20.5684 44.1545 20.6465 44.34C20.7246 44.5256 20.832 44.6965 20.9688 44.8527C21.125 44.9894 21.2959 45.0969 21.4814 45.175C21.667 45.2531 21.8574 45.2922 22.0527 45.2922L48.9766 45.2629C49.3867 45.2629 49.7432 45.1115 50.0459 44.8088C50.3486 44.506 50.5 44.1398 50.5 43.7101L50.4707 28.593ZM47.248 28.593L35.5 36.7668L23.7227 28.6223L47.248 28.593ZM40.4805 38.3195L47.4531 43.7101L23.5469 43.7394L30.5488 38.3195C30.7246 38.1828 30.8223 38.0119 30.8418 37.8068C30.8613 37.6017 30.8125 37.4113 30.6953 37.2355C30.5586 37.0598 30.3877 36.9621 30.1826 36.9426C29.9775 36.923 29.7871 36.9719 29.6113 37.0891L22.0527 42.9484L22.0234 29.3254L35.0605 38.3488C35.1387 38.3879 35.2119 38.4172 35.2803 38.4367C35.3486 38.4562 35.4219 38.466 35.5 38.466C35.5781 38.466 35.6562 38.4562 35.7344 38.4367C35.8125 38.4172 35.8809 38.3879 35.9395 38.3488L48.9473 29.2961L48.9766 42.9484L41.418 37.0891C41.2422 36.9719 41.0518 36.923 40.8467 36.9426C40.6416 36.9621 40.4707 37.0598 40.334 37.2355C40.1973 37.4113 40.1436 37.6017 40.1729 37.8068C40.2021 38.0119 40.3047 38.1828 40.4805 38.3195Z" fill="white"/>
</g>
<defs>
<clipPath id="clip0_68_935">
<rect width="30" height="30" fill="white" transform="matrix(1 0 0 -1 20.5 50.8)"/>
</clipPath>
</defs>
</svg>
