<svg width="70" height="75" viewBox="0 0 70 75" fill="none" xmlns="http://www.w3.org/2000/svg">
<rect width="70" height="74" transform="translate(0 0.410034)" fill="#67B0CF"/>
<g clip-path="url(#clip0_68_908)">
<path d="M49.4727 49.4139H47.4512C47.4512 49.3163 47.4609 49.2235 47.4805 49.1356C47.5 49.0477 47.5098 48.9745 47.5098 48.9159C47.5098 48.2128 47.3193 47.5829 46.9385 47.0262C46.5576 46.4696 46.0742 46.0546 45.4883 45.7811V28.9061C45.4883 28.7499 45.4443 28.6327 45.3564 28.5546C45.2686 28.4764 45.1562 28.4374 45.0195 28.4374H37.4609V20.8788C37.4609 20.7421 37.4219 20.6298 37.3438 20.5419C37.2656 20.454 37.1484 20.41 36.9922 20.41H23.457C23.3008 20.41 23.1787 20.454 23.0908 20.5419C23.0029 20.6298 22.959 20.7421 22.959 20.8788V49.4139H20.4688C20.332 49.4139 20.2197 49.453 20.1318 49.5311C20.0439 49.6093 20 49.7264 20 49.8827C20 50.0194 20.0439 50.1317 20.1318 50.2196C20.2197 50.3075 20.332 50.3514 20.4688 50.3514H49.5312C49.668 50.3514 49.7803 50.3075 49.8682 50.2196C49.9561 50.1317 50 50.0194 50 49.8827C50 49.7264 49.9463 49.6093 49.8389 49.5311C49.7314 49.453 49.6094 49.4139 49.4727 49.4139ZM44.4043 45.4296C44.3262 45.4296 44.2432 45.4198 44.1553 45.4003C44.0674 45.3807 43.9941 45.371 43.9355 45.371C43.7598 45.371 43.5742 45.3856 43.3789 45.4149C43.1836 45.4442 43.0176 45.4882 42.8809 45.5468C42.8418 45.4882 42.7832 45.4442 42.7051 45.4149C42.627 45.3856 42.5488 45.371 42.4707 45.371C42.3145 45.371 42.1924 45.41 42.1045 45.4882C42.0166 45.5663 41.9727 45.6835 41.9727 45.8397V46.0155C41.8945 46.0741 41.8115 46.1473 41.7236 46.2352C41.6357 46.3231 41.543 46.4061 41.4453 46.4843C41.4453 46.4843 41.4355 46.494 41.416 46.5135C41.3965 46.5331 41.3867 46.5428 41.3867 46.5428C41.1719 46.2889 40.9326 46.0692 40.6689 45.8837C40.4053 45.6981 40.127 45.5663 39.834 45.4882C39.8145 45.4491 39.7754 45.4198 39.7168 45.4003C39.6582 45.3807 39.5801 45.371 39.4824 45.371C39.4629 45.371 39.4385 45.371 39.4092 45.371C39.3799 45.371 39.3457 45.371 39.3066 45.371C39.248 45.371 39.1895 45.371 39.1309 45.371C39.0723 45.371 39.0137 45.371 38.9551 45.371C38.7988 45.371 38.6377 45.3856 38.4717 45.4149C38.3057 45.4442 38.1445 45.4882 37.9883 45.5468C37.9688 45.5468 37.9541 45.5468 37.9443 45.5468C37.9346 45.5468 37.9102 45.5663 37.8711 45.6053C37.6953 45.4491 37.5049 45.327 37.2998 45.2391C37.0947 45.1512 36.8945 45.0682 36.6992 44.9901C36.6602 44.9901 36.6357 44.9901 36.626 44.9901C36.6162 44.9901 36.6016 44.9901 36.582 44.9901C36.543 44.9901 36.5186 44.9901 36.5088 44.9901C36.499 44.9901 36.4844 44.9901 36.4648 44.9901C36.4648 44.9901 36.46 44.9901 36.4502 44.9901C36.4404 44.9901 36.4258 44.9901 36.4062 44.9901C36.3672 44.9901 36.3428 44.9901 36.333 44.9901C36.3232 44.9901 36.3086 44.9901 36.2891 44.9901C36.2891 44.9901 36.2842 44.9901 36.2744 44.9901C36.2646 44.9901 36.25 44.9901 36.2305 44.9901C36.1914 44.9901 36.167 44.9901 36.1572 44.9901C36.1475 44.9901 36.1328 44.9901 36.1133 44.9901C36.1133 44.9901 36.1035 44.9901 36.084 44.9901C36.0645 44.9901 36.0547 44.9901 36.0547 44.9901C36.0547 44.9901 36.04 44.9901 36.0107 44.9901C35.9814 44.9901 35.9668 44.9901 35.9668 44.9901C35.9668 44.9901 35.9473 44.9901 35.9082 44.9901C35.8691 44.9901 35.8496 44.9901 35.8496 44.9901C35.8496 44.9901 35.8398 44.9901 35.8203 44.9901C35.8008 44.9901 35.7715 44.9901 35.7324 44.9901C35.7324 44.9901 35.7227 44.9901 35.7031 44.9901C35.6836 44.9901 35.6738 44.9901 35.6738 44.9901C35.4395 45.0292 35.2148 45.0829 35 45.1512C34.7852 45.2196 34.5801 45.3124 34.3848 45.4296V29.3749H44.3457L44.4043 45.4296ZM23.9258 21.4061H36.4062V28.4374H33.916C33.7598 28.4374 33.6377 28.4764 33.5498 28.5546C33.4619 28.6327 33.418 28.7499 33.418 28.9061V44.4628C33.3008 44.3456 33.1689 44.2284 33.0225 44.1112C32.876 43.994 32.7148 43.8964 32.5391 43.8182C32.5391 43.8182 32.5293 43.8085 32.5098 43.7889C32.4902 43.7694 32.4805 43.7596 32.4805 43.7596C32.4805 43.7596 32.4756 43.7596 32.4658 43.7596C32.4561 43.7596 32.4414 43.7596 32.4219 43.7596C32.2461 43.662 32.0557 43.5839 31.8506 43.5253C31.6455 43.4667 31.4551 43.4276 31.2793 43.4081C31.2598 43.4081 31.2354 43.4081 31.2061 43.4081C31.1768 43.4081 31.1621 43.4081 31.1621 43.4081C31.1621 43.4081 31.1426 43.4081 31.1035 43.4081C31.084 43.4081 31.0596 43.4081 31.0303 43.4081C31.001 43.4081 30.9668 43.4081 30.9277 43.4081C30.5371 43.4081 30.1758 43.4618 29.8438 43.5692C29.5117 43.6766 29.1992 43.8378 28.9062 44.0526V43.8768C28.9062 43.7206 28.8672 43.6034 28.7891 43.5253C28.7109 43.4471 28.5938 43.4081 28.4375 43.4081C28.2812 43.4081 28.1641 43.4471 28.0859 43.5253C28.0078 43.6034 27.9688 43.7206 27.9688 43.8768V44.8729C27.9688 44.912 27.9688 44.9462 27.9688 44.9755C27.9688 45.0048 27.9883 45.0389 28.0273 45.078C27.9102 45.2733 27.8076 45.4784 27.7197 45.6932C27.6318 45.9081 27.5781 46.1522 27.5586 46.4257C27.2461 46.4647 26.958 46.538 26.6943 46.6454C26.4307 46.7528 26.2012 46.8749 26.0059 47.0116V46.8944C26.0059 46.7577 25.9619 46.6454 25.874 46.5575C25.7861 46.4696 25.6738 46.4257 25.5371 46.4257C25.3809 46.4257 25.2588 46.4696 25.1709 46.5575C25.083 46.6454 25.0391 46.7577 25.0391 46.8944V47.9198C25.0391 47.9393 25.0391 47.9637 25.0391 47.993C25.0391 48.0223 25.0391 48.0565 25.0391 48.0956C24.8633 48.2714 24.7363 48.4716 24.6582 48.6962C24.5801 48.9208 24.5117 49.16 24.4531 49.4139H23.9258V21.4061ZM27.7344 47.451C27.7539 47.451 27.7686 47.451 27.7783 47.451C27.7881 47.451 27.8125 47.451 27.8516 47.451C27.8711 47.451 27.8857 47.451 27.8955 47.451C27.9053 47.451 27.9297 47.451 27.9688 47.451C28.1055 47.451 28.2178 47.4071 28.3057 47.3192C28.3936 47.2313 28.4375 47.1093 28.4375 46.953C28.4375 46.2499 28.6816 45.6591 29.1699 45.1805C29.6582 44.702 30.2441 44.4628 30.9277 44.4628C31.5527 44.4628 32.0996 44.663 32.5684 45.0634C33.0371 45.4637 33.3008 45.9764 33.3594 46.6014C33.3984 46.66 33.4326 46.7186 33.4619 46.7772C33.4912 46.8358 33.5352 46.8749 33.5938 46.8944C33.5938 46.8944 33.6035 46.8944 33.623 46.8944C33.6426 46.8944 33.6523 46.8944 33.6523 46.8944C33.6523 46.8944 33.6621 46.8944 33.6816 46.8944C33.7012 46.8944 33.7109 46.8944 33.7109 46.8944C33.75 46.8944 33.7744 46.8944 33.7842 46.8944C33.7939 46.8944 33.8086 46.8944 33.8281 46.8944C33.9258 46.8944 34.0088 46.8798 34.0771 46.8505C34.1455 46.8212 34.209 46.7577 34.2676 46.66L34.3262 46.6014C34.5215 46.3671 34.7559 46.1815 35.0293 46.0448C35.3027 45.9081 35.5957 45.8397 35.9082 45.8397C36.1035 45.8397 36.2744 45.8641 36.4209 45.913C36.5674 45.9618 36.7188 46.035 36.875 46.1327C36.582 46.4061 36.3477 46.7235 36.1719 47.0848C35.9961 47.4462 35.9082 47.8221 35.9082 48.2128C35.9082 48.2323 35.9082 48.2616 35.9082 48.3007C35.9082 48.3397 35.9082 48.369 35.9082 48.3885C35.9082 48.5643 35.9229 48.7303 35.9521 48.8866C35.9814 49.0428 36.0352 49.2186 36.1133 49.4139H25.4785C25.5957 48.8671 25.8594 48.4081 26.2695 48.037C26.6797 47.6659 27.168 47.4706 27.7344 47.451ZM37.2852 49.4139C37.207 49.2577 37.1387 49.0819 37.0801 48.8866C37.0215 48.6913 36.9922 48.5057 36.9922 48.33C36.9922 48.0565 37.0459 47.7928 37.1533 47.5389C37.2607 47.285 37.4023 47.0702 37.5781 46.8944C37.6172 46.8749 37.6514 46.8505 37.6807 46.8212C37.71 46.7919 37.7539 46.7577 37.8125 46.7186C37.8516 46.7186 37.8955 46.7186 37.9443 46.7186C37.9932 46.7186 38.0273 46.6991 38.0469 46.66C38.6133 46.3671 39.1699 46.3329 39.7168 46.5575C40.2637 46.7821 40.6445 47.1776 40.8594 47.744C40.8789 47.8221 40.9229 47.8905 40.9912 47.9491C41.0596 48.0077 41.1719 48.037 41.3281 48.037C41.3672 48.037 41.4014 48.0321 41.4307 48.0223C41.46 48.0126 41.4844 47.9979 41.5039 47.9784C41.5625 47.9784 41.6211 47.954 41.6797 47.9052C41.7383 47.8563 41.7773 47.8026 41.7969 47.744C41.8945 47.5292 42.0117 47.3436 42.1484 47.1874C42.2852 47.0311 42.4512 46.8944 42.6465 46.7772C42.666 46.7772 42.6904 46.7675 42.7197 46.7479C42.749 46.7284 42.7832 46.6991 42.8223 46.66C42.998 46.5819 43.1787 46.5233 43.3643 46.4843C43.5498 46.4452 43.7402 46.4257 43.9355 46.4257C44.6582 46.4257 45.2539 46.6698 45.7227 47.1581C46.1914 47.6464 46.4258 48.2323 46.4258 48.9159C46.4258 49.0135 46.4258 49.1014 46.4258 49.1796C46.4258 49.2577 46.4062 49.3358 46.3672 49.4139H37.2852ZM36.4648 33.4178C36.3086 33.4178 36.1865 33.4618 36.0986 33.5497C36.0107 33.6376 35.9668 33.7499 35.9668 33.8866V34.912C35.9668 35.0487 36.0107 35.161 36.0986 35.2489C36.1865 35.3368 36.3086 35.3807 36.4648 35.3807C36.6016 35.3807 36.7139 35.3368 36.8018 35.2489C36.8896 35.161 36.9336 35.0487 36.9336 34.912V33.8866C36.9336 33.7499 36.8896 33.6376 36.8018 33.5497C36.7139 33.4618 36.6016 33.4178 36.4648 33.4178ZM36.4648 42.3827C36.3086 42.3827 36.1865 42.4266 36.0986 42.5145C36.0107 42.6024 35.9668 42.7147 35.9668 42.8514V43.8768C35.9668 44.0331 36.0107 44.1503 36.0986 44.2284C36.1865 44.3065 36.3086 44.3456 36.4648 44.3456C36.6016 44.3456 36.7139 44.3065 36.8018 44.2284C36.8896 44.1503 36.9336 44.0331 36.9336 43.8768V42.8514C36.9336 42.7343 36.8896 42.6268 36.8018 42.5292C36.7139 42.4315 36.6016 42.3827 36.4648 42.3827ZM36.4648 36.3768C36.3086 36.3768 36.1865 36.4208 36.0986 36.5087C36.0107 36.5966 35.9668 36.7186 35.9668 36.8749V37.871C35.9668 38.0272 36.0107 38.1444 36.0986 38.2225C36.1865 38.3007 36.3086 38.3397 36.4648 38.3397C36.6016 38.3397 36.7139 38.3007 36.8018 38.2225C36.8896 38.1444 36.9336 38.0272 36.9336 37.871V36.8749C36.9336 36.7577 36.8896 36.6454 36.8018 36.538C36.7139 36.4305 36.6016 36.3768 36.4648 36.3768ZM36.4648 39.4237C36.3086 39.4237 36.1865 39.4628 36.0986 39.5409C36.0107 39.619 35.9668 39.7362 35.9668 39.8925V40.9178C35.9668 41.0546 36.0107 41.1669 36.0986 41.2548C36.1865 41.3427 36.3086 41.3866 36.4648 41.3866C36.6016 41.3866 36.7139 41.3427 36.8018 41.2548C36.8896 41.1669 36.9336 41.0546 36.9336 40.9178V39.8925C36.9336 39.7362 36.8896 39.619 36.8018 39.5409C36.7139 39.4628 36.6016 39.4237 36.4648 39.4237ZM36.4648 30.4003C36.3086 30.4003 36.1865 30.4393 36.0986 30.5175C36.0107 30.5956 35.9668 30.7128 35.9668 30.869V31.8651C35.9668 32.0214 36.0107 32.1434 36.0986 32.2313C36.1865 32.3192 36.3086 32.3632 36.4648 32.3632C36.6016 32.3632 36.7139 32.3192 36.8018 32.2313C36.8896 32.1434 36.9336 32.0214 36.9336 31.8651V30.869C36.9336 30.7518 36.8896 30.6444 36.8018 30.5468C36.7139 30.4491 36.6016 30.4003 36.4648 30.4003ZM39.4238 35.3807C39.5801 35.3807 39.6973 35.3368 39.7754 35.2489C39.8535 35.161 39.8926 35.0487 39.8926 34.912V33.8866C39.8926 33.7499 39.8535 33.6376 39.7754 33.5497C39.6973 33.4618 39.5801 33.4178 39.4238 33.4178C39.2676 33.4178 39.1504 33.4618 39.0723 33.5497C38.9941 33.6376 38.9551 33.7499 38.9551 33.8866V34.912C38.9551 35.0487 38.9941 35.161 39.0723 35.2489C39.1504 35.3368 39.2676 35.3807 39.4238 35.3807ZM39.4238 32.4218C39.5801 32.4218 39.6973 32.3778 39.7754 32.2899C39.8535 32.202 39.8926 32.08 39.8926 31.9237V30.9276C39.8926 30.7714 39.8535 30.6542 39.7754 30.576C39.6973 30.4979 39.5801 30.4589 39.4238 30.4589C39.2676 30.4589 39.1504 30.4979 39.0723 30.576C38.9941 30.6542 38.9551 30.7714 38.9551 30.9276V31.9237C38.9551 32.08 38.9941 32.202 39.0723 32.2899C39.1504 32.3778 39.2676 32.4218 39.4238 32.4218ZM39.4238 38.3983C39.5801 38.3983 39.6973 38.3593 39.7754 38.2811C39.8535 38.203 39.8926 38.0858 39.8926 37.9296V36.9335C39.8926 36.7772 39.8535 36.6552 39.7754 36.5673C39.6973 36.4794 39.5801 36.4354 39.4238 36.4354C39.2676 36.4354 39.1504 36.4794 39.0723 36.5673C38.9941 36.6552 38.9551 36.7772 38.9551 36.9335V37.9296C38.9551 38.0858 38.9941 38.203 39.0723 38.2811C39.1504 38.3593 39.2676 38.3983 39.4238 38.3983ZM39.4238 41.3866C39.5801 41.3866 39.6973 41.3427 39.7754 41.2548C39.8535 41.1669 39.8926 41.0546 39.8926 40.9178V39.8925C39.8926 39.7362 39.8535 39.619 39.7754 39.5409C39.6973 39.4628 39.5801 39.4237 39.4238 39.4237C39.2676 39.4237 39.1504 39.4628 39.0723 39.5409C38.9941 39.619 38.9551 39.7362 38.9551 39.8925V40.9178C38.9551 41.0546 38.9941 41.1669 39.0723 41.2548C39.1504 41.3427 39.2676 41.3866 39.4238 41.3866ZM39.4238 44.4042C39.5801 44.4042 39.6973 44.3651 39.7754 44.287C39.8535 44.2089 39.8926 44.0917 39.8926 43.9354V42.9393C39.8926 42.7831 39.8535 42.661 39.7754 42.5731C39.6973 42.4852 39.5801 42.4413 39.4238 42.4413C39.2676 42.4413 39.1504 42.4852 39.0723 42.5731C38.9941 42.661 38.9551 42.7831 38.9551 42.9393V43.9354C38.9551 44.0917 38.9941 44.2089 39.0723 44.287C39.1504 44.3651 39.2676 44.4042 39.4238 44.4042ZM42.4707 38.3983C42.6074 38.3983 42.7197 38.3593 42.8076 38.2811C42.8955 38.203 42.9395 38.0858 42.9395 37.9296V36.9335C42.9395 36.7772 42.8955 36.6552 42.8076 36.5673C42.7197 36.4794 42.6074 36.4354 42.4707 36.4354C42.3145 36.4354 42.1924 36.4794 42.1045 36.5673C42.0166 36.6552 41.9727 36.7772 41.9727 36.9335V37.9296C41.9531 38.0858 41.9922 38.203 42.0898 38.2811C42.1875 38.3593 42.3145 38.3983 42.4707 38.3983ZM42.4707 35.3807C42.6074 35.3807 42.7197 35.3368 42.8076 35.2489C42.8955 35.161 42.9395 35.0487 42.9395 34.912V33.8866C42.9395 33.7499 42.8955 33.6376 42.8076 33.5497C42.7197 33.4618 42.6074 33.4178 42.4707 33.4178C42.3145 33.4178 42.1924 33.4618 42.1045 33.5497C42.0166 33.6376 41.9727 33.7499 41.9727 33.8866V34.912C41.9531 35.0487 41.9922 35.161 42.0898 35.2489C42.1875 35.3368 42.3145 35.3807 42.4707 35.3807ZM42.4707 44.4042C42.6074 44.4042 42.7197 44.3651 42.8076 44.287C42.8955 44.2089 42.9395 44.0917 42.9395 43.9354V42.9393C42.9395 42.7831 42.8955 42.661 42.8076 42.5731C42.7197 42.4852 42.6074 42.4413 42.4707 42.4413C42.3145 42.4413 42.1924 42.4852 42.1045 42.5731C42.0166 42.661 41.9727 42.7831 41.9727 42.9393V43.9354C41.9531 44.0917 41.9922 44.2089 42.0898 44.287C42.1875 44.3651 42.3145 44.4042 42.4707 44.4042ZM42.4707 41.3866C42.6074 41.3866 42.7197 41.3427 42.8076 41.2548C42.8955 41.1669 42.9395 41.0546 42.9395 40.9178V39.8925C42.9395 39.7362 42.8955 39.619 42.8076 39.5409C42.7197 39.4628 42.6074 39.4237 42.4707 39.4237C42.3145 39.4237 42.1924 39.4628 42.1045 39.5409C42.0166 39.619 41.9727 39.7362 41.9727 39.8925V40.9178C41.9531 41.0546 41.9922 41.1669 42.0898 41.2548C42.1875 41.3427 42.3145 41.3866 42.4707 41.3866ZM42.4707 32.4218C42.6074 32.4218 42.7197 32.3778 42.8076 32.2899C42.8955 32.202 42.9395 32.08 42.9395 31.9237V30.9276C42.9395 30.7714 42.8955 30.6542 42.8076 30.576C42.7197 30.4979 42.6074 30.4589 42.4707 30.4589C42.3145 30.4589 42.1924 30.4979 42.1045 30.576C42.0166 30.6542 41.9727 30.7714 41.9727 30.9276V31.9237C41.9531 32.08 41.9922 32.202 42.0898 32.2899C42.1875 32.3778 42.3145 32.4218 42.4707 32.4218ZM25.4785 39.4237C25.6152 39.4237 25.7275 39.3798 25.8154 39.2919C25.9033 39.204 25.9473 39.0917 25.9473 38.955V37.9296C25.9473 37.7928 25.9033 37.6805 25.8154 37.5927C25.7275 37.5048 25.6152 37.4608 25.4785 37.4608C25.3223 37.4608 25.2002 37.5048 25.1123 37.5927C25.0244 37.6805 24.9805 37.7928 24.9805 37.9296V38.955C24.9609 39.0721 25 39.1796 25.0977 39.2772C25.1953 39.3749 25.3223 39.4237 25.4785 39.4237ZM25.4785 42.3827C25.6152 42.3827 25.7275 42.3436 25.8154 42.2655C25.9033 42.1874 25.9473 42.0702 25.9473 41.9139V40.9178C25.9473 40.7616 25.9033 40.6395 25.8154 40.5516C25.7275 40.4637 25.6152 40.4198 25.4785 40.4198C25.3223 40.4198 25.2002 40.4637 25.1123 40.5516C25.0244 40.6395 24.9805 40.7616 24.9805 40.9178V41.9139C24.9609 42.0702 25 42.1874 25.0977 42.2655C25.1953 42.3436 25.3223 42.3827 25.4785 42.3827ZM25.4785 45.4296C25.6152 45.4296 25.7275 45.3856 25.8154 45.2977C25.9033 45.2098 25.9473 45.0878 25.9473 44.9315V43.9354C25.9473 43.7792 25.9033 43.662 25.8154 43.5839C25.7275 43.5057 25.6152 43.4667 25.4785 43.4667C25.3223 43.4667 25.2002 43.5057 25.1123 43.5839C25.0244 43.662 24.9805 43.7792 24.9805 43.9354V44.9315C24.9609 45.0682 25 45.1854 25.0977 45.2831C25.1953 45.3807 25.3223 45.4296 25.4785 45.4296ZM25.4785 24.3944C25.6152 24.3944 25.7275 24.3505 25.8154 24.2626C25.9033 24.1747 25.9473 24.0624 25.9473 23.9257V22.9003C25.9473 22.7635 25.9033 22.6512 25.8154 22.5634C25.7275 22.4755 25.6152 22.4315 25.4785 22.4315C25.3223 22.4315 25.2002 22.4755 25.1123 22.5634C25.0244 22.6512 24.9805 22.7635 24.9805 22.9003V23.9257C24.9609 24.0624 25 24.1747 25.0977 24.2626C25.1953 24.3505 25.3223 24.3944 25.4785 24.3944ZM25.4785 27.412C25.6152 27.412 25.7275 27.3729 25.8154 27.2948C25.9033 27.2167 25.9473 27.0995 25.9473 26.9432V25.9471C25.9473 25.7909 25.9033 25.6688 25.8154 25.5809C25.7275 25.493 25.6152 25.4491 25.4785 25.4491C25.3223 25.4491 25.2002 25.493 25.1123 25.5809C25.0244 25.6688 24.9805 25.7909 24.9805 25.9471V26.9432C24.9609 27.0604 25 27.1678 25.0977 27.2655C25.1953 27.3632 25.3223 27.412 25.4785 27.412ZM25.4785 30.4003C25.6152 30.4003 25.7275 30.3563 25.8154 30.2684C25.9033 30.1805 25.9473 30.0585 25.9473 29.9022V28.9061C25.9473 28.7499 25.9033 28.6327 25.8154 28.5546C25.7275 28.4764 25.6152 28.4374 25.4785 28.4374C25.3223 28.4374 25.2002 28.4764 25.1123 28.5546C25.0244 28.6327 24.9805 28.7499 24.9805 28.9061V29.9022C24.9609 30.0585 25 30.1805 25.0977 30.2684C25.1953 30.3563 25.3223 30.4003 25.4785 30.4003ZM25.4785 33.4178C25.6152 33.4178 25.7275 33.3739 25.8154 33.286C25.9033 33.1981 25.9473 33.0858 25.9473 32.9491V31.9237C25.9473 31.787 25.9033 31.6747 25.8154 31.5868C25.7275 31.4989 25.6152 31.455 25.4785 31.455C25.3223 31.455 25.2002 31.4989 25.1123 31.5868C25.0244 31.6747 24.9805 31.787 24.9805 31.9237V32.8905C24.9609 33.0272 25 33.1493 25.0977 33.2567C25.1953 33.3641 25.3223 33.4178 25.4785 33.4178ZM25.4785 36.3768C25.6152 36.3768 25.7275 36.3378 25.8154 36.2596C25.9033 36.1815 25.9473 36.0643 25.9473 35.9081V34.912C25.9473 34.7557 25.9033 34.6385 25.8154 34.5604C25.7275 34.4823 25.6152 34.4432 25.4785 34.4432C25.3223 34.4432 25.2002 34.4823 25.1123 34.5604C25.0244 34.6385 24.9805 34.7557 24.9805 34.912V35.9081C24.9609 36.0643 25 36.1815 25.0977 36.2596C25.1953 36.3378 25.3223 36.3768 25.4785 36.3768ZM28.4375 27.412C28.5938 27.412 28.7109 27.3729 28.7891 27.2948C28.8672 27.2167 28.9062 27.0995 28.9062 26.9432V25.9471C28.9062 25.7909 28.8672 25.6688 28.7891 25.5809C28.7109 25.493 28.5938 25.4491 28.4375 25.4491C28.2812 25.4491 28.1641 25.493 28.0859 25.5809C28.0078 25.6688 27.9688 25.7909 27.9688 25.9471V26.9432C27.9688 27.0604 28.0078 27.1678 28.0859 27.2655C28.1641 27.3632 28.2812 27.412 28.4375 27.412ZM28.4375 24.3944C28.5938 24.3944 28.7109 24.3505 28.7891 24.2626C28.8672 24.1747 28.9062 24.0624 28.9062 23.9257V22.9003C28.9062 22.7635 28.8672 22.6512 28.7891 22.5634C28.7109 22.4755 28.5938 22.4315 28.4375 22.4315C28.2812 22.4315 28.1641 22.4755 28.0859 22.5634C28.0078 22.6512 27.9688 22.7635 27.9688 22.9003V23.9257C27.9688 24.0624 28.0078 24.1747 28.0859 24.2626C28.1641 24.3505 28.2812 24.3944 28.4375 24.3944ZM28.4375 33.4178C28.5938 33.4178 28.7109 33.3739 28.7891 33.286C28.8672 33.1981 28.9062 33.0858 28.9062 32.9491V31.9237C28.9062 31.787 28.8672 31.6747 28.7891 31.5868C28.7109 31.4989 28.5938 31.455 28.4375 31.455C28.2812 31.455 28.1641 31.4989 28.0859 31.5868C28.0078 31.6747 27.9688 31.787 27.9688 31.9237V32.8905C27.9688 33.0272 28.0078 33.1493 28.0859 33.2567C28.1641 33.3641 28.2812 33.4178 28.4375 33.4178ZM28.4375 30.4003C28.5938 30.4003 28.7109 30.3563 28.7891 30.2684C28.8672 30.1805 28.9062 30.0585 28.9062 29.9022V28.9061C28.9062 28.7499 28.8672 28.6327 28.7891 28.5546C28.7109 28.4764 28.5938 28.4374 28.4375 28.4374C28.2812 28.4374 28.1641 28.4764 28.0859 28.5546C28.0078 28.6327 27.9688 28.7499 27.9688 28.9061V29.9022C27.9688 30.0585 28.0078 30.1805 28.0859 30.2684C28.1641 30.3563 28.2812 30.4003 28.4375 30.4003ZM28.4375 36.3768C28.5938 36.3768 28.7109 36.3378 28.7891 36.2596C28.8672 36.1815 28.9062 36.0643 28.9062 35.9081V34.912C28.9062 34.7557 28.8672 34.6385 28.7891 34.5604C28.7109 34.4823 28.5938 34.4432 28.4375 34.4432C28.2812 34.4432 28.1641 34.4823 28.0859 34.5604C28.0078 34.6385 27.9688 34.7557 27.9688 34.912V35.9081C27.9688 36.0643 28.0078 36.1815 28.0859 36.2596C28.1641 36.3378 28.2812 36.3768 28.4375 36.3768ZM28.4375 39.4237C28.5938 39.4237 28.7109 39.3798 28.7891 39.2919C28.8672 39.204 28.9062 39.0917 28.9062 38.955V37.9296C28.9062 37.7928 28.8672 37.6805 28.7891 37.5927C28.7109 37.5048 28.5938 37.4608 28.4375 37.4608C28.2812 37.4608 28.1641 37.5048 28.0859 37.5927C28.0078 37.6805 27.9688 37.7928 27.9688 37.9296V38.955C27.9688 39.0721 28.0078 39.1796 28.0859 39.2772C28.1641 39.3749 28.2812 39.4237 28.4375 39.4237ZM28.4375 42.3827C28.5938 42.3827 28.7109 42.3436 28.7891 42.2655C28.8672 42.1874 28.9062 42.0702 28.9062 41.9139V40.9178C28.9062 40.7616 28.8672 40.6395 28.7891 40.5516C28.7109 40.4637 28.5938 40.4198 28.4375 40.4198C28.2812 40.4198 28.1641 40.4637 28.0859 40.5516C28.0078 40.6395 27.9688 40.7616 27.9688 40.9178V41.9139C27.9688 42.0702 28.0078 42.1874 28.0859 42.2655C28.1641 42.3436 28.2812 42.3827 28.4375 42.3827ZM31.4551 30.4003C31.6113 30.4003 31.7334 30.3563 31.8213 30.2684C31.9092 30.1805 31.9531 30.0585 31.9531 29.9022V28.9061C31.9531 28.7499 31.9092 28.6327 31.8213 28.5546C31.7334 28.4764 31.6113 28.4374 31.4551 28.4374C31.3184 28.4374 31.2061 28.4764 31.1182 28.5546C31.0303 28.6327 30.9863 28.7499 30.9863 28.9061V29.9022C30.9668 30.0585 31.0059 30.1805 31.1035 30.2684C31.2012 30.3563 31.3184 30.4003 31.4551 30.4003ZM31.4551 27.412C31.6113 27.412 31.7334 27.3729 31.8213 27.2948C31.9092 27.2167 31.9531 27.0995 31.9531 26.9432V25.9471C31.9531 25.7909 31.9092 25.6688 31.8213 25.5809C31.7334 25.493 31.6113 25.4491 31.4551 25.4491C31.3184 25.4491 31.2061 25.493 31.1182 25.5809C31.0303 25.6688 30.9863 25.7909 30.9863 25.9471V26.9432C30.9668 27.0604 31.0059 27.1678 31.1035 27.2655C31.2012 27.3632 31.3184 27.412 31.4551 27.412ZM31.4551 24.3944C31.6113 24.3944 31.7334 24.3505 31.8213 24.2626C31.9092 24.1747 31.9531 24.0624 31.9531 23.9257V22.9003C31.9531 22.7635 31.9092 22.6512 31.8213 22.5634C31.7334 22.4755 31.6113 22.4315 31.4551 22.4315C31.3184 22.4315 31.2061 22.4755 31.1182 22.5634C31.0303 22.6512 30.9863 22.7635 30.9863 22.9003V23.9257C30.9668 24.0624 31.0059 24.1747 31.1035 24.2626C31.2012 24.3505 31.3184 24.3944 31.4551 24.3944ZM31.4551 42.3827C31.6113 42.3827 31.7334 42.3436 31.8213 42.2655C31.9092 42.1874 31.9531 42.0702 31.9531 41.9139V40.9178C31.9531 40.7616 31.9092 40.6395 31.8213 40.5516C31.7334 40.4637 31.6113 40.4198 31.4551 40.4198C31.3184 40.4198 31.2061 40.4637 31.1182 40.5516C31.0303 40.6395 30.9863 40.7616 30.9863 40.9178V41.9139C30.9668 42.0702 31.0059 42.1874 31.1035 42.2655C31.2012 42.3436 31.3184 42.3827 31.4551 42.3827ZM31.4551 39.4237C31.6113 39.4237 31.7334 39.3798 31.8213 39.2919C31.9092 39.204 31.9531 39.0917 31.9531 38.955V37.9296C31.9531 37.7928 31.9092 37.6805 31.8213 37.5927C31.7334 37.5048 31.6113 37.4608 31.4551 37.4608C31.3184 37.4608 31.2061 37.5048 31.1182 37.5927C31.0303 37.6805 30.9863 37.7928 30.9863 37.9296V38.955C30.9668 39.0721 31.0059 39.1796 31.1035 39.2772C31.2012 39.3749 31.3184 39.4237 31.4551 39.4237ZM31.4551 36.3768C31.6113 36.3768 31.7334 36.3378 31.8213 36.2596C31.9092 36.1815 31.9531 36.0643 31.9531 35.9081V34.912C31.9531 34.7557 31.9092 34.6385 31.8213 34.5604C31.7334 34.4823 31.6113 34.4432 31.4551 34.4432C31.3184 34.4432 31.2061 34.4823 31.1182 34.5604C31.0303 34.6385 30.9863 34.7557 30.9863 34.912V35.9081C30.9668 36.0643 31.0059 36.1815 31.1035 36.2596C31.2012 36.3378 31.3184 36.3768 31.4551 36.3768ZM31.4551 33.4178C31.6113 33.4178 31.7334 33.3739 31.8213 33.286C31.9092 33.1981 31.9531 33.0858 31.9531 32.9491V31.9237C31.9531 31.787 31.9092 31.6747 31.8213 31.5868C31.7334 31.4989 31.6113 31.455 31.4551 31.455C31.3184 31.455 31.2061 31.4989 31.1182 31.5868C31.0303 31.6747 30.9863 31.787 30.9863 31.9237V32.8905C30.9668 33.0272 31.0059 33.1493 31.1035 33.2567C31.2012 33.3641 31.3184 33.4178 31.4551 33.4178ZM34.4434 27.412C34.5801 27.412 34.6924 27.3729 34.7803 27.2948C34.8682 27.2167 34.9121 27.0995 34.9121 26.9432V25.9471C34.9121 25.7909 34.8682 25.6688 34.7803 25.5809C34.6924 25.493 34.5801 25.4491 34.4434 25.4491C34.2871 25.4491 34.1699 25.493 34.0918 25.5809C34.0137 25.6688 33.9746 25.7909 33.9746 25.9471V26.9432C33.9746 27.0604 34.0137 27.1678 34.0918 27.2655C34.1699 27.3632 34.2871 27.412 34.4434 27.412ZM34.4434 24.3944C34.5801 24.3944 34.6924 24.3505 34.7803 24.2626C34.8682 24.1747 34.9121 24.0624 34.9121 23.9257V22.9003C34.9121 22.7635 34.8682 22.6512 34.7803 22.5634C34.6924 22.4755 34.5801 22.4315 34.4434 22.4315C34.2871 22.4315 34.1699 22.4755 34.0918 22.5634C34.0137 22.6512 33.9746 22.7635 33.9746 22.9003V23.9257C33.9746 24.0624 34.0137 24.1747 34.0918 24.2626C34.1699 24.3505 34.2871 24.3944 34.4434 24.3944Z" fill="white"/>
</g>
<defs>
<clipPath id="clip0_68_908">
<rect width="30" height="30" fill="white" transform="matrix(1 0 0 -1 20 50.41)"/>
</clipPath>
</defs>
</svg>
