<svg width="125" height="78" viewBox="0 0 125 78" fill="none" xmlns="http://www.w3.org/2000/svg">
<path d="M18.4957 62C18.3197 61.704 18.1157 61.372 17.8837 61.004C17.6597 60.636 17.4157 60.256 17.1517 59.864C16.8877 59.464 16.6117 59.06 16.3237 58.652C16.0437 58.244 15.7637 57.852 15.4837 57.476C15.2037 57.092 14.9317 56.732 14.6677 56.396C14.4037 56.06 14.1597 55.764 13.9357 55.508V62H12.7957V53.684H13.7197C14.0957 54.084 14.4957 54.552 14.9197 55.088C15.3517 55.616 15.7757 56.164 16.1917 56.732C16.6157 57.292 17.0117 57.844 17.3797 58.388C17.7557 58.932 18.0717 59.416 18.3277 59.84V53.684H19.4677V62H18.4957ZM21.1061 58.892C21.1061 58.34 21.1861 57.86 21.3461 57.452C21.5061 57.036 21.7181 56.692 21.9821 56.42C22.2461 56.148 22.5501 55.944 22.8941 55.808C23.2381 55.672 23.5901 55.604 23.9501 55.604C24.7901 55.604 25.4341 55.868 25.8821 56.396C26.3301 56.916 26.5541 57.712 26.5541 58.784C26.5541 58.832 26.5541 58.896 26.5541 58.976C26.5541 59.048 26.5501 59.116 26.5421 59.18H22.2701C22.3181 59.828 22.5061 60.32 22.8341 60.656C23.1621 60.992 23.6741 61.16 24.3701 61.16C24.7621 61.16 25.0901 61.128 25.3541 61.064C25.6261 60.992 25.8301 60.924 25.9661 60.86L26.1221 61.796C25.9861 61.868 25.7461 61.944 25.4021 62.024C25.0661 62.104 24.6821 62.144 24.2501 62.144C23.7061 62.144 23.2341 62.064 22.8341 61.904C22.4421 61.736 22.1181 61.508 21.8621 61.22C21.6061 60.932 21.4141 60.592 21.2861 60.2C21.1661 59.8 21.1061 59.364 21.1061 58.892ZM25.3901 58.28C25.3981 57.776 25.2701 57.364 25.0061 57.044C24.7501 56.716 24.3941 56.552 23.9381 56.552C23.6821 56.552 23.4541 56.604 23.2541 56.708C23.0621 56.804 22.8981 56.932 22.7621 57.092C22.6261 57.252 22.5181 57.436 22.4381 57.644C22.3661 57.852 22.3181 58.064 22.2941 58.28H25.3901ZM28.1573 55.94C28.4133 55.876 28.7533 55.808 29.1773 55.736C29.6013 55.664 30.0893 55.628 30.6413 55.628C31.1373 55.628 31.5493 55.7 31.8773 55.844C32.2053 55.98 32.4653 56.176 32.6573 56.432C32.8573 56.68 32.9973 56.98 33.0773 57.332C33.1573 57.684 33.1973 58.072 33.1973 58.496V62H32.0813V58.736C32.0813 58.352 32.0533 58.024 31.9973 57.752C31.9493 57.48 31.8653 57.26 31.7453 57.092C31.6253 56.924 31.4653 56.804 31.2653 56.732C31.0653 56.652 30.8173 56.612 30.5213 56.612C30.4013 56.612 30.2773 56.616 30.1493 56.624C30.0213 56.632 29.8973 56.644 29.7773 56.66C29.6653 56.668 29.5613 56.68 29.4653 56.696C29.3773 56.712 29.3133 56.724 29.2733 56.732V62H28.1573V55.94ZM35.0479 62V52.88L36.1639 52.688V55.88C36.3719 55.8 36.5919 55.74 36.8239 55.7C37.0639 55.652 37.2999 55.628 37.5319 55.628C38.0279 55.628 38.4399 55.7 38.7679 55.844C39.0959 55.98 39.3559 56.176 39.5479 56.432C39.7479 56.68 39.8879 56.98 39.9679 57.332C40.0479 57.684 40.0879 58.072 40.0879 58.496V62H38.9719V58.736C38.9719 58.352 38.9439 58.024 38.8879 57.752C38.8399 57.48 38.7559 57.26 38.6359 57.092C38.5159 56.924 38.3559 56.804 38.1559 56.732C37.9559 56.652 37.7079 56.612 37.4119 56.612C37.2919 56.612 37.1679 56.62 37.0399 56.636C36.9119 56.652 36.7879 56.672 36.6679 56.696C36.5559 56.712 36.4519 56.732 36.3559 56.756C36.2679 56.78 36.2039 56.8 36.1639 56.816V62H35.0479ZM46.8714 61.82C46.6154 61.884 46.2754 61.952 45.8514 62.024C45.4354 62.096 44.9514 62.132 44.3994 62.132C43.9194 62.132 43.5154 62.064 43.1874 61.928C42.8594 61.784 42.5954 61.584 42.3954 61.328C42.1954 61.072 42.0514 60.772 41.9634 60.428C41.8754 60.076 41.8314 59.688 41.8314 59.264V55.76H42.9474V59.024C42.9474 59.784 43.0674 60.328 43.3074 60.656C43.5474 60.984 43.9514 61.148 44.5194 61.148C44.6394 61.148 44.7634 61.144 44.8914 61.136C45.0194 61.128 45.1394 61.12 45.2514 61.112C45.3634 61.096 45.4634 61.084 45.5514 61.076C45.6474 61.06 45.7154 61.044 45.7554 61.028V55.76H46.8714V61.82ZM48.794 55.94C49.05 55.876 49.386 55.808 49.802 55.736C50.226 55.664 50.714 55.628 51.266 55.628C51.666 55.628 52.002 55.684 52.274 55.796C52.546 55.9 52.774 56.056 52.958 56.264C53.014 56.224 53.102 56.168 53.222 56.096C53.342 56.024 53.49 55.956 53.666 55.892C53.842 55.82 54.038 55.76 54.254 55.712C54.47 55.656 54.702 55.628 54.95 55.628C55.43 55.628 55.822 55.7 56.126 55.844C56.43 55.98 56.666 56.176 56.834 56.432C57.01 56.688 57.126 56.992 57.182 57.344C57.246 57.696 57.278 58.08 57.278 58.496V62H56.162V58.736C56.162 58.368 56.142 58.052 56.102 57.788C56.07 57.524 56.002 57.304 55.898 57.128C55.802 56.952 55.666 56.824 55.49 56.744C55.322 56.656 55.102 56.612 54.83 56.612C54.454 56.612 54.142 56.664 53.894 56.768C53.654 56.864 53.49 56.952 53.402 57.032C53.466 57.24 53.514 57.468 53.546 57.716C53.578 57.964 53.594 58.224 53.594 58.496V62H52.478V58.736C52.478 58.368 52.458 58.052 52.418 57.788C52.378 57.524 52.306 57.304 52.202 57.128C52.106 56.952 51.97 56.824 51.794 56.744C51.626 56.656 51.41 56.612 51.146 56.612C51.034 56.612 50.914 56.616 50.786 56.624C50.658 56.632 50.534 56.644 50.414 56.66C50.302 56.668 50.198 56.68 50.102 56.696C50.006 56.712 49.942 56.724 49.91 56.732V62H48.794V55.94ZM61.2419 61.196C61.5059 61.196 61.7379 61.192 61.9379 61.184C62.1459 61.168 62.3179 61.144 62.4539 61.112V59.252C62.3739 59.212 62.2419 59.18 62.0579 59.156C61.8819 59.124 61.6659 59.108 61.4099 59.108C61.2419 59.108 61.0619 59.12 60.8699 59.144C60.6859 59.168 60.5139 59.22 60.3539 59.3C60.2019 59.372 60.0739 59.476 59.9699 59.612C59.8659 59.74 59.8139 59.912 59.8139 60.128C59.8139 60.528 59.9419 60.808 60.1979 60.968C60.4539 61.12 60.8019 61.196 61.2419 61.196ZM61.1459 55.604C61.5939 55.604 61.9699 55.664 62.2739 55.784C62.5859 55.896 62.8339 56.06 63.0179 56.276C63.2099 56.484 63.3459 56.736 63.4259 57.032C63.5059 57.32 63.5459 57.64 63.5459 57.992V61.892C63.4499 61.908 63.3139 61.932 63.1379 61.964C62.9699 61.988 62.7779 62.012 62.5619 62.036C62.3459 62.06 62.1099 62.08 61.8539 62.096C61.6059 62.12 61.3579 62.132 61.1099 62.132C60.7579 62.132 60.4339 62.096 60.1379 62.024C59.8419 61.952 59.5859 61.84 59.3699 61.688C59.1539 61.528 58.9859 61.32 58.8659 61.064C58.7459 60.808 58.6859 60.5 58.6859 60.14C58.6859 59.796 58.7539 59.5 58.8899 59.252C59.0339 59.004 59.2259 58.804 59.4659 58.652C59.7059 58.5 59.9859 58.388 60.3059 58.316C60.6259 58.244 60.9619 58.208 61.3139 58.208C61.4259 58.208 61.5419 58.216 61.6619 58.232C61.7819 58.24 61.8939 58.256 61.9979 58.28C62.1099 58.296 62.2059 58.312 62.2859 58.328C62.3659 58.344 62.4219 58.356 62.4539 58.364V58.052C62.4539 57.868 62.4339 57.688 62.3939 57.512C62.3539 57.328 62.2819 57.168 62.1779 57.032C62.0739 56.888 61.9299 56.776 61.7459 56.696C61.5699 56.608 61.3379 56.564 61.0499 56.564C60.6819 56.564 60.3579 56.592 60.0779 56.648C59.8059 56.696 59.6019 56.748 59.4659 56.804L59.3339 55.88C59.4779 55.816 59.7179 55.756 60.0539 55.7C60.3899 55.636 60.7539 55.604 61.1459 55.604ZM70.8888 62.144C70.3848 62.144 69.9408 62.064 69.5568 61.904C69.1808 61.744 68.8608 61.52 68.5968 61.232C68.3408 60.944 68.1488 60.604 68.0208 60.212C67.8928 59.812 67.8288 59.372 67.8288 58.892C67.8288 58.412 67.8968 57.972 68.0328 57.572C68.1768 57.172 68.3768 56.828 68.6328 56.54C68.8888 56.244 69.2008 56.016 69.5688 55.856C69.9448 55.688 70.3608 55.604 70.8168 55.604C71.0968 55.604 71.3768 55.628 71.6568 55.676C71.9368 55.724 72.2048 55.8 72.4608 55.904L72.2088 56.852C72.0408 56.772 71.8448 56.708 71.6208 56.66C71.4048 56.612 71.1728 56.588 70.9248 56.588C70.3008 56.588 69.8208 56.784 69.4848 57.176C69.1568 57.568 68.9928 58.14 68.9928 58.892C68.9928 59.228 69.0288 59.536 69.1008 59.816C69.1808 60.096 69.3008 60.336 69.4608 60.536C69.6288 60.736 69.8408 60.892 70.0968 61.004C70.3528 61.108 70.6648 61.16 71.0328 61.16C71.3288 61.16 71.5968 61.132 71.8368 61.076C72.0768 61.02 72.2648 60.96 72.4008 60.896L72.5568 61.832C72.4928 61.872 72.4008 61.912 72.2808 61.952C72.1608 61.984 72.0248 62.012 71.8728 62.036C71.7208 62.068 71.5568 62.092 71.3808 62.108C71.2128 62.132 71.0488 62.144 70.8888 62.144ZM79.1106 58.88C79.1106 59.376 79.0386 59.824 78.8946 60.224C78.7506 60.624 78.5466 60.968 78.2826 61.256C78.0266 61.544 77.7186 61.768 77.3586 61.928C76.9986 62.08 76.6066 62.156 76.1826 62.156C75.7586 62.156 75.3666 62.08 75.0066 61.928C74.6466 61.768 74.3346 61.544 74.0706 61.256C73.8146 60.968 73.6146 60.624 73.4706 60.224C73.3266 59.824 73.2546 59.376 73.2546 58.88C73.2546 58.392 73.3266 57.948 73.4706 57.548C73.6146 57.14 73.8146 56.792 74.0706 56.504C74.3346 56.216 74.6466 55.996 75.0066 55.844C75.3666 55.684 75.7586 55.604 76.1826 55.604C76.6066 55.604 76.9986 55.684 77.3586 55.844C77.7186 55.996 78.0266 56.216 78.2826 56.504C78.5466 56.792 78.7506 57.14 78.8946 57.548C79.0386 57.948 79.1106 58.392 79.1106 58.88ZM77.9466 58.88C77.9466 58.176 77.7866 57.62 77.4666 57.212C77.1546 56.796 76.7266 56.588 76.1826 56.588C75.6386 56.588 75.2066 56.796 74.8866 57.212C74.5746 57.62 74.4186 58.176 74.4186 58.88C74.4186 59.584 74.5746 60.144 74.8866 60.56C75.2066 60.968 75.6386 61.172 76.1826 61.172C76.7266 61.172 77.1546 60.968 77.4666 60.56C77.7866 60.144 77.9466 59.584 77.9466 58.88ZM80.6807 55.94C80.9367 55.876 81.2767 55.808 81.7007 55.736C82.1247 55.664 82.6127 55.628 83.1647 55.628C83.6607 55.628 84.0727 55.7 84.4007 55.844C84.7287 55.98 84.9887 56.176 85.1807 56.432C85.3807 56.68 85.5207 56.98 85.6007 57.332C85.6807 57.684 85.7207 58.072 85.7207 58.496V62H84.6047V58.736C84.6047 58.352 84.5767 58.024 84.5207 57.752C84.4727 57.48 84.3887 57.26 84.2687 57.092C84.1487 56.924 83.9887 56.804 83.7887 56.732C83.5887 56.652 83.3407 56.612 83.0447 56.612C82.9247 56.612 82.8007 56.616 82.6727 56.624C82.5447 56.632 82.4207 56.644 82.3007 56.66C82.1887 56.668 82.0847 56.68 81.9887 56.696C81.9007 56.712 81.8367 56.724 81.7967 56.732V62H80.6807V55.94ZM89.0233 61.196C89.4793 61.196 89.8153 61.136 90.0313 61.016C90.2553 60.896 90.3673 60.704 90.3673 60.44C90.3673 60.168 90.2593 59.952 90.0433 59.792C89.8273 59.632 89.4713 59.452 88.9753 59.252C88.7353 59.156 88.5033 59.06 88.2793 58.964C88.0633 58.86 87.8753 58.74 87.7153 58.604C87.5553 58.468 87.4273 58.304 87.3313 58.112C87.2353 57.92 87.1873 57.684 87.1873 57.404C87.1873 56.852 87.3913 56.416 87.7993 56.096C88.2073 55.768 88.7633 55.604 89.4673 55.604C89.6433 55.604 89.8193 55.616 89.9953 55.64C90.1713 55.656 90.3353 55.68 90.4873 55.712C90.6393 55.736 90.7713 55.764 90.8833 55.796C91.0033 55.828 91.0953 55.856 91.1593 55.88L90.9553 56.84C90.8353 56.776 90.6473 56.712 90.3913 56.648C90.1353 56.576 89.8273 56.54 89.4673 56.54C89.1553 56.54 88.8833 56.604 88.6513 56.732C88.4193 56.852 88.3033 57.044 88.3033 57.308C88.3033 57.444 88.3273 57.564 88.3753 57.668C88.4313 57.772 88.5113 57.868 88.6153 57.956C88.7273 58.036 88.8633 58.112 89.0233 58.184C89.1833 58.256 89.3753 58.332 89.5993 58.412C89.8953 58.524 90.1593 58.636 90.3913 58.748C90.6233 58.852 90.8193 58.976 90.9793 59.12C91.1473 59.264 91.2753 59.44 91.3633 59.648C91.4513 59.848 91.4953 60.096 91.4953 60.392C91.4953 60.968 91.2793 61.404 90.8473 61.7C90.4233 61.996 89.8153 62.144 89.0233 62.144C88.4713 62.144 88.0393 62.096 87.7273 62C87.4153 61.912 87.2033 61.844 87.0913 61.796L87.2953 60.836C87.4233 60.884 87.6273 60.956 87.9073 61.052C88.1873 61.148 88.5593 61.196 89.0233 61.196ZM97.8948 61.82C97.6388 61.884 97.2988 61.952 96.8748 62.024C96.4588 62.096 95.9748 62.132 95.4228 62.132C94.9428 62.132 94.5388 62.064 94.2108 61.928C93.8828 61.784 93.6188 61.584 93.4188 61.328C93.2188 61.072 93.0748 60.772 92.9868 60.428C92.8988 60.076 92.8548 59.688 92.8548 59.264V55.76H93.9708V59.024C93.9708 59.784 94.0908 60.328 94.3308 60.656C94.5708 60.984 94.9748 61.148 95.5428 61.148C95.6628 61.148 95.7868 61.144 95.9148 61.136C96.0428 61.128 96.1628 61.12 96.2748 61.112C96.3868 61.096 96.4868 61.084 96.5748 61.076C96.6708 61.06 96.7388 61.044 96.7788 61.028V55.76H97.8948V61.82ZM101.689 62.12C101.001 62.104 100.513 61.956 100.225 61.676C99.9374 61.396 99.7934 60.96 99.7934 60.368V52.88L100.909 52.688V60.188C100.909 60.372 100.925 60.524 100.957 60.644C100.989 60.764 101.041 60.86 101.113 60.932C101.185 61.004 101.281 61.06 101.401 61.1C101.521 61.132 101.669 61.16 101.845 61.184L101.689 62.12ZM104.143 55.76H106.507V56.696H104.143V59.576C104.143 59.888 104.167 60.148 104.215 60.356C104.263 60.556 104.335 60.716 104.431 60.836C104.527 60.948 104.647 61.028 104.791 61.076C104.935 61.124 105.103 61.148 105.295 61.148C105.631 61.148 105.899 61.112 106.099 61.04C106.307 60.96 106.451 60.904 106.531 60.872L106.747 61.796C106.635 61.852 106.439 61.92 106.159 62C105.879 62.088 105.559 62.132 105.199 62.132C104.775 62.132 104.423 62.08 104.143 61.976C103.871 61.864 103.651 61.7 103.483 61.484C103.315 61.268 103.195 61.004 103.123 60.692C103.059 60.372 103.027 60.004 103.027 59.588V54.02L104.143 53.828V55.76ZM110.039 61.196C110.303 61.196 110.535 61.192 110.735 61.184C110.943 61.168 111.115 61.144 111.251 61.112V59.252C111.171 59.212 111.039 59.18 110.855 59.156C110.679 59.124 110.463 59.108 110.207 59.108C110.039 59.108 109.859 59.12 109.667 59.144C109.483 59.168 109.311 59.22 109.151 59.3C108.999 59.372 108.871 59.476 108.767 59.612C108.663 59.74 108.611 59.912 108.611 60.128C108.611 60.528 108.739 60.808 108.995 60.968C109.251 61.12 109.599 61.196 110.039 61.196ZM109.943 55.604C110.391 55.604 110.767 55.664 111.071 55.784C111.383 55.896 111.631 56.06 111.815 56.276C112.007 56.484 112.143 56.736 112.223 57.032C112.303 57.32 112.343 57.64 112.343 57.992V61.892C112.247 61.908 112.111 61.932 111.935 61.964C111.767 61.988 111.575 62.012 111.359 62.036C111.143 62.06 110.907 62.08 110.651 62.096C110.403 62.12 110.155 62.132 109.907 62.132C109.555 62.132 109.231 62.096 108.935 62.024C108.639 61.952 108.383 61.84 108.167 61.688C107.951 61.528 107.783 61.32 107.663 61.064C107.543 60.808 107.483 60.5 107.483 60.14C107.483 59.796 107.551 59.5 107.687 59.252C107.831 59.004 108.023 58.804 108.263 58.652C108.503 58.5 108.783 58.388 109.103 58.316C109.423 58.244 109.759 58.208 110.111 58.208C110.223 58.208 110.339 58.216 110.459 58.232C110.579 58.24 110.691 58.256 110.795 58.28C110.907 58.296 111.003 58.312 111.083 58.328C111.163 58.344 111.219 58.356 111.251 58.364V58.052C111.251 57.868 111.231 57.688 111.191 57.512C111.151 57.328 111.079 57.168 110.975 57.032C110.871 56.888 110.727 56.776 110.543 56.696C110.367 56.608 110.135 56.564 109.847 56.564C109.479 56.564 109.155 56.592 108.875 56.648C108.603 56.696 108.399 56.748 108.263 56.804L108.131 55.88C108.275 55.816 108.515 55.756 108.851 55.7C109.187 55.636 109.551 55.604 109.943 55.604ZM42.4502 71.892C42.4502 71.164 42.2702 70.604 41.9102 70.212C41.5502 69.82 41.0702 69.624 40.4702 69.624C40.1342 69.624 39.8702 69.636 39.6782 69.66C39.4942 69.684 39.3462 69.712 39.2342 69.744V73.68C39.3702 73.792 39.5662 73.9 39.8222 74.004C40.0782 74.108 40.3582 74.16 40.6622 74.16C40.9822 74.16 41.2542 74.104 41.4782 73.992C41.7102 73.872 41.8982 73.712 42.0422 73.512C42.1862 73.304 42.2902 73.064 42.3542 72.792C42.4182 72.512 42.4502 72.212 42.4502 71.892ZM43.6142 71.892C43.6142 72.364 43.5502 72.8 43.4222 73.2C43.3022 73.6 43.1222 73.944 42.8822 74.232C42.6422 74.52 42.3462 74.744 41.9942 74.904C41.6502 75.064 41.2542 75.144 40.8062 75.144C40.4462 75.144 40.1262 75.096 39.8462 75C39.5742 74.904 39.3702 74.812 39.2342 74.724V77.22H38.1182V68.952C38.3822 68.888 38.7102 68.82 39.1022 68.748C39.5022 68.668 39.9622 68.628 40.4822 68.628C40.9622 68.628 41.3942 68.704 41.7782 68.856C42.1622 69.008 42.4902 69.224 42.7622 69.504C43.0342 69.784 43.2422 70.128 43.3862 70.536C43.5382 70.936 43.6142 71.388 43.6142 71.892ZM47.2966 74.196C47.5606 74.196 47.7926 74.192 47.9926 74.184C48.2006 74.168 48.3726 74.144 48.5086 74.112V72.252C48.4286 72.212 48.2966 72.18 48.1126 72.156C47.9366 72.124 47.7206 72.108 47.4646 72.108C47.2966 72.108 47.1166 72.12 46.9246 72.144C46.7406 72.168 46.5686 72.22 46.4086 72.3C46.2566 72.372 46.1286 72.476 46.0246 72.612C45.9206 72.74 45.8686 72.912 45.8686 73.128C45.8686 73.528 45.9966 73.808 46.2526 73.968C46.5086 74.12 46.8566 74.196 47.2966 74.196ZM47.2006 68.604C47.6486 68.604 48.0246 68.664 48.3286 68.784C48.6406 68.896 48.8886 69.06 49.0726 69.276C49.2646 69.484 49.4006 69.736 49.4806 70.032C49.5606 70.32 49.6006 70.64 49.6006 70.992V74.892C49.5046 74.908 49.3686 74.932 49.1926 74.964C49.0246 74.988 48.8326 75.012 48.6166 75.036C48.4006 75.06 48.1646 75.08 47.9086 75.096C47.6606 75.12 47.4126 75.132 47.1646 75.132C46.8126 75.132 46.4886 75.096 46.1926 75.024C45.8966 74.952 45.6406 74.84 45.4246 74.688C45.2086 74.528 45.0406 74.32 44.9206 74.064C44.8006 73.808 44.7406 73.5 44.7406 73.14C44.7406 72.796 44.8086 72.5 44.9446 72.252C45.0886 72.004 45.2806 71.804 45.5206 71.652C45.7606 71.5 46.0406 71.388 46.3606 71.316C46.6806 71.244 47.0166 71.208 47.3686 71.208C47.4806 71.208 47.5966 71.216 47.7166 71.232C47.8366 71.24 47.9486 71.256 48.0526 71.28C48.1646 71.296 48.2606 71.312 48.3406 71.328C48.4206 71.344 48.4766 71.356 48.5086 71.364V71.052C48.5086 70.868 48.4886 70.688 48.4486 70.512C48.4086 70.328 48.3366 70.168 48.2326 70.032C48.1286 69.888 47.9846 69.776 47.8006 69.696C47.6246 69.608 47.3926 69.564 47.1046 69.564C46.7366 69.564 46.4126 69.592 46.1326 69.648C45.8606 69.696 45.6566 69.748 45.5206 69.804L45.3886 68.88C45.5326 68.816 45.7726 68.756 46.1086 68.7C46.4446 68.636 46.8086 68.604 47.2006 68.604ZM53.7581 68.628C53.8541 68.628 53.9621 68.636 54.0821 68.652C54.2101 68.66 54.3341 68.676 54.4541 68.7C54.5741 68.716 54.6821 68.736 54.7781 68.76C54.8821 68.776 54.9581 68.792 55.0061 68.808L54.8141 69.78C54.7261 69.748 54.5781 69.712 54.3701 69.672C54.1701 69.624 53.9101 69.6 53.5901 69.6C53.3821 69.6 53.1741 69.624 52.9661 69.672C52.7661 69.712 52.6341 69.74 52.5701 69.756V75H51.4541V69.024C51.7181 68.928 52.0461 68.84 52.4381 68.76C52.8301 68.672 53.2701 68.628 53.7581 68.628ZM58.195 74.196C58.459 74.196 58.691 74.192 58.891 74.184C59.099 74.168 59.271 74.144 59.407 74.112V72.252C59.327 72.212 59.195 72.18 59.011 72.156C58.835 72.124 58.619 72.108 58.363 72.108C58.195 72.108 58.015 72.12 57.823 72.144C57.639 72.168 57.467 72.22 57.307 72.3C57.155 72.372 57.027 72.476 56.923 72.612C56.819 72.74 56.767 72.912 56.767 73.128C56.767 73.528 56.895 73.808 57.151 73.968C57.407 74.12 57.755 74.196 58.195 74.196ZM58.099 68.604C58.547 68.604 58.923 68.664 59.227 68.784C59.539 68.896 59.787 69.06 59.971 69.276C60.163 69.484 60.299 69.736 60.379 70.032C60.459 70.32 60.499 70.64 60.499 70.992V74.892C60.403 74.908 60.267 74.932 60.091 74.964C59.923 74.988 59.731 75.012 59.515 75.036C59.299 75.06 59.063 75.08 58.807 75.096C58.559 75.12 58.311 75.132 58.063 75.132C57.711 75.132 57.387 75.096 57.091 75.024C56.795 74.952 56.539 74.84 56.323 74.688C56.107 74.528 55.939 74.32 55.819 74.064C55.699 73.808 55.639 73.5 55.639 73.14C55.639 72.796 55.707 72.5 55.843 72.252C55.987 72.004 56.179 71.804 56.419 71.652C56.659 71.5 56.939 71.388 57.259 71.316C57.579 71.244 57.915 71.208 58.267 71.208C58.379 71.208 58.495 71.216 58.615 71.232C58.735 71.24 58.847 71.256 58.951 71.28C59.063 71.296 59.159 71.312 59.239 71.328C59.319 71.344 59.375 71.356 59.407 71.364V71.052C59.407 70.868 59.387 70.688 59.347 70.512C59.307 70.328 59.235 70.168 59.131 70.032C59.027 69.888 58.883 69.776 58.699 69.696C58.523 69.608 58.291 69.564 58.003 69.564C57.635 69.564 57.311 69.592 57.031 69.648C56.759 69.696 56.555 69.748 56.419 69.804L56.287 68.88C56.431 68.816 56.671 68.756 57.007 68.7C57.343 68.636 57.707 68.604 58.099 68.604ZM65.1299 75V65.88L66.2459 65.688V68.88C66.4539 68.8 66.6739 68.74 66.9059 68.7C67.1459 68.652 67.3819 68.628 67.6139 68.628C68.1099 68.628 68.5219 68.7 68.8499 68.844C69.1779 68.98 69.4379 69.176 69.6299 69.432C69.8299 69.68 69.9699 69.98 70.0499 70.332C70.1299 70.684 70.1699 71.072 70.1699 71.496V75H69.0539V71.736C69.0539 71.352 69.0259 71.024 68.9699 70.752C68.9219 70.48 68.8379 70.26 68.7179 70.092C68.5979 69.924 68.4379 69.804 68.2379 69.732C68.0379 69.652 67.7899 69.612 67.4939 69.612C67.3739 69.612 67.2499 69.62 67.1219 69.636C66.9939 69.652 66.8699 69.672 66.7499 69.696C66.6379 69.712 66.5339 69.732 66.4379 69.756C66.3499 69.78 66.2859 69.8 66.2459 69.816V75H65.1299ZM77.4934 71.88C77.4934 72.376 77.4214 72.824 77.2774 73.224C77.1334 73.624 76.9294 73.968 76.6654 74.256C76.4094 74.544 76.1014 74.768 75.7414 74.928C75.3814 75.08 74.9894 75.156 74.5654 75.156C74.1414 75.156 73.7494 75.08 73.3894 74.928C73.0294 74.768 72.7174 74.544 72.4534 74.256C72.1974 73.968 71.9974 73.624 71.8534 73.224C71.7094 72.824 71.6374 72.376 71.6374 71.88C71.6374 71.392 71.7094 70.948 71.8534 70.548C71.9974 70.14 72.1974 69.792 72.4534 69.504C72.7174 69.216 73.0294 68.996 73.3894 68.844C73.7494 68.684 74.1414 68.604 74.5654 68.604C74.9894 68.604 75.3814 68.684 75.7414 68.844C76.1014 68.996 76.4094 69.216 76.6654 69.504C76.9294 69.792 77.1334 70.14 77.2774 70.548C77.4214 70.948 77.4934 71.392 77.4934 71.88ZM76.3294 71.88C76.3294 71.176 76.1694 70.62 75.8494 70.212C75.5374 69.796 75.1094 69.588 74.5654 69.588C74.0214 69.588 73.5894 69.796 73.2694 70.212C72.9574 70.62 72.8014 71.176 72.8014 71.88C72.8014 72.584 72.9574 73.144 73.2694 73.56C73.5894 73.968 74.0214 74.172 74.5654 74.172C75.1094 74.172 75.5374 73.968 75.8494 73.56C76.1694 73.144 76.3294 72.584 76.3294 71.88ZM78.0435 77.244C77.9475 77.244 77.8235 77.232 77.6715 77.208C77.5195 77.184 77.3915 77.152 77.2875 77.112L77.4315 76.2C77.5115 76.224 77.6035 76.244 77.7075 76.26C77.8115 76.276 77.9075 76.284 77.9955 76.284C78.3795 76.284 78.6515 76.164 78.8115 75.924C78.9795 75.692 79.0635 75.348 79.0635 74.892V68.76H80.1795V74.88C80.1795 75.68 79.9955 76.272 79.6275 76.656C79.2675 77.048 78.7395 77.244 78.0435 77.244ZM79.6155 67.632C79.4155 67.632 79.2435 67.568 79.0995 67.44C78.9635 67.304 78.8955 67.124 78.8955 66.9C78.8955 66.676 78.9635 66.5 79.0995 66.372C79.2435 66.236 79.4155 66.168 79.6155 66.168C79.8155 66.168 79.9835 66.236 80.1195 66.372C80.2635 66.5 80.3355 66.676 80.3355 66.9C80.3355 67.124 80.2635 67.304 80.1195 67.44C79.9835 67.568 79.8155 67.632 79.6155 67.632ZM81.7507 71.892C81.7507 71.34 81.8307 70.86 81.9907 70.452C82.1507 70.036 82.3627 69.692 82.6267 69.42C82.8907 69.148 83.1947 68.944 83.5387 68.808C83.8827 68.672 84.2347 68.604 84.5947 68.604C85.4347 68.604 86.0787 68.868 86.5267 69.396C86.9747 69.916 87.1987 70.712 87.1987 71.784C87.1987 71.832 87.1987 71.896 87.1987 71.976C87.1987 72.048 87.1947 72.116 87.1867 72.18H82.9147C82.9627 72.828 83.1507 73.32 83.4787 73.656C83.8067 73.992 84.3187 74.16 85.0147 74.16C85.4067 74.16 85.7347 74.128 85.9987 74.064C86.2707 73.992 86.4747 73.924 86.6107 73.86L86.7667 74.796C86.6307 74.868 86.3907 74.944 86.0467 75.024C85.7107 75.104 85.3267 75.144 84.8947 75.144C84.3507 75.144 83.8787 75.064 83.4787 74.904C83.0867 74.736 82.7627 74.508 82.5067 74.22C82.2507 73.932 82.0587 73.592 81.9307 73.2C81.8107 72.8 81.7507 72.364 81.7507 71.892ZM86.0347 71.28C86.0427 70.776 85.9147 70.364 85.6507 70.044C85.3947 69.716 85.0387 69.552 84.5827 69.552C84.3267 69.552 84.0987 69.604 83.8987 69.708C83.7067 69.804 83.5427 69.932 83.4067 70.092C83.2707 70.252 83.1627 70.436 83.0827 70.644C83.0107 70.852 82.9627 71.064 82.9387 71.28H86.0347Z" fill="#C1C1C1"/>
<path d="M51.0226 30.4689C51.0345 29.9335 50.9245 29.3791 50.6096 28.9462C50.2945 28.5131 49.7488 28.2267 49.221 28.3163C48.8757 27.4711 48.0599 26.8715 47.1743 26.6495C46.2888 26.4276 45.3445 26.5486 44.4797 26.8414C43.7435 27.0909 43.026 27.4832 42.5684 28.1114C42.0167 28.8688 41.9146 29.859 41.9095 30.796C41.895 33.4739 42.5284 36.1529 43.7399 38.5412C44.56 37.0829 46.1434 36.2601 47.5446 35.3418C48.4137 34.7721 49.249 34.1289 49.8975 33.317C50.5459 32.505 50.9993 31.5077 51.0226 30.4689Z" fill="#EBEBEB"/>
<path d="M43.866 37.2442L43.854 37.2197L43.8378 37.2466L43.866 37.2442Z" fill="#415DA1"/>
<path d="M45.0282 34.7493C44.2779 35.2781 43.7477 36.1098 43.5848 37.0133L43.7555 36.8676C44.2856 36.2538 44.8197 35.6361 45.4548 35.1318C46.0899 34.6277 47.5465 33.5841 48.3527 33.4966C47.4471 33.3462 45.7787 34.2204 45.0282 34.7493Z" fill="#E6E6E6"/>
<path d="M55.021 36.7454C54.9755 35.935 54.5848 35.1853 54.1436 34.504C53.7291 33.8641 53.225 33.2294 52.5135 32.9558C51.9304 32.7318 51.2801 32.7795 50.6637 32.8795C48.0644 33.3014 45.4042 34.9402 43.6281 36.8843C44.6551 37.8116 46.0525 38.7655 47.2939 39.3764C48.2807 39.8621 49.3359 40.242 50.4324 40.3288C51.5289 40.4156 52.674 40.1898 53.5719 39.5544C54.4698 38.9192 55.0828 37.8436 55.021 36.7454Z" fill="#EBEBEB"/>
<path d="M48.5617 44.074C48.6301 43.7863 48.5377 43.4871 48.4383 43.2087C47.631 40.9456 45.5894 38.4144 43.8603 36.7461C42.2157 37.6503 41.3665 39.5338 40.1099 40.9279C39.6479 41.4405 39.1679 41.9878 39.0314 42.6642C38.9127 43.2526 39.0778 43.8753 39.3988 44.3826C39.7198 44.8897 40.1862 45.2909 40.6895 45.6179C42.0017 46.4706 43.6686 46.8499 45.1704 46.4105C46.146 46.125 46.9934 45.5237 47.8204 44.9325C48.1351 44.7075 48.4723 44.4504 48.5617 44.074Z" fill="#EBEBEB"/>
<path d="M39.5901 34.9396C38.0532 34.4327 36.4214 34.1447 34.8125 34.3182C34.053 34.4001 33.2736 34.5999 32.697 35.101C32.1205 35.602 31.8078 36.4661 32.1281 37.1595C32.2925 37.5155 32.598 37.7888 32.7795 38.1363C33.0343 38.6246 33.0195 39.2037 33.1406 39.7411C33.4609 41.1632 34.867 42.2598 36.3244 42.2239C37.4879 42.1953 38.5365 41.5403 39.471 40.8465C40.9746 39.7303 42.6335 38.2411 43.8702 36.8349C42.4206 36.1156 41.1268 35.4465 39.5901 34.9396Z" fill="#EBEBEB"/>
<path d="M41.686 30.0857C41.2279 29.2636 40.7185 28.4462 39.9914 27.8485C39.2642 27.251 38.2776 26.8997 37.3665 27.1357C36.4554 27.3716 35.7146 28.3085 35.8928 29.2326C35.2258 29.3103 34.541 29.3933 33.9479 29.708C33.3546 30.0225 32.8649 30.6258 32.8864 31.297C32.9009 31.7523 33.1472 32.1762 33.4741 32.4934C33.8011 32.8106 34.2049 33.0355 34.6084 33.2466C37.6025 34.8136 40.5085 35.7684 43.7329 36.7797C43.429 34.4852 42.8124 32.1078 41.686 30.0857Z" fill="#EBEBEB"/>
<path d="M42.0973 30.8262C41.806 31.8839 41.947 33.3654 42.3241 34.3957C42.7012 35.426 42.9171 36.0557 43.6588 36.8641C42.9582 35.0004 42.4099 32.7925 42.0973 30.8262Z" fill="#E6E6E6"/>
<path d="M40.8462 39.888C41.7621 39.0282 42.5836 38.0681 43.2913 37.0303C41.9809 37.4616 41.2091 38.5569 40.8462 39.888Z" fill="#E6E6E6"/>
<path d="M36.8593 34.3132C39.0316 34.4295 41.188 35.0429 43.1569 35.9682C41.3311 34.4325 39.2132 33.9253 36.8593 34.3132Z" fill="#E6E6E6"/>
<path d="M43.5672 36.9442C42.7133 36.3085 41.8179 35.6197 41.4375 34.6255C41.4011 34.5306 41.3696 34.4302 41.3786 34.329C41.3878 34.2277 41.4467 34.1249 41.5429 34.0917C41.6792 34.0448 41.8178 34.1484 41.9235 34.2467C42.2467 34.5479 42.5522 34.8681 42.8379 35.2053C42.819 35.024 42.8009 34.8362 42.8587 34.6634C42.9165 34.4907 43.0727 34.3366 43.2547 34.3423C43.4035 34.3471 43.5333 34.4572 43.6011 34.5898C43.6689 34.7224 43.6854 34.8746 43.6944 35.0233C43.7305 35.6186 43.6651 36.2149 43.5998 36.8077" fill="white"/>
<path d="M74.6646 30.4689C74.6527 29.9335 74.7627 29.3791 75.0776 28.9462C75.3927 28.5131 75.9384 28.2267 76.4662 28.3163C76.8114 27.4711 77.6273 26.8715 78.5129 26.6495C79.3984 26.4276 80.3427 26.5486 81.2075 26.8414C81.9437 27.0909 82.6612 27.4832 83.1188 28.1114C83.6705 28.8688 83.7726 29.859 83.7776 30.796C83.7922 33.4739 83.1588 36.1529 81.9473 38.5412C81.1272 37.0829 79.5438 36.2601 78.1425 35.3418C77.2735 34.7721 76.4382 34.1289 75.7897 33.317C75.1413 32.505 74.6879 31.5077 74.6646 30.4689Z" fill="#EBEBEB"/>
<path d="M81.8213 37.2442L81.8333 37.2197L81.8495 37.2466L81.8213 37.2442Z" fill="#415DA1"/>
<path d="M80.6589 34.7493C81.4093 35.2781 81.9395 36.1098 82.1024 37.0133L81.9317 36.8676C81.4016 36.2538 80.8675 35.6361 80.2323 35.1318C79.5973 34.6277 78.1406 33.5841 77.3345 33.4966C78.2401 33.3462 79.9085 34.2204 80.6589 34.7493Z" fill="#E6E6E6"/>
<path d="M70.6662 36.7454C70.7117 35.935 71.1024 35.1853 71.5436 34.504C71.9581 33.8641 72.4622 33.2294 73.1737 32.9558C73.7568 32.7318 74.4071 32.7795 75.0235 32.8795C77.6228 33.3014 80.283 34.9402 82.0591 36.8843C81.0321 37.8116 79.6347 38.7655 78.3933 39.3764C77.4065 39.8621 76.3513 40.242 75.2548 40.3288C74.1583 40.4156 73.0132 40.1898 72.1153 39.5544C71.2174 38.9192 70.6044 37.8436 70.6662 36.7454Z" fill="#EBEBEB"/>
<path d="M77.1254 44.074C77.0571 43.7863 77.1495 43.4871 77.2489 43.2087C78.0562 40.9456 80.0978 38.4144 81.8269 36.7461C83.4715 37.6503 84.3207 39.5338 85.5773 40.9279C86.0393 41.4405 86.5193 41.9878 86.6558 42.6642C86.7745 43.2526 86.6094 43.8753 86.2884 44.3826C85.9674 44.8897 85.501 45.2909 84.9976 45.6179C83.6855 46.4706 82.0186 46.8499 80.5168 46.4105C79.5411 46.125 78.6938 45.5237 77.8668 44.9325C77.5521 44.7075 77.2149 44.4504 77.1254 44.074Z" fill="#EBEBEB"/>
<path d="M86.0971 34.9396C87.634 34.4327 89.2658 34.1447 90.8747 34.3182C91.6342 34.4001 92.4136 34.5999 92.9901 35.101C93.5667 35.602 93.8794 36.4661 93.559 37.1595C93.3947 37.5155 93.0892 37.7888 92.9077 38.1363C92.6529 38.6246 92.6677 39.2037 92.5466 39.7411C92.2263 41.1632 90.8202 42.2598 89.3628 42.2239C88.1993 42.1953 87.1507 41.5403 86.2162 40.8465C84.7126 39.7303 83.0537 38.2411 81.817 36.8349C83.2666 36.1156 84.5604 35.4465 86.0971 34.9396Z" fill="#EBEBEB"/>
<path d="M84.0012 30.0857C84.4593 29.2636 84.9687 28.4462 85.6958 27.8485C86.423 27.251 87.4096 26.8997 88.3207 27.1357C89.2318 27.3716 89.9726 28.3085 89.7944 29.2326C90.4614 29.3103 91.1462 29.3933 91.7393 29.708C92.3326 30.0225 92.8223 30.6258 92.8008 31.297C92.7863 31.7523 92.54 32.1762 92.213 32.4934C91.8861 32.8106 91.4823 33.0355 91.0787 33.2466C88.0847 34.8136 85.1787 35.7684 81.9543 36.7797C82.2582 34.4852 82.8748 32.1078 84.0012 30.0857Z" fill="#EBEBEB"/>
<path d="M83.5899 30.8262C83.8812 31.8839 83.7402 33.3654 83.3631 34.3957C82.9859 35.426 82.7701 36.0557 82.0283 36.8641C82.729 35.0004 83.2773 32.7925 83.5899 30.8262Z" fill="#E6E6E6"/>
<path d="M84.841 39.888C83.9251 39.0282 83.1036 38.0681 82.3959 37.0303C83.7063 37.4616 84.4781 38.5569 84.841 39.888Z" fill="#E6E6E6"/>
<path d="M88.8279 34.3132C86.6556 34.4295 84.4992 35.0429 82.5303 35.9682C84.3561 34.4325 86.474 33.9253 88.8279 34.3132Z" fill="#E6E6E6"/>
<path d="M82.1199 36.9442C82.9739 36.3085 83.8693 35.6197 84.2496 34.6255C84.286 34.5306 84.3176 34.4302 84.3086 34.329C84.2994 34.2277 84.2405 34.1249 84.1443 34.0917C84.008 34.0448 83.8694 34.1484 83.7637 34.2467C83.4405 34.5479 83.135 34.8681 82.8493 35.2053C82.8682 35.024 82.8863 34.8362 82.8285 34.6634C82.7707 34.4907 82.6145 34.3366 82.4324 34.3423C82.2836 34.3471 82.1539 34.4572 82.0861 34.5898C82.0183 34.7224 82.0018 34.8746 81.9928 35.0233C81.9567 35.6186 82.0221 36.2149 82.0874 36.8077" fill="white"/>
<path d="M80.9099 27.0188C81.6057 26.335 82.1669 25.4711 82.3058 24.5054C82.4447 23.5397 82.0962 22.4719 81.2929 21.918C81.9163 20.3756 81.6128 18.5557 80.7385 17.1404C79.8642 15.7251 78.4773 14.6829 76.9758 13.9664C75.6974 13.3565 74.2617 12.9568 72.8657 13.1957C71.1826 13.4837 69.7911 14.6469 68.5936 15.8641C65.171 19.3427 62.5935 23.6462 61.1401 28.3046C64.0645 27.4426 67.1779 28.3807 70.175 28.9621C72.0338 29.3227 73.9421 29.5445 75.8208 29.3083C77.6996 29.0721 79.5592 28.3461 80.9099 27.0188Z" fill="#415DA1"/>
<g opacity="0.5">
<path d="M80.9099 27.0188C81.6057 26.335 82.1669 25.4711 82.3058 24.5054C82.4447 23.5397 82.0962 22.4719 81.2929 21.918C81.9163 20.3756 81.6128 18.5557 80.7385 17.1404C79.8642 15.7251 78.4773 14.6829 76.9758 13.9664C75.6974 13.3565 74.2617 12.9568 72.8657 13.1957C71.1826 13.4837 69.7911 14.6469 68.5936 15.8641C65.171 19.3427 62.5935 23.6462 61.1401 28.3046C64.0645 27.4426 67.1779 28.3807 70.175 28.9621C72.0338 29.3227 73.9421 29.5445 75.8208 29.3083C77.6996 29.0721 79.5592 28.3461 80.9099 27.0188Z" fill="white"/>
</g>
<path d="M61.1248 28.3507L61.1401 28.3042C61.122 28.3095 61.1037 28.313 61.0856 28.3186L61.1248 28.3507Z" fill="#415DA1"/>
<g opacity="0.3">
<path d="M65.8131 26.5715C64.1611 26.3085 62.4115 26.7206 61.0506 27.6935L61.4588 27.7202C62.931 27.5923 64.4136 27.4643 65.8838 27.6132C67.3541 27.762 70.5825 28.2503 71.7465 29.1607C70.7549 27.8134 67.4652 26.8346 65.8131 26.5715Z" fill="black"/>
</g>
<path d="M76.3256 41.8791C77.2961 40.7628 77.7389 39.2872 78.0285 37.8369C78.3005 36.4745 78.449 35.0049 77.8673 33.7434C77.3907 32.7098 76.4809 31.9457 75.5487 31.2928C71.6181 28.5403 66.0614 27.2994 61.2712 27.581C61.4339 30.097 62.0464 33.1187 62.891 35.4944C63.5625 37.3828 64.4577 39.2199 65.7792 40.7269C67.1008 42.2337 68.8832 43.3942 70.8632 43.7057C72.8432 44.0172 75.0105 43.3916 76.3256 41.8791Z" fill="#415DA1"/>
<g opacity="0.5">
<path d="M76.3256 41.8791C77.2961 40.7628 77.7389 39.2872 78.0285 37.8369C78.3005 36.4745 78.449 35.0049 77.8673 33.7434C77.3907 32.7098 76.4809 31.9457 75.5487 31.2928C71.6181 28.5403 66.0614 27.2994 61.2712 27.581C61.4339 30.097 62.0464 33.1187 62.891 35.4944C63.5625 37.3828 64.4577 39.2199 65.7792 40.7269C67.1008 42.2337 68.8832 43.3942 70.8632 43.7057C72.8432 44.0172 75.0105 43.3916 76.3256 41.8791Z" fill="white"/>
</g>
<path d="M58.5764 43.2404C59.0314 42.9516 59.2909 42.4434 59.515 41.9534C61.337 37.9722 61.8879 32.0719 61.7501 27.6957C58.4531 26.7863 54.9505 28.1668 51.5377 28.3903C50.2829 28.4725 48.9605 28.577 47.9225 29.287C47.0197 29.9045 46.4438 30.9276 46.2186 31.9979C45.9931 33.0682 46.0922 34.1848 46.3339 35.2516C46.9637 38.0327 48.6585 40.6466 51.1782 41.9814C52.8151 42.8485 54.686 43.1402 56.5173 43.4192C57.2141 43.5255 57.9813 43.618 58.5764 43.2404Z" fill="#415DA1"/>
<g opacity="0.5">
<path d="M58.5764 43.2404C59.0314 42.9516 59.2909 42.4434 59.515 41.9534C61.337 37.9722 61.8879 32.0719 61.7501 27.6957C58.4531 26.7863 54.9505 28.1668 51.5377 28.3903C50.2829 28.4725 48.9605 28.577 47.9225 29.287C47.0197 29.9045 46.4438 30.9276 46.2186 31.9979C45.9931 33.0682 46.0922 34.1848 46.3339 35.2516C46.9637 38.0327 48.6585 40.6466 51.1782 41.9814C52.8151 42.8485 54.686 43.1402 56.5173 43.4192C57.2141 43.5255 57.9813 43.618 58.5764 43.2404Z" fill="white"/>
</g>
<path d="M58.4692 19.9092C57.1065 17.2941 55.3415 14.8441 53.02 13.0258C51.9242 12.1675 50.6523 11.4379 49.2626 11.3595C47.8729 11.2811 46.3665 12.0121 45.9033 13.3248C45.6657 13.9985 45.7173 14.7436 45.5126 15.428C45.2247 16.3895 44.4695 17.1272 43.9446 17.9827C42.5555 20.2469 42.9981 23.466 44.9469 25.2714C46.5026 26.7127 48.7045 27.1899 50.8064 27.4718C54.1887 27.9251 58.2477 28.0886 61.6499 27.824C60.6711 25.0424 59.8319 22.5243 58.4692 19.9092Z" fill="#415DA1"/>
<g opacity="0.5">
<path d="M58.4692 19.9092C57.1065 17.2941 55.3415 14.8441 53.02 13.0258C51.9242 12.1675 50.6523 11.4379 49.2626 11.3595C47.8729 11.2811 46.3665 12.0121 45.9033 13.3248C45.6657 13.9985 45.7173 14.7436 45.5126 15.428C45.2247 16.3895 44.4695 17.1272 43.9446 17.9827C42.5555 20.2469 42.9981 23.466 44.9469 25.2714C46.5026 26.7127 48.7045 27.1899 50.8064 27.4718C54.1887 27.9251 58.2477 28.0886 61.6499 27.824C60.6711 25.0424 59.8319 22.5243 58.4692 19.9092Z" fill="white"/>
</g>
<path d="M67.3756 16.2337C67.8222 14.5778 68.196 12.863 68.0058 11.1584C67.8158 9.45388 66.9739 7.74131 65.4841 6.89132C63.9944 6.04146 61.8362 6.32353 60.8944 7.75692C59.9247 7.01064 58.9251 6.24876 57.7505 5.90577C56.5761 5.56253 55.1698 5.72805 54.3447 6.63183C53.7852 7.24487 53.568 8.11141 53.5919 8.94118C53.6155 9.77094 53.8572 10.5777 54.1158 11.3664C56.0342 17.2179 58.6158 22.1581 61.5411 27.5767C64.0605 24.1941 66.2768 20.3058 67.3756 16.2337Z" fill="#415DA1"/>
<g opacity="0.5">
<path d="M67.3756 16.2337C67.8222 14.5778 68.196 12.863 68.0058 11.1584C67.8158 9.45388 66.9739 7.74131 65.4841 6.89132C63.9944 6.04146 61.8362 6.32353 60.8944 7.75692C59.9247 7.01064 58.9251 6.24876 57.7505 5.90577C56.5761 5.56253 55.1698 5.72805 54.3447 6.63183C53.7852 7.24487 53.568 8.11141 53.5919 8.94118C53.6155 9.77094 53.8572 10.5777 54.1158 11.3664C56.0342 17.2179 58.6158 22.1581 61.5411 27.5767C64.0605 24.1941 66.2768 20.3058 67.3756 16.2337Z" fill="white"/>
</g>
<g opacity="0.3">
<path d="M66.9305 17.6985C65.2058 18.7096 63.5069 20.8235 62.6901 22.6482C61.8731 24.4729 61.3545 25.5697 61.2959 27.5681C62.7495 24.2438 64.8396 20.6636 66.9305 17.6985Z" fill="black"/>
</g>
<g opacity="0.3">
<path d="M53.8209 27.9675C56.1096 28.0089 58.4028 27.7991 60.6459 27.3432C58.3865 26.2412 55.9863 26.6906 53.8209 27.9675Z" fill="black"/>
</g>
<g opacity="0.3">
<path d="M55.658 15.5947C58.3471 18.5075 60.3836 22.0491 61.7789 25.7598C61.3463 21.434 59.2251 18.0797 55.658 15.5947Z" fill="black"/>
</g>
<path d="M61.2978 27.6226C60.8748 25.7295 60.4579 23.7135 61.1152 21.8885C61.1779 21.7142 61.2536 21.538 61.3866 21.409C61.5198 21.28 61.7232 21.2081 61.8954 21.2768C62.1396 21.3743 62.2078 21.682 62.2366 21.9435C62.3247 22.7437 62.3656 23.5493 62.3589 24.3543C62.5486 24.0817 62.7468 23.8008 63.0322 23.6311C63.3175 23.4614 63.7162 23.4343 63.9609 23.6588C64.1607 23.8423 64.2088 24.1488 64.1447 24.4124C64.0807 24.676 63.9224 24.9058 63.758 25.1218C63.0998 25.9866 62.3003 26.7322 61.505 27.473" fill="white"/>
</svg>
