<svg width="153" height="152" viewBox="0 0 153 152" fill="none" xmlns="http://www.w3.org/2000/svg">
<path d="M17.8276 127C17.5929 126.605 17.3209 126.163 17.0116 125.672C16.7129 125.181 16.3876 124.675 16.0356 124.152C15.6836 123.619 15.3156 123.08 14.9316 122.536C14.5582 121.992 14.1849 121.469 13.8116 120.968C13.4382 120.456 13.0756 119.976 12.7236 119.528C12.3716 119.08 12.0462 118.685 11.7476 118.344V127H10.2276V115.912H11.4596C11.9609 116.445 12.4942 117.069 13.0596 117.784C13.6356 118.488 14.2009 119.219 14.7556 119.976C15.3209 120.723 15.8489 121.459 16.3396 122.184C16.8409 122.909 17.2622 123.555 17.6036 124.12V115.912H19.1236V127H17.8276ZM21.3082 122.856C21.3082 122.12 21.4149 121.48 21.6282 120.936C21.8415 120.381 22.1242 119.923 22.4762 119.56C22.8282 119.197 23.2335 118.925 23.6922 118.744C24.1509 118.563 24.6202 118.472 25.1002 118.472C26.2202 118.472 27.0789 118.824 27.6762 119.528C28.2735 120.221 28.5722 121.283 28.5722 122.712C28.5722 122.776 28.5722 122.861 28.5722 122.968C28.5722 123.064 28.5669 123.155 28.5562 123.24H22.8602C22.9242 124.104 23.1749 124.76 23.6122 125.208C24.0495 125.656 24.7322 125.88 25.6602 125.88C26.1829 125.88 26.6202 125.837 26.9722 125.752C27.3349 125.656 27.6069 125.565 27.7882 125.48L27.9962 126.728C27.8149 126.824 27.4949 126.925 27.0362 127.032C26.5882 127.139 26.0762 127.192 25.5002 127.192C24.7749 127.192 24.1455 127.085 23.6122 126.872C23.0895 126.648 22.6575 126.344 22.3162 125.96C21.9749 125.576 21.7189 125.123 21.5482 124.6C21.3882 124.067 21.3082 123.485 21.3082 122.856ZM27.0202 122.04C27.0309 121.368 26.8602 120.819 26.5082 120.392C26.1669 119.955 25.6922 119.736 25.0842 119.736C24.7429 119.736 24.4389 119.805 24.1722 119.944C23.9162 120.072 23.6975 120.243 23.5162 120.456C23.3349 120.669 23.1909 120.915 23.0842 121.192C22.9882 121.469 22.9242 121.752 22.8922 122.04H27.0202ZM30.7097 118.92C31.051 118.835 31.5044 118.744 32.0697 118.648C32.635 118.552 33.2857 118.504 34.0217 118.504C34.683 118.504 35.2324 118.6 35.6697 118.792C36.107 118.973 36.4537 119.235 36.7097 119.576C36.9764 119.907 37.163 120.307 37.2697 120.776C37.3764 121.245 37.4297 121.763 37.4297 122.328V127H35.9417V122.648C35.9417 122.136 35.9044 121.699 35.8297 121.336C35.7657 120.973 35.6537 120.68 35.4937 120.456C35.3337 120.232 35.1204 120.072 34.8537 119.976C34.587 119.869 34.2564 119.816 33.8617 119.816C33.7017 119.816 33.5364 119.821 33.3657 119.832C33.195 119.843 33.0297 119.859 32.8697 119.88C32.7204 119.891 32.5817 119.907 32.4537 119.928C32.3364 119.949 32.251 119.965 32.1977 119.976V127H30.7097V118.92ZM39.8972 127V114.84L41.3852 114.584V118.84C41.6625 118.733 41.9559 118.653 42.2652 118.6C42.5852 118.536 42.8999 118.504 43.2092 118.504C43.8705 118.504 44.4199 118.6 44.8572 118.792C45.2945 118.973 45.6412 119.235 45.8972 119.576C46.1639 119.907 46.3505 120.307 46.4572 120.776C46.5639 121.245 46.6172 121.763 46.6172 122.328V127H45.1292V122.648C45.1292 122.136 45.0919 121.699 45.0172 121.336C44.9532 120.973 44.8412 120.68 44.6812 120.456C44.5212 120.232 44.3079 120.072 44.0412 119.976C43.7745 119.869 43.4439 119.816 43.0492 119.816C42.8892 119.816 42.7239 119.827 42.5532 119.848C42.3825 119.869 42.2172 119.896 42.0572 119.928C41.9079 119.949 41.7692 119.976 41.6412 120.008C41.5239 120.04 41.4385 120.067 41.3852 120.088V127H39.8972ZM55.6618 126.76C55.3205 126.845 54.8671 126.936 54.3018 127.032C53.7471 127.128 53.1018 127.176 52.3658 127.176C51.7258 127.176 51.1871 127.085 50.7498 126.904C50.3125 126.712 49.9605 126.445 49.6938 126.104C49.4271 125.763 49.2351 125.363 49.1178 124.904C49.0005 124.435 48.9418 123.917 48.9418 123.352V118.68H50.4298V123.032C50.4298 124.045 50.5898 124.771 50.9098 125.208C51.2298 125.645 51.7685 125.864 52.5258 125.864C52.6858 125.864 52.8511 125.859 53.0218 125.848C53.1925 125.837 53.3525 125.827 53.5018 125.816C53.6511 125.795 53.7845 125.779 53.9018 125.768C54.0298 125.747 54.1205 125.725 54.1738 125.704V118.68H55.6618V126.76ZM58.2253 118.92C58.5666 118.835 59.0146 118.744 59.5693 118.648C60.1346 118.552 60.7853 118.504 61.5213 118.504C62.0546 118.504 62.5026 118.579 62.8653 118.728C63.228 118.867 63.532 119.075 63.7773 119.352C63.852 119.299 63.9693 119.224 64.1293 119.128C64.2893 119.032 64.4866 118.941 64.7213 118.856C64.956 118.76 65.2173 118.68 65.5053 118.616C65.7933 118.541 66.1026 118.504 66.4333 118.504C67.0733 118.504 67.596 118.6 68.0013 118.792C68.4066 118.973 68.7213 119.235 68.9453 119.576C69.18 119.917 69.3346 120.323 69.4093 120.792C69.4946 121.261 69.5373 121.773 69.5373 122.328V127H68.0493V122.648C68.0493 122.157 68.0226 121.736 67.9693 121.384C67.9266 121.032 67.836 120.739 67.6973 120.504C67.5693 120.269 67.388 120.099 67.1533 119.992C66.9293 119.875 66.636 119.816 66.2733 119.816C65.772 119.816 65.356 119.885 65.0253 120.024C64.7053 120.152 64.4866 120.269 64.3693 120.376C64.4546 120.653 64.5186 120.957 64.5613 121.288C64.604 121.619 64.6253 121.965 64.6253 122.328V127H63.1373V122.648C63.1373 122.157 63.1106 121.736 63.0573 121.384C63.004 121.032 62.908 120.739 62.7693 120.504C62.6413 120.269 62.46 120.099 62.2253 119.992C62.0013 119.875 61.7133 119.816 61.3613 119.816C61.212 119.816 61.052 119.821 60.8813 119.832C60.7106 119.843 60.5453 119.859 60.3853 119.88C60.236 119.891 60.0973 119.907 59.9693 119.928C59.8413 119.949 59.756 119.965 59.7133 119.976V127H58.2253V118.92ZM74.8226 125.928C75.1746 125.928 75.4839 125.923 75.7506 125.912C76.0279 125.891 76.2572 125.859 76.4386 125.816V123.336C76.3319 123.283 76.1559 123.24 75.9106 123.208C75.6759 123.165 75.3879 123.144 75.0466 123.144C74.8226 123.144 74.5826 123.16 74.3266 123.192C74.0812 123.224 73.8519 123.293 73.6386 123.4C73.4359 123.496 73.2652 123.635 73.1266 123.816C72.9879 123.987 72.9186 124.216 72.9186 124.504C72.9186 125.037 73.0892 125.411 73.4306 125.624C73.7719 125.827 74.2359 125.928 74.8226 125.928ZM74.6946 118.472C75.2919 118.472 75.7932 118.552 76.1986 118.712C76.6146 118.861 76.9452 119.08 77.1906 119.368C77.4466 119.645 77.6279 119.981 77.7346 120.376C77.8412 120.76 77.8946 121.187 77.8946 121.656V126.856C77.7666 126.877 77.5852 126.909 77.3506 126.952C77.1266 126.984 76.8706 127.016 76.5826 127.048C76.2946 127.08 75.9799 127.107 75.6386 127.128C75.3079 127.16 74.9772 127.176 74.6466 127.176C74.1772 127.176 73.7452 127.128 73.3506 127.032C72.9559 126.936 72.6146 126.787 72.3266 126.584C72.0386 126.371 71.8146 126.093 71.6546 125.752C71.4946 125.411 71.4146 125 71.4146 124.52C71.4146 124.061 71.5052 123.667 71.6866 123.336C71.8786 123.005 72.1346 122.739 72.4546 122.536C72.7746 122.333 73.1479 122.184 73.5746 122.088C74.0012 121.992 74.4492 121.944 74.9186 121.944C75.0679 121.944 75.2226 121.955 75.3826 121.976C75.5426 121.987 75.6919 122.008 75.8306 122.04C75.9799 122.061 76.1079 122.083 76.2146 122.104C76.3212 122.125 76.3959 122.141 76.4386 122.152V121.736C76.4386 121.491 76.4119 121.251 76.3586 121.016C76.3052 120.771 76.2092 120.557 76.0706 120.376C75.9319 120.184 75.7399 120.035 75.4946 119.928C75.2599 119.811 74.9506 119.752 74.5666 119.752C74.0759 119.752 73.6439 119.789 73.2706 119.864C72.9079 119.928 72.6359 119.997 72.4546 120.072L72.2786 118.84C72.4706 118.755 72.7906 118.675 73.2386 118.6C73.6866 118.515 74.1719 118.472 74.6946 118.472ZM87.6851 127.192C87.0131 127.192 86.4211 127.085 85.9091 126.872C85.4077 126.659 84.9811 126.36 84.6291 125.976C84.2877 125.592 84.0317 125.139 83.8611 124.616C83.6904 124.083 83.6051 123.496 83.6051 122.856C83.6051 122.216 83.6957 121.629 83.8771 121.096C84.0691 120.563 84.3357 120.104 84.6771 119.72C85.0184 119.325 85.4344 119.021 85.9251 118.808C86.4264 118.584 86.9811 118.472 87.5891 118.472C87.9624 118.472 88.3357 118.504 88.7091 118.568C89.0824 118.632 89.4397 118.733 89.7811 118.872L89.4451 120.136C89.2211 120.029 88.9597 119.944 88.6611 119.88C88.3731 119.816 88.0637 119.784 87.7331 119.784C86.9011 119.784 86.2611 120.045 85.8131 120.568C85.3757 121.091 85.1571 121.853 85.1571 122.856C85.1571 123.304 85.2051 123.715 85.3011 124.088C85.4077 124.461 85.5677 124.781 85.7811 125.048C86.0051 125.315 86.2877 125.523 86.6291 125.672C86.9704 125.811 87.3864 125.88 87.8771 125.88C88.2717 125.88 88.6291 125.843 88.9491 125.768C89.2691 125.693 89.5197 125.613 89.7011 125.528L89.9091 126.776C89.8237 126.829 89.7011 126.883 89.5411 126.936C89.3811 126.979 89.1997 127.016 88.9971 127.048C88.7944 127.091 88.5757 127.123 88.3411 127.144C88.1171 127.176 87.8984 127.192 87.6851 127.192ZM98.6474 122.84C98.6474 123.501 98.5514 124.099 98.3594 124.632C98.1674 125.165 97.8954 125.624 97.5434 126.008C97.2021 126.392 96.7914 126.691 96.3114 126.904C95.8314 127.107 95.3088 127.208 94.7434 127.208C94.1781 127.208 93.6554 127.107 93.1754 126.904C92.6954 126.691 92.2794 126.392 91.9274 126.008C91.5861 125.624 91.3194 125.165 91.1274 124.632C90.9354 124.099 90.8394 123.501 90.8394 122.84C90.8394 122.189 90.9354 121.597 91.1274 121.064C91.3194 120.52 91.5861 120.056 91.9274 119.672C92.2794 119.288 92.6954 118.995 93.1754 118.792C93.6554 118.579 94.1781 118.472 94.7434 118.472C95.3088 118.472 95.8314 118.579 96.3114 118.792C96.7914 118.995 97.2021 119.288 97.5434 119.672C97.8954 120.056 98.1674 120.52 98.3594 121.064C98.5514 121.597 98.6474 122.189 98.6474 122.84ZM97.0954 122.84C97.0954 121.901 96.8821 121.16 96.4554 120.616C96.0394 120.061 95.4688 119.784 94.7434 119.784C94.0181 119.784 93.4421 120.061 93.0154 120.616C92.5994 121.16 92.3914 121.901 92.3914 122.84C92.3914 123.779 92.5994 124.525 93.0154 125.08C93.4421 125.624 94.0181 125.896 94.7434 125.896C95.4688 125.896 96.0394 125.624 96.4554 125.08C96.8821 124.525 97.0954 123.779 97.0954 122.84ZM100.741 118.92C101.082 118.835 101.536 118.744 102.101 118.648C102.666 118.552 103.317 118.504 104.053 118.504C104.714 118.504 105.264 118.6 105.701 118.792C106.138 118.973 106.485 119.235 106.741 119.576C107.008 119.907 107.194 120.307 107.301 120.776C107.408 121.245 107.461 121.763 107.461 122.328V127H105.973V122.648C105.973 122.136 105.936 121.699 105.861 121.336C105.797 120.973 105.685 120.68 105.525 120.456C105.365 120.232 105.152 120.072 104.885 119.976C104.618 119.869 104.288 119.816 103.893 119.816C103.733 119.816 103.568 119.821 103.397 119.832C103.226 119.843 103.061 119.859 102.901 119.88C102.752 119.891 102.613 119.907 102.485 119.928C102.368 119.949 102.282 119.965 102.229 119.976V127H100.741V118.92ZM111.864 125.928C112.472 125.928 112.92 125.848 113.208 125.688C113.507 125.528 113.656 125.272 113.656 124.92C113.656 124.557 113.512 124.269 113.224 124.056C112.936 123.843 112.462 123.603 111.8 123.336C111.48 123.208 111.171 123.08 110.872 122.952C110.584 122.813 110.334 122.653 110.12 122.472C109.907 122.291 109.736 122.072 109.608 121.816C109.48 121.56 109.416 121.245 109.416 120.872C109.416 120.136 109.688 119.555 110.232 119.128C110.776 118.691 111.518 118.472 112.456 118.472C112.691 118.472 112.926 118.488 113.16 118.52C113.395 118.541 113.614 118.573 113.816 118.616C114.019 118.648 114.195 118.685 114.344 118.728C114.504 118.771 114.627 118.808 114.712 118.84L114.44 120.12C114.28 120.035 114.03 119.949 113.688 119.864C113.347 119.768 112.936 119.72 112.456 119.72C112.04 119.72 111.678 119.805 111.368 119.976C111.059 120.136 110.904 120.392 110.904 120.744C110.904 120.925 110.936 121.085 111 121.224C111.075 121.363 111.182 121.491 111.32 121.608C111.47 121.715 111.651 121.816 111.864 121.912C112.078 122.008 112.334 122.109 112.632 122.216C113.027 122.365 113.379 122.515 113.688 122.664C113.998 122.803 114.259 122.968 114.472 123.16C114.696 123.352 114.867 123.587 114.984 123.864C115.102 124.131 115.16 124.461 115.16 124.856C115.16 125.624 114.872 126.205 114.296 126.6C113.731 126.995 112.92 127.192 111.864 127.192C111.128 127.192 110.552 127.128 110.136 127C109.72 126.883 109.438 126.792 109.288 126.728L109.56 125.448C109.731 125.512 110.003 125.608 110.376 125.736C110.75 125.864 111.246 125.928 111.864 125.928ZM123.693 126.76C123.352 126.845 122.898 126.936 122.333 127.032C121.778 127.128 121.133 127.176 120.397 127.176C119.757 127.176 119.218 127.085 118.781 126.904C118.344 126.712 117.992 126.445 117.725 126.104C117.458 125.763 117.266 125.363 117.149 124.904C117.032 124.435 116.973 123.917 116.973 123.352V118.68H118.461V123.032C118.461 124.045 118.621 124.771 118.941 125.208C119.261 125.645 119.8 125.864 120.557 125.864C120.717 125.864 120.882 125.859 121.053 125.848C121.224 125.837 121.384 125.827 121.533 125.816C121.682 125.795 121.816 125.779 121.933 125.768C122.061 125.747 122.152 125.725 122.205 125.704V118.68H123.693V126.76ZM128.753 127.16C127.835 127.139 127.185 126.941 126.801 126.568C126.417 126.195 126.225 125.613 126.225 124.824V114.84L127.713 114.584V124.584C127.713 124.829 127.734 125.032 127.777 125.192C127.819 125.352 127.889 125.48 127.985 125.576C128.081 125.672 128.209 125.747 128.369 125.8C128.529 125.843 128.726 125.88 128.961 125.912L128.753 127.16ZM132.024 118.68H135.176V119.928H132.024V123.768C132.024 124.184 132.056 124.531 132.12 124.808C132.184 125.075 132.28 125.288 132.408 125.448C132.536 125.597 132.696 125.704 132.888 125.768C133.08 125.832 133.304 125.864 133.56 125.864C134.008 125.864 134.365 125.816 134.632 125.72C134.909 125.613 135.101 125.539 135.208 125.496L135.496 126.728C135.346 126.803 135.085 126.893 134.712 127C134.338 127.117 133.912 127.176 133.432 127.176C132.866 127.176 132.397 127.107 132.024 126.968C131.661 126.819 131.368 126.6 131.144 126.312C130.92 126.024 130.76 125.672 130.664 125.256C130.578 124.829 130.536 124.339 130.536 123.784V116.36L132.024 116.104V118.68ZM139.885 125.928C140.237 125.928 140.546 125.923 140.813 125.912C141.09 125.891 141.32 125.859 141.501 125.816V123.336C141.394 123.283 141.218 123.24 140.973 123.208C140.738 123.165 140.45 123.144 140.109 123.144C139.885 123.144 139.645 123.16 139.389 123.192C139.144 123.224 138.914 123.293 138.701 123.4C138.498 123.496 138.328 123.635 138.189 123.816C138.05 123.987 137.981 124.216 137.981 124.504C137.981 125.037 138.152 125.411 138.493 125.624C138.834 125.827 139.298 125.928 139.885 125.928ZM139.757 118.472C140.354 118.472 140.856 118.552 141.261 118.712C141.677 118.861 142.008 119.08 142.253 119.368C142.509 119.645 142.69 119.981 142.797 120.376C142.904 120.76 142.957 121.187 142.957 121.656V126.856C142.829 126.877 142.648 126.909 142.413 126.952C142.189 126.984 141.933 127.016 141.645 127.048C141.357 127.08 141.042 127.107 140.701 127.128C140.37 127.16 140.04 127.176 139.709 127.176C139.24 127.176 138.808 127.128 138.413 127.032C138.018 126.936 137.677 126.787 137.389 126.584C137.101 126.371 136.877 126.093 136.717 125.752C136.557 125.411 136.477 125 136.477 124.52C136.477 124.061 136.568 123.667 136.749 123.336C136.941 123.005 137.197 122.739 137.517 122.536C137.837 122.333 138.21 122.184 138.637 122.088C139.064 121.992 139.512 121.944 139.981 121.944C140.13 121.944 140.285 121.955 140.445 121.976C140.605 121.987 140.754 122.008 140.893 122.04C141.042 122.061 141.17 122.083 141.277 122.104C141.384 122.125 141.458 122.141 141.501 122.152V121.736C141.501 121.491 141.474 121.251 141.421 121.016C141.368 120.771 141.272 120.557 141.133 120.376C140.994 120.184 140.802 120.035 140.557 119.928C140.322 119.811 140.013 119.752 139.629 119.752C139.138 119.752 138.706 119.789 138.333 119.864C137.97 119.928 137.698 119.997 137.517 120.072L137.341 118.84C137.533 118.755 137.853 118.675 138.301 118.6C138.749 118.515 139.234 118.472 139.757 118.472ZM49.7669 142.856C49.7669 141.885 49.5269 141.139 49.0469 140.616C48.5669 140.093 47.9269 139.832 47.1269 139.832C46.6789 139.832 46.3269 139.848 46.0709 139.88C45.8256 139.912 45.6283 139.949 45.4789 139.992V145.24C45.6603 145.389 45.9216 145.533 46.2629 145.672C46.6043 145.811 46.9776 145.88 47.3829 145.88C47.8096 145.88 48.1723 145.805 48.4709 145.656C48.7803 145.496 49.0309 145.283 49.2229 145.016C49.4149 144.739 49.5536 144.419 49.6389 144.056C49.7243 143.683 49.7669 143.283 49.7669 142.856ZM51.3189 142.856C51.3189 143.485 51.2336 144.067 51.0629 144.6C50.9029 145.133 50.6629 145.592 50.3429 145.976C50.0229 146.36 49.6283 146.659 49.1589 146.872C48.7003 147.085 48.1723 147.192 47.5749 147.192C47.0949 147.192 46.6683 147.128 46.2949 147C45.9323 146.872 45.6603 146.749 45.4789 146.632V149.96H43.9909V138.936C44.3429 138.851 44.7803 138.76 45.3029 138.664C45.8363 138.557 46.4496 138.504 47.1429 138.504C47.7829 138.504 48.3589 138.605 48.8709 138.808C49.3829 139.011 49.8203 139.299 50.1829 139.672C50.5456 140.045 50.8229 140.504 51.0149 141.048C51.2176 141.581 51.3189 142.184 51.3189 142.856ZM56.2288 145.928C56.5808 145.928 56.8901 145.923 57.1568 145.912C57.4341 145.891 57.6635 145.859 57.8448 145.816V143.336C57.7381 143.283 57.5621 143.24 57.3168 143.208C57.0821 143.165 56.7941 143.144 56.4528 143.144C56.2288 143.144 55.9888 143.16 55.7328 143.192C55.4875 143.224 55.2581 143.293 55.0448 143.4C54.8421 143.496 54.6715 143.635 54.5328 143.816C54.3941 143.987 54.3248 144.216 54.3248 144.504C54.3248 145.037 54.4955 145.411 54.8368 145.624C55.1781 145.827 55.6421 145.928 56.2288 145.928ZM56.1008 138.472C56.6981 138.472 57.1995 138.552 57.6048 138.712C58.0208 138.861 58.3515 139.08 58.5968 139.368C58.8528 139.645 59.0341 139.981 59.1408 140.376C59.2475 140.76 59.3008 141.187 59.3008 141.656V146.856C59.1728 146.877 58.9915 146.909 58.7568 146.952C58.5328 146.984 58.2768 147.016 57.9888 147.048C57.7008 147.08 57.3861 147.107 57.0448 147.128C56.7141 147.16 56.3835 147.176 56.0528 147.176C55.5835 147.176 55.1515 147.128 54.7568 147.032C54.3621 146.936 54.0208 146.787 53.7328 146.584C53.4448 146.371 53.2208 146.093 53.0608 145.752C52.9008 145.411 52.8208 145 52.8208 144.52C52.8208 144.061 52.9115 143.667 53.0928 143.336C53.2848 143.005 53.5408 142.739 53.8608 142.536C54.1808 142.333 54.5541 142.184 54.9808 142.088C55.4075 141.992 55.8555 141.944 56.3248 141.944C56.4741 141.944 56.6288 141.955 56.7888 141.976C56.9488 141.987 57.0981 142.008 57.2368 142.04C57.3861 142.061 57.5141 142.083 57.6208 142.104C57.7275 142.125 57.8021 142.141 57.8448 142.152V141.736C57.8448 141.491 57.8181 141.251 57.7648 141.016C57.7115 140.771 57.6155 140.557 57.4768 140.376C57.3381 140.184 57.1461 140.035 56.9008 139.928C56.6661 139.811 56.3568 139.752 55.9728 139.752C55.4821 139.752 55.0501 139.789 54.6768 139.864C54.3141 139.928 54.0421 139.997 53.8608 140.072L53.6848 138.84C53.8768 138.755 54.1968 138.675 54.6448 138.6C55.0928 138.515 55.5781 138.472 56.1008 138.472ZM64.8442 138.504C64.9722 138.504 65.1162 138.515 65.2762 138.536C65.4469 138.547 65.6122 138.568 65.7722 138.6C65.9322 138.621 66.0762 138.648 66.2042 138.68C66.3429 138.701 66.4442 138.723 66.5082 138.744L66.2522 140.04C66.1349 139.997 65.9375 139.949 65.6602 139.896C65.3935 139.832 65.0469 139.8 64.6202 139.8C64.3429 139.8 64.0655 139.832 63.7882 139.896C63.5215 139.949 63.3455 139.987 63.2602 140.008V147H61.7722V139.032C62.1242 138.904 62.5615 138.787 63.0842 138.68C63.6069 138.563 64.1935 138.504 64.8442 138.504ZM70.7601 145.928C71.1121 145.928 71.4214 145.923 71.6881 145.912C71.9654 145.891 72.1947 145.859 72.3761 145.816V143.336C72.2694 143.283 72.0934 143.24 71.8481 143.208C71.6134 143.165 71.3254 143.144 70.9841 143.144C70.7601 143.144 70.5201 143.16 70.2641 143.192C70.0187 143.224 69.7894 143.293 69.5761 143.4C69.3734 143.496 69.2027 143.635 69.0641 143.816C68.9254 143.987 68.8561 144.216 68.8561 144.504C68.8561 145.037 69.0267 145.411 69.3681 145.624C69.7094 145.827 70.1734 145.928 70.7601 145.928ZM70.6321 138.472C71.2294 138.472 71.7307 138.552 72.1361 138.712C72.5521 138.861 72.8827 139.08 73.1281 139.368C73.3841 139.645 73.5654 139.981 73.6721 140.376C73.7787 140.76 73.8321 141.187 73.8321 141.656V146.856C73.7041 146.877 73.5227 146.909 73.2881 146.952C73.0641 146.984 72.8081 147.016 72.5201 147.048C72.2321 147.08 71.9174 147.107 71.5761 147.128C71.2454 147.16 70.9147 147.176 70.5841 147.176C70.1147 147.176 69.6827 147.128 69.2881 147.032C68.8934 146.936 68.5521 146.787 68.2641 146.584C67.9761 146.371 67.7521 146.093 67.5921 145.752C67.4321 145.411 67.3521 145 67.3521 144.52C67.3521 144.061 67.4427 143.667 67.6241 143.336C67.8161 143.005 68.0721 142.739 68.3921 142.536C68.7121 142.333 69.0854 142.184 69.5121 142.088C69.9387 141.992 70.3867 141.944 70.8561 141.944C71.0054 141.944 71.1601 141.955 71.3201 141.976C71.4801 141.987 71.6294 142.008 71.7681 142.04C71.9174 142.061 72.0454 142.083 72.1521 142.104C72.2587 142.125 72.3334 142.141 72.3761 142.152V141.736C72.3761 141.491 72.3494 141.251 72.2961 141.016C72.2427 140.771 72.1467 140.557 72.0081 140.376C71.8694 140.184 71.6774 140.035 71.4321 139.928C71.1974 139.811 70.8881 139.752 70.5041 139.752C70.0134 139.752 69.5814 139.789 69.2081 139.864C68.8454 139.928 68.5734 139.997 68.3921 140.072L68.2161 138.84C68.4081 138.755 68.7281 138.675 69.1761 138.6C69.6241 138.515 70.1094 138.472 70.6321 138.472ZM80.0066 147V134.84L81.4946 134.584V138.84C81.7719 138.733 82.0652 138.653 82.3746 138.6C82.6946 138.536 83.0092 138.504 83.3186 138.504C83.9799 138.504 84.5292 138.6 84.9666 138.792C85.4039 138.973 85.7506 139.235 86.0066 139.576C86.2732 139.907 86.4599 140.307 86.5666 140.776C86.6732 141.245 86.7266 141.763 86.7266 142.328V147H85.2386V142.648C85.2386 142.136 85.2012 141.699 85.1266 141.336C85.0626 140.973 84.9506 140.68 84.7906 140.456C84.6306 140.232 84.4172 140.072 84.1506 139.976C83.8839 139.869 83.5532 139.816 83.1586 139.816C82.9986 139.816 82.8332 139.827 82.6626 139.848C82.4919 139.869 82.3266 139.896 82.1666 139.928C82.0172 139.949 81.8786 139.976 81.7506 140.008C81.6332 140.04 81.5479 140.067 81.4946 140.088V147H80.0066ZM96.4912 142.84C96.4912 143.501 96.3952 144.099 96.2032 144.632C96.0112 145.165 95.7392 145.624 95.3872 146.008C95.0459 146.392 94.6352 146.691 94.1552 146.904C93.6752 147.107 93.1525 147.208 92.5872 147.208C92.0219 147.208 91.4992 147.107 91.0192 146.904C90.5392 146.691 90.1232 146.392 89.7712 146.008C89.4299 145.624 89.1632 145.165 88.9712 144.632C88.7792 144.099 88.6832 143.501 88.6832 142.84C88.6832 142.189 88.7792 141.597 88.9712 141.064C89.1632 140.52 89.4299 140.056 89.7712 139.672C90.1232 139.288 90.5392 138.995 91.0192 138.792C91.4992 138.579 92.0219 138.472 92.5872 138.472C93.1525 138.472 93.6752 138.579 94.1552 138.792C94.6352 138.995 95.0459 139.288 95.3872 139.672C95.7392 140.056 96.0112 140.52 96.2032 141.064C96.3952 141.597 96.4912 142.189 96.4912 142.84ZM94.9392 142.84C94.9392 141.901 94.7259 141.16 94.2992 140.616C93.8832 140.061 93.3125 139.784 92.5872 139.784C91.8619 139.784 91.2859 140.061 90.8592 140.616C90.4432 141.16 90.2352 141.901 90.2352 142.84C90.2352 143.779 90.4432 144.525 90.8592 145.08C91.2859 145.624 91.8619 145.896 92.5872 145.896C93.3125 145.896 93.8832 145.624 94.2992 145.08C94.7259 144.525 94.9392 143.779 94.9392 142.84ZM97.2247 149.992C97.0967 149.992 96.9314 149.976 96.7287 149.944C96.526 149.912 96.3554 149.869 96.2167 149.816L96.4087 148.6C96.5154 148.632 96.638 148.659 96.7767 148.68C96.9154 148.701 97.0434 148.712 97.1607 148.712C97.6727 148.712 98.0354 148.552 98.2487 148.232C98.4727 147.923 98.5847 147.464 98.5847 146.856V138.68H100.073V146.84C100.073 147.907 99.8274 148.696 99.3367 149.208C98.8567 149.731 98.1527 149.992 97.2247 149.992ZM99.3207 137.176C99.054 137.176 98.8247 137.091 98.6327 136.92C98.4514 136.739 98.3607 136.499 98.3607 136.2C98.3607 135.901 98.4514 135.667 98.6327 135.496C98.8247 135.315 99.054 135.224 99.3207 135.224C99.5874 135.224 99.8114 135.315 99.9927 135.496C100.185 135.667 100.281 135.901 100.281 136.2C100.281 136.499 100.185 136.739 99.9927 136.92C99.8114 137.091 99.5874 137.176 99.3207 137.176ZM102.168 142.856C102.168 142.12 102.274 141.48 102.488 140.936C102.701 140.381 102.984 139.923 103.336 139.56C103.688 139.197 104.093 138.925 104.552 138.744C105.01 138.563 105.48 138.472 105.96 138.472C107.08 138.472 107.938 138.824 108.536 139.528C109.133 140.221 109.432 141.283 109.432 142.712C109.432 142.776 109.432 142.861 109.432 142.968C109.432 143.064 109.426 143.155 109.416 143.24H103.72C103.784 144.104 104.034 144.76 104.472 145.208C104.909 145.656 105.592 145.88 106.52 145.88C107.042 145.88 107.48 145.837 107.832 145.752C108.194 145.656 108.466 145.565 108.648 145.48L108.856 146.728C108.674 146.824 108.354 146.925 107.896 147.032C107.448 147.139 106.936 147.192 106.36 147.192C105.634 147.192 105.005 147.085 104.472 146.872C103.949 146.648 103.517 146.344 103.176 145.96C102.834 145.576 102.578 145.123 102.408 144.6C102.248 144.067 102.168 143.485 102.168 142.856ZM107.88 142.04C107.89 141.368 107.72 140.819 107.368 140.392C107.026 139.955 106.552 139.736 105.944 139.736C105.602 139.736 105.298 139.805 105.032 139.944C104.776 140.072 104.557 140.243 104.376 140.456C104.194 140.669 104.05 140.915 103.944 141.192C103.848 141.469 103.784 141.752 103.752 142.04H107.88Z" fill="#9C9C9C"/>
<path d="M55.2313 60.4219C55.2548 59.3603 55.0368 58.2607 54.4122 57.4022C53.7875 56.5435 52.7051 55.9754 51.6585 56.1531C50.9739 54.477 49.356 53.2881 47.6 52.8479C45.8439 52.4077 43.9713 52.6477 42.2564 53.2285C40.7965 53.7231 39.3736 54.5012 38.4661 55.747C37.372 57.2489 37.1697 59.2123 37.1596 61.0705C37.1308 66.381 38.3869 71.6936 40.7892 76.4296C42.4155 73.5378 45.5555 71.9062 48.3343 70.085C50.0576 68.9554 51.7141 67.6799 53 66.0699C54.286 64.4597 55.1851 62.482 55.2313 60.4219Z" fill="#EBEBEB"/>
<path d="M41.0399 73.8587L41.016 73.8096L40.9836 73.8635L41.0399 73.8587Z" fill="#415DA1"/>
<path d="M43.3441 68.9097C41.8562 69.9583 40.8047 71.6077 40.4818 73.3993L40.8202 73.1103C41.8713 71.8932 42.9305 70.6682 44.1901 69.6683C45.4495 68.6686 48.3381 66.5989 49.9367 66.4256C48.1408 66.1273 44.8322 67.8608 43.3441 68.9097Z" fill="#E6E6E6"/>
<path d="M63.1603 72.8683C63.07 71.2612 62.2953 69.7744 61.4203 68.4234C60.5985 67.1544 59.5988 65.8957 58.1877 65.3533C57.0315 64.909 55.742 65.0036 54.5196 65.202C49.365 66.0386 44.0897 69.2884 40.5676 73.1437C42.6042 74.9824 45.3753 76.8741 47.8371 78.0856C49.794 79.0488 51.8865 79.8021 54.0609 79.9743C56.2353 80.1463 58.5062 79.6987 60.2867 78.4387C62.0673 77.1789 63.2828 75.046 63.1603 72.8683Z" fill="#EBEBEB"/>
<path d="M50.3513 87.4018C50.4869 86.8312 50.3036 86.2379 50.1065 85.6857C48.5057 81.198 44.457 76.1785 41.0281 72.8701C37.7667 74.6632 36.0828 78.3983 33.5909 81.1628C32.6748 82.1794 31.7228 83.2647 31.4522 84.606C31.2168 85.7728 31.5442 87.0078 32.1807 88.0136C32.8173 89.0193 33.7421 89.815 34.7403 90.4635C37.3424 92.1543 40.6479 92.9066 43.626 92.0352C45.5608 91.4689 47.2412 90.2765 48.8811 89.1042C49.5052 88.658 50.1738 88.1481 50.3513 87.4018Z" fill="#EBEBEB"/>
<path d="M32.5599 69.2877C29.5123 68.2826 26.2763 67.7115 23.0858 68.0556C21.5797 68.2179 20.034 68.6141 18.8907 69.6078C17.7474 70.6013 17.1274 72.3148 17.7626 73.6899C18.0885 74.3959 18.6944 74.9378 19.0542 75.627C19.5594 76.5953 19.5302 77.7437 19.7704 78.8093C20.4056 81.6294 23.1939 83.804 26.0839 83.7329C28.3912 83.6761 30.4706 82.3772 32.3238 81.0015C35.3056 78.788 38.5952 75.8348 41.0477 73.0461C38.173 71.6197 35.6074 70.293 32.5599 69.2877Z" fill="#EBEBEB"/>
<path d="M36.7163 59.6632C35.8079 58.0328 34.7978 56.4119 33.3558 55.2267C31.9137 54.0417 29.9574 53.3452 28.1504 53.813C26.3437 54.2809 24.8746 56.1389 25.2281 57.9715C23.9054 58.1255 22.5475 58.2901 21.3713 58.9141C20.1947 59.5377 19.2236 60.7341 19.2662 62.0652C19.295 62.968 19.7835 63.8087 20.4318 64.4378C21.0801 65.0668 21.8808 65.5126 22.6812 65.9313C28.6185 69.0388 34.3813 70.9321 40.7755 72.9377C40.1728 68.3875 38.95 63.6729 36.7163 59.6632Z" fill="#EBEBEB"/>
<path d="M37.5319 61.1299C36.9542 63.2274 37.2338 66.1653 37.9816 68.2084C38.7296 70.2515 39.1576 71.5003 40.6285 73.1034C39.2391 69.4076 38.1517 65.0291 37.5319 61.1299Z" fill="#E6E6E6"/>
<path d="M35.0509 79.0995C36.8672 77.3947 38.4963 75.4907 39.8997 73.4326C37.3012 74.2879 35.7706 76.4601 35.0509 79.0995Z" fill="#E6E6E6"/>
<path d="M27.1447 68.0462C31.4525 68.2768 35.7287 69.4932 39.6332 71.328C36.0126 68.2828 31.8126 67.2769 27.1447 68.0462Z" fill="#E6E6E6"/>
<path d="M40.4469 73.2627C38.7534 72.0021 36.9779 70.6361 36.2236 68.6646C36.1514 68.4763 36.0887 68.2774 36.1067 68.0765C36.1248 67.8757 36.2417 67.6719 36.4324 67.6061C36.7028 67.5131 36.9777 67.7184 37.1871 67.9135C37.8282 68.5107 38.434 69.1458 39.0004 69.8143C38.963 69.4549 38.9271 69.0824 39.0418 68.7398C39.1564 68.3972 39.4661 68.0917 39.8272 68.1031C40.1222 68.1124 40.3795 68.3309 40.514 68.5938C40.6484 68.8567 40.6812 69.1585 40.6989 69.4534C40.7706 70.6339 40.641 71.8165 40.5114 72.9921" fill="white"/>
<path d="M102.115 60.4219C102.091 59.3603 102.309 58.2607 102.934 57.4022C103.558 56.5435 104.641 55.9754 105.687 56.1531C106.372 54.477 107.99 53.2881 109.746 52.8479C111.502 52.4077 113.374 52.6477 115.089 53.2285C116.549 53.7231 117.972 54.5012 118.88 55.747C119.974 57.2489 120.176 59.2123 120.186 61.0705C120.215 66.381 118.959 71.6936 116.557 76.4296C114.93 73.5378 111.79 71.9062 109.012 70.085C107.288 68.9554 105.632 67.6799 104.346 66.0699C103.06 64.4597 102.161 62.482 102.115 60.4219Z" fill="#EBEBEB"/>
<path d="M116.306 73.8587L116.33 73.8096L116.362 73.8635L116.306 73.8587Z" fill="#415DA1"/>
<path d="M114.002 68.9097C115.49 69.9583 116.541 71.6077 116.864 73.3993L116.526 73.1103C115.474 71.8932 114.415 70.6682 113.156 69.6683C111.896 68.6686 109.008 66.5989 107.409 66.4256C109.205 66.1273 112.514 67.8608 114.002 68.9097Z" fill="#E6E6E6"/>
<path d="M94.1855 72.8683C94.2758 71.2612 95.0505 69.7744 95.9255 68.4234C96.7473 67.1544 97.747 65.8957 99.1581 65.3533C100.314 64.909 101.604 65.0036 102.826 65.202C107.981 66.0386 113.256 69.2884 116.778 73.1437C114.742 74.9824 111.97 76.8741 109.509 78.0856C107.552 79.0488 105.459 79.8021 103.285 79.9743C101.111 80.1463 98.8396 79.6987 97.0591 78.4387C95.2785 77.1789 94.063 75.046 94.1855 72.8683Z" fill="#EBEBEB"/>
<path d="M106.994 87.4018C106.859 86.8312 107.042 86.2379 107.239 85.6857C108.84 81.198 112.889 76.1785 116.318 72.8701C119.579 74.6632 121.263 78.3983 123.755 81.1628C124.671 82.1794 125.623 83.2647 125.894 84.606C126.129 85.7728 125.802 87.0078 125.165 88.0136C124.529 89.0193 123.604 89.815 122.605 90.4635C120.003 92.1543 116.698 92.9066 113.72 92.0352C111.785 91.4689 110.105 90.2765 108.465 89.1042C107.841 88.658 107.172 88.1481 106.994 87.4018Z" fill="#EBEBEB"/>
<path d="M124.786 69.2877C127.833 68.2826 131.069 67.7115 134.26 68.0556C135.766 68.2179 137.312 68.6141 138.455 69.6078C139.598 70.6013 140.218 72.3148 139.583 73.6899C139.257 74.3959 138.651 74.9378 138.292 75.627C137.786 76.5953 137.815 77.7437 137.575 78.8093C136.94 81.6294 134.152 83.804 131.262 83.7329C128.954 83.6761 126.875 82.3772 125.022 81.0015C122.04 78.788 118.75 75.8348 116.298 73.0461C119.173 71.6197 121.738 70.293 124.786 69.2877Z" fill="#EBEBEB"/>
<path d="M120.629 59.6632C121.538 58.0328 122.548 56.4119 123.99 55.2267C125.432 54.0417 127.388 53.3452 129.195 53.813C131.002 54.2809 132.471 56.1389 132.118 57.9715C133.44 58.1255 134.798 58.2901 135.975 58.9141C137.151 59.5377 138.122 60.7341 138.08 62.0652C138.051 62.968 137.562 63.8087 136.914 64.4378C136.266 65.0668 135.465 65.5126 134.665 65.9313C128.727 69.0388 122.964 70.9321 116.57 72.9377C117.173 68.3875 118.396 63.6729 120.629 59.6632Z" fill="#EBEBEB"/>
<path d="M119.814 61.1299C120.392 63.2274 120.112 66.1653 119.364 68.2084C118.616 70.2515 118.188 71.5003 116.717 73.1034C118.107 69.4076 119.194 65.0291 119.814 61.1299Z" fill="#E6E6E6"/>
<path d="M122.295 79.0995C120.479 77.3947 118.849 75.4907 117.446 73.4326C120.045 74.2879 121.575 76.4601 122.295 79.0995Z" fill="#E6E6E6"/>
<path d="M130.201 68.0462C125.893 68.2768 121.617 69.4932 117.713 71.328C121.333 68.2828 125.533 67.2769 130.201 68.0462Z" fill="#E6E6E6"/>
<path d="M116.899 73.2627C118.592 72.0021 120.368 70.6361 121.122 68.6646C121.194 68.4763 121.257 68.2774 121.239 68.0765C121.221 67.8757 121.104 67.6719 120.913 67.6061C120.643 67.5131 120.368 67.7184 120.159 67.9135C119.518 68.5107 118.912 69.1458 118.345 69.8143C118.383 69.4549 118.419 69.0824 118.304 68.7398C118.189 68.3972 117.88 68.0917 117.519 68.1031C117.224 68.1124 116.966 68.3309 116.832 68.5938C116.697 68.8567 116.665 69.1585 116.647 69.4534C116.575 70.6339 116.705 71.8165 116.834 72.9921" fill="white"/>
<path d="M114.499 53.5822C115.879 52.2261 116.992 50.5131 117.267 48.598C117.543 46.683 116.852 44.5654 115.259 43.467C116.495 40.4083 115.893 36.7995 114.16 33.9928C112.426 31.1862 109.675 29.1195 106.698 27.6986C104.163 26.4891 101.316 25.6966 98.5472 26.1702C95.2096 26.7413 92.4502 29.048 90.0754 31.4618C83.2883 38.36 78.1769 46.8942 75.2948 56.132C81.0941 54.4226 87.268 56.2828 93.2115 57.4359C96.8975 58.151 100.682 58.5908 104.407 58.1224C108.133 57.6539 111.821 56.2142 114.499 53.5822Z" fill="#415DA1"/>
<g opacity="0.5">
<path d="M114.499 53.5822C115.879 52.2261 116.992 50.5131 117.267 48.598C117.543 46.683 116.852 44.5654 115.259 43.467C116.495 40.4083 115.893 36.7995 114.16 33.9928C112.426 31.1862 109.675 29.1195 106.698 27.6986C104.163 26.4891 101.316 25.6966 98.5472 26.1702C95.2096 26.7413 92.4502 29.048 90.0754 31.4618C83.2883 38.36 78.1769 46.8942 75.2948 56.132C81.0941 54.4226 87.268 56.2828 93.2115 57.4359C96.8975 58.151 100.682 58.5908 104.407 58.1224C108.133 57.6539 111.821 56.2142 114.499 53.5822Z" fill="white"/>
</g>
<path d="M75.2642 56.2208L75.2943 56.1292C75.2587 56.1397 75.2227 56.1467 75.187 56.1576L75.2642 56.2208Z" fill="#415DA1"/>
<g opacity="0.3">
<path d="M84.5615 52.6941C81.2855 52.1725 77.8161 52.9899 75.1174 54.9191L75.9267 54.9721C78.8463 54.7185 81.7863 54.4645 84.7018 54.7598C87.6174 55.055 94.0195 56.0233 96.3277 57.8286C94.3615 55.1569 87.8378 53.2158 84.5615 52.6941Z" fill="black"/>
</g>
<path d="M105.408 83.0482C107.333 80.8346 108.211 77.9083 108.785 75.0322C109.325 72.3306 109.619 69.4162 108.466 66.9147C107.52 64.8649 105.716 63.3497 103.868 62.0551C96.0733 56.5967 85.054 54.1358 75.5548 54.6943C75.8774 59.6836 77.0921 65.6759 78.7669 70.387C80.0984 74.1318 81.8738 77.7749 84.4943 80.7633C87.1153 83.7514 90.6498 86.0528 94.5763 86.6705C98.5026 87.2881 102.801 86.0476 105.408 83.0482Z" fill="#415DA1"/>
<g opacity="0.5">
<path d="M105.408 83.0512C107.333 80.8375 108.211 77.9112 108.785 75.0351C109.325 72.3335 109.619 69.4192 108.466 66.9176C107.52 64.8678 105.716 63.3527 103.868 62.058C96.0732 56.5996 85.0539 54.1387 75.5547 54.6972C75.8774 59.6865 77.0921 65.6788 78.7668 70.3899C80.0984 74.1347 81.8737 77.7778 84.4943 80.7662C87.1152 83.7544 90.6498 86.0557 94.5762 86.6734C98.5025 87.291 102.8 86.0505 105.408 83.0512Z" fill="white"/>
</g>
<path d="M70.2109 85.7484C71.1131 85.1758 71.6278 84.1679 72.0722 83.1963C75.6852 75.3014 76.7777 63.6007 76.5044 54.9225C69.9662 53.1191 63.0205 55.8566 56.2527 56.2999C53.7644 56.4629 51.142 56.6701 49.0837 58.078C47.2934 59.3026 46.1514 61.3315 45.7046 63.4539C45.2576 65.5764 45.4541 67.7908 45.9333 69.9063C47.1823 75.4213 50.543 80.6048 55.5398 83.2518C58.7859 84.9713 62.4959 85.5498 66.1275 86.103C67.5093 86.3137 69.0308 86.4973 70.2109 85.7484Z" fill="#415DA1"/>
<g opacity="0.5">
<path d="M70.2109 85.7493C71.1131 85.1767 71.6278 84.1689 72.0722 83.1973C75.6852 75.3024 76.7777 63.6017 76.5044 54.9235C69.9662 53.1201 63.0205 55.8576 56.2527 56.3009C53.7644 56.4638 51.142 56.6711 49.0837 58.079C47.2934 59.3035 46.1514 61.3325 45.7046 63.4549C45.2576 65.5774 45.4541 67.7917 45.9333 69.9072C47.1823 75.4223 50.543 80.6058 55.5398 83.2527C58.7859 84.9723 62.4959 85.5508 66.1275 86.104C67.5093 86.3147 69.0308 86.4983 70.2109 85.7493Z" fill="white"/>
</g>
<path d="M69.9982 39.4827C67.2959 34.2969 63.7958 29.4384 59.1921 25.8326C57.0191 24.1306 54.4968 22.6837 51.7411 22.5283C48.9852 22.3727 45.9978 23.8224 45.0795 26.4255C44.6083 27.7614 44.7106 29.2391 44.3045 30.5963C43.7337 32.503 42.236 33.9658 41.1952 35.6623C38.4404 40.1525 39.3182 46.5361 43.1827 50.1161C46.2679 52.9744 50.6342 53.9208 54.8026 54.4797C61.5097 55.3786 69.5589 55.703 76.3057 55.1781C74.3646 49.662 72.7004 44.6686 69.9982 39.4827Z" fill="#415DA1"/>
<g opacity="0.5">
<path d="M69.9982 39.4817C67.2959 34.2959 63.7958 29.4374 59.1922 25.8316C57.0191 24.1296 54.4968 22.6827 51.7411 22.5273C48.9853 22.3717 45.9979 23.8215 45.0795 26.4245C44.6083 27.7605 44.7106 29.2382 44.3045 30.5953C43.7338 32.5021 42.2361 33.9648 41.1952 35.6613C38.4405 40.1515 39.3182 46.5351 43.1827 50.1152C46.268 52.9734 50.6343 53.9198 54.8026 54.4787C61.5097 55.3776 69.5589 55.702 76.3058 55.1771C74.3646 49.661 72.7004 44.6676 69.9982 39.4817Z" fill="white"/>
</g>
<path d="M87.66 32.1934C88.5458 28.9097 89.287 25.5091 88.9098 22.1289C88.533 18.7487 86.8634 15.3526 83.9092 13.6671C80.9549 11.9817 76.6752 12.5411 74.8076 15.3836C72.8845 13.9037 70.9023 12.3928 68.5731 11.7127C66.2441 11.032 63.4553 11.3602 61.8192 13.1525C60.7097 14.3682 60.2789 16.0866 60.3263 17.732C60.3732 19.3775 60.8524 20.9773 61.3653 22.5413C65.1696 34.1452 70.289 43.9418 76.0901 54.6873C81.0862 47.9793 85.4811 40.2688 87.66 32.1934Z" fill="#415DA1"/>
<g opacity="0.5">
<path d="M87.66 32.1925C88.5458 28.9088 89.287 25.5081 88.9098 22.1279C88.5331 18.7478 86.8635 15.3517 83.9092 13.6661C80.955 11.9808 76.6752 12.5401 74.8076 15.3826C72.8846 13.9027 70.9024 12.3919 68.5731 11.7117C66.2441 11.031 63.4553 11.3593 61.8192 13.1515C60.7097 14.3672 60.279 16.0856 60.3263 17.7311C60.3732 19.3765 60.8524 20.9763 61.3653 22.5403C65.1697 34.1442 70.2891 43.9408 76.0901 54.6863C81.0862 47.9784 85.4811 40.2678 87.66 32.1925Z" fill="white"/>
</g>
<g opacity="0.3">
<path d="M86.7774 35.0983C83.3573 37.1034 79.9883 41.2953 78.3685 44.9139C76.7483 48.5324 75.72 50.7073 75.6038 54.6702C78.4863 48.0781 82.6311 40.9782 86.7774 35.0983Z" fill="black"/>
</g>
<g opacity="0.3">
<path d="M60.7805 55.4599C65.319 55.542 69.8665 55.126 74.3148 54.222C69.8342 52.0367 65.0746 52.9279 60.7805 55.4599Z" fill="black"/>
</g>
<g opacity="0.3">
<path d="M64.4233 30.9248C69.7561 36.701 73.7945 43.7242 76.5615 51.0826C75.7036 42.5044 71.4971 35.8527 64.4233 30.9248Z" fill="black"/>
</g>
<path d="M75.6074 54.7779C74.7687 51.0237 73.9418 47.0258 75.2453 43.4067C75.3698 43.0611 75.5198 42.7117 75.7836 42.4559C76.0476 42.2002 76.4511 42.0576 76.7926 42.1937C77.2769 42.3871 77.412 42.9973 77.4691 43.5159C77.6439 45.1028 77.7249 46.7002 77.7117 48.2966C78.0878 47.7561 78.4809 47.1991 79.0468 46.8625C79.6127 46.5259 80.4034 46.4722 80.8886 46.9175C81.2848 47.2814 81.38 47.8892 81.253 48.4118C81.126 48.9346 80.8121 49.3903 80.4861 49.8186C79.1809 51.5336 77.5955 53.012 76.0184 54.4812" fill="white"/>
</svg>
