<svg width="153" height="152" viewBox="0 0 153 152" fill="none" xmlns="http://www.w3.org/2000/svg">
<path d="M29.8504 125.896C31.4718 125.896 32.2824 125.341 32.2824 124.232C32.2824 123.891 32.2078 123.603 32.0584 123.368C31.9198 123.123 31.7278 122.915 31.4824 122.744C31.2371 122.563 30.9544 122.408 30.6344 122.28C30.3251 122.152 29.9944 122.024 29.6424 121.896C29.2371 121.757 28.8531 121.603 28.4904 121.432C28.1278 121.251 27.8131 121.043 27.5464 120.808C27.2798 120.563 27.0664 120.275 26.9064 119.944C26.7571 119.613 26.6824 119.213 26.6824 118.744C26.6824 117.773 27.0131 117.016 27.6744 116.472C28.3358 115.928 29.2478 115.656 30.4104 115.656C31.0824 115.656 31.6904 115.731 32.2344 115.88C32.7891 116.019 33.1944 116.173 33.4504 116.344L32.9544 117.608C32.7304 117.469 32.3944 117.336 31.9464 117.208C31.5091 117.069 30.9971 117 30.4104 117C30.1118 117 29.8344 117.032 29.5784 117.096C29.3224 117.16 29.0984 117.256 28.9064 117.384C28.7144 117.512 28.5598 117.677 28.4424 117.88C28.3358 118.072 28.2824 118.301 28.2824 118.568C28.2824 118.867 28.3411 119.117 28.4584 119.32C28.5758 119.523 28.7411 119.704 28.9544 119.864C29.1678 120.013 29.4131 120.152 29.6904 120.28C29.9784 120.408 30.2931 120.536 30.6344 120.664C31.1144 120.856 31.5518 121.048 31.9464 121.24C32.3518 121.432 32.6984 121.661 32.9864 121.928C33.2851 122.195 33.5144 122.515 33.6744 122.888C33.8344 123.251 33.9144 123.693 33.9144 124.216C33.9144 125.187 33.5571 125.933 32.8424 126.456C32.1384 126.979 31.1411 127.24 29.8504 127.24C29.4131 127.24 29.0078 127.208 28.6344 127.144C28.2718 127.091 27.9464 127.027 27.6584 126.952C27.3704 126.867 27.1198 126.781 26.9064 126.696C26.7038 126.6 26.5438 126.52 26.4264 126.456L26.8904 125.176C27.1358 125.315 27.5091 125.469 28.0104 125.64C28.5118 125.811 29.1251 125.896 29.8504 125.896ZM35.2301 122.856C35.2301 122.12 35.3367 121.48 35.5501 120.936C35.7634 120.381 36.0461 119.923 36.3981 119.56C36.7501 119.197 37.1554 118.925 37.6141 118.744C38.0727 118.563 38.5421 118.472 39.0221 118.472C40.1421 118.472 41.0007 118.824 41.5981 119.528C42.1954 120.221 42.4941 121.283 42.4941 122.712C42.4941 122.776 42.4941 122.861 42.4941 122.968C42.4941 123.064 42.4887 123.155 42.4781 123.24H36.7821C36.8461 124.104 37.0967 124.76 37.5341 125.208C37.9714 125.656 38.6541 125.88 39.5821 125.88C40.1047 125.88 40.5421 125.837 40.8941 125.752C41.2567 125.656 41.5287 125.565 41.7101 125.48L41.9181 126.728C41.7367 126.824 41.4167 126.925 40.9581 127.032C40.5101 127.139 39.9981 127.192 39.4221 127.192C38.6967 127.192 38.0674 127.085 37.5341 126.872C37.0114 126.648 36.5794 126.344 36.2381 125.96C35.8967 125.576 35.6407 125.123 35.4701 124.6C35.3101 124.067 35.2301 123.485 35.2301 122.856ZM40.9421 122.04C40.9527 121.368 40.7821 120.819 40.4301 120.392C40.0887 119.955 39.6141 119.736 39.0061 119.736C38.6647 119.736 38.3607 119.805 38.0941 119.944C37.8381 120.072 37.6194 120.243 37.4381 120.456C37.2567 120.669 37.1127 120.915 37.0061 121.192C36.9101 121.469 36.8461 121.752 36.8141 122.04H40.9421ZM44.6316 118.92C44.9729 118.835 45.4209 118.744 45.9756 118.648C46.5409 118.552 47.1916 118.504 47.9276 118.504C48.4609 118.504 48.9089 118.579 49.2716 118.728C49.6342 118.867 49.9382 119.075 50.1836 119.352C50.2582 119.299 50.3756 119.224 50.5356 119.128C50.6956 119.032 50.8929 118.941 51.1276 118.856C51.3622 118.76 51.6236 118.68 51.9116 118.616C52.1996 118.541 52.5089 118.504 52.8396 118.504C53.4796 118.504 54.0022 118.6 54.4076 118.792C54.8129 118.973 55.1276 119.235 55.3516 119.576C55.5862 119.917 55.7409 120.323 55.8156 120.792C55.9009 121.261 55.9436 121.773 55.9436 122.328V127H54.4556V122.648C54.4556 122.157 54.4289 121.736 54.3756 121.384C54.3329 121.032 54.2422 120.739 54.1036 120.504C53.9756 120.269 53.7942 120.099 53.5596 119.992C53.3356 119.875 53.0422 119.816 52.6796 119.816C52.1782 119.816 51.7622 119.885 51.4316 120.024C51.1116 120.152 50.8929 120.269 50.7756 120.376C50.8609 120.653 50.9249 120.957 50.9676 121.288C51.0102 121.619 51.0316 121.965 51.0316 122.328V127H49.5436V122.648C49.5436 122.157 49.5169 121.736 49.4636 121.384C49.4102 121.032 49.3142 120.739 49.1756 120.504C49.0476 120.269 48.8662 120.099 48.6316 119.992C48.4076 119.875 48.1196 119.816 47.7676 119.816C47.6182 119.816 47.4582 119.821 47.2876 119.832C47.1169 119.843 46.9516 119.859 46.7916 119.88C46.6422 119.891 46.5036 119.907 46.3756 119.928C46.2476 119.949 46.1622 119.965 46.1196 119.976V127H44.6316V118.92ZM67.8919 122.856C67.8919 121.885 67.6519 121.139 67.1719 120.616C66.6919 120.093 66.0519 119.832 65.2519 119.832C64.8039 119.832 64.4519 119.848 64.1959 119.88C63.9506 119.912 63.7533 119.949 63.6039 119.992V125.24C63.7853 125.389 64.0466 125.533 64.3879 125.672C64.7293 125.811 65.1026 125.88 65.5079 125.88C65.9346 125.88 66.2973 125.805 66.5959 125.656C66.9053 125.496 67.1559 125.283 67.3479 125.016C67.5399 124.739 67.6786 124.419 67.7639 124.056C67.8493 123.683 67.8919 123.283 67.8919 122.856ZM69.4439 122.856C69.4439 123.485 69.3586 124.067 69.1879 124.6C69.0279 125.133 68.7879 125.592 68.4679 125.976C68.1479 126.36 67.7533 126.659 67.2839 126.872C66.8253 127.085 66.2973 127.192 65.6999 127.192C65.2199 127.192 64.7933 127.128 64.4199 127C64.0573 126.872 63.7853 126.749 63.6039 126.632V129.96H62.1159V118.936C62.4679 118.851 62.9053 118.76 63.4279 118.664C63.9613 118.557 64.5746 118.504 65.2679 118.504C65.9079 118.504 66.4839 118.605 66.9959 118.808C67.5079 119.011 67.9453 119.299 68.3079 119.672C68.6706 120.045 68.9479 120.504 69.1399 121.048C69.3426 121.581 69.4439 122.184 69.4439 122.856ZM74.6098 118.504C74.7378 118.504 74.8818 118.515 75.0418 118.536C75.2125 118.547 75.3778 118.568 75.5378 118.6C75.6978 118.621 75.8418 118.648 75.9698 118.68C76.1085 118.701 76.2098 118.723 76.2738 118.744L76.0178 120.04C75.9005 119.997 75.7031 119.949 75.4258 119.896C75.1591 119.832 74.8125 119.8 74.3858 119.8C74.1085 119.8 73.8311 119.832 73.5538 119.896C73.2871 119.949 73.1111 119.987 73.0258 120.008V127H71.5378V119.032C71.8898 118.904 72.3271 118.787 72.8498 118.68C73.3725 118.563 73.9591 118.504 74.6098 118.504ZM85.0537 122.84C85.0537 123.501 84.9577 124.099 84.7657 124.632C84.5737 125.165 84.3017 125.624 83.9497 126.008C83.6084 126.392 83.1977 126.691 82.7177 126.904C82.2377 127.107 81.715 127.208 81.1497 127.208C80.5844 127.208 80.0617 127.107 79.5817 126.904C79.1017 126.691 78.6857 126.392 78.3337 126.008C77.9924 125.624 77.7257 125.165 77.5337 124.632C77.3417 124.099 77.2457 123.501 77.2457 122.84C77.2457 122.189 77.3417 121.597 77.5337 121.064C77.7257 120.52 77.9924 120.056 78.3337 119.672C78.6857 119.288 79.1017 118.995 79.5817 118.792C80.0617 118.579 80.5844 118.472 81.1497 118.472C81.715 118.472 82.2377 118.579 82.7177 118.792C83.1977 118.995 83.6084 119.288 83.9497 119.672C84.3017 120.056 84.5737 120.52 84.7657 121.064C84.9577 121.597 85.0537 122.189 85.0537 122.84ZM83.5017 122.84C83.5017 121.901 83.2884 121.16 82.8617 120.616C82.4457 120.061 81.875 119.784 81.1497 119.784C80.4244 119.784 79.8484 120.061 79.4217 120.616C79.0057 121.16 78.7977 121.901 78.7977 122.84C78.7977 123.779 79.0057 124.525 79.4217 125.08C79.8484 125.624 80.4244 125.896 81.1497 125.896C81.875 125.896 82.4457 125.624 82.8617 125.08C83.2884 124.525 83.5017 123.779 83.5017 122.84ZM83.0857 115.528L80.8297 117.72L80.0777 117.048L82.1257 114.584L83.0857 115.528ZM91.8576 127C91.7402 126.765 91.5962 126.504 91.4256 126.216C91.2549 125.928 91.0682 125.635 90.8656 125.336C90.6629 125.027 90.4549 124.723 90.2416 124.424C90.0282 124.125 89.8202 123.843 89.6176 123.576C89.4149 123.843 89.2069 124.131 88.9936 124.44C88.7802 124.739 88.5722 125.043 88.3696 125.352C88.1776 125.651 87.9962 125.944 87.8256 126.232C87.6549 126.52 87.5109 126.776 87.3936 127H85.8576C86.2309 126.275 86.6736 125.539 87.1856 124.792C87.7082 124.035 88.2256 123.315 88.7376 122.632L85.9856 118.68H87.6656L89.6496 121.592L91.6496 118.68H93.2336L90.5456 122.536C91.0576 123.229 91.5802 123.965 92.1136 124.744C92.6576 125.512 93.1162 126.264 93.4896 127H91.8576ZM96.5414 127H95.0534V118.68H96.5414V127ZM95.7894 117.176C95.5228 117.176 95.2934 117.091 95.1014 116.92C94.9201 116.739 94.8294 116.499 94.8294 116.2C94.8294 115.901 94.9201 115.667 95.1014 115.496C95.2934 115.315 95.5228 115.224 95.7894 115.224C96.0561 115.224 96.2801 115.315 96.4614 115.496C96.6534 115.667 96.7494 115.901 96.7494 116.2C96.7494 116.499 96.6534 116.739 96.4614 116.92C96.2801 117.091 96.0561 117.176 95.7894 117.176ZM99.1003 118.92C99.4416 118.835 99.8896 118.744 100.444 118.648C101.01 118.552 101.66 118.504 102.396 118.504C102.93 118.504 103.378 118.579 103.74 118.728C104.103 118.867 104.407 119.075 104.652 119.352C104.727 119.299 104.844 119.224 105.004 119.128C105.164 119.032 105.362 118.941 105.596 118.856C105.831 118.76 106.092 118.68 106.38 118.616C106.668 118.541 106.978 118.504 107.308 118.504C107.948 118.504 108.471 118.6 108.876 118.792C109.282 118.973 109.596 119.235 109.82 119.576C110.055 119.917 110.21 120.323 110.284 120.792C110.37 121.261 110.412 121.773 110.412 122.328V127H108.924V122.648C108.924 122.157 108.898 121.736 108.844 121.384C108.802 121.032 108.711 120.739 108.572 120.504C108.444 120.269 108.263 120.099 108.028 119.992C107.804 119.875 107.511 119.816 107.148 119.816C106.647 119.816 106.231 119.885 105.9 120.024C105.58 120.152 105.362 120.269 105.244 120.376C105.33 120.653 105.394 120.957 105.436 121.288C105.479 121.619 105.5 121.965 105.5 122.328V127H104.012V122.648C104.012 122.157 103.986 121.736 103.932 121.384C103.879 121.032 103.783 120.739 103.644 120.504C103.516 120.269 103.335 120.099 103.1 119.992C102.876 119.875 102.588 119.816 102.236 119.816C102.087 119.816 101.927 119.821 101.756 119.832C101.586 119.843 101.42 119.859 101.26 119.88C101.111 119.891 100.972 119.907 100.844 119.928C100.716 119.949 100.631 119.965 100.588 119.976V127H99.1003V118.92ZM115.698 125.928C116.05 125.928 116.359 125.923 116.626 125.912C116.903 125.891 117.132 125.859 117.314 125.816V123.336C117.207 123.283 117.031 123.24 116.786 123.208C116.551 123.165 116.263 123.144 115.922 123.144C115.698 123.144 115.458 123.16 115.202 123.192C114.956 123.224 114.727 123.293 114.514 123.4C114.311 123.496 114.14 123.635 114.002 123.816C113.863 123.987 113.794 124.216 113.794 124.504C113.794 125.037 113.964 125.411 114.306 125.624C114.647 125.827 115.111 125.928 115.698 125.928ZM115.57 118.472C116.167 118.472 116.668 118.552 117.074 118.712C117.49 118.861 117.82 119.08 118.066 119.368C118.322 119.645 118.503 119.981 118.61 120.376C118.716 120.76 118.77 121.187 118.77 121.656V126.856C118.642 126.877 118.46 126.909 118.226 126.952C118.002 126.984 117.746 127.016 117.458 127.048C117.17 127.08 116.855 127.107 116.514 127.128C116.183 127.16 115.852 127.176 115.522 127.176C115.052 127.176 114.62 127.128 114.226 127.032C113.831 126.936 113.49 126.787 113.202 126.584C112.914 126.371 112.69 126.093 112.53 125.752C112.37 125.411 112.29 125 112.29 124.52C112.29 124.061 112.38 123.667 112.562 123.336C112.754 123.005 113.01 122.739 113.33 122.536C113.65 122.333 114.023 122.184 114.45 122.088C114.876 121.992 115.324 121.944 115.794 121.944C115.943 121.944 116.098 121.955 116.258 121.976C116.418 121.987 116.567 122.008 116.706 122.04C116.855 122.061 116.983 122.083 117.09 122.104C117.196 122.125 117.271 122.141 117.314 122.152V121.736C117.314 121.491 117.287 121.251 117.234 121.016C117.18 120.771 117.084 120.557 116.946 120.376C116.807 120.184 116.615 120.035 116.37 119.928C116.135 119.811 115.826 119.752 115.442 119.752C114.951 119.752 114.519 119.789 114.146 119.864C113.783 119.928 113.511 119.997 113.33 120.072L113.154 118.84C113.346 118.755 113.666 118.675 114.114 118.6C114.562 118.515 115.047 118.472 115.57 118.472ZM123.177 125.928C123.785 125.928 124.233 125.848 124.521 125.688C124.82 125.528 124.969 125.272 124.969 124.92C124.969 124.557 124.825 124.269 124.537 124.056C124.249 123.843 123.774 123.603 123.113 123.336C122.793 123.208 122.484 123.08 122.185 122.952C121.897 122.813 121.646 122.653 121.433 122.472C121.22 122.291 121.049 122.072 120.921 121.816C120.793 121.56 120.729 121.245 120.729 120.872C120.729 120.136 121.001 119.555 121.545 119.128C122.089 118.691 122.83 118.472 123.769 118.472C124.004 118.472 124.238 118.488 124.473 118.52C124.708 118.541 124.926 118.573 125.129 118.616C125.332 118.648 125.508 118.685 125.657 118.728C125.817 118.771 125.94 118.808 126.025 118.84L125.753 120.12C125.593 120.035 125.342 119.949 125.001 119.864C124.66 119.768 124.249 119.72 123.769 119.72C123.353 119.72 122.99 119.805 122.681 119.976C122.372 120.136 122.217 120.392 122.217 120.744C122.217 120.925 122.249 121.085 122.313 121.224C122.388 121.363 122.494 121.491 122.633 121.608C122.782 121.715 122.964 121.816 123.177 121.912C123.39 122.008 123.646 122.109 123.945 122.216C124.34 122.365 124.692 122.515 125.001 122.664C125.31 122.803 125.572 122.968 125.785 123.16C126.009 123.352 126.18 123.587 126.297 123.864C126.414 124.131 126.473 124.461 126.473 124.856C126.473 125.624 126.185 126.205 125.609 126.6C125.044 126.995 124.233 127.192 123.177 127.192C122.441 127.192 121.865 127.128 121.449 127C121.033 126.883 120.75 126.792 120.601 126.728L120.873 125.448C121.044 125.512 121.316 125.608 121.689 125.736C122.062 125.864 122.558 125.928 123.177 125.928ZM47.146 147.192C46.474 147.192 45.882 147.085 45.37 146.872C44.8687 146.659 44.442 146.36 44.09 145.976C43.7487 145.592 43.4927 145.139 43.322 144.616C43.1513 144.083 43.066 143.496 43.066 142.856C43.066 142.216 43.1567 141.629 43.338 141.096C43.53 140.563 43.7967 140.104 44.138 139.72C44.4793 139.325 44.8953 139.021 45.386 138.808C45.8873 138.584 46.442 138.472 47.05 138.472C47.4233 138.472 47.7967 138.504 48.17 138.568C48.5433 138.632 48.9007 138.733 49.242 138.872L48.906 140.136C48.682 140.029 48.4207 139.944 48.122 139.88C47.834 139.816 47.5247 139.784 47.194 139.784C46.362 139.784 45.722 140.045 45.274 140.568C44.8367 141.091 44.618 141.853 44.618 142.856C44.618 143.304 44.666 143.715 44.762 144.088C44.8687 144.461 45.0287 144.781 45.242 145.048C45.466 145.315 45.7487 145.523 46.09 145.672C46.4313 145.811 46.8473 145.88 47.338 145.88C47.7327 145.88 48.09 145.843 48.41 145.768C48.73 145.693 48.9807 145.613 49.162 145.528L49.37 146.776C49.2847 146.829 49.162 146.883 49.002 146.936C48.842 146.979 48.6607 147.016 48.458 147.048C48.2553 147.091 48.0367 147.123 47.802 147.144C47.578 147.176 47.3593 147.192 47.146 147.192ZM58.1084 142.84C58.1084 143.501 58.0124 144.099 57.8204 144.632C57.6284 145.165 57.3564 145.624 57.0044 146.008C56.663 146.392 56.2524 146.691 55.7724 146.904C55.2924 147.107 54.7697 147.208 54.2044 147.208C53.639 147.208 53.1164 147.107 52.6364 146.904C52.1564 146.691 51.7404 146.392 51.3884 146.008C51.047 145.624 50.7804 145.165 50.5884 144.632C50.3964 144.099 50.3004 143.501 50.3004 142.84C50.3004 142.189 50.3964 141.597 50.5884 141.064C50.7804 140.52 51.047 140.056 51.3884 139.672C51.7404 139.288 52.1564 138.995 52.6364 138.792C53.1164 138.579 53.639 138.472 54.2044 138.472C54.7697 138.472 55.2924 138.579 55.7724 138.792C56.2524 138.995 56.663 139.288 57.0044 139.672C57.3564 140.056 57.6284 140.52 57.8204 141.064C58.0124 141.597 58.1084 142.189 58.1084 142.84ZM56.5564 142.84C56.5564 141.901 56.343 141.16 55.9164 140.616C55.5004 140.061 54.9297 139.784 54.2044 139.784C53.479 139.784 52.903 140.061 52.4764 140.616C52.0604 141.16 51.8524 141.901 51.8524 142.84C51.8524 143.779 52.0604 144.525 52.4764 145.08C52.903 145.624 53.479 145.896 54.2044 145.896C54.9297 145.896 55.5004 145.624 55.9164 145.08C56.343 144.525 56.5564 143.779 56.5564 142.84ZM60.2019 138.92C60.5432 138.835 60.9965 138.744 61.5619 138.648C62.1272 138.552 62.7779 138.504 63.5139 138.504C64.1752 138.504 64.7245 138.6 65.1619 138.792C65.5992 138.973 65.9459 139.235 66.2019 139.576C66.4685 139.907 66.6552 140.307 66.7619 140.776C66.8685 141.245 66.9219 141.763 66.9219 142.328V147H65.4339V142.648C65.4339 142.136 65.3965 141.699 65.3219 141.336C65.2579 140.973 65.1459 140.68 64.9859 140.456C64.8259 140.232 64.6125 140.072 64.3459 139.976C64.0792 139.869 63.7485 139.816 63.3539 139.816C63.1939 139.816 63.0285 139.821 62.8579 139.832C62.6872 139.843 62.5219 139.859 62.3619 139.88C62.2125 139.891 62.0739 139.907 61.9459 139.928C61.8285 139.949 61.7432 139.965 61.6899 139.976V147H60.2019V138.92ZM71.3254 145.928C71.9334 145.928 72.3814 145.848 72.6694 145.688C72.968 145.528 73.1174 145.272 73.1174 144.92C73.1174 144.557 72.9734 144.269 72.6854 144.056C72.3974 143.843 71.9227 143.603 71.2614 143.336C70.9414 143.208 70.632 143.08 70.3334 142.952C70.0454 142.813 69.7947 142.653 69.5814 142.472C69.368 142.291 69.1974 142.072 69.0694 141.816C68.9414 141.56 68.8774 141.245 68.8774 140.872C68.8774 140.136 69.1494 139.555 69.6934 139.128C70.2374 138.691 70.9787 138.472 71.9174 138.472C72.152 138.472 72.3867 138.488 72.6214 138.52C72.856 138.541 73.0747 138.573 73.2774 138.616C73.48 138.648 73.656 138.685 73.8054 138.728C73.9654 138.771 74.088 138.808 74.1734 138.84L73.9014 140.12C73.7414 140.035 73.4907 139.949 73.1494 139.864C72.808 139.768 72.3974 139.72 71.9174 139.72C71.5014 139.72 71.1387 139.805 70.8294 139.976C70.52 140.136 70.3654 140.392 70.3654 140.744C70.3654 140.925 70.3974 141.085 70.4614 141.224C70.536 141.363 70.6427 141.491 70.7814 141.608C70.9307 141.715 71.112 141.816 71.3254 141.912C71.5387 142.008 71.7947 142.109 72.0934 142.216C72.488 142.365 72.84 142.515 73.1494 142.664C73.4587 142.803 73.72 142.968 73.9334 143.16C74.1574 143.352 74.328 143.587 74.4454 143.864C74.5627 144.131 74.6214 144.461 74.6214 144.856C74.6214 145.624 74.3334 146.205 73.7574 146.6C73.192 146.995 72.3814 147.192 71.3254 147.192C70.5894 147.192 70.0134 147.128 69.5974 147C69.1814 146.883 68.8987 146.792 68.7494 146.728L69.0214 145.448C69.192 145.512 69.464 145.608 69.8374 145.736C70.2107 145.864 70.7067 145.928 71.3254 145.928ZM83.154 146.76C82.8127 146.845 82.3593 146.936 81.794 147.032C81.2393 147.128 80.594 147.176 79.858 147.176C79.218 147.176 78.6793 147.085 78.242 146.904C77.8047 146.712 77.4527 146.445 77.186 146.104C76.9193 145.763 76.7273 145.363 76.61 144.904C76.4927 144.435 76.434 143.917 76.434 143.352V138.68H77.922V143.032C77.922 144.045 78.082 144.771 78.402 145.208C78.722 145.645 79.2607 145.864 80.018 145.864C80.178 145.864 80.3433 145.859 80.514 145.848C80.6847 145.837 80.8447 145.827 80.994 145.816C81.1433 145.795 81.2767 145.779 81.394 145.768C81.522 145.747 81.6127 145.725 81.666 145.704V138.68H83.154V146.76ZM88.2135 147.16C87.2962 147.139 86.6455 146.941 86.2615 146.568C85.8775 146.195 85.6855 145.613 85.6855 144.824V134.84L87.1735 134.584V144.584C87.1735 144.829 87.1948 145.032 87.2375 145.192C87.2802 145.352 87.3495 145.48 87.4455 145.576C87.5415 145.672 87.6695 145.747 87.8295 145.8C87.9895 145.843 88.1868 145.88 88.4215 145.912L88.2135 147.16ZM91.4845 138.68H94.6365V139.928H91.4845V143.768C91.4845 144.184 91.5165 144.531 91.5805 144.808C91.6445 145.075 91.7405 145.288 91.8685 145.448C91.9965 145.597 92.1565 145.704 92.3485 145.768C92.5405 145.832 92.7645 145.864 93.0205 145.864C93.4685 145.864 93.8258 145.816 94.0925 145.72C94.3698 145.613 94.5618 145.539 94.6685 145.496L94.9565 146.728C94.8072 146.803 94.5458 146.893 94.1725 147C93.7992 147.117 93.3725 147.176 92.8925 147.176C92.3272 147.176 91.8578 147.107 91.4845 146.968C91.1218 146.819 90.8285 146.6 90.6045 146.312C90.3805 146.024 90.2205 145.672 90.1245 145.256C90.0392 144.829 89.9965 144.339 89.9965 143.784V136.36L91.4845 136.104V138.68ZM99.346 145.928C99.698 145.928 100.007 145.923 100.274 145.912C100.551 145.891 100.781 145.859 100.962 145.816V143.336C100.855 143.283 100.679 143.24 100.434 143.208C100.199 143.165 99.9113 143.144 99.57 143.144C99.346 143.144 99.106 143.16 98.85 143.192C98.6047 143.224 98.3753 143.293 98.162 143.4C97.9593 143.496 97.7887 143.635 97.65 143.816C97.5113 143.987 97.442 144.216 97.442 144.504C97.442 145.037 97.6127 145.411 97.954 145.624C98.2953 145.827 98.7593 145.928 99.346 145.928ZM99.218 138.472C99.8153 138.472 100.317 138.552 100.722 138.712C101.138 138.861 101.469 139.08 101.714 139.368C101.97 139.645 102.151 139.981 102.258 140.376C102.365 140.76 102.418 141.187 102.418 141.656V146.856C102.29 146.877 102.109 146.909 101.874 146.952C101.65 146.984 101.394 147.016 101.106 147.048C100.818 147.08 100.503 147.107 100.162 147.128C99.8313 147.16 99.5007 147.176 99.17 147.176C98.7007 147.176 98.2687 147.128 97.874 147.032C97.4793 146.936 97.138 146.787 96.85 146.584C96.562 146.371 96.338 146.093 96.178 145.752C96.018 145.411 95.938 145 95.938 144.52C95.938 144.061 96.0287 143.667 96.21 143.336C96.402 143.005 96.658 142.739 96.978 142.536C97.298 142.333 97.6713 142.184 98.098 142.088C98.5247 141.992 98.9727 141.944 99.442 141.944C99.5913 141.944 99.746 141.955 99.906 141.976C100.066 141.987 100.215 142.008 100.354 142.04C100.503 142.061 100.631 142.083 100.738 142.104C100.845 142.125 100.919 142.141 100.962 142.152V141.736C100.962 141.491 100.935 141.251 100.882 141.016C100.829 140.771 100.733 140.557 100.594 140.376C100.455 140.184 100.263 140.035 100.018 139.928C99.7833 139.811 99.474 139.752 99.09 139.752C98.5993 139.752 98.1673 139.789 97.794 139.864C97.4313 139.928 97.1593 139.997 96.978 140.072L96.802 138.84C96.994 138.755 97.314 138.675 97.762 138.6C98.21 138.515 98.6953 138.472 99.218 138.472ZM106.825 145.928C107.433 145.928 107.881 145.848 108.169 145.688C108.468 145.528 108.617 145.272 108.617 144.92C108.617 144.557 108.473 144.269 108.185 144.056C107.897 143.843 107.423 143.603 106.761 143.336C106.441 143.208 106.132 143.08 105.833 142.952C105.545 142.813 105.295 142.653 105.081 142.472C104.868 142.291 104.697 142.072 104.569 141.816C104.441 141.56 104.377 141.245 104.377 140.872C104.377 140.136 104.649 139.555 105.193 139.128C105.737 138.691 106.479 138.472 107.417 138.472C107.652 138.472 107.887 138.488 108.121 138.52C108.356 138.541 108.575 138.573 108.777 138.616C108.98 138.648 109.156 138.685 109.305 138.728C109.465 138.771 109.588 138.808 109.673 138.84L109.401 140.12C109.241 140.035 108.991 139.949 108.649 139.864C108.308 139.768 107.897 139.72 107.417 139.72C107.001 139.72 106.639 139.805 106.329 139.976C106.02 140.136 105.865 140.392 105.865 140.744C105.865 140.925 105.897 141.085 105.961 141.224C106.036 141.363 106.143 141.491 106.281 141.608C106.431 141.715 106.612 141.816 106.825 141.912C107.039 142.008 107.295 142.109 107.593 142.216C107.988 142.365 108.34 142.515 108.649 142.664C108.959 142.803 109.22 142.968 109.433 143.16C109.657 143.352 109.828 143.587 109.945 143.864C110.063 144.131 110.121 144.461 110.121 144.856C110.121 145.624 109.833 146.205 109.257 146.6C108.692 146.995 107.881 147.192 106.825 147.192C106.089 147.192 105.513 147.128 105.097 147C104.681 146.883 104.399 146.792 104.249 146.728L104.521 145.448C104.692 145.512 104.964 145.608 105.337 145.736C105.711 145.864 106.207 145.928 106.825 145.928Z" fill="#9C9C9C"/>
<path d="M55.2313 60.4219C55.2548 59.3603 55.0368 58.2607 54.4122 57.4022C53.7875 56.5435 52.7051 55.9754 51.6585 56.1531C50.9739 54.477 49.356 53.2881 47.6 52.8479C45.8439 52.4077 43.9713 52.6477 42.2564 53.2285C40.7965 53.7231 39.3736 54.5012 38.4661 55.747C37.372 57.2489 37.1697 59.2123 37.1596 61.0705C37.1308 66.381 38.3869 71.6936 40.7892 76.4296C42.4155 73.5378 45.5555 71.9062 48.3343 70.085C50.0576 68.9554 51.7141 67.6799 53 66.0699C54.286 64.4597 55.1851 62.482 55.2313 60.4219Z" fill="#EBEBEB"/>
<path d="M41.0399 73.8587L41.016 73.8096L40.9836 73.8635L41.0399 73.8587Z" fill="#415DA1"/>
<path d="M43.3441 68.9097C41.8562 69.9583 40.8047 71.6077 40.4818 73.3993L40.8202 73.1103C41.8713 71.8932 42.9305 70.6682 44.1901 69.6683C45.4495 68.6686 48.3381 66.5989 49.9367 66.4256C48.1408 66.1273 44.8322 67.8608 43.3441 68.9097Z" fill="#E6E6E6"/>
<path d="M63.1603 72.8683C63.07 71.2612 62.2953 69.7744 61.4203 68.4234C60.5985 67.1544 59.5988 65.8957 58.1877 65.3533C57.0315 64.909 55.742 65.0036 54.5196 65.202C49.365 66.0386 44.0897 69.2884 40.5676 73.1437C42.6042 74.9824 45.3753 76.8741 47.8371 78.0856C49.794 79.0488 51.8865 79.8021 54.0609 79.9743C56.2353 80.1463 58.5062 79.6987 60.2867 78.4387C62.0673 77.1789 63.2828 75.046 63.1603 72.8683Z" fill="#EBEBEB"/>
<path d="M50.3513 87.4018C50.4869 86.8312 50.3036 86.2379 50.1065 85.6857C48.5057 81.198 44.457 76.1785 41.0281 72.8701C37.7667 74.6632 36.0828 78.3983 33.5909 81.1628C32.6748 82.1794 31.7228 83.2647 31.4522 84.606C31.2168 85.7728 31.5442 87.0078 32.1807 88.0136C32.8173 89.0193 33.7421 89.815 34.7403 90.4635C37.3424 92.1543 40.6479 92.9066 43.626 92.0352C45.5608 91.4689 47.2412 90.2765 48.8811 89.1042C49.5052 88.658 50.1738 88.1481 50.3513 87.4018Z" fill="#EBEBEB"/>
<path d="M32.5599 69.2877C29.5123 68.2826 26.2763 67.7115 23.0858 68.0556C21.5797 68.2179 20.034 68.6141 18.8907 69.6078C17.7474 70.6013 17.1274 72.3148 17.7626 73.6899C18.0885 74.3959 18.6944 74.9378 19.0542 75.627C19.5594 76.5953 19.5302 77.7437 19.7704 78.8093C20.4056 81.6294 23.1939 83.804 26.0839 83.7329C28.3912 83.6761 30.4706 82.3772 32.3238 81.0015C35.3056 78.788 38.5952 75.8348 41.0477 73.0461C38.173 71.6197 35.6074 70.293 32.5599 69.2877Z" fill="#EBEBEB"/>
<path d="M36.7163 59.6632C35.8079 58.0328 34.7978 56.4119 33.3558 55.2267C31.9137 54.0417 29.9574 53.3452 28.1504 53.813C26.3437 54.2809 24.8746 56.1389 25.2281 57.9715C23.9054 58.1255 22.5475 58.2901 21.3713 58.9141C20.1947 59.5377 19.2236 60.7341 19.2662 62.0652C19.295 62.968 19.7835 63.8087 20.4318 64.4378C21.0801 65.0668 21.8808 65.5126 22.6812 65.9313C28.6185 69.0388 34.3813 70.9321 40.7755 72.9377C40.1728 68.3875 38.95 63.6729 36.7163 59.6632Z" fill="#EBEBEB"/>
<path d="M37.5319 61.1299C36.9542 63.2274 37.2338 66.1653 37.9816 68.2084C38.7296 70.2515 39.1576 71.5003 40.6285 73.1034C39.2391 69.4076 38.1517 65.0291 37.5319 61.1299Z" fill="#E6E6E6"/>
<path d="M35.0509 79.0995C36.8672 77.3947 38.4963 75.4907 39.8997 73.4326C37.3012 74.2879 35.7706 76.4601 35.0509 79.0995Z" fill="#E6E6E6"/>
<path d="M27.1447 68.0462C31.4525 68.2768 35.7287 69.4932 39.6332 71.328C36.0126 68.2828 31.8126 67.2769 27.1447 68.0462Z" fill="#E6E6E6"/>
<path d="M40.4469 73.2627C38.7534 72.0021 36.9779 70.6361 36.2236 68.6646C36.1514 68.4763 36.0887 68.2774 36.1067 68.0765C36.1248 67.8757 36.2417 67.6719 36.4324 67.6061C36.7028 67.5131 36.9777 67.7184 37.1871 67.9135C37.8282 68.5107 38.434 69.1458 39.0004 69.8143C38.963 69.4549 38.9271 69.0824 39.0418 68.7398C39.1564 68.3972 39.4661 68.0917 39.8272 68.1031C40.1222 68.1124 40.3795 68.3309 40.514 68.5938C40.6484 68.8567 40.6812 69.1585 40.6989 69.4534C40.7706 70.6339 40.641 71.8165 40.5114 72.9921" fill="white"/>
<path d="M102.115 60.4219C102.091 59.3603 102.309 58.2607 102.934 57.4022C103.558 56.5435 104.641 55.9754 105.687 56.1531C106.372 54.477 107.99 53.2881 109.746 52.8479C111.502 52.4077 113.374 52.6477 115.089 53.2285C116.549 53.7231 117.972 54.5012 118.88 55.747C119.974 57.2489 120.176 59.2123 120.186 61.0705C120.215 66.381 118.959 71.6936 116.557 76.4296C114.93 73.5378 111.79 71.9062 109.012 70.085C107.288 68.9554 105.632 67.6799 104.346 66.0699C103.06 64.4597 102.161 62.482 102.115 60.4219Z" fill="#EBEBEB"/>
<path d="M116.306 73.8587L116.33 73.8096L116.362 73.8635L116.306 73.8587Z" fill="#415DA1"/>
<path d="M114.002 68.9097C115.49 69.9583 116.541 71.6077 116.864 73.3993L116.526 73.1103C115.474 71.8932 114.415 70.6682 113.156 69.6683C111.896 68.6686 109.008 66.5989 107.409 66.4256C109.205 66.1273 112.514 67.8608 114.002 68.9097Z" fill="#E6E6E6"/>
<path d="M94.1855 72.8683C94.2758 71.2612 95.0505 69.7744 95.9255 68.4234C96.7473 67.1544 97.747 65.8957 99.1581 65.3533C100.314 64.909 101.604 65.0036 102.826 65.202C107.981 66.0386 113.256 69.2884 116.778 73.1437C114.742 74.9824 111.97 76.8741 109.509 78.0856C107.552 79.0488 105.459 79.8021 103.285 79.9743C101.111 80.1463 98.8396 79.6987 97.0591 78.4387C95.2785 77.1789 94.063 75.046 94.1855 72.8683Z" fill="#EBEBEB"/>
<path d="M106.994 87.4018C106.859 86.8312 107.042 86.2379 107.239 85.6857C108.84 81.198 112.889 76.1785 116.318 72.8701C119.579 74.6632 121.263 78.3983 123.755 81.1628C124.671 82.1794 125.623 83.2647 125.894 84.606C126.129 85.7728 125.802 87.0078 125.165 88.0136C124.529 89.0193 123.604 89.815 122.605 90.4635C120.003 92.1543 116.698 92.9066 113.72 92.0352C111.785 91.4689 110.105 90.2765 108.465 89.1042C107.841 88.658 107.172 88.1481 106.994 87.4018Z" fill="#EBEBEB"/>
<path d="M124.786 69.2877C127.833 68.2826 131.069 67.7115 134.26 68.0556C135.766 68.2179 137.312 68.6141 138.455 69.6078C139.598 70.6013 140.218 72.3148 139.583 73.6899C139.257 74.3959 138.651 74.9378 138.292 75.627C137.786 76.5953 137.815 77.7437 137.575 78.8093C136.94 81.6294 134.152 83.804 131.262 83.7329C128.954 83.6761 126.875 82.3772 125.022 81.0015C122.04 78.788 118.75 75.8348 116.298 73.0461C119.173 71.6197 121.738 70.293 124.786 69.2877Z" fill="#EBEBEB"/>
<path d="M120.629 59.6632C121.538 58.0328 122.548 56.4119 123.99 55.2267C125.432 54.0417 127.388 53.3452 129.195 53.813C131.002 54.2809 132.471 56.1389 132.118 57.9715C133.44 58.1255 134.798 58.2901 135.975 58.9141C137.151 59.5377 138.122 60.7341 138.08 62.0652C138.051 62.968 137.562 63.8087 136.914 64.4378C136.266 65.0668 135.465 65.5126 134.665 65.9313C128.727 69.0388 122.964 70.9321 116.57 72.9377C117.173 68.3875 118.396 63.6729 120.629 59.6632Z" fill="#EBEBEB"/>
<path d="M119.814 61.1299C120.392 63.2274 120.112 66.1653 119.364 68.2084C118.616 70.2515 118.188 71.5003 116.717 73.1034C118.107 69.4076 119.194 65.0291 119.814 61.1299Z" fill="#E6E6E6"/>
<path d="M122.295 79.0995C120.479 77.3947 118.849 75.4907 117.446 73.4326C120.045 74.2879 121.575 76.4601 122.295 79.0995Z" fill="#E6E6E6"/>
<path d="M130.201 68.0462C125.893 68.2768 121.617 69.4932 117.713 71.328C121.333 68.2828 125.533 67.2769 130.201 68.0462Z" fill="#E6E6E6"/>
<path d="M116.899 73.2627C118.592 72.0021 120.368 70.6361 121.122 68.6646C121.194 68.4763 121.257 68.2774 121.239 68.0765C121.221 67.8757 121.104 67.6719 120.913 67.6061C120.643 67.5131 120.368 67.7184 120.159 67.9135C119.518 68.5107 118.912 69.1458 118.345 69.8143C118.383 69.4549 118.419 69.0824 118.304 68.7398C118.189 68.3972 117.88 68.0917 117.519 68.1031C117.224 68.1124 116.966 68.3309 116.832 68.5938C116.697 68.8567 116.665 69.1585 116.647 69.4534C116.575 70.6339 116.705 71.8165 116.834 72.9921" fill="white"/>
<path d="M114.499 53.5822C115.879 52.2261 116.992 50.5131 117.267 48.598C117.543 46.683 116.852 44.5654 115.259 43.467C116.495 40.4083 115.893 36.7995 114.16 33.9928C112.426 31.1862 109.675 29.1195 106.698 27.6986C104.163 26.4891 101.316 25.6966 98.5472 26.1702C95.2096 26.7413 92.4502 29.048 90.0754 31.4618C83.2883 38.36 78.1769 46.8942 75.2948 56.132C81.0941 54.4226 87.268 56.2828 93.2115 57.4359C96.8975 58.151 100.682 58.5908 104.407 58.1224C108.133 57.6539 111.821 56.2142 114.499 53.5822Z" fill="#415DA1"/>
<g opacity="0.5">
<path d="M114.499 53.5822C115.879 52.2261 116.992 50.5131 117.267 48.598C117.543 46.683 116.852 44.5654 115.259 43.467C116.495 40.4083 115.893 36.7995 114.16 33.9928C112.426 31.1862 109.675 29.1195 106.698 27.6986C104.163 26.4891 101.316 25.6966 98.5472 26.1702C95.2096 26.7413 92.4502 29.048 90.0754 31.4618C83.2883 38.36 78.1769 46.8942 75.2948 56.132C81.0941 54.4226 87.268 56.2828 93.2115 57.4359C96.8975 58.151 100.682 58.5908 104.407 58.1224C108.133 57.6539 111.821 56.2142 114.499 53.5822Z" fill="white"/>
</g>
<path d="M75.2642 56.2208L75.2943 56.1292C75.2587 56.1397 75.2227 56.1467 75.187 56.1576L75.2642 56.2208Z" fill="#415DA1"/>
<g opacity="0.3">
<path d="M84.5615 52.6941C81.2855 52.1725 77.8161 52.9899 75.1174 54.9191L75.9267 54.9721C78.8463 54.7185 81.7863 54.4645 84.7018 54.7598C87.6174 55.055 94.0195 56.0233 96.3277 57.8286C94.3615 55.1569 87.8378 53.2158 84.5615 52.6941Z" fill="black"/>
</g>
<path d="M105.408 83.0482C107.333 80.8346 108.211 77.9083 108.785 75.0322C109.325 72.3306 109.619 69.4162 108.466 66.9147C107.52 64.8649 105.716 63.3497 103.868 62.0551C96.0733 56.5967 85.054 54.1358 75.5548 54.6943C75.8774 59.6836 77.0921 65.6759 78.7669 70.387C80.0984 74.1318 81.8738 77.7749 84.4943 80.7633C87.1153 83.7514 90.6498 86.0528 94.5763 86.6705C98.5026 87.2881 102.801 86.0476 105.408 83.0482Z" fill="#415DA1"/>
<g opacity="0.5">
<path d="M105.408 83.0512C107.333 80.8375 108.211 77.9112 108.785 75.0351C109.325 72.3335 109.619 69.4192 108.466 66.9176C107.52 64.8678 105.716 63.3527 103.868 62.058C96.0732 56.5996 85.0539 54.1387 75.5547 54.6972C75.8774 59.6865 77.0921 65.6788 78.7668 70.3899C80.0984 74.1347 81.8737 77.7778 84.4943 80.7662C87.1152 83.7544 90.6498 86.0557 94.5762 86.6734C98.5025 87.291 102.8 86.0505 105.408 83.0512Z" fill="white"/>
</g>
<path d="M70.2109 85.7484C71.1131 85.1758 71.6278 84.1679 72.0722 83.1963C75.6852 75.3014 76.7777 63.6007 76.5044 54.9225C69.9662 53.1191 63.0205 55.8566 56.2527 56.2999C53.7644 56.4629 51.142 56.6701 49.0837 58.078C47.2934 59.3026 46.1514 61.3315 45.7046 63.4539C45.2576 65.5764 45.4541 67.7908 45.9333 69.9063C47.1823 75.4213 50.543 80.6048 55.5398 83.2518C58.7859 84.9713 62.4959 85.5498 66.1275 86.103C67.5093 86.3137 69.0308 86.4973 70.2109 85.7484Z" fill="#415DA1"/>
<g opacity="0.5">
<path d="M70.2109 85.7493C71.1131 85.1767 71.6278 84.1689 72.0722 83.1973C75.6852 75.3024 76.7777 63.6017 76.5044 54.9235C69.9662 53.1201 63.0205 55.8576 56.2527 56.3009C53.7644 56.4638 51.142 56.6711 49.0837 58.079C47.2934 59.3035 46.1514 61.3325 45.7046 63.4549C45.2576 65.5774 45.4541 67.7917 45.9333 69.9072C47.1823 75.4223 50.543 80.6058 55.5398 83.2527C58.7859 84.9723 62.4959 85.5508 66.1275 86.104C67.5093 86.3147 69.0308 86.4983 70.2109 85.7493Z" fill="white"/>
</g>
<path d="M69.9982 39.4827C67.2959 34.2969 63.7958 29.4384 59.1921 25.8326C57.0191 24.1306 54.4968 22.6837 51.7411 22.5283C48.9852 22.3727 45.9978 23.8224 45.0795 26.4255C44.6083 27.7614 44.7106 29.2391 44.3045 30.5963C43.7337 32.503 42.236 33.9658 41.1952 35.6623C38.4404 40.1525 39.3182 46.5361 43.1827 50.1161C46.2679 52.9744 50.6342 53.9208 54.8026 54.4797C61.5097 55.3786 69.5589 55.703 76.3057 55.1781C74.3646 49.662 72.7004 44.6686 69.9982 39.4827Z" fill="#415DA1"/>
<g opacity="0.5">
<path d="M69.9982 39.4817C67.2959 34.2959 63.7958 29.4374 59.1922 25.8316C57.0191 24.1296 54.4968 22.6827 51.7411 22.5273C48.9853 22.3717 45.9979 23.8215 45.0795 26.4245C44.6083 27.7605 44.7106 29.2382 44.3045 30.5953C43.7338 32.5021 42.2361 33.9648 41.1952 35.6613C38.4405 40.1515 39.3182 46.5351 43.1827 50.1152C46.268 52.9734 50.6343 53.9198 54.8026 54.4787C61.5097 55.3776 69.5589 55.702 76.3058 55.1771C74.3646 49.661 72.7004 44.6676 69.9982 39.4817Z" fill="white"/>
</g>
<path d="M87.66 32.1934C88.5458 28.9097 89.287 25.5091 88.9098 22.1289C88.533 18.7487 86.8634 15.3526 83.9092 13.6671C80.9549 11.9817 76.6752 12.5411 74.8076 15.3836C72.8845 13.9037 70.9023 12.3928 68.5731 11.7127C66.2441 11.032 63.4553 11.3602 61.8192 13.1525C60.7097 14.3682 60.2789 16.0866 60.3263 17.732C60.3732 19.3775 60.8524 20.9773 61.3653 22.5413C65.1696 34.1452 70.289 43.9418 76.0901 54.6873C81.0862 47.9793 85.4811 40.2688 87.66 32.1934Z" fill="#415DA1"/>
<g opacity="0.5">
<path d="M87.66 32.1925C88.5458 28.9088 89.287 25.5081 88.9098 22.1279C88.5331 18.7478 86.8635 15.3517 83.9092 13.6661C80.955 11.9808 76.6752 12.5401 74.8076 15.3826C72.8846 13.9027 70.9024 12.3919 68.5731 11.7117C66.2441 11.031 63.4553 11.3593 61.8192 13.1515C60.7097 14.3672 60.279 16.0856 60.3263 17.7311C60.3732 19.3765 60.8524 20.9763 61.3653 22.5403C65.1697 34.1442 70.2891 43.9408 76.0901 54.6863C81.0862 47.9784 85.4811 40.2678 87.66 32.1925Z" fill="white"/>
</g>
<g opacity="0.3">
<path d="M86.7774 35.0983C83.3573 37.1034 79.9883 41.2953 78.3685 44.9139C76.7483 48.5324 75.72 50.7073 75.6038 54.6702C78.4863 48.0781 82.6311 40.9782 86.7774 35.0983Z" fill="black"/>
</g>
<g opacity="0.3">
<path d="M60.7805 55.4599C65.319 55.542 69.8665 55.126 74.3148 54.222C69.8342 52.0367 65.0746 52.9279 60.7805 55.4599Z" fill="black"/>
</g>
<g opacity="0.3">
<path d="M64.4233 30.9248C69.7561 36.701 73.7945 43.7242 76.5615 51.0826C75.7036 42.5044 71.4971 35.8527 64.4233 30.9248Z" fill="black"/>
</g>
<path d="M75.6074 54.7779C74.7687 51.0237 73.9418 47.0258 75.2453 43.4067C75.3698 43.0611 75.5198 42.7117 75.7836 42.4559C76.0476 42.2002 76.4511 42.0576 76.7926 42.1937C77.2769 42.3871 77.412 42.9973 77.4691 43.5159C77.6439 45.1028 77.7249 46.7002 77.7117 48.2966C78.0878 47.7561 78.4809 47.1991 79.0468 46.8625C79.6127 46.5259 80.4034 46.4722 80.8886 46.9175C81.2848 47.2814 81.38 47.8892 81.253 48.4118C81.126 48.9346 80.8121 49.3903 80.4861 49.8186C79.1809 51.5336 77.5955 53.012 76.0184 54.4812" fill="white"/>
</svg>
