<svg width="153" height="152" viewBox="0 0 153 152" fill="none" xmlns="http://www.w3.org/2000/svg">
<path d="M31.5458 125.896C33.1671 125.896 33.9778 125.341 33.9778 124.232C33.9778 123.891 33.9031 123.603 33.7538 123.368C33.6151 123.123 33.4231 122.915 33.1778 122.744C32.9324 122.563 32.6498 122.408 32.3298 122.28C32.0204 122.152 31.6898 122.024 31.3378 121.896C30.9324 121.757 30.5484 121.603 30.1858 121.432C29.8231 121.251 29.5084 121.043 29.2418 120.808C28.9751 120.563 28.7618 120.275 28.6018 119.944C28.4524 119.613 28.3778 119.213 28.3778 118.744C28.3778 117.773 28.7084 117.016 29.3698 116.472C30.0311 115.928 30.9431 115.656 32.1058 115.656C32.7778 115.656 33.3858 115.731 33.9298 115.88C34.4844 116.019 34.8898 116.173 35.1458 116.344L34.6498 117.608C34.4258 117.469 34.0898 117.336 33.6418 117.208C33.2044 117.069 32.6924 117 32.1058 117C31.8071 117 31.5298 117.032 31.2738 117.096C31.0178 117.16 30.7938 117.256 30.6018 117.384C30.4098 117.512 30.2551 117.677 30.1378 117.88C30.0311 118.072 29.9778 118.301 29.9778 118.568C29.9778 118.867 30.0364 119.117 30.1538 119.32C30.2711 119.523 30.4364 119.704 30.6498 119.864C30.8631 120.013 31.1084 120.152 31.3858 120.28C31.6738 120.408 31.9884 120.536 32.3298 120.664C32.8098 120.856 33.2471 121.048 33.6418 121.24C34.0471 121.432 34.3938 121.661 34.6818 121.928C34.9804 122.195 35.2098 122.515 35.3698 122.888C35.5298 123.251 35.6098 123.693 35.6098 124.216C35.6098 125.187 35.2524 125.933 34.5378 126.456C33.8338 126.979 32.8364 127.24 31.5458 127.24C31.1084 127.24 30.7031 127.208 30.3298 127.144C29.9671 127.091 29.6418 127.027 29.3538 126.952C29.0658 126.867 28.8151 126.781 28.6018 126.696C28.3991 126.6 28.2391 126.52 28.1217 126.456L28.5858 125.176C28.8311 125.315 29.2044 125.469 29.7057 125.64C30.2071 125.811 30.8204 125.896 31.5458 125.896ZM36.9254 122.856C36.9254 122.12 37.032 121.48 37.2454 120.936C37.4587 120.381 37.7414 119.923 38.0934 119.56C38.4454 119.197 38.8507 118.925 39.3094 118.744C39.768 118.563 40.2374 118.472 40.7174 118.472C41.8374 118.472 42.696 118.824 43.2934 119.528C43.8907 120.221 44.1894 121.283 44.1894 122.712C44.1894 122.776 44.1894 122.861 44.1894 122.968C44.1894 123.064 44.184 123.155 44.1734 123.24H38.4774C38.5414 124.104 38.792 124.76 39.2294 125.208C39.6667 125.656 40.3494 125.88 41.2774 125.88C41.8 125.88 42.2374 125.837 42.5894 125.752C42.952 125.656 43.224 125.565 43.4054 125.48L43.6134 126.728C43.432 126.824 43.112 126.925 42.6534 127.032C42.2054 127.139 41.6934 127.192 41.1174 127.192C40.392 127.192 39.7627 127.085 39.2294 126.872C38.7067 126.648 38.2747 126.344 37.9334 125.96C37.592 125.576 37.336 125.123 37.1654 124.6C37.0054 124.067 36.9254 123.485 36.9254 122.856ZM42.6374 122.04C42.648 121.368 42.4774 120.819 42.1254 120.392C41.784 119.955 41.3094 119.736 40.7014 119.736C40.36 119.736 40.056 119.805 39.7894 119.944C39.5334 120.072 39.3147 120.243 39.1334 120.456C38.952 120.669 38.808 120.915 38.7014 121.192C38.6054 121.469 38.5414 121.752 38.5094 122.04H42.6374ZM46.3269 118.92C46.6682 118.835 47.1162 118.744 47.6709 118.648C48.2362 118.552 48.8869 118.504 49.6229 118.504C50.1562 118.504 50.6042 118.579 50.9669 118.728C51.3295 118.867 51.6335 119.075 51.8789 119.352C51.9535 119.299 52.0709 119.224 52.2309 119.128C52.3909 119.032 52.5882 118.941 52.8229 118.856C53.0575 118.76 53.3189 118.68 53.6069 118.616C53.8949 118.541 54.2042 118.504 54.5349 118.504C55.1749 118.504 55.6975 118.6 56.1029 118.792C56.5082 118.973 56.8229 119.235 57.0469 119.576C57.2815 119.917 57.4362 120.323 57.5109 120.792C57.5962 121.261 57.6389 121.773 57.6389 122.328V127H56.1509V122.648C56.1509 122.157 56.1242 121.736 56.0709 121.384C56.0282 121.032 55.9375 120.739 55.7989 120.504C55.6709 120.269 55.4895 120.099 55.2549 119.992C55.0309 119.875 54.7375 119.816 54.3749 119.816C53.8735 119.816 53.4575 119.885 53.1269 120.024C52.8069 120.152 52.5882 120.269 52.4709 120.376C52.5562 120.653 52.6202 120.957 52.6629 121.288C52.7055 121.619 52.7269 121.965 52.7269 122.328V127H51.2389V122.648C51.2389 122.157 51.2122 121.736 51.1589 121.384C51.1055 121.032 51.0095 120.739 50.8709 120.504C50.7429 120.269 50.5615 120.099 50.3269 119.992C50.1029 119.875 49.8149 119.816 49.4629 119.816C49.3135 119.816 49.1535 119.821 48.9829 119.832C48.8122 119.843 48.6469 119.859 48.4869 119.88C48.3375 119.891 48.1989 119.907 48.0709 119.928C47.9429 119.949 47.8575 119.965 47.8149 119.976V127H46.3269V118.92ZM63.8113 127V114.84L65.2993 114.584V118.84C65.5766 118.733 65.8699 118.653 66.1793 118.6C66.4993 118.536 66.8139 118.504 67.1233 118.504C67.7846 118.504 68.3339 118.6 68.7713 118.792C69.2086 118.973 69.5553 119.235 69.8113 119.576C70.0779 119.907 70.2646 120.307 70.3713 120.776C70.4779 121.245 70.5312 121.763 70.5312 122.328V127H69.0433V122.648C69.0433 122.136 69.0059 121.699 68.9313 121.336C68.8673 120.973 68.7553 120.68 68.5953 120.456C68.4353 120.232 68.2219 120.072 67.9553 119.976C67.6886 119.869 67.3579 119.816 66.9633 119.816C66.8033 119.816 66.6379 119.827 66.4673 119.848C66.2966 119.869 66.1313 119.896 65.9713 119.928C65.8219 119.949 65.6833 119.976 65.5553 120.008C65.4379 120.04 65.3526 120.067 65.2993 120.088V127H63.8113ZM74.4399 127H72.9519V118.68H74.4399V127ZM73.6879 117.176C73.4212 117.176 73.1919 117.091 72.9999 116.92C72.8185 116.739 72.7279 116.499 72.7279 116.2C72.7279 115.901 72.8185 115.667 72.9999 115.496C73.1919 115.315 73.4212 115.224 73.6879 115.224C73.9545 115.224 74.1785 115.315 74.3599 115.496C74.5519 115.667 74.6479 115.901 74.6479 116.2C74.6479 116.499 74.5519 116.739 74.3599 116.92C74.1785 117.091 73.9545 117.176 73.6879 117.176ZM78.9348 125.928C79.5428 125.928 79.9908 125.848 80.2788 125.688C80.5774 125.528 80.7268 125.272 80.7268 124.92C80.7268 124.557 80.5828 124.269 80.2948 124.056C80.0068 123.843 79.5321 123.603 78.8708 123.336C78.5508 123.208 78.2414 123.08 77.9428 122.952C77.6548 122.813 77.4041 122.653 77.1908 122.472C76.9774 122.291 76.8068 122.072 76.6788 121.816C76.5508 121.56 76.4868 121.245 76.4868 120.872C76.4868 120.136 76.7588 119.555 77.3028 119.128C77.8468 118.691 78.5881 118.472 79.5268 118.472C79.7614 118.472 79.9961 118.488 80.2308 118.52C80.4654 118.541 80.6841 118.573 80.8868 118.616C81.0894 118.648 81.2654 118.685 81.4148 118.728C81.5748 118.771 81.6974 118.808 81.7828 118.84L81.5108 120.12C81.3508 120.035 81.1001 119.949 80.7588 119.864C80.4174 119.768 80.0068 119.72 79.5268 119.72C79.1108 119.72 78.7481 119.805 78.4388 119.976C78.1294 120.136 77.9748 120.392 77.9748 120.744C77.9748 120.925 78.0068 121.085 78.0707 121.224C78.1454 121.363 78.2521 121.491 78.3908 121.608C78.5401 121.715 78.7214 121.816 78.9348 121.912C79.1481 122.008 79.4041 122.109 79.7028 122.216C80.0974 122.365 80.4494 122.515 80.7588 122.664C81.0681 122.803 81.3294 122.968 81.5428 123.16C81.7668 123.352 81.9374 123.587 82.0548 123.864C82.1721 124.131 82.2308 124.461 82.2308 124.856C82.2308 125.624 81.9428 126.205 81.3668 126.6C80.8014 126.995 79.9908 127.192 78.9348 127.192C78.1988 127.192 77.6228 127.128 77.2068 127C76.7908 126.883 76.5081 126.792 76.3588 126.728L76.6308 125.448C76.8014 125.512 77.0734 125.608 77.4468 125.736C77.8201 125.864 78.3161 125.928 78.9348 125.928ZM85.5314 118.68H88.6834V119.928H85.5314V123.768C85.5314 124.184 85.5634 124.531 85.6274 124.808C85.6914 125.075 85.7874 125.288 85.9154 125.448C86.0434 125.597 86.2034 125.704 86.3954 125.768C86.5874 125.832 86.8114 125.864 87.0674 125.864C87.5154 125.864 87.8727 125.816 88.1394 125.72C88.4167 125.613 88.6087 125.539 88.7154 125.496L89.0034 126.728C88.854 126.803 88.5927 126.893 88.2194 127C87.846 127.117 87.4194 127.176 86.9394 127.176C86.374 127.176 85.9047 127.107 85.5314 126.968C85.1687 126.819 84.8754 126.6 84.6514 126.312C84.4274 126.024 84.2674 125.672 84.1714 125.256C84.086 124.829 84.0434 124.339 84.0434 123.784V116.36L85.5314 116.104V118.68ZM97.7021 122.84C97.7021 123.501 97.6061 124.099 97.4141 124.632C97.2221 125.165 96.9501 125.624 96.5981 126.008C96.2568 126.392 95.8461 126.691 95.3661 126.904C94.8861 127.107 94.3635 127.208 93.7981 127.208C93.2328 127.208 92.7101 127.107 92.2301 126.904C91.7501 126.691 91.3341 126.392 90.9821 126.008C90.6408 125.624 90.3741 125.165 90.1821 124.632C89.9901 124.099 89.8941 123.501 89.8941 122.84C89.8941 122.189 89.9901 121.597 90.1821 121.064C90.3741 120.52 90.6408 120.056 90.9821 119.672C91.3341 119.288 91.7501 118.995 92.2301 118.792C92.7101 118.579 93.2328 118.472 93.7981 118.472C94.3635 118.472 94.8861 118.579 95.3661 118.792C95.8461 118.995 96.2568 119.288 96.5981 119.672C96.9501 120.056 97.2221 120.52 97.4141 121.064C97.6061 121.597 97.7021 122.189 97.7021 122.84ZM96.1501 122.84C96.1501 121.901 95.9368 121.16 95.5101 120.616C95.0941 120.061 94.5235 119.784 93.7981 119.784C93.0728 119.784 92.4968 120.061 92.0701 120.616C91.6541 121.16 91.4461 121.901 91.4461 122.84C91.4461 123.779 91.6541 124.525 92.0701 125.08C92.4968 125.624 93.0728 125.896 93.7981 125.896C94.5235 125.896 95.0941 125.624 95.5101 125.08C95.9368 124.525 96.1501 123.779 96.1501 122.84ZM95.7341 115.528L93.4781 117.72L92.7261 117.048L94.7741 114.584L95.7341 115.528ZM102.868 118.504C102.996 118.504 103.14 118.515 103.3 118.536C103.47 118.547 103.636 118.568 103.796 118.6C103.956 118.621 104.1 118.648 104.228 118.68C104.366 118.701 104.468 118.723 104.532 118.744L104.276 120.04C104.158 119.997 103.961 119.949 103.684 119.896C103.417 119.832 103.07 119.8 102.644 119.8C102.366 119.8 102.089 119.832 101.812 119.896C101.545 119.949 101.369 119.987 101.284 120.008V127H99.7956V119.032C100.148 118.904 100.585 118.787 101.108 118.68C101.63 118.563 102.217 118.504 102.868 118.504ZM107.456 127H105.968V118.68H107.456V127ZM106.704 117.176C106.437 117.176 106.208 117.091 106.016 116.92C105.834 116.739 105.743 116.499 105.743 116.2C105.743 115.901 105.834 115.667 106.016 115.496C106.208 115.315 106.437 115.224 106.704 115.224C106.97 115.224 107.194 115.315 107.376 115.496C107.568 115.667 107.664 115.901 107.664 116.2C107.664 116.499 107.568 116.739 107.376 116.92C107.194 117.091 106.97 117.176 106.704 117.176ZM113.63 127.192C112.958 127.192 112.366 127.085 111.854 126.872C111.353 126.659 110.926 126.36 110.574 125.976C110.233 125.592 109.977 125.139 109.806 124.616C109.636 124.083 109.55 123.496 109.55 122.856C109.55 122.216 109.641 121.629 109.822 121.096C110.014 120.563 110.281 120.104 110.622 119.72C110.964 119.325 111.38 119.021 111.87 118.808C112.372 118.584 112.926 118.472 113.534 118.472C113.908 118.472 114.281 118.504 114.654 118.568C115.028 118.632 115.385 118.733 115.726 118.872L115.39 120.136C115.166 120.029 114.905 119.944 114.606 119.88C114.318 119.816 114.009 119.784 113.678 119.784C112.846 119.784 112.206 120.045 111.758 120.568C111.321 121.091 111.102 121.853 111.102 122.856C111.102 123.304 111.15 123.715 111.246 124.088C111.353 124.461 111.513 124.781 111.726 125.048C111.95 125.315 112.233 125.523 112.574 125.672C112.916 125.811 113.332 125.88 113.822 125.88C114.217 125.88 114.574 125.843 114.894 125.768C115.214 125.693 115.465 125.613 115.646 125.528L115.854 126.776C115.769 126.829 115.646 126.883 115.486 126.936C115.326 126.979 115.145 127.016 114.942 127.048C114.74 127.091 114.521 127.123 114.286 127.144C114.062 127.176 113.844 127.192 113.63 127.192ZM124.593 122.84C124.593 123.501 124.497 124.099 124.305 124.632C124.113 125.165 123.841 125.624 123.489 126.008C123.147 126.392 122.737 126.691 122.257 126.904C121.777 127.107 121.254 127.208 120.689 127.208C120.123 127.208 119.601 127.107 119.121 126.904C118.641 126.691 118.225 126.392 117.873 126.008C117.531 125.624 117.265 125.165 117.073 124.632C116.881 124.099 116.785 123.501 116.785 122.84C116.785 122.189 116.881 121.597 117.073 121.064C117.265 120.52 117.531 120.056 117.873 119.672C118.225 119.288 118.641 118.995 119.121 118.792C119.601 118.579 120.123 118.472 120.689 118.472C121.254 118.472 121.777 118.579 122.257 118.792C122.737 118.995 123.147 119.288 123.489 119.672C123.841 120.056 124.113 120.52 124.305 121.064C124.497 121.597 124.593 122.189 124.593 122.84ZM123.041 122.84C123.041 121.901 122.827 121.16 122.401 120.616C121.985 120.061 121.414 119.784 120.689 119.784C119.963 119.784 119.387 120.061 118.961 120.616C118.545 121.16 118.337 121.901 118.337 122.84C118.337 123.779 118.545 124.525 118.961 125.08C119.387 125.624 119.963 125.896 120.689 125.896C121.414 125.896 121.985 125.624 122.401 125.08C122.827 124.525 123.041 123.779 123.041 122.84ZM47.146 147.192C46.474 147.192 45.882 147.085 45.37 146.872C44.8687 146.659 44.442 146.36 44.09 145.976C43.7487 145.592 43.4927 145.139 43.322 144.616C43.1513 144.083 43.066 143.496 43.066 142.856C43.066 142.216 43.1567 141.629 43.338 141.096C43.53 140.563 43.7967 140.104 44.138 139.72C44.4793 139.325 44.8953 139.021 45.386 138.808C45.8873 138.584 46.442 138.472 47.05 138.472C47.4233 138.472 47.7967 138.504 48.17 138.568C48.5433 138.632 48.9007 138.733 49.242 138.872L48.906 140.136C48.682 140.029 48.4207 139.944 48.122 139.88C47.834 139.816 47.5247 139.784 47.194 139.784C46.362 139.784 45.722 140.045 45.274 140.568C44.8367 141.091 44.618 141.853 44.618 142.856C44.618 143.304 44.666 143.715 44.762 144.088C44.8687 144.461 45.0287 144.781 45.242 145.048C45.466 145.315 45.7487 145.523 46.09 145.672C46.4313 145.811 46.8473 145.88 47.338 145.88C47.7327 145.88 48.09 145.843 48.41 145.768C48.73 145.693 48.9807 145.613 49.162 145.528L49.37 146.776C49.2847 146.829 49.162 146.883 49.002 146.936C48.842 146.979 48.6607 147.016 48.458 147.048C48.2553 147.091 48.0367 147.123 47.802 147.144C47.578 147.176 47.3593 147.192 47.146 147.192ZM58.1084 142.84C58.1084 143.501 58.0124 144.099 57.8204 144.632C57.6284 145.165 57.3564 145.624 57.0044 146.008C56.663 146.392 56.2524 146.691 55.7724 146.904C55.2924 147.107 54.7697 147.208 54.2044 147.208C53.639 147.208 53.1164 147.107 52.6364 146.904C52.1564 146.691 51.7404 146.392 51.3884 146.008C51.047 145.624 50.7804 145.165 50.5884 144.632C50.3964 144.099 50.3004 143.501 50.3004 142.84C50.3004 142.189 50.3964 141.597 50.5884 141.064C50.7804 140.52 51.047 140.056 51.3884 139.672C51.7404 139.288 52.1564 138.995 52.6364 138.792C53.1164 138.579 53.639 138.472 54.2044 138.472C54.7697 138.472 55.2924 138.579 55.7724 138.792C56.2524 138.995 56.663 139.288 57.0044 139.672C57.3564 140.056 57.6284 140.52 57.8204 141.064C58.0124 141.597 58.1084 142.189 58.1084 142.84ZM56.5564 142.84C56.5564 141.901 56.343 141.16 55.9164 140.616C55.5004 140.061 54.9297 139.784 54.2044 139.784C53.479 139.784 52.903 140.061 52.4764 140.616C52.0604 141.16 51.8524 141.901 51.8524 142.84C51.8524 143.779 52.0604 144.525 52.4764 145.08C52.903 145.624 53.479 145.896 54.2044 145.896C54.9297 145.896 55.5004 145.624 55.9164 145.08C56.343 144.525 56.5564 143.779 56.5564 142.84ZM60.2019 138.92C60.5432 138.835 60.9965 138.744 61.5619 138.648C62.1272 138.552 62.7779 138.504 63.5139 138.504C64.1752 138.504 64.7245 138.6 65.1619 138.792C65.5992 138.973 65.9459 139.235 66.2019 139.576C66.4685 139.907 66.6552 140.307 66.7619 140.776C66.8685 141.245 66.9219 141.763 66.9219 142.328V147H65.4339V142.648C65.4339 142.136 65.3965 141.699 65.3219 141.336C65.2579 140.973 65.1459 140.68 64.9859 140.456C64.8259 140.232 64.6125 140.072 64.3459 139.976C64.0792 139.869 63.7485 139.816 63.3539 139.816C63.1939 139.816 63.0285 139.821 62.8579 139.832C62.6872 139.843 62.5219 139.859 62.3619 139.88C62.2125 139.891 62.0739 139.907 61.9459 139.928C61.8285 139.949 61.7432 139.965 61.6899 139.976V147H60.2019V138.92ZM71.3254 145.928C71.9334 145.928 72.3814 145.848 72.6694 145.688C72.968 145.528 73.1174 145.272 73.1174 144.92C73.1174 144.557 72.9734 144.269 72.6854 144.056C72.3974 143.843 71.9227 143.603 71.2614 143.336C70.9414 143.208 70.632 143.08 70.3334 142.952C70.0454 142.813 69.7947 142.653 69.5814 142.472C69.368 142.291 69.1974 142.072 69.0694 141.816C68.9414 141.56 68.8774 141.245 68.8774 140.872C68.8774 140.136 69.1494 139.555 69.6934 139.128C70.2374 138.691 70.9787 138.472 71.9174 138.472C72.152 138.472 72.3867 138.488 72.6214 138.52C72.856 138.541 73.0747 138.573 73.2774 138.616C73.48 138.648 73.656 138.685 73.8054 138.728C73.9654 138.771 74.088 138.808 74.1734 138.84L73.9014 140.12C73.7414 140.035 73.4907 139.949 73.1494 139.864C72.808 139.768 72.3974 139.72 71.9174 139.72C71.5014 139.72 71.1387 139.805 70.8294 139.976C70.52 140.136 70.3654 140.392 70.3654 140.744C70.3654 140.925 70.3974 141.085 70.4614 141.224C70.536 141.363 70.6427 141.491 70.7814 141.608C70.9307 141.715 71.112 141.816 71.3254 141.912C71.5387 142.008 71.7947 142.109 72.0934 142.216C72.488 142.365 72.84 142.515 73.1494 142.664C73.4587 142.803 73.72 142.968 73.9334 143.16C74.1574 143.352 74.328 143.587 74.4454 143.864C74.5627 144.131 74.6214 144.461 74.6214 144.856C74.6214 145.624 74.3334 146.205 73.7574 146.6C73.192 146.995 72.3814 147.192 71.3254 147.192C70.5894 147.192 70.0134 147.128 69.5974 147C69.1814 146.883 68.8987 146.792 68.7494 146.728L69.0214 145.448C69.192 145.512 69.464 145.608 69.8374 145.736C70.2107 145.864 70.7067 145.928 71.3254 145.928ZM83.154 146.76C82.8127 146.845 82.3593 146.936 81.794 147.032C81.2393 147.128 80.594 147.176 79.858 147.176C79.218 147.176 78.6793 147.085 78.242 146.904C77.8047 146.712 77.4527 146.445 77.186 146.104C76.9193 145.763 76.7273 145.363 76.61 144.904C76.4927 144.435 76.434 143.917 76.434 143.352V138.68H77.922V143.032C77.922 144.045 78.082 144.771 78.402 145.208C78.722 145.645 79.2607 145.864 80.018 145.864C80.178 145.864 80.3433 145.859 80.514 145.848C80.6847 145.837 80.8447 145.827 80.994 145.816C81.1433 145.795 81.2767 145.779 81.394 145.768C81.522 145.747 81.6127 145.725 81.666 145.704V138.68H83.154V146.76ZM88.2135 147.16C87.2962 147.139 86.6455 146.941 86.2615 146.568C85.8775 146.195 85.6855 145.613 85.6855 144.824V134.84L87.1735 134.584V144.584C87.1735 144.829 87.1948 145.032 87.2375 145.192C87.2802 145.352 87.3495 145.48 87.4455 145.576C87.5415 145.672 87.6695 145.747 87.8295 145.8C87.9895 145.843 88.1868 145.88 88.4215 145.912L88.2135 147.16ZM91.4845 138.68H94.6365V139.928H91.4845V143.768C91.4845 144.184 91.5165 144.531 91.5805 144.808C91.6445 145.075 91.7405 145.288 91.8685 145.448C91.9965 145.597 92.1565 145.704 92.3485 145.768C92.5405 145.832 92.7645 145.864 93.0205 145.864C93.4685 145.864 93.8258 145.816 94.0925 145.72C94.3698 145.613 94.5618 145.539 94.6685 145.496L94.9565 146.728C94.8072 146.803 94.5458 146.893 94.1725 147C93.7992 147.117 93.3725 147.176 92.8925 147.176C92.3272 147.176 91.8578 147.107 91.4845 146.968C91.1218 146.819 90.8285 146.6 90.6045 146.312C90.3805 146.024 90.2205 145.672 90.1245 145.256C90.0392 144.829 89.9965 144.339 89.9965 143.784V136.36L91.4845 136.104V138.68ZM99.346 145.928C99.698 145.928 100.007 145.923 100.274 145.912C100.551 145.891 100.781 145.859 100.962 145.816V143.336C100.855 143.283 100.679 143.24 100.434 143.208C100.199 143.165 99.9113 143.144 99.57 143.144C99.346 143.144 99.106 143.16 98.85 143.192C98.6047 143.224 98.3753 143.293 98.162 143.4C97.9593 143.496 97.7887 143.635 97.65 143.816C97.5113 143.987 97.442 144.216 97.442 144.504C97.442 145.037 97.6127 145.411 97.954 145.624C98.2953 145.827 98.7593 145.928 99.346 145.928ZM99.218 138.472C99.8153 138.472 100.317 138.552 100.722 138.712C101.138 138.861 101.469 139.08 101.714 139.368C101.97 139.645 102.151 139.981 102.258 140.376C102.365 140.76 102.418 141.187 102.418 141.656V146.856C102.29 146.877 102.109 146.909 101.874 146.952C101.65 146.984 101.394 147.016 101.106 147.048C100.818 147.08 100.503 147.107 100.162 147.128C99.8313 147.16 99.5007 147.176 99.17 147.176C98.7007 147.176 98.2687 147.128 97.874 147.032C97.4793 146.936 97.138 146.787 96.85 146.584C96.562 146.371 96.338 146.093 96.178 145.752C96.018 145.411 95.938 145 95.938 144.52C95.938 144.061 96.0287 143.667 96.21 143.336C96.402 143.005 96.658 142.739 96.978 142.536C97.298 142.333 97.6713 142.184 98.098 142.088C98.5247 141.992 98.9727 141.944 99.442 141.944C99.5913 141.944 99.746 141.955 99.906 141.976C100.066 141.987 100.215 142.008 100.354 142.04C100.503 142.061 100.631 142.083 100.738 142.104C100.845 142.125 100.919 142.141 100.962 142.152V141.736C100.962 141.491 100.935 141.251 100.882 141.016C100.829 140.771 100.733 140.557 100.594 140.376C100.455 140.184 100.263 140.035 100.018 139.928C99.7833 139.811 99.474 139.752 99.09 139.752C98.5993 139.752 98.1673 139.789 97.794 139.864C97.4313 139.928 97.1593 139.997 96.978 140.072L96.802 138.84C96.994 138.755 97.314 138.675 97.762 138.6C98.21 138.515 98.6953 138.472 99.218 138.472ZM106.825 145.928C107.433 145.928 107.881 145.848 108.169 145.688C108.468 145.528 108.617 145.272 108.617 144.92C108.617 144.557 108.473 144.269 108.185 144.056C107.897 143.843 107.423 143.603 106.761 143.336C106.441 143.208 106.132 143.08 105.833 142.952C105.545 142.813 105.295 142.653 105.081 142.472C104.868 142.291 104.697 142.072 104.569 141.816C104.441 141.56 104.377 141.245 104.377 140.872C104.377 140.136 104.649 139.555 105.193 139.128C105.737 138.691 106.479 138.472 107.417 138.472C107.652 138.472 107.887 138.488 108.121 138.52C108.356 138.541 108.575 138.573 108.777 138.616C108.98 138.648 109.156 138.685 109.305 138.728C109.465 138.771 109.588 138.808 109.673 138.84L109.401 140.12C109.241 140.035 108.991 139.949 108.649 139.864C108.308 139.768 107.897 139.72 107.417 139.72C107.001 139.72 106.639 139.805 106.329 139.976C106.02 140.136 105.865 140.392 105.865 140.744C105.865 140.925 105.897 141.085 105.961 141.224C106.036 141.363 106.143 141.491 106.281 141.608C106.431 141.715 106.612 141.816 106.825 141.912C107.039 142.008 107.295 142.109 107.593 142.216C107.988 142.365 108.34 142.515 108.649 142.664C108.959 142.803 109.22 142.968 109.433 143.16C109.657 143.352 109.828 143.587 109.945 143.864C110.063 144.131 110.121 144.461 110.121 144.856C110.121 145.624 109.833 146.205 109.257 146.6C108.692 146.995 107.881 147.192 106.825 147.192C106.089 147.192 105.513 147.128 105.097 147C104.681 146.883 104.399 146.792 104.249 146.728L104.521 145.448C104.692 145.512 104.964 145.608 105.337 145.736C105.711 145.864 106.207 145.928 106.825 145.928Z" fill="#9C9C9C"/>
<path d="M55.2313 60.4219C55.2548 59.3603 55.0368 58.2607 54.4122 57.4022C53.7875 56.5435 52.7051 55.9754 51.6585 56.1531C50.9739 54.477 49.356 53.2881 47.6 52.8479C45.8439 52.4077 43.9713 52.6477 42.2564 53.2285C40.7965 53.7231 39.3736 54.5012 38.4661 55.747C37.372 57.2489 37.1697 59.2123 37.1596 61.0705C37.1308 66.381 38.3869 71.6936 40.7892 76.4296C42.4155 73.5378 45.5555 71.9062 48.3343 70.085C50.0576 68.9554 51.7141 67.6799 53 66.0699C54.286 64.4597 55.1851 62.482 55.2313 60.4219Z" fill="#EBEBEB"/>
<path d="M41.0399 73.8587L41.016 73.8096L40.9836 73.8635L41.0399 73.8587Z" fill="#415DA1"/>
<path d="M43.3441 68.9097C41.8562 69.9583 40.8047 71.6077 40.4818 73.3993L40.8202 73.1103C41.8713 71.8932 42.9305 70.6682 44.1901 69.6683C45.4495 68.6686 48.3381 66.5989 49.9367 66.4256C48.1408 66.1273 44.8322 67.8608 43.3441 68.9097Z" fill="#E6E6E6"/>
<path d="M63.1603 72.8683C63.07 71.2612 62.2953 69.7744 61.4203 68.4234C60.5985 67.1544 59.5988 65.8957 58.1877 65.3533C57.0315 64.909 55.742 65.0036 54.5196 65.202C49.365 66.0386 44.0897 69.2884 40.5676 73.1437C42.6042 74.9824 45.3753 76.8741 47.8371 78.0856C49.794 79.0488 51.8865 79.8021 54.0609 79.9743C56.2353 80.1463 58.5062 79.6987 60.2867 78.4387C62.0673 77.1789 63.2828 75.046 63.1603 72.8683Z" fill="#EBEBEB"/>
<path d="M50.3513 87.4018C50.4869 86.8312 50.3036 86.2379 50.1065 85.6857C48.5057 81.198 44.457 76.1785 41.0281 72.8701C37.7667 74.6632 36.0828 78.3983 33.5909 81.1628C32.6748 82.1794 31.7228 83.2647 31.4522 84.606C31.2168 85.7728 31.5442 87.0078 32.1807 88.0136C32.8173 89.0193 33.7421 89.815 34.7403 90.4635C37.3424 92.1543 40.6479 92.9066 43.626 92.0352C45.5608 91.4689 47.2412 90.2765 48.8811 89.1042C49.5052 88.658 50.1738 88.1481 50.3513 87.4018Z" fill="#EBEBEB"/>
<path d="M32.5599 69.2877C29.5123 68.2826 26.2763 67.7115 23.0858 68.0556C21.5797 68.2179 20.034 68.6141 18.8907 69.6078C17.7474 70.6013 17.1274 72.3148 17.7626 73.6899C18.0885 74.3959 18.6944 74.9378 19.0542 75.627C19.5594 76.5953 19.5302 77.7437 19.7704 78.8093C20.4056 81.6294 23.1939 83.804 26.0839 83.7329C28.3912 83.6761 30.4706 82.3772 32.3238 81.0015C35.3056 78.788 38.5952 75.8348 41.0477 73.0461C38.173 71.6197 35.6074 70.293 32.5599 69.2877Z" fill="#EBEBEB"/>
<path d="M36.7163 59.6632C35.8079 58.0328 34.7978 56.4119 33.3558 55.2267C31.9137 54.0417 29.9574 53.3452 28.1504 53.813C26.3437 54.2809 24.8746 56.1389 25.2281 57.9715C23.9054 58.1255 22.5475 58.2901 21.3713 58.9141C20.1947 59.5377 19.2236 60.7341 19.2662 62.0652C19.295 62.968 19.7835 63.8087 20.4318 64.4378C21.0801 65.0668 21.8808 65.5126 22.6812 65.9313C28.6185 69.0388 34.3813 70.9321 40.7755 72.9377C40.1728 68.3875 38.95 63.6729 36.7163 59.6632Z" fill="#EBEBEB"/>
<path d="M37.5319 61.1299C36.9542 63.2274 37.2338 66.1653 37.9816 68.2084C38.7296 70.2515 39.1576 71.5003 40.6285 73.1034C39.2391 69.4076 38.1517 65.0291 37.5319 61.1299Z" fill="#E6E6E6"/>
<path d="M35.0509 79.0995C36.8672 77.3947 38.4963 75.4907 39.8997 73.4326C37.3012 74.2879 35.7706 76.4601 35.0509 79.0995Z" fill="#E6E6E6"/>
<path d="M27.1447 68.0462C31.4525 68.2768 35.7287 69.4932 39.6332 71.328C36.0126 68.2828 31.8126 67.2769 27.1447 68.0462Z" fill="#E6E6E6"/>
<path d="M40.4469 73.2627C38.7534 72.0021 36.9779 70.6361 36.2236 68.6646C36.1514 68.4763 36.0887 68.2774 36.1067 68.0765C36.1248 67.8757 36.2417 67.6719 36.4324 67.6061C36.7028 67.5131 36.9777 67.7184 37.1871 67.9135C37.8282 68.5107 38.434 69.1458 39.0004 69.8143C38.963 69.4549 38.9271 69.0824 39.0418 68.7398C39.1564 68.3972 39.4661 68.0917 39.8272 68.1031C40.1222 68.1124 40.3795 68.3309 40.514 68.5938C40.6484 68.8567 40.6812 69.1585 40.6989 69.4534C40.7706 70.6339 40.641 71.8165 40.5114 72.9921" fill="white"/>
<path d="M102.115 60.4219C102.091 59.3603 102.309 58.2607 102.934 57.4022C103.558 56.5435 104.641 55.9754 105.687 56.1531C106.372 54.477 107.99 53.2881 109.746 52.8479C111.502 52.4077 113.374 52.6477 115.089 53.2285C116.549 53.7231 117.972 54.5012 118.88 55.747C119.974 57.2489 120.176 59.2123 120.186 61.0705C120.215 66.381 118.959 71.6936 116.557 76.4296C114.93 73.5378 111.79 71.9062 109.012 70.085C107.288 68.9554 105.632 67.6799 104.346 66.0699C103.06 64.4597 102.161 62.482 102.115 60.4219Z" fill="#EBEBEB"/>
<path d="M116.306 73.8587L116.33 73.8096L116.362 73.8635L116.306 73.8587Z" fill="#415DA1"/>
<path d="M114.002 68.9097C115.49 69.9583 116.541 71.6077 116.864 73.3993L116.526 73.1103C115.474 71.8932 114.415 70.6682 113.156 69.6683C111.896 68.6686 109.008 66.5989 107.409 66.4256C109.205 66.1273 112.514 67.8608 114.002 68.9097Z" fill="#E6E6E6"/>
<path d="M94.1855 72.8683C94.2758 71.2612 95.0505 69.7744 95.9255 68.4234C96.7473 67.1544 97.747 65.8957 99.1581 65.3533C100.314 64.909 101.604 65.0036 102.826 65.202C107.981 66.0386 113.256 69.2884 116.778 73.1437C114.742 74.9824 111.97 76.8741 109.509 78.0856C107.552 79.0488 105.459 79.8021 103.285 79.9743C101.111 80.1463 98.8396 79.6987 97.0591 78.4387C95.2785 77.1789 94.063 75.046 94.1855 72.8683Z" fill="#EBEBEB"/>
<path d="M106.994 87.4018C106.859 86.8312 107.042 86.2379 107.239 85.6857C108.84 81.198 112.889 76.1785 116.318 72.8701C119.579 74.6632 121.263 78.3983 123.755 81.1628C124.671 82.1794 125.623 83.2647 125.894 84.606C126.129 85.7728 125.802 87.0078 125.165 88.0136C124.529 89.0193 123.604 89.815 122.605 90.4635C120.003 92.1543 116.698 92.9066 113.72 92.0352C111.785 91.4689 110.105 90.2765 108.465 89.1042C107.841 88.658 107.172 88.1481 106.994 87.4018Z" fill="#EBEBEB"/>
<path d="M124.786 69.2877C127.833 68.2826 131.069 67.7115 134.26 68.0556C135.766 68.2179 137.312 68.6141 138.455 69.6078C139.598 70.6013 140.218 72.3148 139.583 73.6899C139.257 74.3959 138.651 74.9378 138.292 75.627C137.786 76.5953 137.815 77.7437 137.575 78.8093C136.94 81.6294 134.152 83.804 131.262 83.7329C128.954 83.6761 126.875 82.3772 125.022 81.0015C122.04 78.788 118.75 75.8348 116.298 73.0461C119.173 71.6197 121.738 70.293 124.786 69.2877Z" fill="#EBEBEB"/>
<path d="M120.629 59.6632C121.538 58.0328 122.548 56.4119 123.99 55.2267C125.432 54.0417 127.388 53.3452 129.195 53.813C131.002 54.2809 132.471 56.1389 132.118 57.9715C133.44 58.1255 134.798 58.2901 135.975 58.9141C137.151 59.5377 138.122 60.7341 138.08 62.0652C138.051 62.968 137.562 63.8087 136.914 64.4378C136.266 65.0668 135.465 65.5126 134.665 65.9313C128.727 69.0388 122.964 70.9321 116.57 72.9377C117.173 68.3875 118.396 63.6729 120.629 59.6632Z" fill="#EBEBEB"/>
<path d="M119.814 61.1299C120.392 63.2274 120.112 66.1653 119.364 68.2084C118.616 70.2515 118.188 71.5003 116.717 73.1034C118.107 69.4076 119.194 65.0291 119.814 61.1299Z" fill="#E6E6E6"/>
<path d="M122.295 79.0995C120.479 77.3947 118.849 75.4907 117.446 73.4326C120.045 74.2879 121.575 76.4601 122.295 79.0995Z" fill="#E6E6E6"/>
<path d="M130.201 68.0462C125.893 68.2768 121.617 69.4932 117.713 71.328C121.333 68.2828 125.533 67.2769 130.201 68.0462Z" fill="#E6E6E6"/>
<path d="M116.899 73.2627C118.592 72.0021 120.368 70.6361 121.122 68.6646C121.194 68.4763 121.257 68.2774 121.239 68.0765C121.221 67.8757 121.104 67.6719 120.913 67.6061C120.643 67.5131 120.368 67.7184 120.159 67.9135C119.518 68.5107 118.912 69.1458 118.345 69.8143C118.383 69.4549 118.419 69.0824 118.304 68.7398C118.189 68.3972 117.88 68.0917 117.519 68.1031C117.224 68.1124 116.966 68.3309 116.832 68.5938C116.697 68.8567 116.665 69.1585 116.647 69.4534C116.575 70.6339 116.705 71.8165 116.834 72.9921" fill="white"/>
<path d="M114.499 53.5822C115.879 52.2261 116.992 50.5131 117.267 48.598C117.543 46.683 116.852 44.5654 115.259 43.467C116.495 40.4083 115.893 36.7995 114.16 33.9928C112.426 31.1862 109.675 29.1195 106.698 27.6986C104.163 26.4891 101.316 25.6966 98.5472 26.1702C95.2096 26.7413 92.4502 29.048 90.0754 31.4618C83.2883 38.36 78.1769 46.8942 75.2948 56.132C81.0941 54.4226 87.268 56.2828 93.2115 57.4359C96.8975 58.151 100.682 58.5908 104.407 58.1224C108.133 57.6539 111.821 56.2142 114.499 53.5822Z" fill="#415DA1"/>
<g opacity="0.5">
<path d="M114.499 53.5822C115.879 52.2261 116.992 50.5131 117.267 48.598C117.543 46.683 116.852 44.5654 115.259 43.467C116.495 40.4083 115.893 36.7995 114.16 33.9928C112.426 31.1862 109.675 29.1195 106.698 27.6986C104.163 26.4891 101.316 25.6966 98.5472 26.1702C95.2096 26.7413 92.4502 29.048 90.0754 31.4618C83.2883 38.36 78.1769 46.8942 75.2948 56.132C81.0941 54.4226 87.268 56.2828 93.2115 57.4359C96.8975 58.151 100.682 58.5908 104.407 58.1224C108.133 57.6539 111.821 56.2142 114.499 53.5822Z" fill="white"/>
</g>
<path d="M75.2642 56.2208L75.2943 56.1292C75.2587 56.1397 75.2227 56.1467 75.187 56.1576L75.2642 56.2208Z" fill="#415DA1"/>
<g opacity="0.3">
<path d="M84.5615 52.6941C81.2855 52.1725 77.8161 52.9899 75.1174 54.9191L75.9267 54.9721C78.8463 54.7185 81.7863 54.4645 84.7018 54.7598C87.6174 55.055 94.0195 56.0233 96.3277 57.8286C94.3615 55.1569 87.8378 53.2158 84.5615 52.6941Z" fill="black"/>
</g>
<path d="M105.408 83.0482C107.333 80.8346 108.211 77.9083 108.785 75.0322C109.325 72.3306 109.619 69.4162 108.466 66.9147C107.52 64.8649 105.716 63.3497 103.868 62.0551C96.0733 56.5967 85.054 54.1358 75.5548 54.6943C75.8774 59.6836 77.0921 65.6759 78.7669 70.387C80.0984 74.1318 81.8738 77.7749 84.4943 80.7633C87.1153 83.7514 90.6498 86.0528 94.5763 86.6705C98.5026 87.2881 102.801 86.0476 105.408 83.0482Z" fill="#415DA1"/>
<g opacity="0.5">
<path d="M105.408 83.0512C107.333 80.8375 108.211 77.9112 108.785 75.0351C109.325 72.3335 109.619 69.4192 108.466 66.9176C107.52 64.8678 105.716 63.3527 103.868 62.058C96.0732 56.5996 85.0539 54.1387 75.5547 54.6972C75.8774 59.6865 77.0921 65.6788 78.7668 70.3899C80.0984 74.1347 81.8737 77.7778 84.4943 80.7662C87.1152 83.7544 90.6498 86.0557 94.5762 86.6734C98.5025 87.291 102.8 86.0505 105.408 83.0512Z" fill="white"/>
</g>
<path d="M70.2109 85.7484C71.1131 85.1758 71.6278 84.1679 72.0722 83.1963C75.6852 75.3014 76.7777 63.6007 76.5044 54.9225C69.9662 53.1191 63.0205 55.8566 56.2527 56.2999C53.7644 56.4629 51.142 56.6701 49.0837 58.078C47.2934 59.3026 46.1514 61.3315 45.7046 63.4539C45.2576 65.5764 45.4541 67.7908 45.9333 69.9063C47.1823 75.4213 50.543 80.6048 55.5398 83.2518C58.7859 84.9713 62.4959 85.5498 66.1275 86.103C67.5093 86.3137 69.0308 86.4973 70.2109 85.7484Z" fill="#415DA1"/>
<g opacity="0.5">
<path d="M70.2109 85.7493C71.1131 85.1767 71.6278 84.1689 72.0722 83.1973C75.6852 75.3024 76.7777 63.6017 76.5044 54.9235C69.9662 53.1201 63.0205 55.8576 56.2527 56.3009C53.7644 56.4638 51.142 56.6711 49.0837 58.079C47.2934 59.3035 46.1514 61.3325 45.7046 63.4549C45.2576 65.5774 45.4541 67.7917 45.9333 69.9072C47.1823 75.4223 50.543 80.6058 55.5398 83.2527C58.7859 84.9723 62.4959 85.5508 66.1275 86.104C67.5093 86.3147 69.0308 86.4983 70.2109 85.7493Z" fill="white"/>
</g>
<path d="M69.9982 39.4827C67.2959 34.2969 63.7958 29.4384 59.1921 25.8326C57.0191 24.1306 54.4968 22.6837 51.7411 22.5283C48.9852 22.3727 45.9978 23.8224 45.0795 26.4255C44.6083 27.7614 44.7106 29.2391 44.3045 30.5963C43.7337 32.503 42.236 33.9658 41.1952 35.6623C38.4404 40.1525 39.3182 46.5361 43.1827 50.1161C46.2679 52.9744 50.6342 53.9208 54.8026 54.4797C61.5097 55.3786 69.5589 55.703 76.3057 55.1781C74.3646 49.662 72.7004 44.6686 69.9982 39.4827Z" fill="#415DA1"/>
<g opacity="0.5">
<path d="M69.9982 39.4817C67.2959 34.2959 63.7958 29.4374 59.1922 25.8316C57.0191 24.1296 54.4968 22.6827 51.7411 22.5273C48.9853 22.3717 45.9979 23.8215 45.0795 26.4245C44.6083 27.7605 44.7106 29.2382 44.3045 30.5953C43.7338 32.5021 42.2361 33.9648 41.1952 35.6613C38.4405 40.1515 39.3182 46.5351 43.1827 50.1152C46.268 52.9734 50.6343 53.9198 54.8026 54.4787C61.5097 55.3776 69.5589 55.702 76.3058 55.1771C74.3646 49.661 72.7004 44.6676 69.9982 39.4817Z" fill="white"/>
</g>
<path d="M87.66 32.1934C88.5458 28.9097 89.287 25.5091 88.9098 22.1289C88.533 18.7487 86.8634 15.3526 83.9092 13.6671C80.9549 11.9817 76.6752 12.5411 74.8076 15.3836C72.8845 13.9037 70.9023 12.3928 68.5731 11.7127C66.2441 11.032 63.4553 11.3602 61.8192 13.1525C60.7097 14.3682 60.2789 16.0866 60.3263 17.732C60.3732 19.3775 60.8524 20.9773 61.3653 22.5413C65.1696 34.1452 70.289 43.9418 76.0901 54.6873C81.0862 47.9793 85.4811 40.2688 87.66 32.1934Z" fill="#415DA1"/>
<g opacity="0.5">
<path d="M87.66 32.1925C88.5458 28.9088 89.287 25.5081 88.9098 22.1279C88.5331 18.7478 86.8635 15.3517 83.9092 13.6661C80.955 11.9808 76.6752 12.5401 74.8076 15.3826C72.8846 13.9027 70.9024 12.3919 68.5731 11.7117C66.2441 11.031 63.4553 11.3593 61.8192 13.1515C60.7097 14.3672 60.279 16.0856 60.3263 17.7311C60.3732 19.3765 60.8524 20.9763 61.3653 22.5403C65.1697 34.1442 70.2891 43.9408 76.0901 54.6863C81.0862 47.9784 85.4811 40.2678 87.66 32.1925Z" fill="white"/>
</g>
<g opacity="0.3">
<path d="M86.7774 35.0983C83.3573 37.1034 79.9883 41.2953 78.3685 44.9139C76.7483 48.5324 75.72 50.7073 75.6038 54.6702C78.4863 48.0781 82.6311 40.9782 86.7774 35.0983Z" fill="black"/>
</g>
<g opacity="0.3">
<path d="M60.7805 55.4599C65.319 55.542 69.8665 55.126 74.3148 54.222C69.8342 52.0367 65.0746 52.9279 60.7805 55.4599Z" fill="black"/>
</g>
<g opacity="0.3">
<path d="M64.4233 30.9248C69.7561 36.701 73.7945 43.7242 76.5615 51.0826C75.7036 42.5044 71.4971 35.8527 64.4233 30.9248Z" fill="black"/>
</g>
<path d="M75.6074 54.7779C74.7687 51.0237 73.9418 47.0258 75.2453 43.4067C75.3698 43.0611 75.5198 42.7117 75.7836 42.4559C76.0476 42.2002 76.4511 42.0576 76.7926 42.1937C77.2769 42.3871 77.412 42.9973 77.4691 43.5159C77.6439 45.1028 77.7249 46.7002 77.7117 48.2966C78.0878 47.7561 78.4809 47.1991 79.0468 46.8625C79.6127 46.5259 80.4034 46.4722 80.8886 46.9175C81.2848 47.2814 81.38 47.8892 81.253 48.4118C81.126 48.9346 80.8121 49.3903 80.4861 49.8186C79.1809 51.5336 77.5955 53.012 76.0184 54.4812" fill="white"/>
</svg>
