<svg width="2" height="100" viewBox="0 0 2 100" fill="none" xmlns="http://www.w3.org/2000/svg">
<mask id="path-1-inside-1_228_1980" fill="white">
<path d="M0.580078 0H1.58008V100H0.580078V0Z"/>
</mask>
<path d="M2.08008 100V98.5H1.08008V100H2.08008ZM2.08008 96.5V93.5H1.08008V96.5H2.08008ZM2.08008 91.5V88.5H1.08008V91.5H2.08008ZM2.08008 86.5V83.5H1.08008V86.5H2.08008ZM2.08008 81.5V78.5H1.08008V81.5H2.08008ZM2.08008 76.5V73.5H1.08008V76.5H2.08008ZM2.08008 71.5V68.5H1.08008V71.5H2.08008ZM2.08008 66.5V63.5H1.08008V66.5H2.08008ZM2.08008 61.5V58.5H1.08008V61.5H2.08008ZM2.08008 56.5V53.5H1.08008V56.5H2.08008ZM2.08008 51.5V48.5H1.08008V51.5H2.08008ZM2.08008 46.5V43.5H1.08008V46.5H2.08008ZM2.08008 41.5V38.5H1.08008V41.5H2.08008ZM2.08008 36.5V33.5H1.08008V36.5H2.08008ZM2.08008 31.5V28.5H1.08008V31.5H2.08008ZM2.08008 26.5V23.5H1.08008V26.5H2.08008ZM2.08008 21.5V18.5H1.08008V21.5H2.08008ZM2.08008 16.5V13.5H1.08008V16.5H2.08008ZM2.08008 11.5V8.5H1.08008V11.5H2.08008ZM2.08008 6.5V3.5H1.08008V6.5H2.08008ZM2.08008 1.5V0H1.08008V1.5H2.08008ZM2.58008 100V98.5H0.580078V100H2.58008ZM2.58008 96.5V93.5H0.580078V96.5H2.58008ZM2.58008 91.5V88.5H0.580078V91.5H2.58008ZM2.58008 86.5V83.5H0.580078V86.5H2.58008ZM2.58008 81.5V78.5H0.580078V81.5H2.58008ZM2.58008 76.5V73.5H0.580078V76.5H2.58008ZM2.58008 71.5V68.5H0.580078V71.5H2.58008ZM2.58008 66.5V63.5H0.580078V66.5H2.58008ZM2.58008 61.5V58.5H0.580078V61.5H2.58008ZM2.58008 56.5V53.5H0.580078V56.5H2.58008ZM2.58008 51.5V48.5H0.580078V51.5H2.58008ZM2.58008 46.5V43.5H0.580078V46.5H2.58008ZM2.58008 41.5V38.5H0.580078V41.5H2.58008ZM2.58008 36.5V33.5H0.580078V36.5H2.58008ZM2.58008 31.5V28.5H0.580078V31.5H2.58008ZM2.58008 26.5V23.5H0.580078V26.5H2.58008ZM2.58008 21.5V18.5H0.580078V21.5H2.58008ZM2.58008 16.5V13.5H0.580078V16.5H2.58008ZM2.58008 11.5V8.5H0.580078V11.5H2.58008ZM2.58008 6.5V3.5H0.580078V6.5H2.58008ZM2.58008 1.5V0H0.580078V1.5H2.58008Z" fill="#2D5DA5" mask="url(#path-1-inside-1_228_1980)"/>
</svg>
