<svg width="56" height="56" viewBox="0 0 56 56" fill="none" xmlns="http://www.w3.org/2000/svg">
<rect x="0.5" y="0.52002" width="55" height="55" rx="10" fill="#EBF2FF"/>
<path d="M13.7369 31.7659C13.9014 31.8804 14.0749 31.9809 14.2564 32.0659C14.4724 32.1764 14.8344 32.3614 14.8599 32.4909C14.8914 32.6619 14.8709 32.8384 14.8009 32.9974C14.7264 33.1574 14.6484 33.2949 14.5809 33.4134C14.3979 33.7368 14.0914 34.2788 14.5534 34.6563C14.6614 34.7563 14.8479 34.9008 15.0179 35.0313C14.8929 35.2503 14.8359 35.5012 14.8554 35.7527C14.8819 35.9507 14.9894 36.1287 15.1519 36.2442C15.2629 36.3227 15.3813 36.3907 15.4983 36.4572C15.7938 36.6257 15.9093 36.7042 15.9483 36.8607C15.9763 37.0617 15.9588 37.2666 15.8983 37.4606C15.8674 37.5928 15.8424 37.7262 15.8233 37.8606C15.7733 38.3161 15.8298 38.7771 15.9878 39.2075C16.0973 39.5943 16.3284 39.9357 16.6469 40.181C16.9653 40.4264 17.3543 40.5627 17.7563 40.57C17.8943 40.57 18.0313 40.555 18.1663 40.5265C19.5946 40.1879 21.0021 39.7667 22.3816 39.265C23.5081 39.926 24.2195 41.9359 24.405 42.6903C24.4319 42.7987 24.4944 42.895 24.5824 42.9638C24.6704 43.0325 24.7788 43.0699 24.8905 43.0698L37.4401 43.0348C37.5185 43.0347 37.5958 43.0161 37.6657 42.9805C37.7356 42.945 37.7962 42.8935 37.8425 42.8303C37.8888 42.767 37.9196 42.6937 37.9324 42.6163C37.9452 42.539 37.9396 42.4597 37.9161 42.3849C37.7924 42.0461 37.622 41.7263 37.4096 41.4349C37.2897 41.2621 37.1816 41.0813 37.0861 40.8939C36.8598 40.436 36.671 39.9605 36.5216 39.472C36.24 38.5163 36.0435 37.5375 35.9346 36.5472C35.9286 36.4804 35.9092 36.4156 35.8776 36.3565C35.8461 36.2973 35.8029 36.2452 35.7508 36.2031C35.6986 36.161 35.6385 36.1298 35.5741 36.1114C35.5096 36.0929 35.4422 36.0877 35.3756 36.0958C35.3091 36.104 35.2449 36.1255 35.1869 36.159C35.1288 36.1925 35.0781 36.2373 35.0377 36.2908C34.9973 36.3443 34.9681 36.4053 34.9517 36.4703C34.9354 36.5353 34.9323 36.603 34.9427 36.6692C35.0582 37.7191 35.2671 38.7561 35.5661 39.769C35.7307 40.3064 35.9382 40.8298 36.1866 41.3339C36.3006 41.5604 36.4301 41.7789 36.5741 41.9874L36.6076 42.0374L25.2685 42.0699C24.9366 40.8839 24.3342 39.791 23.5086 38.8771L23.9585 38.7196C24.2935 38.6026 24.546 38.5146 24.6755 38.4731C26.8174 37.7956 27.8884 36.8202 27.8594 35.5732C27.8596 35.5073 27.8464 35.442 27.8206 35.3813C27.7949 35.3207 27.757 35.2659 27.7094 35.2202C27.6619 35.1746 27.6055 35.1391 27.5438 35.1159C27.4821 35.0927 27.4163 35.0823 27.3504 35.0853C27.2179 35.0884 27.092 35.1441 27.0005 35.24C26.909 35.3359 26.8594 35.4642 26.8624 35.5967C26.8744 36.1112 26.453 36.8617 24.3745 37.5191C24.1261 37.602 23.8784 37.6871 23.6316 37.7746C23.2601 37.9046 22.7876 38.0696 22.2666 38.2466H22.2631C20.8561 38.7623 19.4204 39.1964 17.9633 39.5465C17.7389 39.5898 17.5065 39.5445 17.3147 39.4203C17.1229 39.2961 16.9866 39.1025 16.9343 38.8801C16.8275 38.5956 16.7873 38.2905 16.8168 37.9881C16.8298 37.8831 16.8538 37.7791 16.8768 37.6746C16.9787 37.3288 16.9936 36.9632 16.9203 36.6102C16.8482 36.3835 16.7282 36.175 16.5686 35.9987C16.4089 35.8224 16.2133 35.6824 15.9948 35.5882L15.8908 35.5287C15.9448 35.4197 16.0093 35.3162 16.0833 35.2198C16.1248 35.1672 16.1554 35.1067 16.1731 35.0421C16.1908 34.9775 16.1953 34.91 16.1864 34.8435C16.1775 34.7771 16.1553 34.7132 16.1212 34.6555C16.0871 34.5978 16.0417 34.5476 15.9878 34.5078C15.8678 34.4198 15.5848 34.2078 15.3778 34.0408C15.4018 33.9973 15.4278 33.9493 15.4528 33.9058C15.5313 33.7683 15.6208 33.6083 15.7083 33.4234C15.8663 33.0729 15.9133 32.6824 15.8418 32.3044C15.7218 31.6944 15.1379 31.3955 14.7114 31.1775C14.568 31.1096 14.4305 31.0298 14.3004 30.939C14.1932 30.867 14.0928 30.7853 14.0004 30.695C14.0004 30.6195 14.0814 30.4365 14.4624 29.972C15.3578 28.8198 16.1251 27.5735 16.7508 26.2552C16.8688 26.0488 16.9353 25.8168 16.9443 25.5788C16.9188 25.3304 16.8404 25.0903 16.7144 24.8747C16.5884 24.6591 16.4177 24.473 16.2138 24.3289C16.0113 24.1434 15.8208 23.9684 15.7988 23.8069C15.8023 23.6884 15.8288 23.5719 15.8768 23.4634C15.9583 23.2489 16.0523 23.0389 16.1468 22.8284C16.3518 22.4055 16.5158 21.964 16.6358 21.51L16.6858 21.297C16.7918 20.7972 16.9284 20.3043 17.0948 19.8211C17.4889 18.7333 18.0992 17.7365 18.8887 16.8908C19.8452 15.8788 21.3506 15.1629 23.3706 14.7614C24.9156 14.4222 26.4834 14.1963 28.0614 14.0854C28.8484 14.0428 29.6377 14.0876 30.4148 14.2189C30.544 14.2383 30.6756 14.2063 30.7815 14.1299C30.8874 14.0535 30.9592 13.9387 30.9815 13.81C31.0039 13.6813 30.975 13.549 30.901 13.4414C30.8271 13.3337 30.7139 13.2593 30.5858 13.234C29.7351 13.0894 28.871 13.0401 28.0094 13.087C26.3825 13.2 24.766 13.432 23.1731 13.7809C20.9187 14.2309 19.2802 15.0214 18.1618 16.2033C17.2795 17.1473 16.5973 18.2601 16.1563 19.4746C15.9763 19.9972 15.8283 20.5304 15.7133 21.071L15.6633 21.282C15.5568 21.674 15.4133 22.0555 15.2359 22.421C15.1359 22.6489 15.0319 22.8769 14.9424 23.1129C14.8273 23.3758 14.7816 23.6638 14.8099 23.9494C14.9109 24.3969 15.1699 24.7933 15.5388 25.0658C15.7833 25.2903 15.9438 25.4483 15.9458 25.5858C15.9277 25.662 15.8989 25.7352 15.8603 25.8033C15.2614 27.0652 14.5271 28.2583 13.6704 29.3616C13.3089 29.8021 12.9304 30.3155 13.0109 30.829C13.1169 31.2265 13.3784 31.564 13.7369 31.7659Z" fill="#415DA1"/>
<path d="M18.5845 21.9671L18.6345 21.7446C18.722 21.3291 18.8335 20.9187 18.968 20.5157C19.269 19.6807 19.736 18.9158 20.34 18.2658C20.9879 17.6548 21.7811 17.2193 22.6444 17.0004C22.7084 16.9823 22.7682 16.9517 22.8202 16.9102C22.8723 16.8688 22.9155 16.8174 22.9474 16.759C22.9794 16.7006 22.9993 16.6365 23.0061 16.5703C23.0129 16.5041 23.0065 16.4373 22.9871 16.3736C22.9677 16.31 22.9359 16.2508 22.8933 16.1997C22.8508 16.1485 22.7985 16.1063 22.7395 16.0756C22.6805 16.0449 22.6159 16.0263 22.5496 16.0208C22.4833 16.0154 22.4166 16.0232 22.3534 16.0439C21.3231 16.3117 20.3793 16.8405 19.613 17.5793C18.9167 18.3278 18.3788 19.2092 18.0315 20.1707C17.8815 20.6147 17.758 21.0666 17.661 21.5251L17.611 21.7416C17.5934 21.8065 17.589 21.8743 17.5982 21.9409C17.6073 22.0076 17.6298 22.0717 17.6643 22.1294C17.6988 22.1871 17.7446 22.2373 17.799 22.2769C17.8533 22.3165 17.9151 22.3448 17.9807 22.36C18.0462 22.3751 18.1141 22.3769 18.1803 22.3653C18.2466 22.3536 18.3098 22.3286 18.3662 22.292C18.4225 22.2553 18.4709 22.2076 18.5084 22.1518C18.546 22.096 18.5718 22.0331 18.5845 21.9671Z" fill="#415DA1"/>
<path d="M17.501 24.0706C17.7771 24.0706 18.0009 23.8468 18.0009 23.5707C18.0009 23.2945 17.7771 23.0707 17.501 23.0707C17.2248 23.0707 17.001 23.2945 17.001 23.5707C17.001 23.8468 17.2248 24.0706 17.501 24.0706Z" fill="#415DA1"/>
<path d="M26.5006 23.1762C26.4664 24.8807 27.0687 26.5368 28.19 27.821C28.543 28.1877 28.9278 28.5223 29.34 28.8209C30.0715 29.3864 30.7645 29.9268 30.9485 30.6788C30.6693 30.7893 30.4297 30.981 30.2607 31.2292C30.0917 31.4773 30.001 31.7705 30.0005 32.0707V33.0707C30.0018 33.3798 30.0985 33.681 30.2775 33.933C30.4565 34.185 30.709 34.3756 31.0005 34.4786V34.5706C31.0005 35.101 31.2112 35.6097 31.5862 35.9847C31.9613 36.3598 32.47 36.5705 33.0004 36.5705C33.5308 36.5705 34.0395 36.3598 34.4145 35.9847C34.7896 35.6097 35.0003 35.101 35.0003 34.5706V34.4786C35.2918 34.3756 35.5442 34.185 35.7232 33.933C35.9022 33.681 35.999 33.3798 36.0003 33.0707V32.0707C35.9996 31.7703 35.9086 31.4769 35.7393 31.2287C35.5699 30.9806 35.3299 30.789 35.0503 30.6788C35.2338 29.9288 35.9273 29.3864 36.6588 28.8209C37.0708 28.5222 37.4556 28.1876 37.8087 27.821C38.9305 26.5369 39.5335 24.8809 39.5002 23.1762C39.4862 19.5749 36.6008 16.6431 33.0004 16.5716C29.4 16.6431 26.5146 19.5749 26.5006 23.1762ZM31.5004 24.0712H31.0005C30.9016 24.0712 30.8049 24.0418 30.7227 23.9869C30.6405 23.932 30.5764 23.8539 30.5385 23.7625C30.5007 23.6712 30.4908 23.5706 30.5101 23.4737C30.5294 23.3767 30.577 23.2876 30.6469 23.2177C30.7168 23.1477 30.8059 23.1001 30.9029 23.0808C30.9999 23.0615 31.1004 23.0714 31.1918 23.1093C31.2831 23.1471 31.3612 23.2112 31.4162 23.2934C31.4711 23.3756 31.5004 23.4723 31.5004 23.5712V24.0712ZM33.5004 30.5708H32.5004V25.0711H33.5004V30.5708ZM33.0004 35.5705C32.7352 35.5705 32.4808 35.4652 32.2933 35.2777C32.1058 35.0901 32.0004 34.8358 32.0004 34.5706H34.0003C34.0003 34.8358 33.895 35.0901 33.7075 35.2777C33.5199 35.4652 33.2656 35.5705 33.0004 35.5705ZM35.0003 33.0707C35.0003 33.2033 34.9476 33.3304 34.8539 33.4242C34.7601 33.518 34.6329 33.5706 34.5003 33.5706H31.5004C31.3678 33.5706 31.2407 33.518 31.1469 33.4242C31.0531 33.3304 31.0005 33.2033 31.0005 33.0707V32.0707C31.0005 31.9381 31.0531 31.811 31.1469 31.7172C31.2407 31.6234 31.3678 31.5708 31.5004 31.5708H34.5003C34.6329 31.5708 34.7601 31.6234 34.8539 31.7172C34.9476 31.811 35.0003 31.9381 35.0003 32.0707V33.0707ZM38.5002 23.1917C38.5313 24.6434 38.021 26.0548 37.0687 27.151C36.7551 27.4725 36.4144 27.7664 36.0503 28.0295C35.4608 28.4401 34.938 28.9391 34.5003 29.5089V25.0711H35.0003C35.297 25.0711 35.587 24.9831 35.8336 24.8183C36.0803 24.6535 36.2726 24.4193 36.3861 24.1452C36.4996 23.8711 36.5293 23.5695 36.4714 23.2786C36.4136 22.9876 36.2707 22.7204 36.0609 22.5106C35.8512 22.3008 35.5839 22.158 35.2929 22.1001C35.002 22.0422 34.7004 22.0719 34.4263 22.1855C34.1522 22.299 33.918 22.4912 33.7531 22.7379C33.5883 22.9845 33.5004 23.2745 33.5004 23.5712V24.0712H32.5004V23.5712C32.5004 23.2745 32.4124 22.9845 32.2476 22.7379C32.0828 22.4912 31.8485 22.299 31.5745 22.1855C31.3004 22.0719 30.9988 22.0422 30.7078 22.1001C30.4169 22.158 30.1496 22.3008 29.9398 22.5106C29.7301 22.7204 29.5872 22.9876 29.5293 23.2786C29.4714 23.5695 29.5012 23.8711 29.6147 24.1452C29.7282 24.4193 29.9205 24.6535 30.1671 24.8183C30.4138 24.9831 30.7038 25.0711 31.0005 25.0711H31.5004V29.5089C31.0636 28.9394 30.5417 28.4406 29.953 28.03C29.5887 27.7668 29.2478 27.4727 28.934 27.151C27.9807 26.0552 27.4697 24.6438 27.5006 23.1917C27.5506 20.1449 30.0665 17.5715 33.0004 17.5715C35.9343 17.5715 38.4527 20.1449 38.5002 23.1917ZM34.5003 24.0712V23.5712C34.5003 23.4723 34.5297 23.3756 34.5846 23.2934C34.6395 23.2112 34.7176 23.1471 34.809 23.1093C34.9003 23.0714 35.0009 23.0615 35.0979 23.0808C35.1948 23.1001 35.2839 23.1477 35.3539 23.2177C35.4238 23.2876 35.4714 23.3767 35.4907 23.4737C35.51 23.5706 35.5001 23.6712 35.4622 23.7625C35.4244 23.8539 35.3603 23.932 35.2781 23.9869C35.1959 24.0418 35.0992 24.0712 35.0003 24.0712H34.5003ZM41.0001 23.5712H42.5C42.6327 23.5712 42.7598 23.5185 42.8536 23.4248C42.9474 23.331 43 23.2038 43 23.0712C43 22.9386 42.9474 22.8115 42.8536 22.7177C42.7598 22.6239 42.6327 22.5713 42.5 22.5713H41.0001C40.8675 22.5713 40.7403 22.6239 40.6466 22.7177C40.5528 22.8115 40.5001 22.9386 40.5001 23.0712C40.5001 23.2038 40.5528 23.331 40.6466 23.4248C40.7403 23.5185 40.8675 23.5712 41.0001 23.5712ZM38.6567 17.915C38.7224 17.9151 38.7875 17.9021 38.8483 17.877C38.909 17.8519 38.9642 17.815 39.0107 17.7685L40.0711 16.7076C40.1189 16.6615 40.157 16.6063 40.1832 16.5453C40.2094 16.4843 40.2232 16.4187 40.2238 16.3523C40.2243 16.2859 40.2117 16.2201 40.1865 16.1586C40.1614 16.0972 40.1243 16.0414 40.0773 15.9944C40.0304 15.9475 39.9746 15.9104 39.9131 15.8852C39.8517 15.8601 39.7858 15.8474 39.7194 15.848C39.6531 15.8486 39.5875 15.8624 39.5264 15.8886C39.4655 15.9148 39.4103 15.9529 39.3642 16.0006L38.3032 17.0611C38.2331 17.131 38.1854 17.2201 38.166 17.3171C38.1466 17.4142 38.1565 17.5148 38.1943 17.6063C38.2322 17.6977 38.2963 17.7759 38.3786 17.8308C38.4609 17.8858 38.5577 17.9151 38.6567 17.915ZM33.0004 15.5716C33.133 15.5716 33.2602 15.519 33.3539 15.4252C33.4477 15.3314 33.5004 15.2043 33.5004 15.0717V13.5717C33.5004 13.4391 33.4477 13.312 33.3539 13.2182C33.2602 13.1245 33.133 13.0718 33.0004 13.0718C32.8678 13.0718 32.7406 13.1245 32.6468 13.2182C32.5531 13.312 32.5004 13.4391 32.5004 13.5717V15.0717C32.5004 15.2043 32.5531 15.3314 32.6468 15.4252C32.7406 15.519 32.8678 15.5716 33.0004 15.5716ZM27.6976 17.7685C27.7441 17.7221 27.7809 17.6669 27.8061 17.6062C27.8313 17.5456 27.8442 17.4805 27.8442 17.4148C27.8442 17.3491 27.8313 17.284 27.8061 17.2233C27.7809 17.1626 27.7441 17.1075 27.6976 17.0611L26.6366 16.0006C26.5905 15.9529 26.5353 15.9148 26.4743 15.8886C26.4133 15.8624 26.3477 15.8486 26.2813 15.848C26.2149 15.8474 26.1491 15.8601 26.0876 15.8852C26.0262 15.9104 25.9704 15.9475 25.9234 15.9944C25.8765 16.0414 25.8394 16.0972 25.8142 16.1586C25.7891 16.2201 25.7764 16.2859 25.777 16.3523C25.7776 16.4187 25.7914 16.4843 25.8176 16.5453C25.8438 16.6063 25.8819 16.6615 25.9296 16.7076L26.9901 17.7685C27.0365 17.815 27.0917 17.8519 27.1524 17.877C27.2131 17.9022 27.2781 17.9152 27.3438 17.9152C27.4095 17.9152 27.4746 17.9022 27.5353 17.877C27.596 17.8519 27.6511 17.815 27.6976 17.7685ZM23.5007 22.5713C23.3681 22.5713 23.2409 22.6239 23.1472 22.7177C23.0534 22.8115 23.0007 22.9386 23.0007 23.0712C23.0007 23.2038 23.0534 23.331 23.1472 23.4248C23.2409 23.5185 23.3681 23.5712 23.5007 23.5712H25.0007C25.1333 23.5712 25.2604 23.5185 25.3542 23.4248C25.448 23.331 25.5006 23.2038 25.5006 23.0712C25.5006 22.9386 25.448 22.8115 25.3542 22.7177C25.2604 22.6239 25.1333 22.5713 25.0007 22.5713H23.5007Z" fill="#415DA1"/>
</svg>
