<svg width="46" height="34" viewBox="0 0 46 34" fill="none" xmlns="http://www.w3.org/2000/svg">
<g clip-path="url(#clip0_168_443)">
<mask id="mask0_168_443" style="mask-type:luminance" maskUnits="userSpaceOnUse" x="0" y="0" width="46" height="33">
<path d="M46 0.0195312H0V32.8766H46V0.0195312Z" fill="white"/>
</mask>
<g mask="url(#mask0_168_443)">
<path d="M9.34276 32.8766C9.27489 32.8766 9.20702 32.8673 9.14149 32.8487C8.8349 32.7603 8.62427 32.4812 8.62427 32.1626V18.2797H0.718494C0.320631 18.2797 0 17.9587 0 17.5656V0.733564C0 0.340497 0.322971 0.0195312 0.718494 0.0195312H18.6879C19.0857 0.0195312 19.4064 0.340497 19.4064 0.733564V17.5517C19.4064 17.6866 19.3689 17.8192 19.294 17.9331L9.95126 32.544C9.8202 32.751 9.59084 32.8766 9.34276 32.8766ZM1.43699 16.8376H9.34276C9.74063 16.8376 10.0613 17.1586 10.0613 17.5517V29.6949L17.967 17.3424V1.4476H1.43699V16.8376Z" fill="#415DA1"/>
<path d="M35.9365 32.8766C35.8686 32.8766 35.8007 32.8673 35.7351 32.8487C35.4286 32.7603 35.2179 32.4812 35.2179 32.1626V18.2797H27.3122C26.9144 18.2797 26.5938 17.9587 26.5938 17.5656V0.733564C26.5938 0.338171 26.9167 0.0195312 27.3122 0.0195312H45.2816C45.6795 0.0195312 46 0.340497 46 0.733564V17.5517C46 17.6866 45.9626 17.8192 45.8877 17.9331L36.5449 32.544C36.4138 32.751 36.1846 32.8766 35.9365 32.8766ZM28.0307 16.8376H35.9365C36.3344 16.8376 36.6549 17.1586 36.6549 17.5517V29.6949L44.5607 17.3424V1.4476H28.0307V16.8376Z" fill="#415DA1"/>
</g>
</g>
<defs>
<clipPath id="clip0_168_443">
<rect width="46" height="33" fill="white" transform="translate(0 0.0195312)"/>
</clipPath>
</defs>
</svg>
