<svg xmlns="http://www.w3.org/2000/svg" width="22" height="22" viewBox="0 0 22 22" fill="none">
  <path d="M10.4083 7.66113V11.9852H13.3187" stroke="#415DA1" stroke-width="1.8" stroke-linecap="round" stroke-linejoin="round"/>
  <path d="M1 11.7147C1.24225 14.0929 2.35156 16.2987 4.1163 17.9112C5.88103 19.5237 8.17766 20.4301 10.568 20.4574C12.9583 20.4847 15.2751 19.631 17.0762 18.0592C18.8773 16.4875 20.0367 14.3076 20.3332 11.9356C20.6297 9.56353 20.0425 7.16536 18.6837 5.1986C17.325 3.23183 15.2896 1.83416 12.9661 1.27223C10.6426 0.710299 8.19357 1.02345 6.08621 2.15195C3.97885 3.28044 2.36071 5.14527 1.54051 7.39065M1 1.98554V7.39065H6.40511" stroke="#415DA1" stroke-width="1.8" stroke-linecap="round" stroke-linejoin="round"/>
</svg>