<svg width="15" height="13" viewBox="0 0 12 13" fill="none" xmlns="http://www.w3.org/2000/svg">
<path d="M10.0833 1.6901H9.5V0.523438H8.33333V1.6901H3.66667V0.523438H2.5V1.6901H1.91667C1.60725 1.6901 1.3105 1.81302 1.09171 2.03181C0.872916 2.25061 0.75 2.54735 0.75 2.85677V11.0234C0.75 11.3329 0.872916 11.6296 1.09171 11.8484C1.3105 12.0672 1.60725 12.1901 1.91667 12.1901H10.0833C10.7308 12.1901 11.25 11.6709 11.25 11.0234V2.85677C11.25 2.54735 11.1271 2.25061 10.9083 2.03181C10.6895 1.81302 10.3928 1.6901 10.0833 1.6901ZM10.0833 11.0234H1.91667V5.1901H10.0833V11.0234ZM10.0833 4.02344H1.91667V2.85677H10.0833V4.02344Z" fill="#3A3541" fill-opacity="0.6"/>
</svg>
