<svg width="16" height="16" viewBox="0 0 16 16" fill="none" xmlns="http://www.w3.org/2000/svg">
<g clip-path="url(#clip0_162_8)">
<mask id="mask0_162_8" style="mask-type:luminance" maskUnits="userSpaceOnUse" x="0" y="0" width="16" height="16">
<path d="M16 0H0V15.3564H16V0Z" fill="white"/>
</mask>
<g mask="url(#mask0_162_8)">
<path d="M12.3676 12.81H3.72139C3.59976 12.81 3.5022 12.7124 3.5022 12.5908V7.77988C3.5022 7.16664 3.62256 6.57114 3.8595 6.01238C4.08756 5.47136 4.41572 4.98482 4.83257 4.56797C5.25069 4.14985 5.73596 3.82423 6.27571 3.59363C6.83574 3.3567 7.43124 3.23633 8.04322 3.23633C8.65519 3.23633 9.25196 3.3567 9.81072 3.59363C10.3517 3.82169 10.8383 4.14985 11.2551 4.56797C11.6732 4.98482 11.9988 5.47009 12.2294 6.01238C12.4664 6.57241 12.5867 7.16791 12.5867 7.77988V12.5908C12.5867 12.7124 12.4892 12.81 12.3676 12.81ZM3.93932 12.3716H12.1484V7.77988C12.1484 5.51571 10.3074 3.67472 8.04322 3.67472C5.77904 3.67472 3.94059 5.51571 3.94059 7.77988V12.3716H3.93932Z" fill="white" stroke="white" stroke-width="0.25" stroke-miterlimit="10"/>
<path d="M14.3085 15.341H1.78016C1.71174 15.341 1.64839 15.3093 1.60658 15.2548C1.56477 15.2004 1.55083 15.1307 1.56857 15.0661L2.22996 12.5345C2.2553 12.4382 2.34272 12.3711 2.44155 12.3711H13.6471C13.7472 12.3711 13.8334 12.4382 13.8587 12.5345L14.5201 15.0661C14.5366 15.1319 14.5226 15.2016 14.4808 15.2548C14.439 15.3081 14.3757 15.341 14.3072 15.341H14.3085ZM2.06271 14.9026H14.0247L13.4773 12.8095H2.61007L2.06271 14.9026Z" fill="white" stroke="white" stroke-width="0.25" stroke-miterlimit="10"/>
<path d="M8.04463 1.99852C7.923 1.99852 7.82544 1.90096 7.82544 1.77932V0.23482C7.82544 0.113186 7.923 0.015625 8.04463 0.015625C8.16627 0.015625 8.26383 0.113186 8.26383 0.23482V1.78059C8.26383 1.90223 8.16627 1.99979 8.04463 1.99979V1.99852Z" fill="white" stroke="white" stroke-width="0.25" stroke-miterlimit="10"/>
<path d="M4.92888 2.81053C4.85286 2.81053 4.77937 2.77126 4.73882 2.70157L3.96594 1.36486C3.90512 1.26096 3.9406 1.12539 4.04703 1.06584C4.15092 1.00502 4.2865 1.0405 4.34605 1.14566L5.11766 2.48237C5.17848 2.58627 5.143 2.72184 5.03784 2.78139C5.00236 2.80166 4.96435 2.81053 4.92888 2.81053Z" fill="white" stroke="white" stroke-width="0.25" stroke-miterlimit="10"/>
<path d="M2.63427 5.07065C2.59626 5.07065 2.55952 5.06178 2.52531 5.04151L1.1886 4.26989C1.0847 4.20907 1.04796 4.07603 1.10877 3.9696C1.16959 3.86571 1.30263 3.82896 1.40779 3.88978L2.7445 4.66267C2.8484 4.72348 2.88514 4.85652 2.82433 4.96168C2.78378 5.03264 2.71029 5.07065 2.63427 5.07065Z" fill="white" stroke="white" stroke-width="0.25" stroke-miterlimit="10"/>
<path d="M1.7803 8.17472H0.235797C0.114162 8.17472 0.0166016 8.07716 0.0166016 7.95552C0.0166016 7.83389 0.114162 7.73633 0.235797 7.73633H1.7803C1.90067 7.73633 1.99949 7.83389 1.99949 7.95552C1.99949 8.07716 1.90193 8.17472 1.7803 8.17472Z" fill="white" stroke="white" stroke-width="0.25" stroke-miterlimit="10"/>
<path d="M15.7644 8.26359H14.2199C14.0996 8.26359 14.0007 8.16602 14.0007 8.04438C14.0007 7.92275 14.0983 7.8252 14.2199 7.8252H15.7644C15.8861 7.8252 15.9836 7.92275 15.9836 8.04438C15.9836 8.16602 15.8861 8.26359 15.7644 8.26359Z" fill="white" stroke="white" stroke-width="0.25" stroke-miterlimit="10"/>
<path d="M13.4092 5.14778C13.3331 5.14778 13.2597 5.10851 13.2191 5.03882C13.1583 4.93492 13.1938 4.79935 13.2989 4.7398L14.6357 3.96818C14.7395 3.90737 14.8751 3.94284 14.9347 4.04801C14.9955 4.15317 14.96 4.28747 14.8548 4.34702L13.5181 5.11991C13.4839 5.14018 13.4459 5.14905 13.4092 5.14905V5.14778Z" fill="white" stroke="white" stroke-width="0.25" stroke-miterlimit="10"/>
<path d="M11.1486 2.8542C11.1106 2.8542 11.0739 2.84533 11.0396 2.82506C10.9358 2.76424 10.899 2.63121 10.9598 2.52604L11.7327 1.18933C11.7935 1.08543 11.9266 1.04869 12.0317 1.10951C12.1369 1.17032 12.1724 1.30336 12.1116 1.40853L11.3399 2.74524C11.2994 2.81492 11.2246 2.8542 11.1499 2.8542H11.1486Z" fill="white" stroke="white" stroke-width="0.25" stroke-miterlimit="10"/>
<path d="M8.67926 12.8095C8.55763 12.8095 8.46007 12.7119 8.46007 12.5903V9.76231C8.46007 9.68376 8.50188 9.61154 8.5703 9.57226C8.90099 9.38347 9.10625 9.02997 9.10625 8.6486C9.10625 8.06323 8.62985 7.58556 8.04322 7.58556C7.45658 7.58556 6.98018 8.06196 6.98018 8.6486C6.98018 9.02997 7.18544 9.38347 7.51614 9.57226C7.58455 9.61154 7.62637 9.68376 7.62637 9.76231V12.5903C7.62637 12.7119 7.52881 12.8095 7.40717 12.8095C7.28554 12.8095 7.18798 12.7119 7.18798 12.5903V9.88268C6.78633 9.60393 6.54053 9.14147 6.54053 8.6486C6.54053 7.82123 7.21332 7.14844 8.04195 7.14844C8.87059 7.14844 9.54338 7.82123 9.54338 8.6486C9.54338 9.14274 9.29757 9.6052 8.89593 9.88268V12.5903C8.89593 12.7119 8.79837 12.8095 8.67673 12.8095H8.67926Z" fill="white" stroke="white" stroke-width="0.25" stroke-miterlimit="10"/>
</g>
</g>
<defs>
<clipPath id="clip0_162_8">
<rect width="16" height="16" fill="white"/>
</clipPath>
</defs>
</svg>
