<svg width="17" height="20" viewBox="0 0 17 20" fill="none" xmlns="http://www.w3.org/2000/svg">
<path fill-rule="evenodd" clip-rule="evenodd" d="M11.353 17.1118C11.3531 17.6197 11.1719 18.1089 10.8456 18.4813C10.5194 18.8538 10.0722 19.0819 9.59369 19.12L9.45104 19.125H7.5491C7.06927 19.1252 6.60711 18.9333 6.25526 18.588C5.90342 18.2426 5.68791 17.7693 5.65192 17.2628L5.64717 17.1118H11.353ZM8.50007 9.60344e-10C10.2261 -3.0142e-05 11.8846 0.709531 13.1258 1.97901C14.367 3.24849 15.0939 4.97863 15.1531 6.80447L15.1569 7.04605V10.8348L16.8895 14.5028C16.9651 14.6628 17.003 14.8399 16.9998 15.0188C16.9966 15.1977 16.9526 15.3732 16.8713 15.5301C16.7901 15.687 16.6741 15.8208 16.5334 15.9199C16.3926 16.019 16.2313 16.0805 16.0631 16.0992L15.9538 16.1053H1.04638C0.877259 16.1053 0.710652 16.062 0.56083 15.9789C0.411009 15.8959 0.282442 15.7757 0.186145 15.6285C0.0898479 15.4813 0.0286931 15.3117 0.00792097 15.134C-0.0128512 14.9564 0.00737874 14.776 0.066877 14.6085L0.110622 14.5028L1.84329 10.8348V7.04605C1.84329 5.17732 2.54463 3.38513 3.79302 2.06374C5.0414 0.74235 6.73458 9.60345e-10 8.50007 9.60344e-10ZM8.50007 2.01316C7.27479 2.01323 6.09682 2.51397 5.21183 3.41095C4.32685 4.30793 3.80316 5.53191 3.74998 6.82763L3.74523 7.04605V10.8348C3.74524 11.0845 3.70138 11.3319 3.61589 11.5646L3.54457 11.7357L2.43194 14.0921H14.5692L13.4565 11.7347C13.351 11.5115 13.2855 11.2695 13.2635 11.021L13.2549 10.8348V7.04605C13.2549 5.71125 12.754 4.43111 11.8623 3.48726C10.9706 2.54341 9.76114 2.01316 8.50007 2.01316Z" fill="white"/>
</svg>
