<svg width="22" height="24" viewBox="0 0 23 22" fill="none" xmlns="http://www.w3.org/2000/svg">
<path d="M1.692 10.7432C1.692 6.87552 1.692 4.94116 2.864 3.74014C4.035 2.53809 5.921 2.53809 9.692 2.53809H13.692C17.463 2.53809 19.349 2.53809 20.52 3.74014C21.692 4.94116 21.692 6.87552 21.692 10.7432V12.7945C21.692 16.6622 21.692 18.5965 20.52 19.7976C19.349 20.9996 17.463 20.9996 13.692 20.9996H9.692C5.921 20.9996 4.035 20.9996 2.864 19.7976C1.692 18.5965 1.692 16.6622 1.692 12.7945V10.7432Z" stroke="#415DA1" stroke-width="1.8"/>
<path d="M6.69199 2.53846V1M16.692 2.53846V1M2.19199 7.66667H21.192" stroke="#415DA1" stroke-width="1.8" stroke-linecap="round"/>
<path d="M17.692 15.8723C17.692 16.1444 17.5866 16.4052 17.3991 16.5976C17.2115 16.7899 16.9572 16.898 16.692 16.898C16.4267 16.898 16.1724 16.7899 15.9848 16.5976C15.7973 16.4052 15.692 16.1444 15.692 15.8723C15.692 15.6003 15.7973 15.3395 15.9848 15.1471C16.1724 14.9548 16.4267 14.8467 16.692 14.8467C16.9572 14.8467 17.2115 14.9548 17.3991 15.1471C17.5866 15.3395 17.692 15.6003 17.692 15.8723ZM17.692 11.7698C17.692 12.0418 17.5866 12.3027 17.3991 12.495C17.2115 12.6874 16.9572 12.7954 16.692 12.7954C16.4267 12.7954 16.1724 12.6874 15.9848 12.495C15.7973 12.3027 15.692 12.0418 15.692 11.7698C15.692 11.4978 15.7973 11.2369 15.9848 11.0445C16.1724 10.8522 16.4267 10.7441 16.692 10.7441C16.9572 10.7441 17.2115 10.8522 17.3991 11.0445C17.5866 11.2369 17.692 11.4978 17.692 11.7698ZM12.692 15.8723C12.692 16.1444 12.5866 16.4052 12.3991 16.5976C12.2115 16.7899 11.9572 16.898 11.692 16.898C11.4267 16.898 11.1724 16.7899 10.9848 16.5976C10.7973 16.4052 10.692 16.1444 10.692 15.8723C10.692 15.6003 10.7973 15.3395 10.9848 15.1471C11.1724 14.9548 11.4267 14.8467 11.692 14.8467C11.9572 14.8467 12.2115 14.9548 12.3991 15.1471C12.5866 15.3395 12.692 15.6003 12.692 15.8723ZM12.692 11.7698C12.692 12.0418 12.5866 12.3027 12.3991 12.495C12.2115 12.6874 11.9572 12.7954 11.692 12.7954C11.4267 12.7954 11.1724 12.6874 10.9848 12.495C10.7973 12.3027 10.692 12.0418 10.692 11.7698C10.692 11.4978 10.7973 11.2369 10.9848 11.0445C11.1724 10.8522 11.4267 10.7441 11.692 10.7441C11.9572 10.7441 12.2115 10.8522 12.3991 11.0445C12.5866 11.2369 12.692 11.4978 12.692 11.7698ZM7.69196 15.8723C7.69196 16.1444 7.5866 16.4052 7.39906 16.5976C7.21153 16.7899 6.95717 16.898 6.69196 16.898C6.42674 16.898 6.17239 16.7899 5.98485 16.5976C5.79731 16.4052 5.69196 16.1444 5.69196 15.8723C5.69196 15.6003 5.79731 15.3395 5.98485 15.1471C6.17239 14.9548 6.42674 14.8467 6.69196 14.8467C6.95717 14.8467 7.21153 14.9548 7.39906 15.1471C7.5866 15.3395 7.69196 15.6003 7.69196 15.8723ZM7.69196 11.7698C7.69196 12.0418 7.5866 12.3027 7.39906 12.495C7.21153 12.6874 6.95717 12.7954 6.69196 12.7954C6.42674 12.7954 6.17239 12.6874 5.98485 12.495C5.79731 12.3027 5.69196 12.0418 5.69196 11.7698C5.69196 11.4978 5.79731 11.2369 5.98485 11.0445C6.17239 10.8522 6.42674 10.7441 6.69196 10.7441C6.95717 10.7441 7.21153 10.8522 7.39906 11.0445C7.5866 11.2369 7.69196 11.4978 7.69196 11.7698Z" fill="#415DA1"/>
</svg>
