<svg width="13" height="18" viewBox="0 0 13 18" fill="none" xmlns="http://www.w3.org/2000/svg">
<g clip-path="url(#clip0_162_28)">
<mask id="mask0_162_28" style="mask-type:luminance" maskUnits="userSpaceOnUse" x="0" y="0" width="13" height="18">
<path d="M12.75 0.5H0.75V17.4231H12.75V0.5Z" fill="white"/>
</mask>
<g mask="url(#mask0_162_28)">
<path d="M6.33336 17.2006C6.42493 17.3391 6.58289 17.4208 6.75 17.4208C6.91711 17.4208 7.07278 17.3391 7.16664 17.2006C8.35015 15.4413 10.0922 13.2667 11.3078 11.0579C12.2784 9.28956 12.75 7.78226 12.75 6.44975C12.75 3.16956 10.0579 0.5 6.75 0.5C3.4421 0.5 0.75 3.16956 0.75 6.44975C0.75 7.78226 1.22158 9.28956 2.1922 11.0579C3.40548 13.2667 5.15214 15.4459 6.33336 17.2006ZM6.75 1.492C9.5062 1.492 11.7496 3.71663 11.7496 6.44975C11.7496 7.61427 11.317 8.96494 10.4288 10.5835C9.38258 12.488 7.88773 14.4221 6.75 16.0474C5.61227 14.4221 4.11971 12.4903 3.07125 10.5835C2.18304 8.96494 1.75038 7.612 1.75038 6.44975C1.75038 3.71663 3.9938 1.492 6.75 1.492Z" fill="white"/>
<path d="M6.75008 9.42307C8.40517 9.42307 9.74893 8.08829 9.74893 6.44933C9.74893 4.81036 8.40288 3.47559 6.75008 3.47559C5.09727 3.47559 3.75122 4.81036 3.75122 6.44933C3.75122 8.08829 5.09727 9.42307 6.75008 9.42307ZM6.75008 4.46532C7.85347 4.46532 8.75084 5.35517 8.75084 6.44933C8.75084 7.54348 7.85347 8.43333 6.75008 8.43333C5.64668 8.43333 4.74931 7.54348 4.74931 6.44933C4.74931 5.35517 5.64668 4.46532 6.75008 4.46532Z" fill="white"/>
</g>
</g>
<defs>
<clipPath id="clip0_162_28">
<rect width="12" height="17" fill="white" transform="translate(0.75 0.5)"/>
</clipPath>
</defs>
</svg>
