<svg width="19" height="18" viewBox="0 0 19 18" fill="none" xmlns="http://www.w3.org/2000/svg">
<mask id="mask0_162_39" style="mask-type:luminance" maskUnits="userSpaceOnUse" x="0" y="0" width="19" height="18">
<path d="M18.6602 0H0.660156V18H18.6602V0Z" fill="white"/>
</mask>
<g mask="url(#mask0_162_39)">
<path d="M9.66016 0C4.70453 0 0.660156 4.04484 0.660156 9C0.660156 13.9552 4.705 18 9.66016 18C14.6154 18 18.6602 13.9552 18.6602 9C18.6602 4.04484 14.6154 0 9.66016 0ZM9.66016 16.9453C5.27922 16.9453 1.71485 13.3809 1.71485 9C1.71485 4.61906 5.27922 1.05469 9.66016 1.05469C14.0411 1.05469 17.6055 4.61906 17.6055 9C17.6055 13.3809 14.0411 16.9453 9.66016 16.9453Z" fill="white"/>
<path d="M5.71288 13.4746C5.71288 13.7657 5.47663 14.002 5.18554 14.002C4.89445 14.002 4.6582 13.7657 4.6582 13.4746C4.6582 13.1835 4.89445 12.9473 5.18554 12.9473C5.47663 12.9473 5.71288 13.1835 5.71288 13.4746Z" fill="white"/>
<path d="M14.6621 4.52539C14.6621 4.81648 14.4258 5.05273 14.1347 5.05273C13.8436 5.05273 13.6074 4.81648 13.6074 4.52539C13.6074 4.2343 13.8431 3.99805 14.1347 3.99805C14.4263 3.99805 14.6621 4.2343 14.6621 4.52539Z" fill="white"/>
<path d="M4.81303 4.15238C4.60725 4.35816 4.60725 4.69238 4.81303 4.89816C5.01881 5.10395 5.35303 5.10395 5.55881 4.89816C5.76459 4.69238 5.76459 4.35816 5.55881 4.15238C5.35303 3.9466 5.01881 3.9466 4.81303 4.15238Z" fill="white"/>
<path d="M13.7618 13.1016C13.556 13.3074 13.556 13.6416 13.7618 13.8474C13.9676 14.0532 14.3018 14.0532 14.5076 13.8474C14.7138 13.6416 14.7138 13.3074 14.5076 13.1016C14.3018 12.8958 13.9676 12.8958 13.7618 13.1016Z" fill="white"/>
<path d="M9.66015 4.25391C9.95124 4.25391 10.1875 4.01766 10.1875 3.72656V2.67188C10.1875 2.38078 9.95171 2.14453 9.66015 2.14453C9.36859 2.14453 9.13281 2.38078 9.13281 2.67188V3.72656C9.13281 4.01766 9.36859 4.25391 9.66015 4.25391Z" fill="white"/>
<path d="M9.66015 13.7461C9.36859 13.7461 9.13281 13.9823 9.13281 14.2734V15.3281C9.13281 15.6192 9.36859 15.8555 9.66015 15.8555C9.95171 15.8555 10.1875 15.6192 10.1875 15.3281V14.2734C10.1875 13.9823 9.95171 13.7461 9.66015 13.7461Z" fill="white"/>
<path d="M4.91407 9C4.91407 8.70844 4.67782 8.47266 4.38672 8.47266H3.33204C3.04047 8.47266 2.80469 8.70844 2.80469 9C2.80469 9.29156 3.04047 9.52734 3.33204 9.52734H4.38672C4.67782 9.52734 4.91407 9.29109 4.91407 9Z" fill="white"/>
<path d="M14.4062 9C14.4062 9.29109 14.6424 9.52734 14.9335 9.52734H15.9882C16.2793 9.52734 16.5156 9.29109 16.5156 9C16.5156 8.70891 16.2793 8.47266 15.9882 8.47266H14.9335C14.6424 8.47266 14.4062 8.70844 14.4062 9Z" fill="white"/>
<path d="M10.1875 8.78156V5.83594C10.1875 5.54484 9.95171 5.30859 9.66015 5.30859C9.36859 5.30859 9.13281 5.54484 9.13281 5.83594V9C9.13281 9.13969 9.18859 9.27375 9.28749 9.37313L12.4516 12.5372C12.6574 12.743 12.9916 12.743 13.1974 12.5372C13.4032 12.3314 13.4032 11.9972 13.1974 11.7914L10.1875 8.78156Z" fill="white"/>
</g>
</svg>
