<svg width="45" height="45" viewBox="0 0 45 45" fill="none" xmlns="http://www.w3.org/2000/svg">
<g clip-path="url(#clip0_174_1812)">
<mask id="mask0_174_1812" style="mask-type:luminance" maskUnits="userSpaceOnUse" x="0" y="0" width="45" height="45">
<path d="M44.5 0.549805H0.5V44.5498H44.5V0.549805Z" fill="white"/>
</mask>
<g mask="url(#mask0_174_1812)">
<path d="M38.9912 2.61115H30.2829C27.9791 1.30262 25.3176 0.549805 22.4829 0.549805C13.7574 0.549805 6.658 7.64251 6.658 16.3623H1.88187C1.50116 16.3623 1.13191 16.5216 0.870454 16.8023C0.61244 17.0773 0.478273 17.4486 0.503501 17.8221C0.645695 19.9866 1.10897 22.0766 1.84288 24.0486V43.1748C1.84288 43.9333 2.45982 44.5498 3.21896 44.5498H41.7479C42.507 44.5498 43.124 43.9333 43.124 43.1748V23.9936C44.0161 21.5896 44.5001 19.0126 44.5001 16.3623C44.5001 11.5578 42.9783 6.99282 40.0978 3.16115C39.8398 2.8174 39.4246 2.61115 38.9912 2.61115ZM38.9969 3.9873C39.3329 4.43532 39.6505 4.89365 39.9475 5.3623H33.8355C33.3596 4.87188 32.8527 4.4124 32.3172 3.9873H38.9969ZM31.8092 40.4248H13.1565L18.1872 22.5498H26.7774L31.8081 40.4248H31.8092ZM34.3297 41.7998L34.6737 43.1748H10.292L10.636 41.7998H34.3297ZM28.103 22.1774C27.9367 21.5873 27.392 21.1748 26.7785 21.1748H18.1884C17.5737 21.1748 17.0302 21.5873 16.8639 22.1774L16.404 23.8125C14.1691 21.9918 12.8515 19.2773 12.8515 16.3623C12.8515 11.0548 17.1724 6.7373 22.484 6.7373C27.7957 6.7373 32.1165 11.0548 32.1165 16.3623C32.1165 18.4649 31.4503 20.4621 30.1912 22.1373C29.963 22.4409 30.0237 22.8718 30.3276 23.0998C30.6315 23.3267 31.0627 23.2659 31.2909 22.9623C32.7312 21.0476 33.4926 18.764 33.4926 16.3612C33.4926 11.5234 30.346 7.41334 25.9941 5.94438C27.2498 5.31876 28.1672 4.36657 28.5169 3.2597C33.4754 5.54907 36.9328 10.5529 36.9328 16.3612C36.9328 21.4532 34.2747 26.1122 29.9458 28.7224L28.103 22.1774ZM27.2338 2.74293C26.8657 4.20386 24.8428 5.3623 22.4829 5.3623C20.1229 5.3623 18.1001 4.20386 17.732 2.74293C19.2227 2.22272 20.8167 1.9248 22.4829 1.9248C24.1491 1.9248 25.743 2.22272 27.2338 2.74293ZM16.4499 3.26084C16.7997 4.36772 17.7171 5.31876 18.9727 5.94553C14.6209 7.41449 11.4743 11.5246 11.4743 16.3623C11.4743 19.8949 13.1577 23.1766 15.9993 25.2471L15.0211 28.7236C10.6922 26.1133 8.03407 21.4544 8.03407 16.3623C8.03407 10.5552 11.4915 5.55022 16.4499 3.26084ZM6.72451 17.7373C6.76464 18.2002 6.82656 18.6586 6.90684 19.1123H2.01833C1.9587 18.6586 1.91054 18.1991 1.88072 17.7373H6.72451ZM3.21896 27.0529C5.18904 30.5947 8.13957 33.5762 11.8309 35.6203C11.9364 35.6788 12.0499 35.7063 12.1623 35.7063C12.4043 35.7063 12.6393 35.5779 12.7655 35.3511C12.9501 35.0188 12.8297 34.6005 12.496 34.4172C7.13045 31.4472 3.43569 26.362 2.25112 20.4873H7.20728C8.28864 24.5034 10.9284 27.9684 14.6369 30.0871L11.7265 40.4248H10.0982C9.78283 40.4248 9.50762 40.6391 9.43079 40.9462L8.87233 43.1748H3.21781V27.0529H3.21896ZM41.7491 43.1748H36.0945L35.5361 40.9462C35.4592 40.6391 35.184 40.4248 34.8687 40.4248H33.2403L32.0431 36.1715C36.2207 34.1548 39.5794 30.9201 41.7491 26.9991V43.1748ZM31.6636 34.8251L30.3311 30.0871C35.2632 27.2695 38.3089 22.0663 38.3089 16.3623C38.3089 12.7426 37.083 9.40595 35.0269 6.7373H40.7445C42.3075 9.68438 43.1251 12.958 43.1251 16.3623C43.1251 24.1998 38.6483 31.3521 31.6636 34.8251Z" fill="#415DA1"/>
<path d="M25.2349 23.9248H19.7306C19.4026 23.9248 19.1205 24.1563 19.0563 24.4771L18.3683 27.9146C18.3281 28.1174 18.3798 28.3259 18.5105 28.4852C18.6412 28.6445 18.8361 28.7362 19.0426 28.7362H25.9229C26.1293 28.7362 26.3243 28.6433 26.455 28.4852C26.5857 28.3259 26.6385 28.1163 26.5972 27.9146L25.9092 24.4771C25.845 24.1563 25.5629 23.9248 25.2349 23.9248ZM19.882 27.3623L20.2948 25.2998H24.6707L25.0835 27.3623H19.882Z" fill="#415DA1"/>
<path d="M10.7862 14.2998C10.7862 14.6791 10.4778 14.9873 10.0982 14.9873C9.71863 14.9873 9.41016 14.6791 9.41016 14.2998C9.41016 13.9205 9.71863 13.6123 10.0982 13.6123C10.4778 13.6123 10.7862 13.9205 10.7862 14.2998Z" fill="#415DA1"/>
<path d="M10.7862 17.0498C10.7862 17.4291 10.4778 17.7373 10.0982 17.7373C9.71863 17.7373 9.41016 17.4291 9.41016 17.0498C9.41016 16.6705 9.71863 16.3623 10.0982 16.3623C10.4778 16.3623 10.7862 16.6705 10.7862 17.0498Z" fill="#415DA1"/>
<path d="M35.5555 14.2998C35.5555 14.6791 35.247 14.9873 34.8675 14.9873C34.4879 14.9873 34.1794 14.6791 34.1794 14.2998C34.1794 13.9205 34.4879 13.6123 34.8675 13.6123C35.247 13.6123 35.5555 13.9205 35.5555 14.2998Z" fill="#415DA1"/>
<path d="M35.5555 17.0498C35.5555 17.4291 35.247 17.7373 34.8675 17.7373C34.4879 17.7373 34.1794 17.4291 34.1794 17.0498C34.1794 16.6705 34.4879 16.3623 34.8675 16.3623C35.247 16.3623 35.5555 16.6705 35.5555 17.0498Z" fill="#415DA1"/>
</g>
</g>
<defs>
<clipPath id="clip0_174_1812">
<rect width="44" height="44" fill="white" transform="translate(0.5 0.549805)"/>
</clipPath>
</defs>
</svg>
