<svg width="20" height="21" viewBox="0 0 20 21" fill="none" xmlns="http://www.w3.org/2000/svg">
<path d="M9.50808 0C9.81101 0.000329825 10.1024 0.114192 10.3227 0.318323C10.5429 0.522454 10.6755 0.801445 10.6932 1.09829C10.711 1.39514 10.6126 1.68744 10.4182 1.91547C10.2237 2.1435 9.94795 2.29005 9.64714 2.32517L9.50808 2.33333H3.56553C3.27443 2.33337 2.99346 2.43828 2.77592 2.62817C2.55838 2.81805 2.4194 3.07971 2.38534 3.3635L2.37702 3.5V17.5C2.37706 17.7858 2.48393 18.0616 2.67738 18.2751C2.87082 18.4886 3.13737 18.6251 3.42648 18.6585L3.56553 18.6667H8.91383C9.21676 18.667 9.50812 18.7809 9.7284 18.985C9.94867 19.1891 10.0812 19.4681 10.099 19.765C10.1167 20.0618 10.0183 20.3541 9.82391 20.5821C9.62948 20.8102 9.35369 20.9567 9.05288 20.9918L8.91383 21H3.56553C2.65607 21 1.78097 20.659 1.11927 20.0465C0.457568 19.434 0.0592977 18.5965 0.00594269 17.7053L5.53899e-09 17.5V3.5C-5.06564e-05 2.60725 0.347431 1.74823 0.97135 1.0987C1.59527 0.449159 2.44846 0.0582079 3.35635 0.00583347L3.56553 0H9.50808ZM16.2909 6.37467L19.652 9.67517C19.8748 9.89395 20 10.1906 20 10.5C20 10.8094 19.8748 11.1061 19.652 11.3248L16.2909 14.6253C16.0679 14.8441 15.7655 14.9669 15.4502 14.9668C15.1349 14.9667 14.8326 14.8437 14.6098 14.6247C14.3869 14.4058 14.2618 14.109 14.2619 13.7995C14.262 13.49 14.3873 13.1933 14.6104 12.9745L15.9427 11.6667H9.50808C9.19287 11.6667 8.89057 11.5437 8.66768 11.325C8.44479 11.1062 8.31957 10.8094 8.31957 10.5C8.31957 10.1906 8.44479 9.89383 8.66768 9.67504C8.89057 9.45625 9.19287 9.33333 9.50808 9.33333H15.9427L14.6104 8.0255C14.3873 7.80674 14.262 7.50998 14.2619 7.2005C14.2618 6.89101 14.3869 6.59416 14.6098 6.37525C14.8326 6.15634 15.1349 6.03329 15.4502 6.03318C15.7655 6.03307 16.0679 6.15591 16.2909 6.37467Z" fill="#415DA1"/>
</svg>
