<svg width="56" height="56" viewBox="0 0 56 56" fill="none" xmlns="http://www.w3.org/2000/svg">
<rect x="0.5" y="0.52002" width="55" height="55" rx="10" fill="#EBF2FF"/>
<g clip-path="url(#clip0_228_1941)">
<path d="M13.7354 31.7653C13.9004 31.8793 14.0734 31.9798 14.2544 32.0653C14.4709 32.1758 14.8329 32.3608 14.8584 32.4908C14.8904 32.6613 14.8699 32.8378 14.7999 32.9968C14.7254 33.1568 14.6469 33.2943 14.5799 33.4133C14.3964 33.7363 14.0904 34.2778 14.5524 34.6558C14.6604 34.7558 14.8469 34.9003 15.0174 35.0308C14.8921 35.2496 14.8354 35.5009 14.8544 35.7523C14.8809 35.9493 14.9869 36.1263 15.1479 36.2423C15.2604 36.3223 15.3809 36.3923 15.4979 36.4598C15.7919 36.6273 15.9069 36.7053 15.9479 36.8598C15.9749 37.0633 15.9559 37.2698 15.8929 37.4653C15.8619 37.595 15.8363 37.726 15.8164 37.8578C15.7664 38.3138 15.8249 38.7753 15.9854 39.2048C16.0947 39.5926 16.3261 39.9348 16.6452 40.1806C16.9643 40.4265 17.3541 40.563 17.7569 40.5698C17.8944 40.5693 18.0309 40.5548 18.1654 40.5268C19.5938 40.1883 21.0014 39.7671 22.3809 39.2653C23.5069 39.9263 24.2189 41.9363 24.4044 42.6908C24.4314 42.7991 24.4939 42.8953 24.5819 42.964C24.6699 43.0326 24.7783 43.0699 24.8899 43.0698L37.4399 43.0348C37.5184 43.0347 37.5956 43.0161 37.6655 42.9805C37.7355 42.945 37.796 42.8935 37.8424 42.8302C37.8887 42.767 37.9195 42.6937 37.9323 42.6163C37.9451 42.5389 37.9395 42.4596 37.9159 42.3848C37.7923 42.0461 37.6218 41.7263 37.4094 41.4348C37.2893 41.2624 37.1811 41.082 37.0854 40.8948C36.8594 40.4363 36.6704 39.9598 36.5209 39.4713C36.2357 38.505 36.0378 37.515 35.9294 36.5133C35.7539 35.0174 35.9807 33.5018 36.5864 32.1228C36.9564 31.3578 37.4114 30.6378 37.9444 29.9763C38.2444 29.5713 38.5559 29.1518 38.8354 28.7113C39.316 27.9648 39.6644 27.1411 39.8654 26.2763C39.8931 26.148 39.8692 26.014 39.7989 25.9032C39.7286 25.7923 39.6175 25.7136 39.4897 25.6839C39.3618 25.6543 39.2274 25.6761 39.1155 25.7446C39.0036 25.8132 38.9231 25.923 38.8914 26.0503C38.7156 26.8051 38.4112 27.5239 37.9914 28.1753C37.7319 28.5858 37.4319 28.9898 37.1414 29.3808C36.5629 30.1028 36.0691 30.8887 35.6699 31.7233C34.9928 33.2655 34.7398 34.9606 34.9369 36.6333C35.0519 37.6958 35.2634 38.7453 35.5674 39.7698C35.7317 40.3077 35.9392 40.8314 36.1879 41.3358C36.3019 41.5608 36.4314 41.7783 36.5754 41.9858L36.6089 42.0358L25.2679 42.0698C24.9356 40.8838 24.333 39.7909 23.5074 38.8768L23.9574 38.7203C24.2934 38.6028 24.5469 38.5143 24.6779 38.4703C26.8189 37.7878 27.8899 36.8128 27.8604 35.5703C27.8597 35.5046 27.8459 35.4398 27.8197 35.3795C27.7935 35.3193 27.7554 35.2649 27.7078 35.2196C27.6602 35.1744 27.604 35.1391 27.5425 35.116C27.4811 35.0928 27.4156 35.0822 27.3499 35.0848C27.2174 35.088 27.0915 35.1436 27 35.2395C26.9085 35.3355 26.8588 35.4638 26.8619 35.5963C26.8739 36.1078 26.4524 36.8568 24.3739 37.5188C24.2379 37.5623 23.9739 37.6538 23.6284 37.7753C23.2569 37.9048 22.7859 38.0698 22.2659 38.2463H22.2624C20.8563 38.7619 19.4216 39.196 17.9654 39.5463C17.7412 39.5885 17.5093 39.543 17.3176 39.4191C17.126 39.2953 16.9892 39.1026 16.9354 38.8808C16.8279 38.5986 16.7857 38.2957 16.8119 37.9948C16.8264 37.8948 16.8499 37.7898 16.8729 37.6878C16.9793 37.3388 16.9965 36.9687 16.9229 36.6113C16.8512 36.385 16.7316 36.1768 16.5724 36.0007C16.4131 35.8247 16.2179 35.6849 15.9999 35.5908L15.8924 35.5293C15.9463 35.4198 16.011 35.316 16.0854 35.2193C16.1269 35.1667 16.1573 35.1062 16.175 35.0415C16.1926 34.9769 16.197 34.9093 16.188 34.8429C16.179 34.7765 16.1568 34.7125 16.1226 34.6549C16.0884 34.5972 16.0429 34.5471 15.9889 34.5073C15.8694 34.4193 15.5889 34.2073 15.3789 34.0403C15.4029 33.9968 15.4289 33.9488 15.4544 33.9058C15.5329 33.7678 15.6229 33.6058 15.7099 33.4223C15.8684 33.0723 15.9149 32.6813 15.8429 32.3038C15.7234 31.6938 15.1389 31.3948 14.7124 31.1768C14.5687 31.1085 14.4309 31.0284 14.3004 30.9373C14.1933 30.8656 14.0929 30.7842 14.0004 30.6943C14.0004 30.6183 14.0819 30.4348 14.4624 29.9713C15.3571 28.8185 16.1241 27.5721 16.7499 26.2538C16.8674 26.0473 16.9334 25.8153 16.9429 25.5778C16.917 25.3292 16.8382 25.0889 16.7117 24.8733C16.5851 24.6577 16.4139 24.4717 16.2094 24.3278C16.0069 24.1418 15.8154 23.9668 15.7939 23.8193C15.7989 23.6968 15.8259 23.5763 15.8749 23.4638C15.9564 23.2498 16.0509 23.0398 16.1449 22.8293C16.3559 22.3948 16.5234 21.9408 16.6449 21.4738C16.7599 20.9138 16.9099 20.3608 17.0949 19.8198C17.489 18.7319 18.0993 17.7351 18.8889 16.8893C19.8449 15.8768 21.3499 15.1608 23.3699 14.7598C24.9151 14.4206 26.4829 14.1947 28.0609 14.0838C28.5919 14.0565 29.1241 14.0678 29.6534 14.1178C29.719 14.1239 29.785 14.1171 29.8479 14.0976C29.9108 14.0782 29.9692 14.0466 30.0199 14.0046C30.0705 13.9625 30.1124 13.911 30.1431 13.8527C30.1739 13.7945 30.1928 13.7309 30.1989 13.6653C30.205 13.5998 30.1982 13.5337 30.1787 13.4708C30.1593 13.408 30.1277 13.3495 30.0857 13.2989C30.0436 13.2482 29.9921 13.2063 29.9338 13.1756C29.8756 13.1449 29.812 13.1259 29.7464 13.1198C29.1687 13.0669 28.5878 13.0554 28.0084 13.0853C26.3814 13.1983 24.7654 13.4303 23.1724 13.7793C20.9179 14.2293 19.2794 15.0198 18.1614 16.2018C17.2786 17.1456 16.5962 18.2585 16.1554 19.4733C15.9528 20.0645 15.7883 20.6681 15.6629 21.2803C15.5561 21.673 15.4124 22.0547 15.2339 22.4203C15.1339 22.6478 15.0309 22.8753 14.9409 23.1118C14.8271 23.3762 14.7804 23.6646 14.8049 23.9513C14.9084 24.3976 15.1678 24.7923 15.5364 25.0643C15.7814 25.2888 15.9429 25.4468 15.9449 25.5848C15.9267 25.6607 15.8981 25.7338 15.8599 25.8018C15.2613 27.0626 14.5277 28.2548 13.6719 29.3573C13.3099 29.7988 12.9299 30.3133 13.0094 30.8283C13.1159 31.2253 13.3774 31.5633 13.7354 31.7653Z" fill="#415DA1"/>
<path d="M18.9689 20.5146C19.2699 19.6796 19.7369 18.9146 20.3409 18.2646C21.0074 17.5591 22.1599 17.0396 23.7669 16.7201C23.897 16.6943 24.0115 16.6179 24.0852 16.5076C24.159 16.3974 24.1859 16.2624 24.1601 16.1323C24.1343 16.0022 24.0579 15.8877 23.9477 15.814C23.8375 15.7402 23.7025 15.7133 23.5724 15.7391C21.7579 16.1001 20.4264 16.7181 19.6144 17.5761C18.9167 18.3249 18.3778 19.2073 18.0304 20.1701C17.8619 20.6696 17.7254 21.1791 17.6199 21.6956L18.5964 21.9121C18.6922 21.4391 18.8166 20.9725 18.9689 20.5146ZM29.4294 15.8701L29.1294 17.3661C28.8404 17.4611 28.5589 17.5781 28.2874 17.7161L27.0179 16.8661C26.8254 16.7401 26.5955 16.6842 26.3667 16.708C26.1379 16.7318 25.9243 16.8337 25.7619 16.9966L24.9319 17.8261C24.7659 17.989 24.6619 18.2047 24.6378 18.4361C24.6137 18.6674 24.671 18.8999 24.7999 19.0936L25.6459 20.3571C25.5079 20.6286 25.3909 20.9101 25.2959 21.1991L23.8019 21.4991C23.5755 21.5448 23.3719 21.6675 23.2257 21.8463C23.0795 22.0252 22.9997 22.2491 22.9999 22.4801V23.6601C22.9997 23.8907 23.0793 24.1143 23.2251 24.293C23.3708 24.4716 23.5739 24.5945 23.7999 24.6406L25.2959 24.9406C25.3909 25.2296 25.5079 25.5111 25.6459 25.7826L24.7959 27.0521C24.6699 27.2445 24.614 27.4745 24.6378 27.7033C24.6616 27.9321 24.7635 28.1457 24.9264 28.3081L25.7564 29.1381C25.9197 29.3033 26.1352 29.4068 26.3663 29.4308C26.5974 29.4548 26.8296 29.3978 27.0234 29.2696L28.2869 28.4236C28.5584 28.5616 28.8399 28.6786 29.1289 28.7736L29.4289 30.2676C29.4745 30.4941 29.5972 30.6978 29.776 30.8441C29.9548 30.9904 30.1788 31.0702 30.4099 31.0701H31.5899C31.8205 31.0702 32.0441 30.9907 32.2228 30.8449C32.4014 30.6991 32.5243 30.496 32.5704 30.2701L32.8704 28.7741C33.1594 28.6791 33.4409 28.5621 33.7124 28.4241L34.9819 29.2741C35.1743 29.4001 35.4043 29.4559 35.6331 29.4321C35.8619 29.4084 36.0755 29.3065 36.2379 29.1436L37.0674 28.3141C37.2333 28.1511 37.3373 27.9354 37.3614 27.7041C37.3855 27.4727 37.3282 27.2402 37.1994 27.0466L36.3534 25.7831C36.4914 25.5116 36.6084 25.2301 36.7034 24.9411L38.1974 24.6411C38.4944 24.5811 38.7474 24.3896 38.8859 24.1201L39.6394 24.6251C39.7844 24.7166 39.9529 24.7651 40.1249 24.7656C40.2436 24.7656 40.3611 24.7422 40.4706 24.6966C40.5802 24.651 40.6797 24.5842 40.7634 24.5001L41.4284 23.8351C41.5751 23.6876 41.6668 23.4942 41.688 23.2872C41.7092 23.0802 41.6587 22.8723 41.5449 22.6981L40.8999 21.7331C40.9934 21.545 41.0743 21.3509 41.1419 21.1521L42.2734 20.9266C42.4786 20.8863 42.6634 20.7757 42.796 20.6139C42.9286 20.4521 43.0007 20.2492 42.9999 20.0401V19.1001C43.0006 18.8916 42.929 18.6894 42.7972 18.5279C42.6654 18.3664 42.4817 18.2557 42.2774 18.2146L41.1409 17.9881C41.0738 17.7892 40.9933 17.5951 40.8999 17.4071L41.5549 16.4306C41.7819 16.0731 41.7299 15.6056 41.4299 15.3066L40.7649 14.6416C40.6174 14.4947 40.424 14.403 40.217 14.3818C40.01 14.3606 39.802 14.4112 39.6279 14.5251L38.6629 15.1701C38.4748 15.0765 38.2807 14.9957 38.0819 14.9281L37.8559 13.7966C37.8156 13.5914 37.7051 13.4067 37.5434 13.2741C37.3817 13.1415 37.179 13.0694 36.9699 13.0701H36.0299C35.8214 13.0693 35.6192 13.141 35.4577 13.2727C35.2962 13.4045 35.1855 13.5882 35.1444 13.7926L34.9179 14.9291C34.7189 14.9966 34.5248 15.0776 34.3369 15.1716L33.3604 14.5166C33.1867 14.4066 32.9807 14.359 32.7764 14.3817C32.5721 14.4045 32.3816 14.4961 32.2364 14.6416L31.7864 15.0916C31.7217 15.0781 31.6559 15.0709 31.5899 15.0701H30.4099C30.1793 15.0699 29.9557 15.1495 29.777 15.2953C29.5983 15.441 29.4755 15.6441 29.4294 15.8701ZM37.0734 17.8301L36.8399 17.5966C37.262 17.6531 37.6549 17.8436 37.9607 18.14C38.2665 18.4365 38.4691 18.8233 38.5387 19.2435C38.6083 19.6637 38.5411 20.0951 38.3472 20.4743C38.1533 20.8535 37.8428 21.1605 37.4614 21.3501L36.7024 21.2001C36.6074 20.9109 36.4904 20.6294 36.3524 20.3581L37.2024 19.0886C37.3288 18.8962 37.3851 18.6661 37.3616 18.4371C37.3381 18.2081 37.2363 17.9942 37.0734 17.8316V17.8301ZM32.8884 15.4021L34.0314 16.1701C34.1099 16.2227 34.2018 16.252 34.2963 16.2546C34.3908 16.2572 34.4841 16.2329 34.5654 16.1846C34.8516 16.0161 35.1594 15.8874 35.4804 15.8021C35.5703 15.7778 35.6516 15.7289 35.7152 15.6609C35.7788 15.5928 35.8222 15.5084 35.8404 15.4171L36.1089 14.0701H36.8909L37.1594 15.4201C37.1776 15.5114 37.2209 15.5958 37.2845 15.6639C37.3481 15.7319 37.4295 15.7808 37.5194 15.8051C37.8404 15.8901 38.1484 16.0191 38.4344 16.1876C38.5159 16.2355 38.6094 16.2592 38.7039 16.2561C38.7984 16.253 38.8901 16.2232 38.9684 16.1701L40.1114 15.4031L40.6664 15.9581L39.8999 17.1016C39.8472 17.1801 39.8179 17.272 39.8153 17.3665C39.8128 17.461 39.8371 17.5543 39.8854 17.6356C40.0539 17.9216 40.1824 18.2296 40.2679 18.5506C40.2922 18.6405 40.3411 18.7218 40.4091 18.7854C40.4771 18.849 40.5615 18.8924 40.6529 18.9106L42.0029 19.1791V19.9611L40.6554 20.2296C40.564 20.2478 40.4796 20.2911 40.4116 20.3547C40.3436 20.4183 40.2947 20.4997 40.2704 20.5896C40.185 20.9105 40.0563 21.2184 39.8879 21.5046C39.8396 21.5858 39.8153 21.6792 39.8178 21.7737C39.8204 21.8682 39.8497 21.96 39.9024 22.0386L40.6694 23.1816L40.1144 23.7366L38.9999 22.9911V22.4801C38.9999 22.1876 38.8719 21.9091 38.6499 21.7186C39.0801 21.3041 39.3765 20.7703 39.5009 20.1859C39.6252 19.6016 39.5718 18.9934 39.3475 18.4396C39.1233 17.8858 38.7384 17.4119 38.2425 17.0787C37.7466 16.7455 37.1623 16.5684 36.5649 16.5701C36.2626 16.572 35.9624 16.6212 35.6754 16.7161C35.4311 16.6805 35.1822 16.7352 34.9754 16.8701L33.7129 17.7161C33.4416 17.5781 33.1601 17.461 32.8709 17.3661L32.5709 15.8721C32.562 15.832 32.5505 15.7926 32.5364 15.7541L32.8884 15.4021ZM30.0499 17.8586L30.4099 16.0701H31.5899L31.9494 17.8601C31.9677 17.9512 32.011 18.0353 32.0745 18.1032C32.138 18.171 32.2192 18.2198 32.3089 18.2441C32.7219 18.3556 33.1189 18.5201 33.4894 18.7341C33.5703 18.781 33.6628 18.8043 33.7563 18.8013C33.8498 18.7983 33.9406 18.7691 34.0184 18.7171L35.5314 17.7051L36.3694 18.5386L35.3544 20.0531C35.3023 20.1308 35.2731 20.2216 35.2701 20.3151C35.2671 20.4087 35.2904 20.5011 35.3374 20.5821C35.5514 20.9526 35.7159 21.3496 35.8274 21.7626C35.8517 21.8523 35.9005 21.9334 35.9683 21.9969C36.0361 22.0604 36.1203 22.1037 36.2114 22.1221L37.9999 22.4796V23.6601L36.2099 24.0196C36.1188 24.0379 36.0346 24.0812 35.9668 24.1447C35.899 24.2082 35.8502 24.2894 35.8259 24.3791C35.7145 24.7922 35.5498 25.189 35.3359 25.5596C35.2889 25.6405 35.2656 25.733 35.2686 25.8265C35.2716 25.92 35.3008 26.0108 35.3529 26.0886L36.3649 27.6016L35.5314 28.4396L34.0169 27.4246C33.9391 27.3725 33.8483 27.3433 33.7548 27.3403C33.6613 27.3373 33.5688 27.3606 33.4879 27.4076C33.1173 27.6215 32.7205 27.7862 32.3074 27.8976C32.2177 27.9219 32.1365 27.9706 32.073 28.0385C32.0095 28.1063 31.9662 28.1905 31.9479 28.2816L31.5899 30.0701H30.4099L30.0504 28.2801C30.032 28.189 29.9887 28.1048 29.9252 28.037C29.8617 27.9691 29.7806 27.9204 29.6909 27.8961C29.2778 27.7847 28.8809 27.62 28.5104 27.4061C28.4294 27.3591 28.337 27.3358 28.2434 27.3388C28.1499 27.3418 28.0591 27.371 27.9814 27.4231L26.4684 28.4351L25.6304 27.6016L26.6454 26.0871C26.6974 26.0093 26.7266 25.9185 26.7296 25.825C26.7326 25.7315 26.7093 25.639 26.6624 25.5581C26.4485 25.1875 26.2837 24.7907 26.1724 24.3776C26.1481 24.2879 26.0993 24.2067 26.0315 24.1432C25.9636 24.0797 25.8795 24.0364 25.7884 24.0181L23.9999 23.6601V22.4801L25.7899 22.1206C25.881 22.1022 25.9651 22.0589 26.033 21.9954C26.1008 21.9319 26.1496 21.8508 26.1739 21.7611C26.2854 21.3481 26.4499 20.9511 26.6639 20.5806C26.7108 20.4996 26.7341 20.4072 26.7311 20.3136C26.7281 20.2201 26.6989 20.1293 26.6469 20.0516L25.6349 18.5386L26.4684 17.7006L27.9829 18.7156C28.0606 18.7676 28.1514 18.7968 28.2449 18.7998C28.3385 18.8028 28.4309 18.7795 28.5119 18.7326C28.8824 18.5187 29.2793 18.3539 29.6924 18.2426C29.7817 18.218 29.8624 18.169 29.9255 18.1012C29.9887 18.0334 30.0317 17.9494 30.0499 17.8586Z" fill="#415DA1"/>
<path d="M31 26.5698C31.6922 26.5698 32.3689 26.3646 32.9445 25.98C33.5201 25.5954 33.9687 25.0488 34.2336 24.4092C34.4985 23.7697 34.5678 23.0659 34.4327 22.387C34.2977 21.7081 33.9644 21.0844 33.4749 20.595C32.9854 20.1055 32.3617 19.7721 31.6828 19.6371C31.0039 19.502 30.3001 19.5713 29.6606 19.8362C29.0211 20.1012 28.4744 20.5498 28.0899 21.1253C27.7053 21.7009 27.5 22.3776 27.5 23.0698C27.5011 23.9978 27.8701 24.8874 28.5263 25.5435C29.1824 26.1997 30.0721 26.5688 31 26.5698ZM31 20.5698C31.663 20.5698 32.2989 20.8332 32.7678 21.3021C33.2366 21.7709 33.5 22.4068 33.5 23.0698C33.5 23.7329 33.2366 24.3688 32.7678 24.8376C32.2989 25.3064 31.663 25.5698 31 25.5698C30.337 25.5698 29.7011 25.3064 29.2322 24.8376C28.7634 24.3688 28.5 23.7329 28.5 23.0698C28.5 22.4068 28.7634 21.7709 29.2322 21.3021C29.7011 20.8332 30.337 20.5698 31 20.5698Z" fill="#415DA1"/>
<path d="M31 23.5698C31.2761 23.5698 31.5 23.346 31.5 23.0698C31.5 22.7937 31.2761 22.5698 31 22.5698C30.7239 22.5698 30.5 22.7937 30.5 23.0698C30.5 23.346 30.7239 23.5698 31 23.5698Z" fill="#415DA1"/>
<path d="M17.5 24.0698C17.7761 24.0698 18 23.846 18 23.5698C18 23.2937 17.7761 23.0698 17.5 23.0698C17.2239 23.0698 17 23.2937 17 23.5698C17 23.846 17.2239 24.0698 17.5 24.0698Z" fill="#415DA1"/>
</g>
<defs>
<clipPath id="clip0_228_1941">
<rect width="30" height="30" fill="white" transform="translate(13 13.0698)"/>
</clipPath>
</defs>
</svg>
