<svg width="17" height="17" viewBox="0 0 17 17" fill="none" xmlns="http://www.w3.org/2000/svg">
<path d="M5.22229 7.62831C4.7405 7.62831 4.35097 8.01784 4.35353 8.49707C4.35609 8.9763 4.74306 9.36839 5.22229 9.36583L7.63124 9.36583L7.63123 11.7748C7.63124 12.2566 8.02077 12.6461 8.49999 12.6435C8.97922 12.641 9.37131 12.254 9.36875 11.7748L9.36875 9.36583L11.7777 9.36583C12.2595 9.36583 12.649 8.9763 12.6465 8.49707C12.6439 8.01784 12.2569 7.62575 11.7777 7.62831L9.36875 7.62831L9.36875 5.21936C9.36875 4.73758 8.97922 4.34804 8.49999 4.35061C8.02077 4.35317 7.62867 4.74014 7.63123 5.21936L7.63124 7.62831L5.22229 7.62831Z" fill="white"/>
<circle cx="8.5" cy="8.5" r="7.75" stroke="white" stroke-width="1.5"/>
</svg>
