<svg width="55" height="56" viewBox="0 0 55 56" fill="none" xmlns="http://www.w3.org/2000/svg">
<rect y="0.52002" width="55" height="55" rx="10" fill="#EBF2FF"/>
<path d="M22.1984 27.484C21.9678 28.4295 21.0267 29.1397 19.9036 29.1397C19.6042 29.1397 19.3615 29.3573 19.3615 29.6257C19.3615 29.8941 19.6042 30.1117 19.9036 30.1117C21.6222 30.1117 23.0498 28.9741 23.2988 27.4949C24.351 27.3929 25.3224 26.9726 26.0743 26.2847C26.1727 26.1922 26.2265 26.0688 26.2241 25.941C26.2217 25.8133 26.1632 25.6915 26.0614 25.6021C25.9596 25.5127 25.8226 25.4628 25.68 25.4632C25.5375 25.4637 25.4008 25.5144 25.2997 25.6045C24.6347 26.2129 23.7453 26.5479 22.7952 26.5479C20.862 26.5479 19.2892 25.1382 19.2892 23.4054C19.2892 23.1369 19.0464 22.9194 18.747 22.9194C18.4476 22.9194 18.2048 23.1369 18.2048 23.4054C18.2048 25.4928 19.9484 27.2208 22.1984 27.484ZM24.494 31.6991C24.494 31.5702 24.4369 31.4466 24.3352 31.3555C24.2335 31.2644 24.0956 31.2132 23.9518 31.2132C21.4207 31.2132 19.3615 33.0589 19.3615 35.3276C19.3615 35.3511 19.3624 35.3746 19.3628 35.3981C19.1587 35.3731 18.953 35.3604 18.747 35.36C18.4476 35.36 18.2048 35.5776 18.2048 35.846C18.2048 36.1144 18.4476 36.332 18.747 36.332C20.6802 36.332 22.253 37.7417 22.253 39.4745C22.253 39.743 22.4958 39.9605 22.7952 39.9605C23.0946 39.9605 23.3374 39.743 23.3374 39.4745C23.3374 37.7503 22.1473 36.2712 20.4652 35.6602C20.4523 35.5497 20.4458 35.4387 20.4458 35.3276C20.4458 33.5948 22.0186 32.1851 23.9518 32.1851C24.0956 32.1851 24.2335 32.1339 24.3352 32.0428C24.4369 31.9516 24.494 31.828 24.494 31.6991Z" fill="#425DA1"/>
<path d="M43 27.5515C43.0005 27.007 42.8801 26.4679 42.6459 25.9656C42.4116 25.4633 42.0682 25.0078 41.6355 24.6256C41.7735 24.2304 41.8436 23.8187 41.8434 23.4046C41.8434 21.4041 40.242 19.7334 38.1281 19.366C38.2908 19.0019 38.3741 18.6132 38.3735 18.221C38.3735 16.9538 37.5145 15.8633 36.2911 15.392C34.2529 13.937 32.0238 13.0698 30.3133 13.0698C29.3624 13.0698 28.5193 13.4889 28 14.1314C27.4807 13.4889 26.6376 13.0698 25.6867 13.0698C23.9762 13.0698 21.7471 13.937 19.7089 15.392C18.4855 15.8633 17.6265 16.9538 17.6265 18.221C17.6265 18.6181 17.7103 19.005 17.8719 19.366C15.758 19.7334 14.1566 21.4041 14.1566 23.4046C14.1566 23.8205 14.2264 24.2298 14.3645 24.6256C13.9318 25.0078 13.5884 25.4633 13.3541 25.9656C13.1199 26.4679 12.9995 27.007 13 27.5515C13 28.4163 13.2999 29.2193 13.8106 29.8825C13.2799 30.5701 13 31.3722 13 32.2167C13 33.7127 13.9099 35.0833 15.3506 35.8061C15.3257 35.9911 15.3133 36.1772 15.3133 36.3636C15.3133 38.3815 16.7818 40.1657 18.9125 40.7737C19.8394 42.1954 21.5276 43.0698 23.3735 43.0698C25.3972 43.0698 27.152 42.0214 28 40.4992C28.848 42.0214 30.6028 43.0698 32.6265 43.0698C34.4724 43.0698 36.1607 42.1954 37.0875 40.7737C39.2182 40.1656 40.6867 38.3815 40.6867 36.3636C40.6867 36.1773 40.6742 35.9909 40.6494 35.8061C42.0901 35.0833 43 33.7127 43 32.2167C43 31.3722 42.7201 30.5701 42.1894 29.8825C42.7001 29.2193 43 28.4163 43 27.5515ZM23.3735 42.0979C21.8533 42.0979 20.4681 41.3467 19.7584 40.1375C19.7236 40.0782 19.6756 40.026 19.6173 39.9842C19.5589 39.9424 19.4916 39.9118 19.4195 39.8944C17.6402 39.4652 16.3976 38.0133 16.3976 36.3636C16.3976 36.1167 16.4254 35.8694 16.4801 35.6285C16.5047 35.5201 16.4873 35.4074 16.4308 35.309C16.3742 35.2106 16.2819 35.1325 16.1691 35.0875C14.9027 34.5829 14.0843 33.456 14.0843 32.2167C14.0843 31.653 14.2474 31.1143 14.5586 30.6371C15.368 31.2766 16.4291 31.6659 17.5904 31.6659C17.8898 31.6659 18.1325 31.4484 18.1325 31.18C18.1325 30.9115 17.8898 30.694 17.5904 30.694C15.6571 30.694 14.0843 29.2843 14.0843 27.5515C14.0843 26.6187 14.5435 25.7395 15.3442 25.1397C15.4323 25.0737 15.4947 24.9844 15.5225 24.8846C15.5503 24.7847 15.5421 24.6795 15.4989 24.5842C15.3285 24.2097 15.2409 23.8091 15.241 23.4046C15.241 21.6718 16.8138 20.262 18.747 20.262C20.6802 20.262 22.253 21.6718 22.253 23.4046C22.253 23.673 22.4958 23.8906 22.7952 23.8906C23.0946 23.8906 23.3373 23.673 23.3373 23.4046C23.3373 21.2248 21.436 19.4364 19.0419 19.2995C18.8248 18.9744 18.7108 18.6047 18.7108 18.221C18.7108 17.3548 19.2975 16.6092 20.1334 16.2863C20.166 16.2776 20.1977 16.2662 20.2279 16.2522C20.4937 16.1615 20.7758 16.1151 21.0602 16.1152C21.968 16.1152 22.7783 16.5701 23.1751 17.3025C23.2062 17.36 23.2496 17.4113 23.3029 17.4537C23.3561 17.4961 23.4182 17.5286 23.4854 17.5495C23.5527 17.5704 23.6239 17.5792 23.695 17.5754C23.7661 17.5716 23.8356 17.5553 23.8997 17.5274C23.9637 17.4995 24.021 17.4606 24.0683 17.4129C24.1156 17.3652 24.1519 17.3096 24.1752 17.2493C24.1985 17.189 24.2083 17.1251 24.2041 17.0614C24.1998 16.9977 24.1816 16.9354 24.1505 16.878C23.6976 16.042 22.8403 15.4411 21.853 15.2282C23.2368 14.4714 24.5991 14.0417 25.6867 14.0417C26.6633 14.0417 27.4578 14.7538 27.4578 15.6292V21.9176C26.9707 21.5712 26.3554 21.3636 25.6867 21.3636C25.3873 21.3636 25.1446 21.5811 25.1446 21.8495C25.1446 22.118 25.3873 22.3355 25.6867 22.3355C26.6633 22.3355 27.4578 23.0476 27.4578 23.923V35.6041C26.7837 34.8246 25.8334 34.2362 24.7155 33.967C24.6466 33.95 24.5746 33.9454 24.5037 33.9534C24.4328 33.9615 24.3644 33.982 24.3024 34.0138C24.2403 34.0456 24.1859 34.0881 24.1423 34.1389C24.0987 34.1896 24.0667 34.2476 24.0481 34.3095C24.0296 34.3713 24.0249 34.4359 24.0342 34.4994C24.0436 34.5629 24.0669 34.6241 24.1028 34.6795C24.1387 34.7349 24.1865 34.7834 24.2433 34.8222C24.3002 34.861 24.3651 34.8894 24.4342 34.9056C26.2145 35.3344 27.4578 36.7865 27.4578 38.437C27.4578 40.4556 25.6256 42.0979 23.3735 42.0979ZM39.8309 35.0876C39.7181 35.1325 39.6258 35.2107 39.5692 35.309C39.5127 35.4074 39.4953 35.5201 39.5199 35.6286C39.5748 35.8705 39.6024 36.1168 39.6024 36.3636C39.6024 38.0134 38.3598 39.4653 36.5805 39.8945C36.5084 39.9119 36.4411 39.9425 36.3827 39.9843C36.3244 40.0261 36.2764 40.0783 36.2416 40.1375C35.5319 41.3467 34.1467 42.0979 32.6265 42.0979C30.3744 42.0979 28.5422 40.4556 28.5422 38.437C28.5422 38.3003 28.5351 38.1649 28.5219 38.0307C28.5352 37.9882 28.542 37.9444 28.5422 37.9003V21.8495C28.5422 20.9741 29.3367 20.262 30.3133 20.262C30.6127 20.262 30.8554 20.0445 30.8554 19.7761C30.8554 19.5076 30.6127 19.2901 30.3133 19.2901C29.6446 19.2901 29.0293 19.4978 28.5422 19.8442V15.6292C28.5422 14.7538 29.3367 14.0417 30.3133 14.0417C31.4009 14.0417 32.7632 14.4714 34.147 15.2282C33.1597 15.441 32.3024 16.042 31.8495 16.878C31.8184 16.9354 31.8002 16.9977 31.7959 17.0614C31.7917 17.1251 31.8015 17.189 31.8248 17.2493C31.8481 17.3096 31.8844 17.3652 31.9317 17.4129C31.979 17.4606 32.0363 17.4995 32.1003 17.5274C32.1644 17.5553 32.2339 17.5716 32.305 17.5754C32.3761 17.5792 32.4473 17.5704 32.5146 17.5495C32.5818 17.5286 32.6439 17.4961 32.6971 17.4537C32.7504 17.4113 32.7938 17.36 32.8249 17.3025C33.2217 16.5701 34.032 16.1152 34.9398 16.1152C35.2327 16.1152 35.5132 16.1639 35.7721 16.2522C35.8026 16.2664 35.8343 16.2776 35.8664 16.2862C36.7024 16.6092 37.2892 17.3547 37.2892 18.221C37.2892 18.6047 37.1752 18.9744 36.9581 19.2995C34.564 19.4364 32.6627 21.2248 32.6627 23.4046C32.6627 23.673 32.9054 23.8906 33.2048 23.8906C33.5042 23.8906 33.747 23.673 33.747 23.4046C33.747 21.6718 35.3198 20.262 37.253 20.262C39.1862 20.262 40.759 21.6718 40.759 23.4046C40.759 23.8092 40.6723 24.206 40.5012 24.5842C40.458 24.6795 40.4498 24.7847 40.4776 24.8846C40.5054 24.9844 40.5678 25.0737 40.6559 25.1397C41.4565 25.7395 41.9157 26.6187 41.9157 27.5515C41.9157 29.2843 40.3429 30.694 38.4096 30.694C38.1102 30.694 37.8675 30.9115 37.8675 31.18C37.8675 31.4484 38.1102 31.6659 38.4096 31.6659C39.5709 31.6659 40.632 31.2766 41.4414 30.6371C41.7527 31.1143 41.9157 31.653 41.9157 32.2167C41.9157 33.456 41.0974 34.5829 39.8309 35.0876Z" fill="#425DA1"/>
<path d="M37.2529 28.6202C36.1298 28.6202 35.1888 27.91 34.9581 26.9644C37.2082 26.7012 38.9517 24.9732 38.9517 22.8859C38.9517 22.6174 38.709 22.3999 38.4095 22.3999C38.1101 22.3999 37.8674 22.6174 37.8674 22.8859C37.8674 24.6187 36.2946 26.0284 34.3614 26.0284C33.4113 26.0284 32.5218 25.6934 31.8568 25.0849C31.7562 24.9929 31.6189 24.9404 31.4751 24.9391C31.3313 24.9378 31.1928 24.9877 31.0901 25.0779C30.9874 25.1681 30.9288 25.2912 30.9274 25.4201C30.9259 25.549 30.9816 25.6731 31.0822 25.7652C31.8342 26.4531 32.8055 26.8733 33.8578 26.9753C34.1068 28.4545 35.5343 29.5921 37.2529 29.5921C37.5523 29.5921 37.7951 29.3746 37.7951 29.1062C37.7951 28.8377 37.5523 28.6202 37.2529 28.6202ZM35.518 34.3221C35.3091 34.3221 35.1038 34.3359 34.9022 34.3602C34.9026 34.3367 34.9035 34.3132 34.9035 34.2898C34.9035 32.021 32.8443 30.1753 30.3132 30.1753C30.0137 30.1753 29.771 30.3928 29.771 30.6612C29.771 30.9297 30.0137 31.1472 30.3132 31.1472C32.2464 31.1472 33.8192 32.5569 33.8192 34.2898C33.8192 34.4008 33.8127 34.5119 33.7997 34.6223C32.1176 35.2334 30.9276 36.7124 30.9276 38.4366C30.9276 38.7051 31.1704 38.9226 31.4698 38.9226C31.7692 38.9226 32.012 38.7051 32.012 38.4366C32.012 36.7038 33.5848 35.2941 35.518 35.2941C35.8174 35.2941 36.0602 35.0766 36.0602 34.8081C36.0602 34.5397 35.8174 34.3221 35.518 34.3221Z" fill="#425DA1"/>
</svg>
