<svg width="46" height="46" viewBox="0 0 46 46" fill="none" xmlns="http://www.w3.org/2000/svg">
<path d="M32.6848 26.684C32.6848 29.0503 34.5575 30.9927 36.9282 31.0582C39.4107 31.1248 41.4202 28.9863 41.4202 26.5283V26.3384C41.8158 25.4999 42.0451 24.5924 42.0451 23.7255C42.0451 21.1768 40.1321 19.5933 37.0518 19.5933C33.9714 19.5933 32.0578 21.1768 32.0578 23.7255C32.0578 24.5952 32.2873 25.507 32.6848 26.3481V26.684ZM40.014 26.5284C40.014 28.2139 38.6356 29.6972 36.9667 29.6511C35.3557 29.6066 34.091 28.2853 34.091 26.6841V25.668C34.091 25.0995 34.5524 24.6372 35.1204 24.6372H38.9841C39.5519 24.6372 40.014 25.0995 40.014 25.668V26.5284ZM37.0519 21.0012C38.1306 21.0012 40.6389 21.2665 40.6389 23.7255C40.6389 23.777 40.6325 23.8299 40.6303 23.8818C40.1959 23.4803 39.6205 23.2292 38.9842 23.2292H35.1204C34.4862 23.2292 33.9129 23.4789 33.479 23.8781C33.477 23.8277 33.4643 23.7754 33.4643 23.7255C33.4641 21.2665 35.9731 21.0012 37.0519 21.0012ZM36.8589 31.6426C33.9814 31.6426 31.4493 32.7908 29.8883 34.5332C27.9213 33.3048 25.5066 32.6332 22.9598 32.6332C20.3552 32.6332 17.9611 33.3477 16.052 34.5346C14.3157 32.5786 11.685 31.6425 9.06034 31.6425C4.31798 31.6425 0.459717 34.7299 0.459717 38.5245V38.9184C0.459674 39.0429 0.492604 39.1651 0.555145 39.2726C0.617686 39.3802 0.707602 39.4692 0.815718 39.5306C4.07578 41.3823 8.03075 41.9928 11.7186 41.4114C11.7171 41.4711 11.7073 41.5292 11.7073 41.5891V42.1157C11.7072 42.2402 11.7402 42.3625 11.8028 42.47C11.8654 42.5776 11.9554 42.6665 12.0636 42.7279C18.6134 46.4474 27.3978 46.3954 33.8554 42.7279C33.9636 42.6665 34.0536 42.5776 34.1162 42.47C34.1788 42.3625 34.2118 42.2402 34.2117 42.1157V41.5891C34.2117 41.5322 34.2026 41.4768 34.2013 41.4201C37.9059 41.9863 41.8439 41.3822 45.1034 39.5306C45.2116 39.4693 45.3016 39.3803 45.3642 39.2727C45.4268 39.1652 45.4598 39.0429 45.4597 38.9184V38.5245C45.4598 34.3898 41.1937 31.6426 36.8589 31.6426ZM1.86599 38.5016C1.88247 35.4936 5.1035 33.0505 9.06034 33.0505C11.2249 33.0505 13.4409 33.7874 14.9012 35.3519C13.3804 36.5963 12.3132 38.189 11.9022 39.9646C8.48981 40.5767 4.85046 40.0803 1.86599 38.5016ZM32.8056 41.7007C26.893 44.8867 19.0297 44.8882 13.1136 41.7007V41.5893C13.1136 37.4271 17.5305 34.0412 22.9598 34.0412C25.6253 34.0412 28.1207 34.8469 29.9863 36.3108C31.8045 37.7287 32.8056 39.6034 32.8056 41.5894V41.7007ZM34.0199 39.956C33.6223 38.2173 32.5904 36.6237 31.0163 35.3426C32.3228 33.9573 34.4523 33.0505 36.8589 33.0505C40.3322 33.0505 44.0359 35.1613 44.0536 38.5017C41.1982 40.0118 37.6087 40.6042 34.0199 39.956ZM4.88628 26.684C4.88628 29.0498 6.75896 30.9927 9.12973 31.0582C11.6174 31.1256 13.6214 28.9818 13.6214 26.5283V26.3259C14.0153 25.4909 14.2465 24.5893 14.2465 23.7255C14.2465 21.1768 12.3332 19.5933 9.25294 19.5933C6.17302 19.5933 4.2596 21.1768 4.2596 23.7255C4.2596 24.595 4.489 25.5063 4.88619 26.3472L4.88628 26.684ZM12.2152 26.5284C12.2152 28.2005 10.8512 29.6971 9.16824 29.6511C7.56533 29.6068 6.29256 28.2939 6.29256 26.6841V25.668C6.29256 25.0995 6.7543 24.6372 7.32215 24.6372H11.1859C11.7534 24.6372 12.2152 25.0995 12.2152 25.668V26.5284ZM9.25294 21.0012C10.3317 21.0012 12.8404 21.2665 12.8404 23.7255C12.8404 23.7771 12.8343 23.8299 12.8319 23.882C12.3976 23.4804 11.8223 23.2292 11.1859 23.2292H7.32215C6.68545 23.2292 6.10981 23.4805 5.67537 23.8825C5.67322 23.8303 5.66597 23.7771 5.66597 23.7255C5.66597 21.2665 8.17455 21.0012 9.25294 21.0012ZM17.6201 25.7735C17.6201 28.7997 20.0143 31.2965 23.0587 31.3796C26.24 31.4687 28.8163 28.7145 28.8163 25.5655V25.2894C29.3469 24.1804 29.6512 22.9717 29.6512 21.8217C29.6512 18.5628 27.1854 16.5383 23.217 16.5383C19.2485 16.5383 16.7831 18.5628 16.7831 21.8217C16.7831 22.9694 17.0901 24.1732 17.6201 25.2794L17.6201 25.7735ZM27.41 25.5655C27.41 27.9524 25.4569 30.0384 23.0972 29.9724C20.8156 29.9104 19.0264 28.0376 19.0264 25.7735V24.4161C19.0264 23.5266 19.7491 22.803 20.6376 22.803H25.7985C26.687 22.803 27.4101 23.5265 27.4101 24.4161V25.5655H27.41ZM23.217 17.9462C24.7286 17.9462 28.2449 18.3239 28.2449 21.8217C28.2449 22.0747 28.2233 22.3324 28.1873 22.5915C27.6353 21.8694 26.7746 21.3952 25.7984 21.3952H20.6376C19.663 21.3952 18.8039 21.8679 18.2519 22.5879C18.2151 22.3297 18.1893 22.073 18.1893 21.8217C18.1893 18.3239 21.7053 17.9462 23.217 17.9462ZM18.0132 6.85493C20.3512 6.85493 22.2533 8.7592 22.2533 11.0996C22.2533 11.4884 22.575 11.8035 22.9633 11.8035C23.3516 11.8035 23.6664 11.4884 23.6664 11.0996C23.6664 8.7592 25.5685 6.85493 27.9065 6.85493C28.2952 6.85493 28.6096 6.53975 28.6096 6.15097C28.6096 5.7622 28.2952 5.44701 27.9065 5.44701C25.5685 5.44701 23.6664 3.54274 23.6664 1.20201C23.6664 0.813229 23.3447 0.498047 22.9564 0.498047C22.5681 0.498047 22.2533 0.813229 22.2533 1.20201C22.2533 3.54696 20.3549 5.44701 18.0132 5.44701C17.8267 5.44701 17.6479 5.52118 17.516 5.6532C17.3842 5.78522 17.3101 5.96427 17.3101 6.15097C17.3101 6.33768 17.3842 6.51673 17.516 6.64875C17.6479 6.78077 17.8267 6.85493 18.0132 6.85493ZM22.9615 3.92874C23.4782 4.86305 24.2468 5.63307 25.1797 6.15088C24.2458 6.66926 23.4765 7.44033 22.9598 8.37589C22.4437 7.44137 21.6755 6.67098 20.7429 6.15268C21.6813 5.6315 22.4548 4.84677 22.9615 3.92874ZM6.03021 13.7222C7.31221 13.7222 8.35523 14.7664 8.35523 16.0502C8.35523 16.4389 8.67453 16.7541 9.06285 16.7541C9.45117 16.7541 9.76599 16.4389 9.76599 16.0502C9.76599 14.7663 10.809 13.7222 12.091 13.7222C12.2775 13.7222 12.4563 13.648 12.5882 13.516C12.7201 13.384 12.7942 13.2049 12.7942 13.0182C12.7942 12.8315 12.7201 12.6524 12.5882 12.5204C12.4563 12.3884 12.2775 12.3142 12.091 12.3142C10.809 12.3142 9.76599 11.27 9.76599 9.9865C9.76599 9.59772 9.4467 9.28254 9.05837 9.28254C8.67005 9.28254 8.35523 9.59772 8.35523 9.9865C8.35523 11.27 7.31606 12.3142 6.03021 12.3142C5.84373 12.3142 5.66488 12.3884 5.53302 12.5204C5.40115 12.6524 5.32707 12.8315 5.32707 13.0182C5.32707 13.2049 5.40115 13.384 5.53302 13.516C5.66488 13.648 5.84373 13.7222 6.03021 13.7222ZM9.06178 12.1654C9.29797 12.4936 9.58546 12.7816 9.91319 13.0182C9.58491 13.2553 9.29694 13.5438 9.06034 13.8727C8.82429 13.5442 8.53692 13.2561 8.20929 13.0192C8.5369 12.7817 8.82466 12.4935 9.06178 12.1654ZM33.8287 13.7222C35.1107 13.7222 36.1537 14.7664 36.1537 16.0502C36.1537 16.4389 36.4723 16.7541 36.861 16.7541C37.2497 16.7541 37.5641 16.4389 37.5641 16.0502C37.5641 14.7663 38.6071 13.7222 39.8898 13.7222C40.2784 13.7222 40.5929 13.407 40.5929 13.0182C40.5929 12.6294 40.2784 12.3142 39.8898 12.3142C38.6071 12.3142 37.5641 11.27 37.5641 9.9865C37.5641 9.59772 37.2455 9.28254 36.8569 9.28254C36.4682 9.28254 36.1537 9.59772 36.1537 9.9865C36.1537 11.2717 35.1132 12.3142 33.8287 12.3142C33.7363 12.3142 33.6449 12.3324 33.5596 12.3677C33.4742 12.4031 33.3967 12.455 33.3314 12.5203C33.2661 12.5857 33.2143 12.6633 33.179 12.7488C33.1437 12.8342 33.1255 12.9257 33.1256 13.0182C33.1255 13.1106 33.1437 13.2022 33.179 13.2876C33.2144 13.373 33.2662 13.4506 33.3315 13.516C33.3968 13.5814 33.4743 13.6332 33.5596 13.6686C33.6449 13.704 33.7363 13.7222 33.8287 13.7222ZM36.8603 12.1654C37.0965 12.4936 37.384 12.7815 37.7117 13.0182C37.3832 13.2551 37.0952 13.5437 36.8588 13.8727C36.6228 13.5443 36.3355 13.2562 36.008 13.0192C36.3357 12.7818 36.6234 12.4936 36.8603 12.1654Z" fill="#415DA1"/>
</svg>
