<svg width="22" height="24" viewBox="0 0 22 24" fill="none" xmlns="http://www.w3.org/2000/svg">
<path d="M8.5 3.5C8.5 2.83696 8.76339 2.20107 9.23223 1.73223C9.70107 1.26339 10.337 1 11 1C11.663 1 12.2989 1.26339 12.7678 1.73223C13.2366 2.20107 13.5 2.83696 13.5 3.5C14.9355 4.17878 16.1593 5.23541 17.0401 6.55662C17.9209 7.87784 18.4255 9.41384 18.5 11V14.75C18.5941 15.5271 18.8693 16.2713 19.3035 16.9227C19.7377 17.574 20.3188 18.1143 21 18.5H1C1.68117 18.1143 2.26226 17.574 2.69648 16.9227C3.13071 16.2713 3.40593 15.5271 3.5 14.75V11C3.57445 9.41384 4.07913 7.87784 4.95994 6.55662C5.84075 5.23541 7.06449 4.17878 8.5 3.5Z" stroke="#415DA1" stroke-width="1.8" stroke-linecap="round" stroke-linejoin="round"/>
<path d="M7.2652 18.7119L7.26521 18.625C7.26521 19.6196 7.64513 20.3234 8.34839 21.0267C9.05166 21.7299 10.0055 22.125 11 22.125C11.9946 22.125 12.9484 21.7299 13.6517 21.0267C14.355 20.3234 14.6667 19.6196 14.6667 18.625L14.6527 19.2242" stroke="#415DA1" stroke-width="1.8" stroke-linecap="round" stroke-linejoin="round"/>
</svg>
