<svg width="45" height="40" viewBox="0 0 45 40" fill="none" xmlns="http://www.w3.org/2000/svg">
<path fill-rule="evenodd" clip-rule="evenodd" d="M1.09685 1.01763C1.79937 0.392724 2.75206 0.0416727 3.74543 0.0416727C4.7388 0.0416727 5.69149 0.392724 6.39401 1.01763L21.1542 14.151C21.5054 14.4634 21.9818 14.6389 22.4785 14.6389C22.9751 14.6389 23.4515 14.4634 23.8027 14.151L38.5591 1.01763C38.9047 0.699261 39.3181 0.445319 39.7752 0.270623C40.2322 0.0959262 40.7238 0.00397191 41.2212 0.000125857C41.7186 -0.0037202 42.2119 0.0806181 42.6723 0.248221C43.1327 0.415824 43.551 0.663334 43.9027 0.97631C44.2545 1.28929 44.5327 1.66146 44.721 2.07111C44.9094 2.48077 45.0042 2.9197 44.9999 3.3623C44.9955 3.8049 44.8922 4.24229 44.6958 4.64897C44.4995 5.05565 44.2141 5.42347 43.8563 5.73096L29.0962 18.8643C28.745 19.1768 28.5477 19.6007 28.5477 20.0426C28.5477 20.4846 28.745 20.9084 29.0962 21.221L43.8563 34.351C44.5387 34.9796 44.9163 35.8216 44.9078 36.6956C44.8993 37.5696 44.5053 38.4057 43.8107 39.0237C43.1161 39.6417 42.1765 39.9923 41.1942 39.9999C40.212 40.0075 39.2657 39.6715 38.5591 39.0643L23.799 25.931C23.4477 25.6185 22.9714 25.443 22.4747 25.443C21.978 25.443 21.5017 25.6185 21.1504 25.931L6.39401 39.0643C5.68747 39.6715 4.74116 40.0075 3.75891 39.9999C2.77666 39.9923 1.83706 39.6417 1.14248 39.0237C0.447898 38.4057 0.0539103 37.5696 0.0453749 36.6956C0.0368394 35.8216 0.41444 34.9796 1.09685 34.351L15.857 21.2176C16.2081 20.9051 16.4054 20.4812 16.4054 20.0393C16.4054 19.5974 16.2081 19.1735 15.857 18.861L1.09685 5.73096C0.394536 5.10587 0 4.25817 0 3.37429C0 2.49041 0.394536 1.64272 1.09685 1.01763Z" fill="#415DA1"/>
</svg>
