<svg width="47" height="46" viewBox="0 0 47 46" fill="none" xmlns="http://www.w3.org/2000/svg">
<rect width="47" height="45.4333" rx="5" fill="#0C5CFE"/>
<path fill-rule="evenodd" clip-rule="evenodd" d="M19.5072 20.0022C18.7062 19.2013 17.6568 18.8005 16.6071 18.7998H16.6019C15.5522 18.8004 14.5027 19.2013 13.7018 20.0022C12.0987 21.6053 12.0987 24.2044 13.7018 25.8075C15.3049 27.4106 17.9041 27.4106 19.5072 25.8075C21.1102 24.2044 21.1102 21.6053 19.5072 20.0022ZM18.346 24.6465C17.3842 25.6084 15.8247 25.6084 14.8628 24.6465C13.901 23.6846 13.901 22.1252 14.8628 21.1633C15.8247 20.2014 17.3842 20.2014 18.346 21.1633C19.3079 22.1252 19.3079 23.6846 18.346 24.6465Z" fill="white"/>
<path fill-rule="evenodd" clip-rule="evenodd" d="M28.1277 20.0022C27.3268 19.2013 26.2773 18.8005 25.2224 18.7998C24.1727 18.8004 23.1232 19.2013 22.3223 20.0022C20.7192 21.6053 20.7192 24.2044 22.3223 25.8075C23.9254 27.4106 26.5246 27.4106 28.1277 25.8075C29.7308 24.2044 29.7308 21.6053 28.1277 20.0022ZM26.9666 24.6465C26.0047 25.6084 24.4453 25.6084 23.4834 24.6465C22.5215 23.6846 22.5215 22.1252 23.4834 21.1633C24.4453 20.2014 26.0048 20.2014 26.9666 21.1633C27.9285 22.1252 27.9285 23.6846 26.9666 24.6465ZM6.34198 26.9893L6.7525 27.0099H12.91L12.8894 26.5998C12.8345 25.9239 12.3559 25.4307 11.6784 25.3884L11.2679 25.3679H7.57352L12.4995 20.4419L12.479 20.0318C12.4465 19.3506 11.948 18.8563 11.268 18.8204L10.8576 18.8002L4.7 18.7999L4.72055 19.21C4.77378 19.8778 5.25957 20.3826 5.93104 20.4213L6.34205 20.4419H10.0365L5.11051 25.3679L5.13106 25.778C5.17152 26.4547 5.66024 26.9444 6.34198 26.9893ZM34.4454 21.2603C34.586 21.5024 34.6301 21.7756 34.646 22.0839L34.6666 22.4944V25.368L34.6871 25.778C34.7277 26.4494 35.2212 26.9465 35.8985 26.9895L36.3086 27.01V22.4945L36.3291 22.084C36.3451 21.7795 36.3898 21.5001 36.5316 21.2574C36.8163 20.7697 37.3452 20.442 37.9506 20.442C38.5582 20.442 39.0888 20.772 39.3728 21.2627C39.5126 21.5043 39.5559 21.7832 39.5721 22.0841L39.5927 22.4941V25.3681L39.6132 25.7782C39.6558 26.4534 40.1463 26.9502 40.8246 26.9896L41.2347 27.0102V22.0841C41.2347 20.2705 39.7644 18.8002 37.9507 18.8002C36.9698 18.8002 36.0894 19.2302 35.4877 19.912C34.8859 19.2302 34.0055 18.8002 33.0247 18.8002C32.369 18.7991 31.7282 18.9952 31.1855 19.3631C30.8661 19.0077 30.1512 18.8002 29.7407 18.8002V27.0102L30.1512 26.9896C30.8368 26.9445 31.3354 26.4603 31.3622 25.7788L31.3828 25.3681V22.4946L31.4033 22.0841C31.4206 21.7753 31.4636 21.5015 31.6047 21.2591C31.8892 20.7705 32.4186 20.4421 33.0247 20.4421C33.6312 20.4419 34.1611 20.771 34.4454 21.2603Z" fill="white"/>
</svg>
