<svg width="47" height="39" viewBox="0 0 47 39" fill="none" xmlns="http://www.w3.org/2000/svg">
<g clip-path="url(#clip0_174_1831)">
<mask id="mask0_174_1831" style="mask-type:luminance" maskUnits="userSpaceOnUse" x="0" y="0" width="47" height="39">
<path d="M46.5 0.549805H0.5V38.404H46.5V0.549805Z" fill="white"/>
</mask>
<g mask="url(#mask0_174_1831)">
<path d="M44.2934 6.47546L11.3471 0.598483C9.90245 0.338535 8.50089 1.34838 8.25052 2.78468L6.12781 14.9579H3.09708C1.66557 14.9579 0.5 16.1235 0.5 17.555V35.7993C0.5 37.2308 1.66438 38.3963 3.09708 38.3963H36.701C38.1338 38.3963 39.2981 37.2308 39.2981 35.7993V29.3844C40.2601 29.5557 41.1896 29.7582 42.0797 29.2263C42.7469 28.8262 43.2261 28.1374 43.3603 27.3707L46.4581 9.59483C46.7132 8.13337 45.7417 6.73421 44.2922 6.47546H44.2934ZM9.71198 3.03983C9.82339 2.40254 10.4415 1.94374 11.086 2.05874L44.0335 7.93572C44.6804 8.05072 45.1128 8.68082 44.9978 9.33848L44.4863 12.2734L9.19927 5.97952L9.71198 3.03983ZM37.8151 35.7981C37.8151 36.4114 37.3156 36.9109 36.7022 36.9109H3.09708C2.48375 36.9109 1.98422 36.4114 1.98422 35.7981V17.555C1.98422 16.9417 2.48375 16.4421 3.09708 16.4421H36.701C37.3156 16.4421 37.8139 16.9417 37.8139 17.555V35.7993L37.8151 35.7981ZM41.9 27.1144C41.6688 28.4345 40.2038 28.038 39.2993 27.8762V17.555C39.2993 16.1235 38.1349 14.9579 36.7022 14.9579H7.63479L8.94411 7.44098L11.0932 7.82431L44.2299 13.7348L41.8988 27.1144H41.9Z" fill="#415DA1"/>
<path d="M17.9799 33.9454H13.7141C13.3045 33.9454 12.9714 33.6123 12.9714 33.2027C12.9714 32.793 13.3045 32.46 13.7141 32.46H17.9799C18.3896 32.46 18.7214 32.793 18.7214 33.2027C18.7214 33.6123 18.3896 33.9454 17.9799 33.9454Z" fill="#415DA1"/>
<path d="M9.87494 33.9454H5.60797C5.19828 33.9454 4.86646 33.6123 4.86646 33.2027C4.86646 32.793 5.19828 32.46 5.60797 32.46H9.87374C10.2834 32.46 10.6153 32.793 10.6153 33.2027C10.6153 33.6123 10.2822 33.9454 9.87374 33.9454H9.87494Z" fill="#415DA1"/>
<path d="M26.084 33.9454H21.8182C21.4085 33.9454 21.0767 33.6123 21.0767 33.2027C21.0767 32.793 21.4085 32.46 21.8182 32.46H26.084C26.4936 32.46 26.8267 32.793 26.8267 33.2027C26.8267 33.6123 26.4948 33.9454 26.084 33.9454Z" fill="#415DA1"/>
<path d="M34.1902 33.9454H29.9244C29.5147 33.9454 29.1829 33.6123 29.1829 33.2027C29.1829 32.793 29.5147 32.46 29.9244 32.46H34.1902C34.5998 32.46 34.9317 32.793 34.9317 33.2027C34.9317 33.6123 34.5998 33.9454 34.1902 33.9454Z" fill="#415DA1"/>
<path d="M11.7915 30.0967H6.41761C5.39459 30.0967 4.56323 29.2641 4.56323 28.2423V26.1112C4.56323 25.0894 5.39578 24.2568 6.41761 24.2568H11.7915C12.8145 24.2568 13.6458 25.0894 13.6458 26.1112V28.2423C13.6458 29.2653 12.8133 30.0967 11.7915 30.0967ZM6.41761 25.7399C6.21396 25.7399 6.04745 25.9064 6.04745 26.11V28.2411C6.04745 28.4459 6.21396 28.6125 6.41761 28.6125H11.7915C11.9963 28.6125 12.1628 28.4459 12.1628 28.2411V26.11C12.1628 25.9052 11.9963 25.7399 11.7915 25.7399H6.41761Z" fill="#415DA1"/>
</g>
</g>
<defs>
<clipPath id="clip0_174_1831">
<rect width="46" height="38" fill="white" transform="translate(0.5 0.549805)"/>
</clipPath>
</defs>
</svg>
