<svg xmlns="http://www.w3.org/2000/svg" width="22" height="24" viewBox="0 0 20 24" fill="none">
  <path d="M13.5633 11.1284C15.0757 10.0084 16.0606 8.19581 16.0606 6.15384C16.0606 2.76061 13.3418 0 10 0C6.65817 0 3.93939 2.76061 3.93939 6.15384C3.93939 8.19581 4.92422 10.0084 6.43667 11.1284C2.67701 12.5892 0 16.2905 0 20.6154C0 22.4817 1.49533 24 3.33333 24H16.6667C18.5047 24 20 22.4817 20 20.6154C20 16.2905 17.323 12.5892 13.5633 11.1284ZM5.75759 6.15384C5.75759 3.77859 7.66073 1.84617 10 1.84617C12.3393 1.84617 14.2424 3.77859 14.2424 6.15384C14.2424 8.52909 12.3393 10.4616 10 10.4616C7.66073 10.4616 5.75759 8.52909 5.75759 6.15384ZM16.6667 22.1538H3.33333C2.49789 22.1538 1.8182 21.4637 1.8182 20.6153C1.8182 16.0344 5.48849 12.3076 10 12.3076C14.5116 12.3076 18.1819 16.0344 18.1819 20.6153C18.1818 21.4637 17.5022 22.1538 16.6667 22.1538Z" fill="#415DA1"/>
</svg>