<svg width="55" height="56" viewBox="0 0 55 56" fill="none" xmlns="http://www.w3.org/2000/svg">
<rect y="0.52002" width="55" height="55" rx="10" fill="#EBF2FF"/>
<g clip-path="url(#clip0_228_1915)">
<path d="M38.679 28.0322C38.7386 28.06 38.803 28.0759 38.8687 28.0788C38.9344 28.0817 39 28.0716 39.0617 28.0491C39.1235 28.0266 39.1802 27.9922 39.2287 27.9478C39.2771 27.9033 39.3163 27.8498 39.344 27.7902C39.8101 26.7915 40.056 25.7043 40.065 24.6022C40.0815 23.5507 39.9932 22.5002 39.8015 21.4662C39.7893 21.4017 39.7644 21.3402 39.7284 21.2853C39.6923 21.2304 39.6458 21.1832 39.5915 21.1462C39.5372 21.1093 39.4762 21.0834 39.4119 21.0701C39.3476 21.0567 39.2813 21.0562 39.2168 21.0685C39.1523 21.0807 39.0908 21.1056 39.0359 21.1416C38.981 21.1777 38.9337 21.2242 38.8968 21.2785C38.8599 21.3328 38.834 21.3938 38.8207 21.4581C38.8073 21.5224 38.8068 21.5887 38.819 21.6532C38.9985 22.6202 39.081 23.6032 39.065 24.5867C39.0583 25.5487 38.8442 26.4979 38.4375 27.3697C38.3821 27.4896 38.3764 27.6267 38.4216 27.7508C38.4669 27.8749 38.5594 27.9761 38.679 28.0322ZM13.736 31.7652C13.9005 31.8792 14.074 31.9802 14.255 32.0652C14.471 32.1757 14.8335 32.3607 14.859 32.4902C14.8905 32.6612 14.87 32.8377 14.8 32.9967C14.7255 33.1567 14.6475 33.2942 14.58 33.4127C14.397 33.7362 14.0905 34.2782 14.5525 34.6557C14.6605 34.7557 14.847 34.9002 15.017 35.0307C14.892 35.2497 14.835 35.5007 14.8545 35.7522C14.881 35.9502 14.9885 36.1282 15.151 36.2442C15.262 36.3222 15.3805 36.3902 15.497 36.4567C15.793 36.6247 15.9085 36.7032 15.947 36.8602C15.975 37.0612 15.9575 37.2662 15.897 37.4602C15.8661 37.5924 15.8411 37.7258 15.822 37.8602C15.772 38.3157 15.8285 38.7767 15.9865 39.2072C16.0961 39.5941 16.3272 39.9355 16.6458 40.1809C16.9644 40.4263 17.3535 40.5626 17.7555 40.5697C17.8935 40.5697 18.0305 40.5547 18.1655 40.5262C19.5939 40.1876 21.0015 39.7664 22.381 39.2647C23.5075 39.9257 24.219 41.9357 24.4045 42.6902C24.4315 42.7986 24.4939 42.8949 24.5819 42.9637C24.6699 43.0324 24.7784 43.0698 24.89 43.0697L37.44 43.0347C37.5185 43.0346 37.5958 43.016 37.6657 42.9804C37.7356 42.9449 37.7961 42.8934 37.8425 42.8301C37.8888 42.7669 37.9196 42.6936 37.9324 42.6162C37.9452 42.5388 37.9396 42.4595 37.916 42.3847C37.7924 42.0459 37.6219 41.7262 37.4095 41.4347C37.2896 41.2619 37.1816 41.0811 37.086 40.8937C36.8596 40.4355 36.6708 39.9596 36.5215 39.4707C36.2359 38.5045 36.0379 37.5145 35.93 36.5127C35.755 35.0157 35.983 33.4991 36.5905 32.1197C36.6905 31.8852 36.8085 31.6597 36.9445 31.4442C36.9813 31.3884 37.0065 31.3258 37.0187 31.2601C37.0308 31.1944 37.0297 31.1269 37.0154 31.0616C37.0012 30.9963 36.9739 30.9346 36.9354 30.88C36.8969 30.8254 36.8478 30.779 36.7911 30.7437C36.7344 30.7083 36.6712 30.6847 36.6052 30.6741C36.5392 30.6635 36.4718 30.6663 36.4069 30.6822C36.342 30.6981 36.2809 30.7268 36.2273 30.7666C36.1736 30.8065 36.1285 30.8567 36.0945 30.9142C35.9325 31.1729 35.7908 31.4437 35.6705 31.7242C34.9939 33.2666 34.7409 34.9615 34.9375 36.6342C35.0532 37.6962 35.264 38.7455 35.5675 39.7697C35.7321 40.3072 35.9396 40.8305 36.188 41.3347C36.302 41.5612 36.4315 41.7797 36.5755 41.9882L36.609 42.0382L25.268 42.0697C24.9361 40.8836 24.3337 39.7907 23.508 38.8767L23.958 38.7192C24.293 38.6022 24.5455 38.5142 24.675 38.4727C26.817 37.7952 27.888 36.8197 27.859 35.5727C27.8559 35.4422 27.8019 35.3181 27.7084 35.2269C27.615 35.1357 27.4896 35.0847 27.359 35.0847H27.35C27.2175 35.0879 27.0917 35.1435 27.0001 35.2394C26.9086 35.3354 26.859 35.4637 26.862 35.5962C26.874 36.1107 26.4525 36.8612 24.374 37.5187C24.1256 37.6016 23.8779 37.6867 23.631 37.7742C23.2595 37.9042 22.787 38.0692 22.266 38.2462H22.2625C20.8554 38.762 19.4197 39.1961 17.9625 39.5462C17.7381 39.5896 17.5057 39.5444 17.3138 39.4202C17.122 39.2959 16.9857 39.1022 16.9335 38.8797C16.8267 38.5953 16.7865 38.2901 16.816 37.9877C16.829 37.8827 16.853 37.7787 16.876 37.6742C16.9779 37.3285 16.9929 36.9631 16.9195 36.6102C16.8477 36.3832 16.7278 36.1744 16.568 35.9978C16.4082 35.8213 16.2123 35.6813 15.9935 35.5872L15.89 35.5282C15.944 35.4192 16.0085 35.3157 16.0825 35.2192C16.1241 35.1666 16.1546 35.1062 16.1723 35.0416C16.19 34.9769 16.1945 34.9094 16.1856 34.843C16.1767 34.7766 16.1545 34.7126 16.1204 34.6549C16.0863 34.5973 16.041 34.547 15.987 34.5072C15.867 34.4192 15.584 34.2072 15.377 34.0402C15.401 33.9967 15.427 33.9487 15.452 33.9052C15.5305 33.7677 15.62 33.6077 15.7075 33.4227C15.8655 33.0722 15.9125 32.6817 15.841 32.3037C15.721 31.6937 15.1365 31.3947 14.7105 31.1767C14.5667 31.1084 14.4287 31.0283 14.298 30.9372C14.1917 30.8654 14.092 30.7842 14 30.6947C14 30.6187 14.0815 30.4347 14.4625 29.9712C15.3581 28.8183 16.1259 27.5717 16.7525 26.2532C16.8695 26.0467 16.9355 25.8152 16.945 25.5777C16.9195 25.3293 16.8411 25.0892 16.7151 24.8736C16.5891 24.658 16.4184 24.4719 16.2145 24.3277C16.0145 24.1422 15.822 23.9672 15.7995 23.8042C15.8029 23.6862 15.8294 23.57 15.8775 23.4622C15.959 23.2477 16.053 23.0377 16.1475 22.8272C16.3525 22.4042 16.5165 21.9627 16.6365 21.5087L16.6865 21.2957C16.7921 20.7959 16.9282 20.3029 17.094 19.8197C17.4882 18.7318 18.0984 17.735 18.888 16.8892C19.8445 15.8772 21.35 15.1612 23.369 14.7597C23.8855 14.6552 24.4025 14.5562 24.9245 14.4597C25.0483 14.4294 25.1557 14.3529 25.225 14.246C25.2943 14.1391 25.3201 14.0098 25.2973 13.8845C25.2744 13.7591 25.2046 13.6473 25.1021 13.5717C24.9995 13.4961 24.872 13.4625 24.7455 13.4777C24.218 13.5727 23.694 13.6727 23.1725 13.7777C20.918 14.2277 19.2795 15.0182 18.161 16.2002C17.2787 17.1443 16.5966 18.2571 16.1555 19.4717C15.9754 19.9948 15.8275 20.5285 15.7125 21.0697L15.6625 21.2807C15.556 21.6727 15.4125 22.0542 15.235 22.4197C15.135 22.6477 15.031 22.8757 14.9415 23.1117C14.8265 23.3744 14.781 23.6623 14.8095 23.9477C14.91 24.3957 15.1685 24.7927 15.538 25.0657C15.7825 25.2897 15.943 25.4477 15.945 25.5852C15.9272 25.6612 15.8985 25.7343 15.86 25.8022C15.2613 27.0628 14.5278 28.2549 13.6725 29.3577C13.31 29.7987 12.93 30.3132 13.01 30.8282C13.116 31.2257 13.378 31.5632 13.736 31.7652ZM32.4095 13.6977C32.2843 13.6541 32.1468 13.662 32.0274 13.7197C31.908 13.7774 31.8164 13.8802 31.7728 14.0055C31.7292 14.1307 31.7371 14.2682 31.7948 14.3876C31.8525 14.507 31.9553 14.5986 32.0805 14.6422C32.9456 14.9488 33.7714 15.3563 34.541 15.8562C34.6528 15.9276 34.7884 15.9516 34.9179 15.923C35.0474 15.8944 35.1602 15.8155 35.2315 15.7037C35.3029 15.5919 35.3269 15.4564 35.2983 15.3269C35.2697 15.1974 35.1908 15.0846 35.079 15.0132C34.244 14.4714 33.348 14.0298 32.4095 13.6977Z" fill="#415DA1"/>
<path d="M18.5835 21.9695L18.6335 21.752C18.721 21.3345 18.833 20.922 18.968 20.517C19.2695 19.6825 19.7362 18.9172 20.34 18.267C20.9881 17.6561 21.7812 17.2205 22.6445 17.0015C22.7085 16.9835 22.7683 16.9528 22.8204 16.9114C22.8724 16.8699 22.9157 16.8185 22.9476 16.7601C22.9795 16.7018 22.9994 16.6376 23.0063 16.5714C23.0131 16.5053 23.0066 16.4384 22.9872 16.3747C22.9679 16.3111 22.936 16.2519 22.8935 16.2008C22.851 16.1496 22.7987 16.1074 22.7397 16.0767C22.6806 16.046 22.6161 16.0274 22.5498 16.0219C22.4835 16.0165 22.4167 16.0243 22.3535 16.045C21.3232 16.3128 20.3793 16.8416 19.613 17.5805C18.9167 18.3283 18.3785 19.2089 18.0305 20.1695C17.8805 20.613 17.757 21.0645 17.6605 21.5225L17.6105 21.739C17.5948 21.8032 17.592 21.8698 17.6022 21.9351C17.6124 22.0003 17.6355 22.0629 17.67 22.1192C17.7045 22.1755 17.7499 22.2244 17.8034 22.2631C17.857 22.3018 17.9176 22.3294 17.9819 22.3445C18.0462 22.3596 18.1129 22.3618 18.1781 22.351C18.2432 22.3402 18.3056 22.3166 18.3616 22.2815C18.4175 22.2465 18.466 22.2007 18.5042 22.1468C18.5424 22.0929 18.5695 22.032 18.584 21.9675L18.5835 21.9695Z" fill="#415DA1"/>
<path d="M17.5 24.0698C17.7761 24.0698 18 23.846 18 23.5698C18 23.2937 17.7761 23.0698 17.5 23.0698C17.2239 23.0698 17 23.2937 17 23.5698C17 23.846 17.2239 24.0698 17.5 24.0698Z" fill="#415DA1"/>
<path d="M31.5 20.5698C30.8372 20.5706 30.2018 20.8343 29.7331 21.3029C29.2644 21.7716 29.0008 22.407 29 23.0698C29 23.2024 29.0527 23.3296 29.1464 23.4234C29.2402 23.5171 29.3674 23.5698 29.5 23.5698C29.6326 23.5698 29.7598 23.5171 29.8536 23.4234C29.9473 23.3296 30 23.2024 30 23.0698C30 22.672 30.158 22.2905 30.4393 22.0092C30.7206 21.7279 31.1022 21.5698 31.5 21.5698C31.6326 21.5698 31.7598 21.5171 31.8536 21.4234C31.9473 21.3296 32 21.2024 32 21.0698C32 20.9372 31.9473 20.81 31.8536 20.7163C31.7598 20.6225 31.6326 20.5698 31.5 20.5698Z" fill="#415DA1"/>
<path d="M40.5001 29.0698C39.9856 29.0705 39.4839 29.2311 39.0646 29.5293L35.0911 25.7698C35.6431 25.043 35.959 24.1645 35.9964 23.2526C36.0337 22.3408 35.7907 21.4394 35.3001 20.6698L37.0061 19.3048C37.5666 19.8015 38.2931 20.0697 39.0419 20.0561C39.7907 20.0425 40.507 19.7481 41.0491 19.2314C41.5911 18.7147 41.9193 18.0132 41.9687 17.2659C42.018 16.5187 41.7849 15.7801 41.3155 15.1966C40.8462 14.6131 40.1747 14.2271 39.4343 14.1151C38.6938 14.0032 37.9383 14.1734 37.3174 14.5921C36.6965 15.0108 36.2555 15.6474 36.0817 16.3759C35.9079 17.1043 36.0141 17.8714 36.3791 18.5253L34.6791 19.8863C34.1187 19.3228 33.4179 18.9191 32.6492 18.7169C31.8806 18.5147 31.0718 18.5215 30.3066 18.7363L29.8726 17.6563C30.3723 17.3261 30.7365 16.8271 30.8988 16.2505C31.061 15.674 31.0103 15.0583 30.7561 14.5159C30.5019 13.9736 30.0611 13.5408 29.5142 13.2966C28.9673 13.0524 28.3508 13.0131 27.7773 13.1859C27.2038 13.3587 26.7116 13.732 26.3906 14.2377C26.0696 14.7434 25.9412 15.3476 26.0289 15.9401C26.1166 16.5326 26.4145 17.0738 26.8682 17.4648C27.3219 17.8558 27.9012 18.0706 28.5001 18.0698C28.6486 18.0678 28.7966 18.0533 28.9426 18.0253L29.3761 19.1043C28.4501 19.5994 27.7266 20.403 27.3311 21.3758C26.9357 22.3485 26.8932 23.429 27.2111 24.4298L25.0001 25.4128C24.5785 24.7699 23.9305 24.3091 23.1849 24.122C22.4392 23.9348 21.6504 24.0349 20.9752 24.4024C20.2999 24.7699 19.7876 25.378 19.5399 26.1058C19.2923 26.8337 19.3275 27.628 19.6385 28.3311C19.9494 29.0342 20.5135 29.5946 21.2186 29.901C21.9237 30.2074 22.7183 30.2375 23.4445 29.9851C24.1707 29.7327 24.7754 29.2165 25.1385 28.5388C25.5017 27.8612 25.5967 27.0718 25.4046 26.3273L27.6236 25.3413C28.1684 26.2684 29.0259 26.9708 30.0421 27.3223L29.4301 30.0768C28.9406 30.0913 28.4732 30.2838 28.1156 30.6183C27.758 30.9529 27.5347 31.4064 27.4877 31.8938C27.4406 32.3813 27.5731 32.8691 27.8602 33.2659C28.1472 33.6626 28.5692 33.941 29.0469 34.0487C29.5246 34.1564 30.0253 34.0861 30.4548 33.851C30.8844 33.6159 31.2134 33.2322 31.3802 32.7717C31.5469 32.3113 31.5399 31.8058 31.3605 31.3501C31.1811 30.8945 30.8416 30.52 30.4056 30.2968L31.0161 27.5428C31.6224 27.6091 32.2359 27.5508 32.8188 27.3714C33.4018 27.192 33.9419 26.8955 34.4061 26.4998L38.3806 30.2598C38.1336 30.6522 38.0018 31.1061 38.0001 31.5698C38.0001 32.0643 38.1468 32.5476 38.4215 32.9588C38.6962 33.3699 39.0866 33.6903 39.5434 33.8795C40.0002 34.0688 40.5029 34.1183 40.9879 34.0218C41.4728 33.9253 41.9183 33.6872 42.2679 33.3376C42.6175 32.988 42.8556 32.5425 42.9521 32.0576C43.0486 31.5726 42.9991 31.0699 42.8098 30.6131C42.6206 30.1563 42.3002 29.7659 41.8891 29.4912C41.4779 29.2165 40.9946 29.0698 40.5001 29.0698ZM27.0001 15.5698C26.9997 15.2973 27.0735 15.0297 27.2136 14.7959C27.3537 14.5622 27.5549 14.371 27.7956 14.2429C28.0362 14.1149 28.3072 14.0549 28.5794 14.0693C28.8516 14.0837 29.1147 14.172 29.3405 14.3247C29.5662 14.4774 29.7462 14.6887 29.8609 14.936C29.9756 15.1832 30.0207 15.4571 29.9915 15.7281C29.9622 15.9991 29.8597 16.257 29.6949 16.4741C29.5301 16.6912 29.3093 16.8593 29.0561 16.9603H29.0531C28.8775 17.0318 28.6898 17.0689 28.5001 17.0698C28.1023 17.0698 27.7208 16.9118 27.4395 16.6305C27.1582 16.3492 27.0001 15.9677 27.0001 15.5698ZM22.5001 29.0698C21.9697 29.0698 21.461 28.8591 21.0859 28.484C20.7109 28.109 20.5001 27.6003 20.5001 27.0698C20.5001 26.5394 20.7109 26.0307 21.0859 25.6556C21.461 25.2805 21.9697 25.0698 22.5001 25.0698C23.0306 25.0698 23.5393 25.2805 23.9143 25.6556C24.2894 26.0307 24.5001 26.5394 24.5001 27.0698C24.5001 27.6003 24.2894 28.109 23.9143 28.484C23.5393 28.8591 23.0306 29.0698 22.5001 29.0698ZM29.5001 33.0698C29.2349 33.0698 28.9806 32.9645 28.793 32.7769C28.6055 32.5894 28.5001 32.3351 28.5001 32.0698C28.5001 31.8046 28.6055 31.5503 28.793 31.3627C28.9806 31.1752 29.2349 31.0698 29.5001 31.0698C29.7654 31.0698 30.0197 31.1752 30.2072 31.3627C30.3948 31.5503 30.5001 31.8046 30.5001 32.0698C30.5001 32.3351 30.3948 32.5894 30.2072 32.7769C30.0197 32.9645 29.7654 33.0698 29.5001 33.0698ZM39.0001 15.0698C39.5306 15.0698 40.0393 15.2805 40.4143 15.6556C40.7894 16.0307 41.0001 16.5394 41.0001 17.0698C41.0001 17.6003 40.7894 18.109 40.4143 18.484C40.0393 18.8591 39.5306 19.0698 39.0001 19.0698C38.4697 19.0698 37.961 18.8591 37.5859 18.484C37.2108 18.109 37.0001 17.6003 37.0001 17.0698C37.0001 16.5394 37.2108 16.0307 37.5859 15.6556C37.961 15.2805 38.4697 15.0698 39.0001 15.0698ZM28.0001 23.0698C28.0001 22.3776 28.2054 21.7009 28.59 21.1253C28.9746 20.5498 29.5212 20.1012 30.1607 19.8363C30.8003 19.5713 31.504 19.502 32.183 19.6371C32.8619 19.7721 33.4855 20.1055 33.975 20.595C34.4645 21.0844 34.7978 21.7081 34.9329 22.387C35.0679 23.0659 34.9986 23.7697 34.7337 24.4092C34.4688 25.0488 34.0202 25.5954 33.4446 25.98C32.8691 26.3646 32.1924 26.5698 31.5001 26.5698C30.5722 26.5688 29.6826 26.1997 29.0264 25.5435C28.3703 24.8874 28.0012 23.9978 28.0001 23.0698ZM40.5001 33.0698C40.1023 33.0698 39.7208 32.9118 39.4395 32.6305C39.1582 32.3492 39.0001 31.9677 39.0001 31.5698C39.0001 31.172 39.1582 30.7905 39.4395 30.5092C39.7208 30.2279 40.1023 30.0698 40.5001 30.0698C40.898 30.0698 41.2795 30.2279 41.5608 30.5092C41.8421 30.7905 42.0001 31.172 42.0001 31.5698C42.0001 31.9677 41.8421 32.3492 41.5608 32.6305C41.2795 32.9118 40.898 33.0698 40.5001 33.0698Z" fill="#415DA1"/>
</g>
<defs>
<clipPath id="clip0_228_1915">
<rect width="30" height="30" fill="white" transform="translate(13 13.0698)"/>
</clipPath>
</defs>
</svg>
