<svg width="22" height="22" viewBox="0 0 22 22" fill="none" xmlns="http://www.w3.org/2000/svg">
<path d="M3.22222 11H1L11 1L21 11H18.7778M3.22222 11V18.7778C3.22222 19.3671 3.45635 19.9324 3.8731 20.3491C4.28984 20.7659 4.85507 21 5.44444 21H16.5556C17.1449 21 17.7102 20.7659 18.1269 20.3491C18.5437 19.9324 18.7778 19.3671 18.7778 18.7778V11" stroke="#415DA1" stroke-width="1.6" stroke-linecap="round" stroke-linejoin="round"/>
<path d="M7.66684 21.0002V14.3336C7.66684 13.7442 7.90097 13.1789 8.31771 12.7622C8.73446 12.3455 9.29969 12.1113 9.88906 12.1113H12.1113C12.7007 12.1113 13.2659 12.3455 13.6826 12.7622C14.0994 13.1789 14.3335 13.7442 14.3335 14.3336V21.0002" stroke="#415DA1" stroke-width="1.6" stroke-linecap="round" stroke-linejoin="round"/>
</svg>
