<svg width="20" height="20" viewBox="0 0 20 20" fill="none" xmlns="http://www.w3.org/2000/svg">
<path d="M9.21398 0.0310591C11.2329 -0.128113 13.2526 0.329465 15.0058 1.34325C16.759 2.35703 18.163 3.87923 19.0322 5.70843C19.9013 7.53764 20.1946 9.58763 19.8732 11.5872C19.5518 13.5867 18.6308 15.4415 17.2322 16.9062C15.8336 18.3709 14.0233 19.3764 12.0407 19.7897C10.0581 20.203 7.99676 20.0045 6.12941 19.2207C4.26206 18.4368 2.67673 17.1045 1.58316 15.3999C0.489596 13.6954 -0.0606477 11.6989 0.00523514 9.6748C0.0126944 9.42616 0.11862 9.19067 0.29971 9.02013C0.480799 8.84959 0.722219 8.75797 0.970859 8.76543C1.2195 8.77289 1.45499 8.87881 1.62553 9.0599C1.79607 9.24099 1.88769 9.48241 1.88023 9.73105C1.81689 11.6471 2.43311 13.5239 3.61994 15.0295C4.80676 16.535 6.48774 17.5725 8.36563 17.9583C10.2435 18.3441 12.1974 18.0535 13.8816 17.1378C15.5659 16.2221 16.8722 14.7403 17.5694 12.9545C18.2666 11.1686 18.3099 9.19376 17.6916 7.37909C17.0733 5.56442 15.8333 4.02683 14.1907 3.0382C12.5482 2.04957 10.609 1.6736 8.71596 1.97676C6.82297 2.27992 5.09815 3.24268 3.84648 4.69481L3.59148 5.00481H5.93773L6.06523 5.01481C6.28962 5.04568 6.49525 5.15675 6.64409 5.32748C6.79294 5.49821 6.87494 5.71705 6.87494 5.94356C6.87494 6.17006 6.79294 6.3889 6.64409 6.55963C6.49525 6.73036 6.28962 6.84143 6.06523 6.8723L5.93773 6.88105H1.56523L1.43773 6.8723C1.23504 6.84447 1.04702 6.7511 0.902357 6.60643C0.757689 6.46177 0.664317 6.27374 0.636485 6.07106L0.627735 5.94356V0.943559L0.636485 0.816059C0.664317 0.613369 0.757689 0.425349 0.902357 0.280681C1.04702 0.136013 1.23504 0.0426411 1.43773 0.0148091L1.56523 0.00605912L1.69273 0.0148091C1.89542 0.0426411 2.08344 0.136013 2.22811 0.280681C2.37278 0.425349 2.46615 0.613369 2.49398 0.816059L2.50273 0.943559L2.50148 3.38481C4.21716 1.43599 6.62534 0.231998 9.21398 0.0310591ZM9.68648 5.00481L9.81398 5.01356C10.0167 5.04139 10.2047 5.13476 10.3494 5.27943C10.494 5.4241 10.5874 5.61212 10.6152 5.81481L10.624 5.94231V9.99855L12.8115 9.9998L12.939 10.0086C13.1643 10.0384 13.3711 10.1491 13.5209 10.3201C13.6707 10.4911 13.7533 10.7106 13.7533 10.9379C13.7533 11.1652 13.6707 11.3848 13.5209 11.5558C13.3711 11.7267 13.1643 11.8374 12.939 11.8673L12.8115 11.8748H9.68648L9.55898 11.8673C9.35611 11.8394 9.16795 11.7459 9.02326 11.6009C8.87857 11.456 8.78531 11.2677 8.75773 11.0648L8.74898 10.9373V5.94231L8.75773 5.81481C8.78556 5.61212 8.87893 5.4241 9.0236 5.27943C9.16827 5.13476 9.35629 5.04139 9.55898 5.01356L9.68648 5.00481Z" fill="#415DA1"/>
</svg>
