<svg width="126" height="36" viewBox="0 0 126 36" fill="none" xmlns="http://www.w3.org/2000/svg">
<g clip-path="url(#clip0_310_25)">
<path d="M19.8299 6.70923H19.824V6.72128H19.8299V6.70923Z" fill="#415DA1"/>
<path d="M27.1229 5.64404H24.1958V8.84215H27.1229V5.64404Z" fill="#415DA1"/>
<path d="M31.3744 8.76443H28.4473V11.9625H31.3744V8.76443Z" fill="#415DA1"/>
<path d="M29.1134 26.112H26.1863V29.3101H29.1134V26.112Z" fill="#415DA1"/>
<path d="M27.0423 19.8956H24.1152V23.0937H27.0423V19.8956Z" fill="#415DA1"/>
<path d="M24.233 24.1094H21.3059V27.3075H24.233V24.1094Z" fill="#415DA1"/>
<path d="M23.4596 3.34137H20.5325V6.53947H23.4596V3.34137Z" fill="#415DA1"/>
<path d="M27.3041 12.5746H24.377V15.7727H27.3041V12.5746Z" fill="#415DA1"/>
<path d="M23.7992 15.6396H20.8721V18.8377H23.7992V15.6396Z" fill="#415DA1"/>
<path d="M20.678 22.7173V19.5173L17.748 19.5198V22.7173H20.678Z" fill="#415DA1"/>
<path d="M24.2109 34.9104C23.6888 33.0171 23.3211 31.077 23.112 29.1128H19.8175V25.9163H16.891V22.7182H13.9639V19.5201H16.891V16.2933H19.8207V13.1098H22.7466V9.9111L19.8238 9.90767V6.72205L16.889 6.72018V3.52145L19.8195 3.51365V1.24685C18.4203 0.752237 16.9665 0.465651 15.4973 0.394817C8.31908 -0.0109144 2.17152 5.0264 2.36947 11.9738C2.39547 12.8907 2.5423 14.2412 2.53887 15.1235C2.5323 18.2576 0.0502498 19.545 0.00254561 20.5425C-0.0760093 22.1804 1.68505 21.6689 2.30606 23.9859C3.09446 26.9275 1.96328 30.282 5.63336 30.0747C7.09734 30.0104 9.47655 29.3897 10.496 30.4255C11.1462 31.0859 11.6698 33.9685 11.874 35.2441C11.9016 35.4155 11.9837 35.5708 12.1058 35.6826C12.228 35.7944 12.3823 35.8555 12.5416 35.8552H23.559C23.6641 35.8555 23.7678 35.829 23.8619 35.7779C23.956 35.7269 24.0379 35.6525 24.1011 35.5609C24.1644 35.4692 24.2072 35.3627 24.2263 35.2498C24.2453 35.1369 24.2401 35.0207 24.2109 34.9104ZM11.2279 9.92109H8.3008V6.72205H11.2279V9.92109ZM14.153 7.94486H17.0801V11.143H14.153V7.94486ZM11.9629 15.4609V12.2625H14.89V15.4609H11.9629ZM15.6521 29.8697H12.725V26.6709H15.6521V29.8697Z" fill="#415DA1"/>
<path d="M40.6598 27.1414H38.1514V7.36737H40.6058V9.57758C41.3071 8.16304 42.8445 7.0432 44.9484 7.0432C48.8324 7.0432 50.9092 10.3143 50.9092 14.44C50.9092 18.6542 48.6705 21.9253 44.8675 21.9253C42.8715 21.9253 41.3611 20.8939 40.6598 19.6267V27.1414ZM48.3199 14.44C48.3199 11.611 46.8634 9.48917 44.4898 9.48917C42.1702 9.48917 40.6328 11.611 40.6328 14.44C40.6328 17.3575 42.1702 19.4499 44.4898 19.4499C46.8364 19.4499 48.3199 17.3575 48.3199 14.44ZM52.9322 17.8585L55.2248 16.9744C55.3866 18.4479 56.4116 19.6267 58.2457 19.6267C59.6752 19.6267 60.4574 18.7426 60.4574 17.7406C60.4574 16.8565 59.864 16.1787 58.7851 15.9135L56.5734 15.3831C54.5505 14.9116 53.3367 13.4086 53.3367 11.4047C53.3367 8.98819 55.4136 6.92533 57.949 6.92533C61.5093 6.92533 62.6152 9.4597 62.8849 10.7269L60.6462 11.6404C60.5383 10.9037 59.9989 9.28288 57.949 9.28288C56.6543 9.28288 55.7912 10.1964 55.7912 11.1689C55.7912 12.0235 56.2767 12.6424 57.2747 12.8782L59.3785 13.3791C61.7251 13.9391 62.9658 15.5009 62.9658 17.5933C62.9658 19.5972 61.4284 21.9842 58.2187 21.9842C54.6584 21.9842 53.1479 19.4793 52.9322 17.8585ZM68.8458 21.5422H66.3374V7.36737H68.8458V21.5422ZM65.7709 2.00392C65.7709 0.884084 66.5801 0 67.5781 0C68.603 0 69.4122 0.884084 69.4122 2.00392C69.4122 3.09429 68.603 3.97838 67.5781 3.97838C66.5801 3.97838 65.7709 3.09429 65.7709 2.00392ZM74.6718 14.4106C74.6718 17.328 76.0474 19.4793 78.4749 19.4793C80.7945 19.4793 82.224 17.2691 82.224 14.3516C82.224 11.4342 80.8215 9.43023 78.5018 9.43023C76.1822 9.43023 74.6718 11.4931 74.6718 14.4106ZM82.251 19.6267V19.3909C81.6306 20.7465 80.255 21.9253 78.2321 21.9253C74.429 21.9253 72.0825 18.6247 72.0825 14.4106C72.0825 10.4027 74.5639 6.98426 78.2321 6.98426C80.5248 6.98426 81.7655 8.22198 82.197 9.37129V0.206286H84.7055V18.9194C84.7055 20.275 84.8134 21.3064 84.8403 21.5422H82.3859C82.3319 21.218 82.251 20.4813 82.251 19.6267ZM90.6663 12.996H97.76C97.7061 10.9626 96.4923 9.37129 94.1997 9.37129C92.0689 9.37129 90.7742 11.1689 90.6663 12.996ZM98.1376 16.6797L100.322 17.5049C99.5941 20.0098 97.5173 21.9842 94.4964 21.9842C91.017 21.9842 87.9691 19.2141 87.9691 14.4106C87.9691 9.96068 90.9091 6.92533 94.1727 6.92533C98.1646 6.92533 100.403 9.93121 100.403 14.3516C100.403 14.7053 100.376 15.0589 100.349 15.2357H90.5854C90.6394 17.7701 92.3116 19.5383 94.4964 19.5383C96.6002 19.5383 97.6521 18.2711 98.1376 16.6797ZM114.753 7.36737L109.574 21.5422H107.012L101.752 7.36737H104.611L108.306 18.3005L112.028 7.36737H114.753ZM115.966 17.8585L118.259 16.9744C118.421 18.4479 119.446 19.6267 121.28 19.6267C122.709 19.6267 123.492 18.7426 123.492 17.7406C123.492 16.8565 122.898 16.1787 121.819 15.9135L119.608 15.3831C117.585 14.9116 116.371 13.4086 116.371 11.4047C116.371 8.98819 118.448 6.92533 120.983 6.92533C124.543 6.92533 125.649 9.4597 125.919 10.7269L123.68 11.6404C123.572 10.9037 123.033 9.28288 120.983 9.28288C119.688 9.28288 118.825 10.1964 118.825 11.1689C118.825 12.0235 119.311 12.6424 120.309 12.8782L122.413 13.3791C124.759 13.9391 126 15.5009 126 17.5933C126 19.5972 124.463 21.9842 121.253 21.9842C117.693 21.9842 116.182 19.4793 115.966 17.8585Z" fill="#415DA1"/>
<path d="M39.9074 36C38.8975 36 38.1514 35.2497 38.1514 34.071C38.1514 32.8923 38.8975 32.1446 39.9074 32.1446C40.6725 32.1446 41.2856 32.573 41.5303 33.2844L40.865 33.5492C40.7129 33.113 40.3494 32.8612 39.9074 32.8612C39.3157 32.8612 38.8618 33.3129 38.8618 34.071C38.8618 34.8291 39.3157 35.2834 39.9074 35.2834C40.3494 35.2834 40.7129 35.029 40.865 34.5928L41.5303 34.8576C41.2856 35.569 40.6725 36 39.9074 36ZM44.2321 35.2601H45.3085V35.9481H43.5192V32.1966H44.2321V35.2601ZM47.3972 31.846L48.0197 30.8906L48.3572 31.1528L47.8178 31.846L47.3972 31.846ZM47.257 35.9481V32.1966H47.9699V35.9481H47.257ZM52.6059 32.1966H53.3164V35.9481H52.4918L50.971 33.2662V35.9481H50.2606V32.1966H51.0756L52.6059 34.8629V32.1966ZM55.6094 35.9481V32.1966H56.3222V35.9481H55.6094ZM60.1337 36C59.1238 36 58.3777 35.2497 58.3777 34.071C58.3777 32.8923 59.1238 32.1446 60.1337 32.1446C60.8988 32.1446 61.5119 32.573 61.7566 33.2844L61.0913 33.5492C60.9392 33.113 60.5757 32.8612 60.1337 32.8612C59.542 32.8612 59.0881 33.3129 59.0881 34.071C59.0881 34.8291 59.542 35.2834 60.1337 35.2834C60.5757 35.2834 60.9392 35.029 61.0913 34.5928L61.7566 34.8576C61.5119 35.569 60.8988 36 60.1337 36ZM66.0434 35.9481L65.7939 35.1744H64.3516L64.1021 35.9481H63.3726L64.6367 32.1966H65.5088L66.7729 35.9481H66.0434ZM64.5606 34.5228H65.5847L65.0738 32.9313L64.5606 34.5228ZM71.3613 35.9481V32.1966H72.604C73.6995 32.1966 74.2412 32.9495 74.2412 34.0711C74.2412 35.1953 73.6994 35.9482 72.604 35.9482L71.3613 35.9481ZM72.0741 35.2601H72.5684C73.2005 35.2601 73.4904 34.8291 73.4904 34.071C73.4904 33.3129 73.2005 32.8819 72.5684 32.8819H72.0741V35.2601ZM78.3046 32.882H77.031V33.7336H78.1597V34.4112H77.031V35.2601H78.3046V35.9481H76.3133V32.1967H78.3046V32.882ZM84.5397 32.1966C85.2122 32.1966 85.6304 32.7419 85.6304 33.4091C85.6304 34.0919 85.2122 34.6033 84.5397 34.6033H83.8245V35.9482H83.1116V32.1967L84.5397 32.1966ZM84.4209 33.9516C84.7773 33.9516 84.9437 33.7361 84.9437 33.3986C84.9437 33.0741 84.7773 32.8482 84.4209 32.8482H83.8245V33.9516H84.4209ZM88.7741 36C88.0375 36 87.4625 35.6132 87.3579 34.9096L88.0945 34.7253C88.1421 35.1458 88.4248 35.3639 88.8027 35.3639C89.0926 35.3639 89.323 35.2237 89.3207 34.907C89.3183 34.5539 88.9381 34.4423 88.5199 34.302C88.0161 34.1307 87.4767 33.9282 87.4767 33.2376C87.4767 32.5392 87.9995 32.1446 88.6886 32.1446C89.2922 32.1446 89.9005 32.412 90.0383 33.1312L89.3492 33.3181C89.2851 32.9442 89.0546 32.7807 88.7314 32.7807C88.4439 32.7807 88.1991 32.9105 88.1991 33.2194C88.1991 33.5076 88.5365 33.6037 88.9262 33.7309C89.4442 33.9022 90.0573 34.1203 90.0573 34.868C90.0573 35.665 89.4466 36 88.7741 36ZM92.1198 35.9481V32.1966H92.8327V35.9481H92.1198ZM96.6441 36C95.6343 36 94.8881 35.2497 94.8881 34.071C94.8881 32.8923 95.6343 32.1446 96.6441 32.1446C97.4093 32.1446 98.0224 32.573 98.2671 33.2844L97.6017 33.5492C97.4497 33.113 97.0861 32.8612 96.6441 32.8612C96.0525 32.8612 95.5986 33.3129 95.5986 34.071C95.5986 34.8291 96.0525 35.2834 96.6441 35.2834C97.0861 35.2834 97.4497 35.029 97.6017 34.5928L98.2671 34.8576C98.0223 35.569 97.4093 36 96.6441 36ZM101.777 36C100.767 36 100.021 35.2471 100.021 34.071C100.021 32.8923 100.767 32.1446 101.777 32.1446C102.784 32.1446 103.53 32.8923 103.53 34.071C103.53 35.2471 102.784 36 101.777 36ZM101.777 35.2861C102.368 35.2861 102.822 34.8317 102.822 34.071C102.822 33.3129 102.368 32.8612 101.777 32.8612C101.185 32.8612 100.731 33.3129 100.731 34.071C100.731 34.8317 101.185 35.2861 101.777 35.2861ZM106.303 35.2601H107.38V35.9481H105.591V32.1966H106.303V35.2601ZM110.849 36C109.839 36 109.093 35.2471 109.093 34.071C109.093 32.8923 109.839 32.1446 110.849 32.1446C111.857 32.1446 112.603 32.8923 112.603 34.071C112.603 35.2471 111.857 36 110.849 36ZM110.849 35.2861C111.441 35.2861 111.895 34.8317 111.895 34.071C111.895 33.3129 111.441 32.8612 110.849 32.8612C110.257 32.8612 109.804 33.3129 109.804 34.071C109.804 34.8317 110.257 35.2861 110.849 35.2861ZM116.148 36C115.157 36 114.428 35.2523 114.428 34.0814C114.428 32.8949 115.174 32.1446 116.184 32.1446C116.847 32.1446 117.396 32.464 117.695 33.0273L117.07 33.3908C116.889 33.0066 116.566 32.8222 116.184 32.8222C115.59 32.8222 115.143 33.2688 115.143 34.0632C115.143 34.8291 115.561 35.3224 116.21 35.3224C116.649 35.3224 117.053 35.0835 117.151 34.5357H116.212V33.91H117.826V35.9481H117.265V35.4288C117.044 35.7845 116.673 36 116.148 36ZM119.969 35.9481V32.1966H120.682V35.9481H119.969ZM125.27 35.9481L125.021 35.1744H123.579L123.329 35.9481H122.6L123.864 32.1966H124.736L126 35.9481H125.27ZM123.788 34.5228H124.812L124.301 32.9313L123.788 34.5228Z" fill="#415DA1"/>
</g>
<defs>
<clipPath id="clip0_310_25">
<rect width="126" height="36" fill="white"/>
</clipPath>
</defs>
</svg>
