<svg width="472" height="470" viewBox="0 0 472 470" fill="none" xmlns="http://www.w3.org/2000/svg">
<path d="M235.55 470C365.641 470 471.1 409.111 471.1 334C471.1 258.889 365.641 198 235.55 198C105.459 198 0 258.889 0 334C0 409.111 105.459 470 235.55 470Z" fill="#F5F5F5"/>
<path d="M279.24 10.2099L134.59 93.7199C133.169 94.6519 131.987 95.905 131.139 97.378C130.291 98.8511 129.802 100.503 129.71 102.2V427.67C129.71 430.79 131.9 432.06 134.59 430.49L279.24 347C280.66 346.067 281.841 344.813 282.689 343.341C283.537 341.868 284.027 340.217 284.12 338.52V12.9999C284.12 9.90991 281.93 8.63991 279.24 10.2099ZM277.08 315.21C277.08 317.88 275.21 319.58 272.89 320.91L140.45 397.41C138.14 398.74 136.26 397.66 136.26 394.98V125.36C136.34 123.905 136.761 122.488 137.488 121.225C138.216 119.963 139.231 118.889 140.45 118.09L272.89 41.6299C275.21 40.2899 277.08 41.3799 277.08 44.0499V315.21Z" fill="#415DA1"/>
<path opacity="0.5" d="M279.24 10.2099L134.59 93.7199C133.169 94.6519 131.987 95.905 131.139 97.378C130.291 98.8511 129.802 100.503 129.71 102.2V427.67C129.71 430.79 131.9 432.06 134.59 430.49L279.24 347C280.66 346.067 281.841 344.813 282.689 343.341C283.537 341.868 284.027 340.217 284.12 338.52V12.9999C284.12 9.90991 281.93 8.63991 279.24 10.2099ZM277.08 315.21C277.08 317.88 275.21 319.58 272.89 320.91L140.45 397.41C138.14 398.74 136.26 397.66 136.26 394.98V125.36C136.34 123.905 136.761 122.488 137.488 121.225C138.216 119.963 139.231 118.889 140.45 118.09L272.89 41.6299C275.21 40.2899 277.08 41.3799 277.08 44.0499V315.21Z" fill="black"/>
<path d="M134 430.8C132.539 431.418 130.962 431.712 129.377 431.66C127.792 431.608 126.237 431.212 124.82 430.5L119.23 427.26C117.8 426.337 116.609 425.088 115.756 423.616C114.902 422.143 114.41 420.49 114.32 418.79V93.33C114.352 92.0682 114.641 90.8262 115.17 89.68C115.341 89.2761 115.535 88.8822 115.75 88.5L131.15 97.39C130.82 97.9636 130.536 98.5621 130.3 99.18C129.93 100.138 129.73 101.153 129.71 102.18V427.67C129.71 430.54 131.57 431.85 134 430.8Z" fill="#415DA1"/>
<path opacity="0.6" d="M134 430.8C132.539 431.418 130.962 431.712 129.377 431.66C127.792 431.608 126.237 431.212 124.82 430.5L119.23 427.26C117.8 426.337 116.609 425.088 115.756 423.616C114.902 422.143 114.41 420.49 114.32 418.79V93.33C114.352 92.0682 114.641 90.8262 115.17 89.68C115.341 89.2761 115.535 88.8822 115.75 88.5L131.15 97.39C130.82 97.9636 130.536 98.5621 130.3 99.18C129.93 100.138 129.73 101.153 129.71 102.18V427.67C129.71 430.54 131.57 431.85 134 430.8Z" fill="black"/>
<path d="M210.12 366.4C212.62 366.4 212.89 369.2 212.89 370.4C212.735 372.817 212.022 375.166 210.808 377.261C209.593 379.357 207.91 381.143 205.89 382.48C205.076 382.986 204.147 383.279 203.19 383.33C200.69 383.33 200.42 380.52 200.42 379.33C200.573 376.912 201.285 374.563 202.499 372.467C203.714 370.371 205.398 368.585 207.42 367.25C208.232 366.739 209.162 366.446 210.12 366.4ZM210.12 364.9C208.898 364.945 207.71 365.307 206.67 365.95C204.432 367.422 202.571 369.401 201.239 371.725C199.906 374.049 199.139 376.654 199 379.33C199 382.82 200.74 384.84 203.27 384.84C204.493 384.794 205.682 384.429 206.72 383.78C208.971 382.319 210.843 380.346 212.185 378.022C213.527 375.698 214.3 373.09 214.44 370.41C214.44 366.92 212.7 364.9 210.17 364.9H210.12Z" fill="#37474F"/>
<path d="M206.81 56.9996C208.62 55.9996 210.09 56.7996 210.09 58.8896C210.027 60.0273 209.698 61.1344 209.128 62.1211C208.558 63.1079 207.764 63.9466 206.81 64.5696C205 65.5696 203.53 64.7696 203.53 62.6696C203.592 61.533 203.921 60.4271 204.491 59.4418C205.061 58.4566 205.855 57.6198 206.81 56.9996Z" fill="#37474F"/>
<path d="M189.19 77.2699L224.64 56.7899C226.15 55.9199 227.38 56.5399 227.38 58.1699C227.311 59.0899 227.028 59.9809 226.552 60.7712C226.076 61.5616 225.421 62.229 224.64 62.7199L189.19 83.1999C187.67 84.0699 186.45 83.4499 186.45 81.8099C186.519 80.8914 186.803 80.002 187.279 79.2135C187.755 78.4249 188.409 77.7591 189.19 77.2699Z" fill="#37474F"/>
<path d="M277.08 315.23C277.08 317.9 275.21 319.6 272.89 320.93L140.45 397.41C138.14 398.74 136.26 397.66 136.26 394.98V125.36C136.34 123.904 136.76 122.488 137.488 121.225C138.216 119.962 139.231 118.888 140.45 118.09L272.89 41.6296C275.21 40.2896 277.08 41.3796 277.08 44.0496V315.23Z" fill="#415DA1"/>
<path opacity="0.8" d="M277.08 315.23C277.08 317.9 275.21 319.6 272.89 320.93L140.45 397.41C138.14 398.74 136.26 397.66 136.26 394.98V125.36C136.34 123.904 136.76 122.488 137.488 121.225C138.216 119.962 139.231 118.888 140.45 118.09L272.89 41.6296C275.21 40.2896 277.08 41.3796 277.08 44.0496V315.23Z" fill="white"/>
<path d="M248.21 322.46L150.21 379.04C148.36 380.11 146.86 378.67 146.86 375.82V370C146.86 367.15 148.36 364 150.21 362.91L248.21 306.33C250.06 305.26 251.56 306.7 251.56 309.55V315.36C251.56 318.22 250.06 321.39 248.21 322.46Z" fill="white"/>
<path d="M256.79 314.92V304C256.79 302.58 257.23 301.92 258.72 301.79L269.07 301.17C270.14 301.37 270.44 302.3 269.74 303.24L258.05 315.84C257.39 316.54 256.79 316.35 256.79 314.92Z" fill="#415DA1"/>
<path d="M284.08 12.2498C283.73 9.70976 281.69 8.78976 279.24 10.2498L134.59 93.7198C133.142 94.6203 131.953 95.8815 131.14 97.3798L115.74 88.4898C116.564 87.0008 117.759 85.7504 119.21 84.8598L263.84 1.32976C265.357 0.56022 267.034 0.15918 268.735 0.15918C270.436 0.15918 272.113 0.56022 273.63 1.32976L279.24 4.54976C280.549 5.41391 281.658 6.54807 282.493 7.87612C283.328 9.20417 283.869 10.6954 284.08 12.2498Z" fill="#415DA1"/>
<path opacity="0.3" d="M284.08 12.2498C283.73 9.70976 281.69 8.78976 279.24 10.2498L134.59 93.7198C133.142 94.6203 131.953 95.8815 131.14 97.3798L115.74 88.4898C116.564 87.0008 117.759 85.7504 119.21 84.8598L263.84 1.32976C265.357 0.56022 267.034 0.15918 268.735 0.15918C270.436 0.15918 272.113 0.56022 273.63 1.32976L279.24 4.54976C280.549 5.41391 281.658 6.54807 282.493 7.87612C283.328 9.20417 283.869 10.6954 284.08 12.2498Z" fill="black"/>
<path d="M237.13 313.748L233.6 311.748C233.225 311.499 232.912 311.166 232.688 310.775C232.465 310.385 232.335 309.947 232.31 309.498V218.648C232.335 218.197 232.466 217.758 232.692 217.368C232.918 216.977 233.232 216.644 233.61 216.398L413.81 112.398C414.212 112.191 414.658 112.083 415.11 112.083C415.562 112.083 416.008 112.191 416.41 112.398L419.93 114.398C420.308 114.644 420.623 114.976 420.849 115.367C421.075 115.758 421.206 116.197 421.23 116.648V207.458C421.206 207.909 421.076 208.348 420.85 208.739C420.624 209.13 420.309 209.462 419.93 209.708L239.74 313.708C239.338 313.918 238.893 314.031 238.44 314.038C237.987 314.045 237.538 313.945 237.13 313.748Z" fill="#37474F"/>
<path d="M239.73 219.938L419.92 115.938C420.64 115.528 421.22 115.858 421.22 116.688V207.498C421.197 207.949 421.066 208.388 420.84 208.779C420.615 209.17 420.299 209.502 419.92 209.748L239.73 313.748C239.01 314.158 238.43 313.818 238.43 312.998V222.188C238.454 221.737 238.584 221.297 238.81 220.906C239.036 220.515 239.351 220.183 239.73 219.938Z" fill="#455A64"/>
<path d="M239.44 313.878C239.068 314.015 238.671 314.073 238.276 314.049C237.88 314.025 237.493 313.919 237.14 313.738L233.62 311.738C233.243 311.49 232.929 311.158 232.703 310.767C232.477 310.376 232.346 309.938 232.32 309.488V218.648C232.334 218.195 232.465 217.754 232.7 217.368L238.82 220.898C238.585 221.284 238.454 221.725 238.44 222.178V312.988C238.44 313.698 238.85 314.068 239.44 313.878Z" fill="#263238"/>
<path d="M247.82 258.558L257.82 252.778C259.02 252.088 259.99 252.578 259.99 253.868C259.937 254.596 259.713 255.302 259.336 255.928C258.959 256.553 258.44 257.081 257.82 257.468L247.82 263.248C246.63 263.938 245.66 263.448 245.66 262.148C245.714 261.422 245.938 260.719 246.313 260.096C246.688 259.472 247.204 258.945 247.82 258.558Z" fill="#E0E0E0"/>
<path d="M265.26 248.478L290.74 233.768C291.93 233.078 292.9 233.568 292.9 234.868C292.846 235.593 292.622 236.296 292.247 236.92C291.872 237.543 291.356 238.07 290.74 238.458L265.25 253.178C264.06 253.868 263.09 253.378 263.09 252.078C263.143 251.349 263.367 250.643 263.744 250.018C264.121 249.392 264.64 248.865 265.26 248.478Z" fill="#E0E0E0"/>
<path d="M297.1 230.067L324.57 214.227C325.77 213.537 326.74 214.027 326.74 215.317C326.687 216.046 326.463 216.752 326.086 217.377C325.709 218.003 325.19 218.53 324.57 218.917L297.1 234.757C295.9 235.447 294.93 234.957 294.93 233.667C294.983 232.939 295.207 232.233 295.584 231.608C295.961 230.982 296.481 230.454 297.1 230.067Z" fill="#E0E0E0"/>
<path d="M247.81 230.417L273.3 215.707C274.49 215.017 275.46 215.507 275.46 216.797C275.407 217.525 275.185 218.23 274.809 218.855C274.434 219.48 273.917 220.009 273.3 220.397L247.81 235.067C246.62 235.757 245.65 235.267 245.65 233.967C245.71 233.249 245.936 232.554 246.311 231.938C246.686 231.322 247.199 230.801 247.81 230.417Z" fill="#E0E0E0"/>
<path d="M279.66 212.067L303.22 198.467C304.42 197.777 305.38 198.267 305.38 199.567C305.329 200.294 305.106 200.997 304.731 201.621C304.355 202.245 303.838 202.771 303.22 203.157L279.65 216.767C278.46 217.457 277.49 216.967 277.49 215.667C277.543 214.939 277.767 214.233 278.144 213.608C278.521 212.982 279.041 212.454 279.66 212.067Z" fill="#E0E0E0"/>
<path d="M309.72 194.657L325.26 185.657C326.45 184.967 327.42 185.457 327.42 186.757C327.366 187.483 327.142 188.186 326.767 188.809C326.392 189.433 325.876 189.96 325.26 190.347L309.72 199.347C308.52 200.037 307.55 199.547 307.55 198.247C307.604 197.521 307.829 196.817 308.206 196.193C308.583 195.569 309.102 195.043 309.72 194.657Z" fill="#E0E0E0"/>
<path d="M247.81 272.608L273.3 257.898C274.49 257.208 275.46 257.698 275.46 258.998C275.406 259.723 275.182 260.426 274.807 261.05C274.432 261.673 273.916 262.2 273.3 262.588L247.81 277.308C246.62 277.998 245.65 277.508 245.65 276.208C245.702 275.48 245.925 274.775 246.301 274.15C246.676 273.525 247.193 272.996 247.81 272.608Z" fill="#E0E0E0"/>
<path d="M279.66 254.227L303.22 240.627C304.42 239.927 305.38 240.427 305.38 241.717C305.329 242.445 305.107 243.151 304.732 243.776C304.356 244.402 303.838 244.93 303.22 245.317L279.65 258.917C278.46 259.607 277.49 259.117 277.49 257.827C277.543 257.099 277.767 256.393 278.144 255.767C278.521 255.142 279.041 254.614 279.66 254.227Z" fill="#E0E0E0"/>
<path d="M309.72 236.847L325.26 227.897C326.45 227.207 327.42 227.697 327.42 228.987C327.367 229.715 327.144 230.42 326.769 231.045C326.394 231.67 325.877 232.199 325.26 232.587L309.72 241.587C308.52 242.277 307.55 241.787 307.55 240.487C307.596 239.752 307.818 239.038 308.195 238.405C308.572 237.772 309.095 237.238 309.72 236.847Z" fill="#E0E0E0"/>
<path d="M247.81 244.487L295.86 216.757C297.06 216.067 298.03 216.557 298.03 217.857C297.976 218.584 297.751 219.288 297.374 219.912C296.997 220.535 296.478 221.061 295.86 221.447L247.81 249.187C246.62 249.877 245.65 249.387 245.65 248.087C245.702 247.36 245.925 246.655 246.301 246.03C246.676 245.404 247.193 244.876 247.81 244.487Z" fill="#E0E0E0"/>
<path d="M302.83 212.718L324.54 200.218C325.74 199.528 326.71 200.018 326.71 201.308C326.657 202.036 326.433 202.742 326.056 203.367C325.679 203.993 325.16 204.521 324.54 204.908L302.83 217.408C301.63 218.108 300.66 217.608 300.66 216.318C300.713 215.589 300.937 214.883 301.314 214.258C301.691 213.632 302.211 213.105 302.83 212.718Z" fill="#E0E0E0"/>
<path d="M417.16 211.297L418.61 223.297C418.644 223.574 418.6 223.855 418.483 224.108C418.366 224.361 418.181 224.577 417.948 224.73C417.715 224.884 417.444 224.97 417.166 224.978C416.887 224.987 416.611 224.917 416.37 224.777L404.89 218.197L417.16 211.297Z" fill="#455A64"/>
<path d="M257.83 281.308C257.647 281.227 257.449 281.184 257.248 281.18C257.048 281.177 256.849 281.214 256.662 281.288C256.476 281.363 256.307 281.473 256.164 281.614C256.021 281.755 255.907 281.923 255.83 282.108L250.17 295.578L248.82 294.268C248.529 294.026 248.158 293.903 247.78 293.923C247.402 293.944 247.046 294.106 246.783 294.378C246.52 294.65 246.37 295.011 246.362 295.389C246.354 295.768 246.489 296.135 246.74 296.418L249.66 299.258C249.929 299.518 250.286 299.668 250.66 299.678C250.76 299.687 250.86 299.687 250.96 299.678C251.198 299.63 251.421 299.525 251.609 299.372C251.798 299.218 251.945 299.021 252.04 298.798L258.55 283.298C258.718 282.938 258.736 282.527 258.601 282.154C258.466 281.781 258.189 281.477 257.83 281.308Z" fill="#415DA1"/>
<path d="M270.51 273.937C270.327 273.855 270.129 273.811 269.928 273.807C269.727 273.803 269.527 273.839 269.341 273.914C269.154 273.989 268.985 274.1 268.842 274.241C268.699 274.383 268.586 274.551 268.51 274.737L262.85 288.207L261.5 286.897C261.361 286.745 261.193 286.623 261.004 286.538C260.816 286.454 260.613 286.409 260.407 286.407C260.2 286.405 259.996 286.446 259.806 286.526C259.616 286.606 259.445 286.725 259.303 286.875C259.161 287.024 259.052 287.201 258.981 287.395C258.911 287.589 258.881 287.795 258.894 288.001C258.907 288.206 258.962 288.407 259.056 288.591C259.15 288.774 259.281 288.937 259.44 289.067L262.36 291.907C262.537 292.076 262.752 292.2 262.987 292.268C263.222 292.336 263.47 292.346 263.71 292.297C263.949 292.248 264.172 292.141 264.36 291.986C264.548 291.831 264.696 291.632 264.79 291.407L271.3 275.917C271.379 275.736 271.422 275.54 271.425 275.342C271.428 275.143 271.392 274.947 271.318 274.763C271.245 274.578 271.135 274.411 270.997 274.269C270.858 274.127 270.693 274.015 270.51 273.937Z" fill="#415DA1"/>
<path d="M375.54 145.318C355.4 156.958 339.07 185.228 339.07 208.488C339.07 231.748 355.44 241.178 375.54 229.548C395.64 217.918 412.03 189.628 412.01 166.378C411.99 143.128 395.66 133.688 375.54 145.318Z" fill="#415DA1"/>
<path opacity="0.4" d="M375.54 145.318C355.4 156.958 339.07 185.228 339.07 208.488C339.07 231.748 355.44 241.178 375.54 229.548C395.64 217.918 412.03 189.628 412.01 166.378C411.99 143.128 395.66 133.688 375.54 145.318Z" fill="white"/>
<path d="M301.44 197.278C305.772 204.816 310.485 212.128 315.56 219.188C316.81 220.868 320.33 225.498 322.17 225.958C324.52 226.538 326.51 224.688 327.75 223.828C331.99 220.878 353.93 199.068 353.93 199.068C360.76 189.548 359.04 183.478 358.11 183.478C357.18 183.478 350.18 181.638 344.19 187.478C339.65 191.908 324.14 207.938 324.14 207.938C320.48 203.638 318.08 201.508 314.43 197.198C312.65 195.098 309.95 192.838 309.82 189.958C309.835 188.637 309.956 187.319 310.18 186.018C310.391 183.005 310.196 179.978 309.6 177.018C309.587 176.883 309.553 176.752 309.5 176.628C309.405 176.46 309.252 176.332 309.07 176.268C308.733 176.171 308.373 176.189 308.047 176.319C307.721 176.45 307.447 176.685 307.27 176.988C306.928 177.6 306.743 178.287 306.73 178.988C306.709 179.677 306.556 180.356 306.28 180.988C306.22 181.117 306.131 181.23 306.02 181.318C305.893 181.393 305.748 181.435 305.6 181.438C304.76 181.438 304.32 180.528 304.01 179.868C303.291 178.325 302.709 176.722 302.27 175.078C301.97 173.948 301.45 172.858 301.06 171.738C300.909 171.071 300.56 170.464 300.06 169.998C299.15 169.338 297.87 169.708 296.87 170.208C296.308 170.482 295.779 170.818 295.29 171.208C293.857 172.525 292.909 174.286 292.6 176.208C292.2 178.437 292.351 180.73 293.04 182.888C293.904 185.916 295.329 188.755 297.24 191.258C298.64 193.258 300.18 195.168 301.44 197.278Z" fill="#FFA8A7"/>
<path d="M360.06 183.448C360.06 183.448 353.23 180.758 347.06 184.738C340.89 188.718 324.14 207.948 324.14 207.948L319.93 203.268C319.93 203.268 317.7 211.538 310.72 212.268C310.72 212.268 316.2 221.208 319.26 224.508C322.32 227.808 324.76 227.198 328.26 224.508C331.76 221.818 348.82 206.068 348.82 206.068C352.619 203.723 355.686 200.362 357.673 196.364C359.659 192.366 360.486 187.892 360.06 183.448Z" fill="#415DA1"/>
<path opacity="0.25" d="M360.06 183.448C360.06 183.448 353.23 180.758 347.06 184.738C340.89 188.718 324.14 207.948 324.14 207.948L319.93 203.268C319.93 203.268 317.7 211.538 310.72 212.268C310.72 212.268 316.2 221.208 319.26 224.508C322.32 227.808 324.76 227.198 328.26 224.508C331.76 221.818 348.82 206.068 348.82 206.068C352.619 203.723 355.686 200.362 357.673 196.364C359.659 192.366 360.486 187.892 360.06 183.448Z" fill="black"/>
<path d="M394.68 203.997L394.38 212.627C393.63 213.627 392.85 214.537 392.06 215.457C387.379 221.044 381.795 225.807 375.54 229.547C364.03 236.197 353.77 235.957 347.09 230.197C347 219.697 347.02 206.707 347.58 200.847C348.58 190.167 352.17 184.737 357.58 183.557C360.16 182.987 379.5 184.747 379.5 184.747L390.21 187.427C390.441 187.537 390.665 187.66 390.88 187.797C392.52 188.797 393.33 190.667 394.18 193.357C394.79 195.307 394.68 200.367 394.68 203.997Z" fill="#F5F5F5"/>
<path d="M378.33 153.068C378.144 155.655 377.194 158.128 375.601 160.175C374.008 162.222 371.843 163.75 369.381 164.565C366.918 165.38 364.269 165.446 361.769 164.754C359.269 164.062 357.031 162.644 355.338 160.679C353.645 158.713 352.574 156.29 352.26 153.715C351.946 151.14 352.403 148.53 353.574 146.216C354.745 143.901 356.576 141.986 358.836 140.714C361.097 139.441 363.684 138.868 366.27 139.068C369.722 139.334 372.929 140.956 375.189 143.579C377.449 146.202 378.578 149.614 378.33 153.068Z" fill="#263238"/>
<path d="M387.14 163.067C387.14 163.067 384.26 172.857 383.28 174.427C382.636 175.388 381.648 176.064 380.52 176.317L381.21 169.317L387.14 163.067Z" fill="#263238"/>
<path d="M385.5 148.618C385.612 148.31 385.788 148.029 386.015 147.793C386.243 147.557 386.517 147.371 386.82 147.248C387.229 147.124 387.661 147.1 388.08 147.178C390.73 147.528 392.27 149.908 392.42 152.458C392.449 154.329 392.084 156.186 391.35 157.908C390.911 159.263 390.211 160.52 389.29 161.608C388.849 162.097 388.311 162.489 387.71 162.759C387.109 163.029 386.459 163.172 385.8 163.178C384.907 163.1 384.007 163.127 383.12 163.258C383.42 161.431 383.727 159.608 384.04 157.788L384.79 153.308C384.9 152.648 385.04 151.988 385.12 151.308C385.135 150.416 385.256 149.53 385.48 148.668L385.5 148.618Z" fill="#263238"/>
<path d="M381.92 163.167C382.68 163.707 383.92 162.257 385.01 161.297C386.1 160.337 389.4 159.177 390.75 162.687C392.1 166.197 388.75 170.577 386.12 171.187C381.65 172.187 381.21 169.367 381.21 169.367L379.67 185.567C373.67 192.107 358.54 191.867 365.37 185.077L365.87 178.797C363.9 178.955 361.919 178.905 359.96 178.647C356.78 177.907 354.96 175.217 354.25 171.647C353.11 165.937 352.86 161.387 355.03 150.507C357.41 138.577 371.42 139.507 378.62 144.867C385.82 150.227 381.92 163.167 381.92 163.167Z" fill="#FFA8A7"/>
<path d="M386.82 153.178C387.14 152.028 386.57 150.848 386.82 149.678C387.07 148.508 387.82 148.028 388.24 147.078C389.01 145.258 388 143.818 386.58 142.658C380.99 138.108 373.09 137.728 366.8 134.228C365.892 133.656 364.935 133.168 363.94 132.768C363.438 132.574 362.902 132.487 362.365 132.511C361.828 132.535 361.302 132.67 360.82 132.908C360.41 133.176 360.058 133.525 359.785 133.932C359.512 134.339 359.323 134.796 359.23 135.278C359.102 136.245 359.059 137.222 359.1 138.198C358.18 138.198 357.36 137.568 356.42 137.478C355.412 137.366 354.394 137.539 353.48 137.978C352.865 138.234 352.36 138.698 352.05 139.288C351.864 139.758 351.785 140.263 351.82 140.768C351.871 142.388 352.308 143.972 353.094 145.39C353.88 146.807 354.993 148.017 356.34 148.918C357.281 149.517 358.287 150.007 359.34 150.378C361.104 151.088 362.988 151.454 364.89 151.458C366.807 151.452 368.655 150.74 370.08 149.458C370.931 151.228 372.335 152.674 374.08 153.578C374.963 154.012 375.937 154.231 376.921 154.215C377.905 154.199 378.871 153.95 379.74 153.488C379.85 156.148 380.17 158.788 380.33 161.488C380.28 162.35 380.563 163.198 381.12 163.858C382.67 165.298 384.01 162.088 384.95 161.358C385.5 160.928 385.55 159.848 385.62 159.228C385.69 158.608 385.75 157.938 385.77 157.298C385.698 156.885 385.665 156.466 385.67 156.048C385.97 154.988 386.56 154.128 386.82 153.178Z" fill="#263238"/>
<path d="M388.17 148.238L393.17 146.008C393.041 145.671 392.844 145.364 392.593 145.105C392.342 144.846 392.041 144.641 391.708 144.502C391.376 144.363 391.018 144.292 390.657 144.295C390.297 144.298 389.94 144.373 389.61 144.518C388.939 144.836 388.417 145.399 388.149 146.091C387.881 146.783 387.888 147.551 388.17 148.238Z" fill="#263238"/>
<path d="M365.87 178.798C365.87 178.798 373.15 177.898 375.76 176.798C377.29 176.143 378.587 175.042 379.48 173.638C378.991 175.075 378.215 176.398 377.2 177.528C375.2 179.738 365.72 180.748 365.72 180.748L365.87 178.798Z" fill="#F28F8F"/>
<path d="M367.64 160.268C367.631 160.55 367.705 160.828 367.853 161.068C368.001 161.308 368.216 161.5 368.471 161.619C368.727 161.738 369.012 161.779 369.291 161.738C369.57 161.696 369.831 161.574 370.041 161.386C370.251 161.197 370.401 160.951 370.472 160.679C370.544 160.406 370.533 160.118 370.443 159.851C370.352 159.584 370.185 159.349 369.962 159.176C369.74 159.003 369.471 158.899 369.19 158.878C368.997 158.867 368.803 158.894 368.621 158.958C368.438 159.023 368.27 159.122 368.126 159.251C367.982 159.38 367.865 159.536 367.782 159.711C367.698 159.885 367.65 160.075 367.64 160.268Z" fill="#263238"/>
<path d="M369.58 154.958L372.52 156.888C372.773 156.483 372.859 155.997 372.76 155.531C372.661 155.064 372.385 154.655 371.99 154.388C371.796 154.261 371.578 154.176 371.35 154.136C371.122 154.096 370.888 154.103 370.663 154.156C370.438 154.21 370.225 154.308 370.039 154.446C369.853 154.584 369.697 154.758 369.58 154.958Z" fill="#263238"/>
<path d="M367.73 169.667L363.63 170.857C363.697 171.131 363.819 171.389 363.987 171.615C364.156 171.841 364.368 172.031 364.612 172.174C364.855 172.316 365.124 172.409 365.404 172.445C365.684 172.482 365.968 172.462 366.24 172.387C366.791 172.214 367.254 171.834 367.532 171.327C367.809 170.82 367.88 170.226 367.73 169.667Z" fill="#F28F8F"/>
<path d="M355.57 155.067L358.57 153.127C358.453 152.927 358.297 152.753 358.111 152.615C357.924 152.478 357.712 152.38 357.486 152.327C357.26 152.275 357.026 152.269 356.798 152.31C356.57 152.352 356.353 152.439 356.16 152.567C355.759 152.828 355.474 153.234 355.364 153.699C355.254 154.165 355.328 154.655 355.57 155.067Z" fill="#263238"/>
<path d="M356.14 158.978C356.131 159.26 356.205 159.538 356.353 159.778C356.501 160.018 356.716 160.21 356.971 160.329C357.227 160.448 357.512 160.489 357.791 160.448C358.07 160.406 358.331 160.284 358.541 160.096C358.751 159.907 358.901 159.661 358.972 159.389C359.044 159.116 359.033 158.828 358.943 158.561C358.852 158.294 358.685 158.059 358.462 157.886C358.24 157.713 357.971 157.609 357.69 157.588C357.497 157.577 357.303 157.604 357.121 157.668C356.938 157.732 356.77 157.832 356.626 157.961C356.482 158.09 356.365 158.246 356.282 158.421C356.198 158.595 356.15 158.785 356.14 158.978Z" fill="#263238"/>
<path d="M362.93 158.167L361.79 166.777L357.4 164.887L362.93 158.167Z" fill="#F28F8F"/>
<path d="M404.44 196.378C401.663 202.139 398.277 207.587 394.34 212.628C393.59 213.628 392.81 214.538 392.02 215.458C386.95 206.458 385.72 191.458 388.46 186.998L391.29 187.428C394.032 187.778 396.652 188.772 398.937 190.327C401.222 191.882 403.108 193.956 404.44 196.378Z" fill="#415DA1"/>
<g opacity="0.25">
<path d="M404.44 196.378C401.663 202.139 398.277 207.587 394.34 212.628C393.59 213.628 392.81 214.538 392.02 215.458C386.95 206.458 385.72 191.458 388.46 186.998L391.29 187.428C394.032 187.778 396.652 188.772 398.937 190.327C401.222 191.882 403.108 193.956 404.44 196.378Z" fill="black"/>
</g>
<path d="M151.83 231.648L148.3 229.648C147.922 229.401 147.607 229.069 147.381 228.678C147.155 228.287 147.024 227.849 147 227.398V136.558C147.024 136.107 147.154 135.668 147.38 135.277C147.606 134.885 147.921 134.553 148.3 134.308L328.49 30.3077C328.893 30.1054 329.339 30 329.79 30C330.241 30 330.687 30.1054 331.09 30.3077L334.62 32.3077C334.998 32.554 335.313 32.8862 335.539 33.2771C335.765 33.6681 335.896 34.1068 335.92 34.5577V125.368C335.896 125.819 335.766 126.258 335.54 126.649C335.314 127.04 334.999 127.372 334.62 127.618L154.44 231.648C154.037 231.856 153.589 231.965 153.135 231.965C152.681 231.965 152.233 231.856 151.83 231.648Z" fill="#415DA1"/>
<path opacity="0.4" d="M335.87 34.1677C335.7 33.6277 335.2 33.4577 334.62 33.8077L154.44 137.838C154.055 138.089 153.739 138.433 153.52 138.838L147.39 135.308C147.606 134.901 147.923 134.557 148.31 134.308L328.51 30.3077C328.914 30.1054 329.359 30 329.81 30C330.262 30 330.707 30.1054 331.11 30.3077L334.63 32.3077C334.951 32.5186 335.226 32.792 335.439 33.1115C335.652 33.4311 335.799 33.7903 335.87 34.1677Z" fill="white"/>
<path d="M154.44 137.848L334.63 33.8477C335.35 33.4377 335.93 33.7677 335.93 34.5977V125.368C335.906 125.819 335.776 126.258 335.55 126.649C335.324 127.04 335.009 127.372 334.63 127.618L154.44 231.648C153.72 232.068 153.14 231.728 153.14 230.898V140.068C153.168 139.622 153.301 139.189 153.526 138.803C153.752 138.418 154.065 138.091 154.44 137.848Z" fill="#415DA1"/>
<path opacity="0.15" d="M154.12 231.788C153.749 231.924 153.354 231.983 152.96 231.958C152.566 231.934 152.181 231.829 151.83 231.648L148.31 229.648C147.932 229.4 147.618 229.068 147.393 228.677C147.167 228.286 147.036 227.848 147.01 227.398V136.558C147.02 136.106 147.148 135.665 147.38 135.278L153.51 138.808C153.272 139.194 153.138 139.635 153.12 140.088V230.898C153.12 231.608 153.55 231.958 154.12 231.788Z" fill="black"/>
<path d="M157.19 230.068V239.328C157.189 239.649 157.291 239.962 157.481 240.221C157.671 240.48 157.939 240.671 158.246 240.766C158.552 240.862 158.882 240.856 159.185 240.75C159.488 240.644 159.749 240.443 159.93 240.178L173.44 220.678L157.19 230.068Z" fill="#415DA1"/>
<path d="M244.67 127.958L254.67 122.178C255.86 121.488 256.83 121.978 256.83 123.278C256.776 124.003 256.552 124.706 256.177 125.33C255.802 125.953 255.286 126.48 254.67 126.868L244.67 132.648C243.47 133.338 242.5 132.848 242.5 131.558C242.553 130.829 242.777 130.124 243.154 129.498C243.531 128.872 244.05 128.345 244.67 127.958Z" fill="#FAFAFA"/>
<path d="M262.1 117.888L287.58 103.178C288.78 102.488 289.75 102.978 289.75 104.268C289.697 104.996 289.473 105.702 289.096 106.327C288.719 106.953 288.2 107.481 287.58 107.868L262.1 122.578C260.9 123.268 259.93 122.778 259.93 121.478C259.985 120.751 260.209 120.047 260.586 119.423C260.963 118.8 261.482 118.274 262.1 117.888Z" fill="#FAFAFA"/>
<path d="M293.94 99.4978L322.7 82.9078C323.89 82.2178 324.86 82.7078 324.86 84.0078C324.806 84.7334 324.582 85.4363 324.207 86.0598C323.832 86.6833 323.316 87.2101 322.7 87.5978L293.94 104.188C292.75 104.878 291.78 104.388 291.78 103.098C291.832 102.37 292.055 101.666 292.43 101.04C292.806 100.415 293.323 99.8864 293.94 99.4978Z" fill="#FAFAFA"/>
<path d="M244.66 99.8179L270.14 85.0679C271.34 84.3779 272.3 84.8679 272.3 86.1679C272.249 86.8942 272.026 87.598 271.651 88.2219C271.275 88.8457 270.758 89.3721 270.14 89.7579L244.66 104.468C243.46 105.158 242.49 104.668 242.49 103.378C242.549 102.656 242.776 101.959 243.153 101.34C243.53 100.722 244.046 100.201 244.66 99.8179Z" fill="#FAFAFA"/>
<path d="M276.5 81.4377L300.06 67.8277C301.26 67.1377 302.23 67.6277 302.23 68.9277C302.176 69.6545 301.951 70.3582 301.574 70.9819C301.197 71.6056 300.678 72.1318 300.06 72.5177L276.5 86.1277C275.3 86.8177 274.33 86.3277 274.33 85.0277C274.386 84.3013 274.611 83.5982 274.988 82.9747C275.365 82.3512 275.883 81.8248 276.5 81.4377Z" fill="#FAFAFA"/>
<path d="M306.56 64.0675L323.38 54.3575C324.58 53.6675 325.55 54.1575 325.55 55.4575C325.499 56.1877 325.275 56.8955 324.898 57.5229C324.521 58.1503 324.001 58.6796 323.38 59.0675L306.56 68.7775C305.37 69.4675 304.4 68.9775 304.4 67.6875C304.449 66.9566 304.671 66.2477 305.046 65.6186C305.422 64.9896 305.94 64.4581 306.56 64.0675Z" fill="#FAFAFA"/>
<path d="M244.66 142.068L270.14 127.358C271.34 126.668 272.3 127.158 272.3 128.448C272.249 129.176 272.027 129.881 271.652 130.507C271.276 131.132 270.758 131.66 270.14 132.048L244.66 146.758C243.46 147.448 242.49 146.958 242.49 145.658C242.545 144.931 242.769 144.227 243.146 143.604C243.523 142.98 244.042 142.454 244.66 142.068Z" fill="#FAFAFA"/>
<path d="M276.5 123.628L300.06 110.068C301.26 109.378 302.23 109.868 302.23 111.158C302.177 111.886 301.953 112.592 301.576 113.218C301.199 113.843 300.68 114.371 300.06 114.758L276.5 128.358C275.3 129.048 274.33 128.558 274.33 127.268C274.378 126.533 274.6 125.82 274.977 125.187C275.355 124.554 275.876 124.02 276.5 123.628Z" fill="#FAFAFA"/>
<path d="M306.56 106.258L323.38 96.5477C324.58 95.8577 325.55 96.3477 325.55 97.6377C325.497 98.3662 325.273 99.072 324.896 99.6975C324.519 100.323 323.999 100.851 323.38 101.238L306.56 110.948C305.37 111.638 304.4 111.148 304.4 109.848C304.454 109.122 304.678 108.419 305.053 107.796C305.428 107.172 305.944 106.645 306.56 106.258Z" fill="#FAFAFA"/>
<path d="M244.66 113.898L292.66 86.1578C293.85 85.4678 294.82 85.9578 294.82 87.2578C294.766 87.9834 294.543 88.6863 294.167 89.3098C293.792 89.9333 293.276 90.4601 292.66 90.8478L244.66 118.588C243.46 119.278 242.49 118.788 242.49 117.488C242.545 116.761 242.769 116.057 243.146 115.434C243.523 114.81 244.042 114.284 244.66 113.898Z" fill="#FAFAFA"/>
<path d="M299.67 82.1275L322.67 68.8675C323.87 68.1775 324.84 68.6675 324.84 69.9575C324.787 70.686 324.563 71.3918 324.186 72.0174C323.809 72.6429 323.289 73.1706 322.67 73.5575L299.67 86.8175C298.47 87.5075 297.5 87.0175 297.51 85.7175C297.564 84.9919 297.787 84.289 298.163 83.6655C298.538 83.042 299.054 82.5152 299.67 82.1275Z" fill="#FAFAFA"/>
<path d="M314.69 117.138C314.507 117.057 314.309 117.014 314.108 117.01C313.908 117.007 313.709 117.044 313.522 117.118C313.336 117.193 313.167 117.304 313.024 117.444C312.881 117.585 312.768 117.753 312.69 117.938L307.03 131.418L305.72 130.068C305.432 129.805 305.054 129.665 304.664 129.677C304.275 129.689 303.906 129.852 303.634 130.131C303.363 130.41 303.211 130.784 303.21 131.173C303.209 131.563 303.36 131.937 303.63 132.218L306.56 135.058C306.826 135.324 307.184 135.479 307.56 135.488C307.66 135.497 307.76 135.497 307.86 135.488C308.1 135.44 308.324 135.334 308.512 135.178C308.7 135.023 308.848 134.824 308.94 134.598L315.49 119.068C315.631 118.705 315.627 118.302 315.478 117.942C315.329 117.582 315.047 117.294 314.69 117.138Z" fill="#455A64"/>
<path d="M327.38 109.768C327.197 109.686 326.998 109.642 326.798 109.638C326.597 109.633 326.397 109.67 326.211 109.744C326.024 109.819 325.854 109.93 325.712 110.072C325.569 110.213 325.456 110.382 325.38 110.568L319.75 124.068L318.44 122.728C318.152 122.466 317.773 122.326 317.384 122.337C316.995 122.349 316.626 122.512 316.354 122.791C316.083 123.07 315.93 123.444 315.93 123.834C315.929 124.223 316.08 124.598 316.35 124.878L319.27 127.718C319.408 127.856 319.571 127.964 319.752 128.038C319.932 128.112 320.125 128.149 320.32 128.148H320.61C320.849 128.097 321.073 127.989 321.263 127.835C321.452 127.68 321.602 127.482 321.7 127.258L328.21 111.758C328.289 111.573 328.331 111.374 328.332 111.173C328.333 110.972 328.294 110.773 328.217 110.587C328.139 110.401 328.025 110.233 327.882 110.092C327.738 109.952 327.567 109.841 327.38 109.768Z" fill="#455A64"/>
<path d="M197.7 117.717C177.56 129.357 161.23 157.627 161.24 180.887C161.25 204.147 177.57 213.577 197.71 201.947C217.85 190.317 234.19 162.027 234.17 138.777C234.15 115.527 217.82 106.067 197.7 117.717Z" fill="#455A64"/>
<path d="M212.94 173.068C206.14 172.788 188.08 170.488 188.08 170.488C182.696 166.981 178.35 162.097 175.49 156.344C172.631 150.59 171.364 144.176 171.82 137.768L172.22 132.148C172.558 126.966 174.653 122.054 178.157 118.221C181.662 114.389 186.368 111.866 191.5 111.068C194.6 110.598 197.766 110.832 200.764 111.751C203.762 112.671 206.515 114.252 208.82 116.379C211.124 118.505 212.921 121.123 214.077 124.038C215.233 126.952 215.72 130.09 215.5 133.218C215.3 135.978 215.6 138.498 217.5 140.658C218.592 141.744 219.803 142.703 221.11 143.518C222.966 144.724 224.584 146.263 225.88 148.058C226.521 148.961 226.971 149.986 227.199 151.07C227.428 152.153 227.432 153.273 227.21 154.358C226.826 155.738 226.056 156.98 224.99 157.938C224.797 158.072 224.664 158.277 224.62 158.508C224.627 158.675 224.678 158.837 224.77 158.978C226.39 161.918 226.87 165.708 225.14 168.588C223.96 170.384 222.193 171.713 220.14 172.348C218.111 172.969 215.99 173.24 213.87 173.148C213.63 173.068 213.28 173.068 212.94 173.068Z" fill="#263238"/>
<path d="M181.09 173.248C180.585 177.012 178.62 180.428 175.62 182.758C174.633 183.533 173.534 184.154 172.36 184.598L167.23 200.508C163.45 196.058 161.23 189.388 161.23 180.868C161.257 177.441 161.591 174.024 162.23 170.658C164.86 164.138 168.23 161.418 175.57 160.658C175.93 160.878 182.33 165.228 181.09 173.248Z" fill="#AA6550"/>
<path d="M259.44 172.517C255.113 180.056 250.404 187.369 245.33 194.428C244.07 196.108 240.55 200.748 238.71 201.198C236.37 201.778 234.38 199.928 233.13 199.068C228.89 196.128 206.95 174.318 206.95 174.318C200.12 164.798 201.84 158.727 202.77 158.717C203.7 158.707 210.7 156.877 216.69 162.717C221.23 167.147 236.74 183.178 236.74 183.178C240.4 178.878 242.8 176.747 246.45 172.437C248.23 170.337 250.94 168.077 251.06 165.187C251.048 163.867 250.931 162.55 250.71 161.247C250.489 158.236 250.681 155.208 251.28 152.247C251.292 152.113 251.326 151.981 251.38 151.857C251.478 151.692 251.63 151.565 251.81 151.497C252.146 151.4 252.506 151.416 252.832 151.545C253.157 151.673 253.431 151.906 253.61 152.207C253.954 152.819 254.142 153.506 254.16 154.207C254.178 154.896 254.327 155.575 254.6 156.207C254.658 156.338 254.747 156.451 254.86 156.538C254.987 156.622 255.138 156.664 255.29 156.657C256.12 156.657 256.57 155.757 256.87 155.097C257.593 153.553 258.176 151.947 258.61 150.297C258.91 149.167 259.43 148.077 259.82 146.957C259.973 146.294 260.321 145.691 260.82 145.228C261.72 144.558 263 144.927 264.01 145.437C264.567 145.715 265.094 146.05 265.58 146.437C267.018 147.751 267.967 149.514 268.27 151.437C268.675 153.663 268.524 155.954 267.83 158.107C266.972 161.138 265.547 163.978 263.63 166.478C262.27 168.498 260.72 170.407 259.44 172.517Z" fill="#AA6550"/>
<path d="M210.63 186.658L210.38 192.008C206.617 195.869 202.356 199.212 197.71 201.948C193.585 204.448 188.996 206.084 184.22 206.758C180.861 207.211 177.442 206.823 174.27 205.628L175.02 203.268L172.34 184.618C172.741 184.236 173.096 183.81 173.4 183.348C173.55 183.138 173.7 182.908 173.87 182.638C174.064 182.338 174.241 182.027 174.4 181.708C174.52 181.488 174.63 181.258 174.75 181.008C174.87 180.758 174.98 180.508 175.1 180.238L175.3 179.788C175.42 179.488 175.54 179.158 175.66 178.788C175.699 178.693 175.733 178.596 175.76 178.498C176.326 176.79 176.728 175.032 176.96 173.248C177.96 165.838 176.12 161.398 175.53 160.638C175.84 160.538 182.66 160.158 182.66 160.158L196.33 158.558L202.88 158.808C207.869 161.89 211.727 166.503 213.88 171.958C217.37 180.548 210.63 186.658 210.63 186.658Z" fill="#FAFAFA"/>
<path opacity="0.1" d="M184.22 206.758C180.861 207.211 177.442 206.823 174.27 205.628L175.02 203.268L172.34 184.618C172.741 184.236 173.096 183.81 173.4 183.348C173.55 183.138 173.7 182.908 173.87 182.638C174.064 182.338 174.241 182.027 174.4 181.708C174.52 181.488 174.63 181.258 174.75 181.008C174.87 180.758 174.98 180.508 175.1 180.238L175.3 179.788C175.42 179.488 175.54 179.158 175.66 178.788C175.699 178.693 175.733 178.596 175.76 178.498C175.7 179.498 175.62 181.058 175.6 182.748C175.571 184.658 175.658 186.568 175.86 188.468C176.46 193.348 181.69 203.988 183.74 205.678C183.917 205.791 184.057 205.953 184.142 206.145C184.228 206.337 184.255 206.55 184.22 206.758Z" fill="black"/>
<path d="M209.94 123.417C211.23 124.957 212.83 128.867 211.51 141.317C210.39 151.867 206.75 154.197 204.97 154.807C203.19 155.417 199.91 154.677 196.73 153.877L196.3 159.027C199.351 161.418 201.966 164.317 204.03 167.597C206.47 171.797 194.81 172.597 187.93 166.107C184.25 162.637 181.93 160.187 181.93 160.187L183.28 144.927C183.28 144.927 181.28 146.617 178.28 143.537C175.82 140.997 175.28 137.007 177.49 135.067C178.068 134.612 178.746 134.301 179.468 134.159C180.19 134.017 180.936 134.049 181.643 134.252C182.35 134.456 182.999 134.824 183.536 135.327C184.073 135.831 184.482 136.455 184.73 137.147C184.73 137.147 189.86 137.767 197.02 134.567C204.18 131.367 209.14 127.477 209.94 123.417Z" fill="#AA6550"/>
<path d="M200.44 137.958C200.448 138.142 200.417 138.326 200.35 138.498C200.283 138.671 200.181 138.827 200.05 138.958C199.92 139.089 199.764 139.191 199.592 139.259C199.42 139.326 199.236 139.358 199.051 139.351C198.866 139.344 198.685 139.299 198.519 139.219C198.352 139.138 198.204 139.024 198.084 138.884C197.964 138.744 197.874 138.58 197.82 138.404C197.766 138.227 197.749 138.041 197.77 137.858C197.763 137.673 197.793 137.489 197.861 137.317C197.928 137.145 198.03 136.988 198.16 136.857C198.291 136.726 198.447 136.624 198.619 136.556C198.79 136.489 198.975 136.457 199.159 136.464C199.344 136.471 199.525 136.516 199.691 136.597C199.858 136.677 200.006 136.791 200.126 136.931C200.246 137.071 200.336 137.235 200.39 137.411C200.444 137.588 200.461 137.774 200.44 137.958Z" fill="#263238"/>
<path d="M198.94 146.328L202.37 147.738C202.288 147.968 202.16 148.18 201.994 148.36C201.828 148.54 201.628 148.685 201.405 148.786C201.182 148.887 200.94 148.942 200.696 148.947C200.451 148.953 200.207 148.909 199.98 148.818C199.527 148.607 199.169 148.235 198.977 147.774C198.784 147.314 198.771 146.798 198.94 146.328Z" fill="#F28F8F"/>
<path d="M211.36 135.278L208.44 133.808C208.526 133.612 208.651 133.436 208.807 133.29C208.963 133.144 209.148 133.031 209.349 132.959C209.55 132.887 209.764 132.857 209.978 132.87C210.191 132.884 210.399 132.941 210.59 133.038C210.981 133.241 211.279 133.587 211.422 134.004C211.565 134.421 211.543 134.877 211.36 135.278Z" fill="#263238"/>
<path d="M209.94 138.438C209.92 138.697 209.825 138.945 209.666 139.151C209.506 139.357 209.29 139.512 209.044 139.596C208.797 139.68 208.532 139.69 208.28 139.625C208.028 139.559 207.8 139.421 207.626 139.228C207.452 139.035 207.338 138.795 207.299 138.537C207.26 138.28 207.297 138.017 207.406 137.78C207.515 137.544 207.691 137.345 207.912 137.207C208.133 137.07 208.39 137.001 208.65 137.008C208.829 137.017 209.004 137.061 209.165 137.138C209.327 137.214 209.472 137.322 209.592 137.455C209.711 137.588 209.804 137.743 209.864 137.912C209.923 138.08 209.949 138.259 209.94 138.438Z" fill="#263238"/>
<path d="M204.6 136.528L203.81 145.178L208.13 144.228L204.6 136.528Z" fill="#704234"/>
<path d="M196.73 153.878C193.36 153.148 186.54 150.558 185.73 147.708C186.05 149.143 186.804 150.445 187.89 151.438C189.83 153.438 196.6 155.988 196.6 155.988L196.73 153.878Z" fill="#704234"/>
<path d="M183.95 140.978C184.658 140.978 185.337 140.696 185.838 140.196C186.339 139.695 186.62 139.016 186.62 138.308C186.62 137.6 186.339 136.92 185.838 136.42C185.337 135.919 184.658 135.638 183.95 135.638V140.978Z" fill="#263238"/>
<path d="M351.26 313.88L393.56 286.79L412.19 292.77L351.26 313.88Z" fill="#415DA1"/>
<path d="M351.26 313.88L387.82 283.39L379.69 274.01L351.26 313.88Z" fill="#415DA1"/>
<path d="M387.82 283.39V290.47L351.26 313.88L387.82 283.39Z" fill="#415DA1"/>
<path opacity="0.3" d="M387.82 283.39V290.47L351.26 313.88L387.82 283.39Z" fill="black"/>
<path d="M440.12 97.5801L408.92 77.6001L395.18 82.0101L440.12 97.5801Z" fill="#415DA1"/>
<path d="M440.12 97.5799L413.15 75.0899L419.15 68.1699L440.12 97.5799Z" fill="#415DA1"/>
<path d="M413.15 75.0903V80.3103L440.12 97.5803L413.15 75.0903Z" fill="#415DA1"/>
<path opacity="0.3" d="M413.15 75.0903V80.3103L440.12 97.5803L413.15 75.0903Z" fill="black"/>
<path d="M407.63 73.5799C407.414 73.5799 407.203 73.5098 407.03 73.3799C406.64 73.0799 406.24 72.7899 405.84 72.4999C405.733 72.4234 405.641 72.3264 405.572 72.2144C405.502 72.1025 405.455 71.9779 405.434 71.8478C405.412 71.7177 405.417 71.5846 405.447 71.4563C405.477 71.3279 405.533 71.2068 405.61 71.0999C405.687 70.9933 405.785 70.9031 405.897 70.8343C406.009 70.7655 406.134 70.7196 406.264 70.6991C406.394 70.6787 406.527 70.6841 406.655 70.7152C406.783 70.7462 406.904 70.8022 407.01 70.8799C407.42 71.1699 407.83 71.4699 408.23 71.7799C408.398 71.9059 408.522 72.0814 408.584 72.2818C408.647 72.4821 408.645 72.6971 408.579 72.8962C408.512 73.0953 408.385 73.2685 408.215 73.3912C408.044 73.5139 407.84 73.5799 407.63 73.5799Z" fill="#E0E0E0"/>
<path d="M402 69.7201C401.813 69.7207 401.629 69.6687 401.47 69.5701C400.583 69.0101 399.683 68.4701 398.77 67.9501C398.539 67.8175 398.37 67.5987 398.301 67.3417C398.232 67.0848 398.267 66.8108 398.4 66.5801C398.532 66.3494 398.751 66.1808 399.008 66.1114C399.265 66.042 399.539 66.0775 399.77 66.2101C400.71 66.7501 401.63 67.3001 402.54 67.8701C402.725 67.9848 402.868 68.1568 402.946 68.3599C403.024 68.563 403.034 68.7862 402.974 68.9955C402.914 69.2048 402.788 69.3889 402.614 69.5196C402.44 69.6504 402.228 69.7208 402.01 69.7201H402ZM394.57 65.6201C394.421 65.6214 394.273 65.5871 394.14 65.5201C393.2 65.0701 392.23 64.6301 391.28 64.2301C391.154 64.1824 391.039 64.1098 390.942 64.0166C390.845 63.9235 390.768 63.8117 390.715 63.6879C390.662 63.5642 390.634 63.431 390.634 63.2964C390.634 63.1618 390.661 63.0286 390.713 62.9047C390.766 62.7808 390.843 62.6688 390.94 62.5753C391.037 62.4819 391.151 62.4089 391.277 62.3609C391.403 62.3128 391.537 62.2907 391.671 62.2957C391.806 62.3007 391.938 62.3328 392.06 62.3901C393.06 62.8101 394.06 63.2501 395 63.7201C395.203 63.8185 395.367 63.9829 395.465 64.1864C395.563 64.3899 395.589 64.6206 395.539 64.8409C395.489 65.0611 395.367 65.258 395.19 65.3995C395.014 65.541 394.796 65.6188 394.57 65.6201ZM386.71 62.4301C386.601 62.4281 386.494 62.4113 386.39 62.3801C385.39 62.0501 384.39 61.7401 383.39 61.4601C383.253 61.4354 383.123 61.3825 383.008 61.3047C382.893 61.2269 382.795 61.126 382.721 61.0084C382.647 60.8907 382.599 60.759 382.578 60.6215C382.558 60.4841 382.567 60.3439 382.604 60.21C382.641 60.076 382.705 59.9513 382.793 59.8436C382.881 59.736 382.99 59.6479 383.114 59.5848C383.238 59.5218 383.374 59.4853 383.512 59.4776C383.651 59.4699 383.79 59.4912 383.92 59.5401C384.92 59.8201 385.99 60.1401 387.01 60.4801C387.136 60.5208 387.252 60.5861 387.353 60.6722C387.453 60.7582 387.535 60.8634 387.595 60.9815C387.654 61.0996 387.69 61.2284 387.699 61.3603C387.709 61.4922 387.692 61.6247 387.65 61.7501C387.585 61.9424 387.463 62.1104 387.301 62.2319C387.138 62.3533 386.943 62.4225 386.74 62.4301H386.71ZM350.24 62.2301C350.029 62.2299 349.824 62.1631 349.653 62.0392C349.482 61.9153 349.355 61.7406 349.29 61.5401C349.207 61.2894 349.227 61.0164 349.345 60.7803C349.463 60.5443 349.67 60.3645 349.92 60.2801C350.92 59.9301 351.98 59.6201 353.01 59.2801C353.137 59.2452 353.269 59.2356 353.399 59.2519C353.53 59.2682 353.656 59.3101 353.77 59.3751C353.884 59.4401 353.984 59.527 354.065 59.6308C354.146 59.7346 354.205 59.8533 354.24 59.9801C354.275 60.1068 354.284 60.2392 354.268 60.3696C354.252 60.5001 354.21 60.626 354.145 60.7402C354.08 60.8545 353.993 60.9548 353.889 61.0354C353.785 61.116 353.667 61.1754 353.54 61.2101C352.54 61.4901 351.54 61.7901 350.54 62.1201C350.457 62.172 350.365 62.2093 350.27 62.2301H350.24ZM378.5 60.3001H378.31C377.31 60.1101 376.25 59.9401 375.23 59.8101C375.099 59.793 374.972 59.7503 374.857 59.6842C374.742 59.6182 374.642 59.5302 374.561 59.4253C374.48 59.3204 374.421 59.2005 374.386 59.0727C374.352 58.9448 374.343 58.8114 374.36 58.6801C374.377 58.5488 374.42 58.4221 374.486 58.3073C374.552 58.1925 374.64 58.0919 374.745 58.0111C374.85 57.9303 374.969 57.871 375.097 57.8365C375.225 57.802 375.359 57.793 375.49 57.8101C376.55 57.9501 377.62 58.1201 378.68 58.3201C378.945 58.344 379.19 58.4722 379.361 58.6766C379.531 58.8811 379.614 59.1449 379.59 59.4101C379.566 59.6753 379.438 59.9202 379.233 60.0908C379.029 60.2615 378.765 60.344 378.5 60.3201V60.3001ZM358.5 60.1401C358.369 60.1513 358.236 60.1364 358.111 60.0965C357.985 60.0566 357.869 59.9923 357.768 59.9073C357.667 59.8223 357.584 59.7184 357.523 59.6013C357.463 59.4843 357.426 59.3564 357.415 59.2251C357.404 59.0938 357.418 58.9615 357.458 58.8359C357.498 58.7103 357.563 58.5938 357.648 58.4931C357.733 58.3923 357.837 58.3093 357.954 58.2487C358.071 58.1882 358.198 58.1513 358.33 58.1401C359.39 57.9601 360.47 57.8001 361.54 57.6801C361.805 57.6496 362.072 57.7257 362.281 57.8917C362.49 58.0576 362.624 58.2999 362.655 58.5651C362.685 58.8303 362.609 59.0968 362.443 59.3059C362.277 59.515 362.035 59.6496 361.77 59.6801C360.77 59.8001 359.7 59.9501 358.67 60.1301L358.5 60.1401ZM370.12 59.3501C369.12 59.3501 368.03 59.3501 366.99 59.3501C366.725 59.3501 366.47 59.2447 366.283 59.0572C366.095 58.8697 365.99 58.6153 365.99 58.3501C365.99 58.0849 366.095 57.8305 366.283 57.643C366.47 57.4555 366.725 57.3501 366.99 57.3501C368.08 57.3501 369.15 57.3501 370.23 57.3501C370.495 57.3501 370.749 57.4555 370.937 57.643C371.124 57.8305 371.23 58.0849 371.23 58.3501C371.23 58.6153 371.124 58.8697 370.937 59.0572C370.749 59.2447 370.495 59.3501 370.23 59.3501H370.12Z" fill="#E0E0E0"/>
<path d="M343.94 64.7602C343.714 64.7588 343.495 64.6811 343.319 64.5396C343.143 64.3981 343.02 64.2012 342.97 63.9809C342.921 63.7606 342.947 63.53 343.045 63.3265C343.143 63.1229 343.307 62.9586 343.51 62.8602L344.9 62.2302C345.02 62.177 345.15 62.148 345.281 62.1448C345.412 62.1417 345.543 62.1644 345.666 62.2118C345.788 62.2591 345.9 62.3302 345.995 62.4208C346.09 62.5115 346.167 62.62 346.22 62.7402C346.273 62.8603 346.302 62.9898 346.305 63.1211C346.308 63.2525 346.286 63.3832 346.238 63.5058C346.191 63.6284 346.12 63.7404 346.029 63.8355C345.939 63.9306 345.83 64.007 345.71 64.0602C345.26 64.2502 344.81 64.4602 344.36 64.6702C344.228 64.7302 344.085 64.7609 343.94 64.7602Z" fill="#E0E0E0"/>
<path d="M400.17 279.66C399.959 279.659 399.754 279.591 399.584 279.466C399.414 279.341 399.288 279.166 399.224 278.965C399.16 278.765 399.16 278.549 399.226 278.348C399.292 278.148 399.419 277.974 399.59 277.85L400.81 276.98C400.916 276.902 401.037 276.846 401.165 276.814C401.293 276.783 401.426 276.777 401.557 276.797C401.687 276.817 401.813 276.862 401.926 276.931C402.038 276.999 402.137 277.089 402.215 277.195C402.293 277.302 402.349 277.422 402.381 277.55C402.412 277.679 402.418 277.812 402.398 277.942C402.378 278.073 402.333 278.198 402.265 278.311C402.196 278.424 402.106 278.522 402 278.6L400.78 279.48C400.602 279.605 400.387 279.668 400.17 279.66Z" fill="#E0E0E0"/>
<path d="M405.41 275.84C405.255 275.84 405.102 275.804 404.963 275.734C404.824 275.665 404.703 275.564 404.61 275.44C404.451 275.228 404.383 274.961 404.42 274.699C404.458 274.436 404.598 274.199 404.81 274.04L407.18 272.24C407.391 272.097 407.648 272.04 407.899 272.08C408.151 272.12 408.377 272.255 408.533 272.456C408.688 272.658 408.761 272.911 408.737 273.165C408.712 273.418 408.592 273.652 408.4 273.82C407.61 274.43 406.82 275.04 406.01 275.64C405.837 275.77 405.627 275.84 405.41 275.84ZM411.7 270.93C411.495 270.928 411.296 270.864 411.128 270.745C410.961 270.626 410.835 270.458 410.766 270.265C410.697 270.072 410.69 269.862 410.744 269.665C410.798 269.467 410.912 269.291 411.07 269.16L413.36 267.26C413.458 267.163 413.575 267.086 413.704 267.036C413.832 266.986 413.97 266.963 414.108 266.969C414.246 266.975 414.381 267.009 414.505 267.07C414.629 267.13 414.739 267.216 414.828 267.321C414.918 267.426 414.984 267.549 415.024 267.681C415.064 267.814 415.075 267.953 415.059 268.09C415.042 268.227 414.997 268.359 414.927 268.478C414.856 268.596 414.762 268.699 414.65 268.78C413.89 269.43 413.11 270.07 412.33 270.71C412.152 270.853 411.929 270.931 411.7 270.93ZM417.76 265.74C417.558 265.741 417.36 265.681 417.192 265.568C417.024 265.454 416.895 265.293 416.821 265.104C416.748 264.915 416.733 264.709 416.779 264.512C416.825 264.315 416.93 264.136 417.08 264C417.82 263.33 418.55 262.66 419.26 262C419.353 261.906 419.464 261.832 419.586 261.781C419.707 261.73 419.838 261.704 419.97 261.704C420.102 261.704 420.233 261.73 420.355 261.781C420.477 261.832 420.587 261.906 420.68 262C420.866 262.187 420.971 262.441 420.971 262.705C420.971 262.969 420.866 263.223 420.68 263.41C419.95 264.1 419.22 264.78 418.47 265.46C418.28 265.643 418.025 265.744 417.76 265.74ZM423.5 260.2C423.239 260.202 422.988 260.101 422.8 259.92C422.614 259.733 422.509 259.479 422.509 259.215C422.509 258.951 422.614 258.697 422.8 258.51C423.49 257.79 424.17 257.07 424.8 256.35C424.984 256.174 425.227 256.075 425.481 256.072C425.735 256.07 425.981 256.164 426.168 256.336C426.355 256.508 426.47 256.744 426.489 256.998C426.508 257.251 426.43 257.502 426.27 257.7C425.6 258.44 424.91 259.17 424.21 259.9C424.118 259.994 424.007 260.07 423.885 260.121C423.763 260.173 423.632 260.199 423.5 260.2ZM428.81 254.26C428.577 254.26 428.35 254.179 428.17 254.03C428.068 253.947 427.984 253.844 427.921 253.728C427.859 253.612 427.82 253.485 427.807 253.354C427.794 253.223 427.807 253.091 427.846 252.965C427.884 252.839 427.947 252.722 428.03 252.62C428.66 251.85 429.27 251.08 429.86 250.3C430.025 250.102 430.26 249.975 430.516 249.946C430.772 249.917 431.029 249.988 431.234 250.144C431.439 250.3 431.576 250.529 431.616 250.784C431.656 251.038 431.597 251.298 431.45 251.51C430.85 252.31 430.22 253.1 429.58 253.89C429.487 254.005 429.37 254.097 429.237 254.161C429.104 254.225 428.958 254.259 428.81 254.26ZM433.53 247.83C433.351 247.83 433.175 247.781 433.021 247.689C432.866 247.598 432.74 247.466 432.654 247.309C432.568 247.151 432.526 246.974 432.532 246.794C432.539 246.615 432.593 246.441 432.69 246.29C433.23 245.47 433.75 244.63 434.25 243.79C434.308 243.662 434.392 243.548 434.496 243.455C434.6 243.362 434.723 243.292 434.857 243.249C434.99 243.207 435.131 243.193 435.27 243.208C435.409 243.223 435.543 243.267 435.664 243.337C435.785 243.408 435.89 243.503 435.972 243.616C436.054 243.729 436.111 243.859 436.14 243.996C436.169 244.133 436.169 244.274 436.139 244.411C436.11 244.548 436.052 244.677 435.97 244.79C435.46 245.66 434.92 246.53 434.37 247.37C434.28 247.511 434.156 247.627 434.009 247.707C433.862 247.787 433.697 247.83 433.53 247.83ZM437.46 240.9C437.312 240.895 437.165 240.861 437.03 240.8C436.911 240.743 436.804 240.664 436.716 240.565C436.628 240.467 436.56 240.352 436.516 240.228C436.472 240.103 436.454 239.971 436.461 239.839C436.469 239.708 436.502 239.579 436.56 239.46C436.99 238.57 437.39 237.67 437.76 236.78C437.811 236.658 437.885 236.548 437.978 236.455C438.071 236.362 438.182 236.289 438.303 236.239C438.425 236.189 438.555 236.163 438.687 236.163C438.818 236.163 438.949 236.189 439.07 236.24C439.192 236.291 439.302 236.365 439.395 236.458C439.488 236.551 439.561 236.661 439.611 236.783C439.662 236.905 439.687 237.035 439.687 237.167C439.687 237.298 439.661 237.428 439.61 237.55C439.23 238.47 438.81 239.4 438.36 240.33C438.279 240.5 438.152 240.644 437.992 240.745C437.833 240.846 437.649 240.899 437.46 240.9ZM440.36 233.48C440.264 233.494 440.166 233.494 440.07 233.48C439.819 233.402 439.609 233.227 439.486 232.995C439.362 232.763 439.335 232.492 439.41 232.24C439.69 231.3 439.95 230.35 440.17 229.41C440.231 229.151 440.392 228.928 440.618 228.788C440.844 228.648 441.117 228.604 441.375 228.665C441.634 228.726 441.858 228.887 441.997 229.113C442.137 229.339 442.181 229.611 442.12 229.87C441.89 230.87 441.62 231.87 441.32 232.87C441.241 233.057 441.107 233.216 440.935 233.325C440.764 233.434 440.563 233.488 440.36 233.48Z" fill="#E0E0E0"/>
<path d="M442 225.68H441.87C441.607 225.645 441.37 225.508 441.208 225.298C441.047 225.088 440.976 224.823 441.01 224.56C441.07 224.08 441.12 223.56 441.16 223.11C441.184 222.845 441.312 222.6 441.516 222.43C441.721 222.259 441.985 222.176 442.25 222.2C442.515 222.224 442.76 222.352 442.931 222.557C443.101 222.761 443.184 223.025 443.16 223.29C443.11 223.8 443.05 224.29 442.99 224.81C442.958 225.051 442.84 225.271 442.658 225.432C442.476 225.592 442.242 225.68 442 225.68Z" fill="#E0E0E0"/>
</svg>
