<svg width="488" height="500" viewBox="0 0 488 500" fill="none" xmlns="http://www.w3.org/2000/svg">
<path d="M251.09 483.18C382.314 483.18 488.693 436.13 488.693 378.09C488.693 320.05 382.314 273 251.09 273C119.866 273 13.4873 320.05 13.4873 378.09C13.4873 436.13 119.866 483.18 251.09 483.18Z" fill="#F5F5F5"/>
<path d="M371.38 451.31C405.989 451.31 434.046 433.782 434.046 412.16C434.046 390.538 405.989 373.01 371.38 373.01C336.77 373.01 308.714 390.538 308.714 412.16C308.714 433.782 336.77 451.31 371.38 451.31Z" fill="#E0E0E0"/>
<path d="M139.284 425.53L51.2867 374.14C48.2117 372.35 48.2117 369.44 51.2867 367.65L210.344 274.74C212.068 273.858 213.974 273.398 215.906 273.398C217.838 273.398 219.743 273.858 221.468 274.74L309.465 326.13C312.53 327.93 312.53 330.84 309.465 332.63L150.407 425.53C148.685 426.418 146.779 426.88 144.846 426.88C142.912 426.88 141.007 426.418 139.284 425.53Z" fill="#E0E0E0"/>
<path d="M103.669 44.0601L94.5631 49.3601C94.6137 48.9554 94.6402 48.548 94.6422 48.1401V45.4901C94.6422 40.7501 91.3596 38.8401 87.3058 41.2001C85.5656 42.2847 84.0754 43.7339 82.9356 45.4501C82.2731 39.5101 77.6558 37.2901 72.0595 40.5601C65.9986 44.1001 61.0846 52.7101 61.0846 59.7901V63.7901C61.0454 65.3749 61.3632 66.9479 62.014 68.3901L54.4798 72.7901C53.2944 73.571 52.3078 74.6236 51.6 75.8624C50.8922 77.1012 50.4832 78.4914 50.4062 79.9201C50.4062 82.5501 52.2255 83.6101 54.4798 82.3001L103.65 53.5901C104.833 52.8074 105.819 51.7544 106.526 50.516C107.234 49.2775 107.644 47.8882 107.723 46.4601C107.743 43.8101 105.914 42.7501 103.669 44.0601Z" fill="#EBEBEB"/>
<path d="M147.341 63.9399L140.49 67.9399C140.49 67.6299 140.549 67.3299 140.549 67.0299V64.9999C140.549 61.4299 138.067 59.9999 135.012 61.7699C133.693 62.5917 132.566 63.6939 131.71 64.9999C131.205 60.5099 127.755 58.8299 123.493 61.2999C118.925 63.9699 115.208 70.4699 115.208 75.8099V78.8099C115.18 80.0053 115.42 81.1915 115.91 82.2799L110.224 85.5999C109.328 86.1923 108.583 86.99 108.049 87.9282C107.515 88.8664 107.206 89.9187 107.149 90.9999C107.149 92.9999 108.534 93.7899 110.224 92.7999L147.341 71.1299C148.234 70.5395 148.977 69.7448 149.509 68.8101C150.042 67.8754 150.349 66.8271 150.407 65.7499C150.407 63.7599 149.032 62.9999 147.341 63.9399Z" fill="#EBEBEB"/>
<path d="M131.364 366.58C134.785 345.58 134.241 338.01 125.223 319.32C120.234 309.292 112.6 300.854 103.165 294.94C95.334 290.19 87.8691 288.71 81.4819 291.68C77.3193 293.61 74.3927 298.9 75.5495 304.68C76.6074 309.82 85.862 319 94.3354 326.41C107.189 337.71 123.908 353.32 126.153 381.29L124.69 395.58L131.364 366.58Z" fill="#415DA1"/>
<path opacity="0.2" d="M131.364 366.58C134.785 345.58 134.241 338.01 125.223 319.32C120.234 309.292 112.6 300.854 103.165 294.94C95.334 290.19 87.8691 288.71 81.4819 291.68C77.3193 293.61 74.3927 298.9 75.5495 304.68C76.6074 309.82 85.862 319 94.3354 326.41C107.189 337.71 123.908 353.32 126.153 381.29L124.69 395.58L131.364 366.58Z" fill="black"/>
<path d="M127.932 377.81C127.766 377.761 127.623 377.654 127.528 377.507C127.434 377.36 127.395 377.184 127.418 377.01C132.876 339.55 108.029 309.12 88.0074 301.56C87.8325 301.493 87.6908 301.358 87.6131 301.186C87.5354 301.014 87.5278 300.818 87.5921 300.64C87.625 300.553 87.6746 300.472 87.7382 300.404C87.8018 300.336 87.878 300.282 87.9626 300.244C88.0471 300.206 88.1383 300.185 88.2308 300.182C88.3233 300.18 88.4154 300.196 88.5017 300.23C108.969 307.96 134.369 339.01 128.812 377.23C128.799 377.323 128.768 377.412 128.72 377.492C128.673 377.573 128.61 377.643 128.536 377.699C128.461 377.754 128.376 377.795 128.287 377.817C128.197 377.84 128.103 377.844 128.012 377.83L127.932 377.81Z" fill="white"/>
<path d="M130.424 409.33C130.078 409.64 129.722 409.95 129.357 410.25C124.482 414.25 117.136 415.36 111.006 415.49C106.962 415.57 101.514 415.66 98.083 413.19C96.3824 411.97 95.1761 409.8 95.71 407.77C96.2835 405.57 98.6762 403.97 98.5279 401.7C93.9797 401 89.1053 403.01 84.8537 401.24C81.6502 399.91 79.6233 396.76 77.7942 393.79C76.7659 392 75.5992 390 76.1825 388C76.8746 385.66 79.5343 384.66 81.8282 383.9C82.4468 383.738 83.0258 383.449 83.5288 383.05C83.7772 382.846 83.9598 382.571 84.0531 382.261C84.1465 381.951 84.1464 381.62 84.0528 381.31C83.7661 380.57 82.8763 380.31 82.0754 380.21C80.4143 379.97 78.7335 379.95 77.1317 379.62C75.4583 379.367 73.9184 378.549 72.7615 377.3C71.486 375.75 71.2191 373.61 71.0609 371.6C70.7593 368.183 70.6603 364.75 70.7643 361.32C70.7643 360.5 70.3589 352.32 70.082 352.47C77.9919 349.23 86.8905 348.39 95.2651 348.71C99.9616 348.89 106.902 349.89 109.701 354.34C110.454 355.621 110.879 357.071 110.937 358.56C110.937 359.09 110.62 361.87 110.937 362.07C111.064 362.136 111.21 362.155 111.35 362.126C111.49 362.097 111.616 362.021 111.708 361.91C111.887 361.683 112.009 361.415 112.064 361.13C112.489 359.67 113.191 358.5 113.626 357.13C114.061 355.76 113.972 354.27 114.891 353.13C115.364 352.645 115.938 352.274 116.571 352.044C117.204 351.814 117.88 351.73 118.55 351.8C123.493 351.94 127.705 356 129.584 360.65C131.463 365.3 131.502 370.48 131.512 375.5L133.885 370.59C136.644 364.86 139.748 375.49 140.233 377.49C141.651 383.195 141.49 389.185 139.769 394.804C138.048 400.423 134.832 405.455 130.474 409.35L130.424 409.33Z" fill="#415DA1"/>
<path d="M130.869 410.62C130.745 410.603 130.628 410.551 130.532 410.47C130.435 410.388 130.364 410.281 130.326 410.16C123.484 388.69 91.0334 360.33 78.6149 356.04C78.4458 355.983 78.306 355.86 78.2263 355.699C78.1465 355.538 78.1334 355.351 78.1897 355.18C78.2483 355.008 78.3714 354.867 78.5325 354.786C78.6935 354.706 78.8795 354.693 79.0499 354.75C91.6761 359.11 124.65 387.92 131.611 409.75C131.664 409.921 131.648 410.106 131.566 410.266C131.485 410.425 131.345 410.545 131.176 410.6C131.078 410.636 130.971 410.643 130.869 410.62Z" fill="white"/>
<path d="M91.5375 391C91.4231 391.002 91.3105 390.97 91.2127 390.91C91.1148 390.85 91.0355 390.764 90.9838 390.66C90.9438 390.587 90.9184 390.507 90.9092 390.425C90.9 390.342 90.907 390.258 90.93 390.178C90.953 390.098 90.9915 390.024 91.0431 389.959C91.0948 389.894 91.1587 389.84 91.231 389.8C99.4095 385.952 108.662 385.121 117.383 387.45C115.979 376.74 118.303 368.22 119.707 363.08V362.89C119.753 362.727 119.86 362.588 120.006 362.504C120.152 362.42 120.325 362.397 120.488 362.44C120.649 362.487 120.785 362.596 120.867 362.744C120.948 362.892 120.968 363.067 120.923 363.23V363.42C119.499 368.62 117.126 377.33 118.767 388.23C118.787 388.337 118.778 388.447 118.741 388.549C118.705 388.651 118.642 388.741 118.56 388.81C118.479 388.88 118.383 388.928 118.279 388.951C118.176 388.973 118.068 388.97 117.966 388.94C109.303 386.388 100.019 387.098 91.8342 390.94C91.7412 390.983 91.6397 391.004 91.5375 391Z" fill="white"/>
<path d="M263.232 37.1499L135.102 112C133.075 113.181 131.376 114.863 130.166 116.888C128.956 118.913 128.273 121.215 128.181 123.58V405C128.181 409.75 131.078 415.29 134.647 417.38C138.216 419.47 144.406 419.23 148.489 416.86L276.125 342.33C278.262 340.915 280.042 339.013 281.319 336.776C282.597 334.539 283.338 332.029 283.481 329.45V48.9999C283.481 44.2599 280.584 38.7199 277.005 36.6299C273.426 34.5399 267.296 34.7799 263.232 37.1499Z" fill="#37474F"/>
<path d="M146.779 417.75C142.824 419.3 137.801 419.22 134.716 417.42C131.147 415.33 128.25 409.79 128.25 405.04V123.54C128.325 121.289 128.965 119.093 130.109 117.16L142.023 124C139.962 126.426 138.755 129.476 138.592 132.67V411.08C138.543 416.79 142.112 419.5 146.779 417.75Z" fill="#263238"/>
<path d="M144.989 121.28C143.104 122.53 141.535 124.21 140.408 126.184C139.282 128.159 138.629 130.374 138.503 132.65V411.08C138.503 417.49 142.992 420.08 148.479 416.91L276.135 342.37C278.272 340.956 280.051 339.053 281.329 336.816C282.607 334.579 283.347 332.069 283.491 329.49V49C283.491 44.28 280.179 42.34 276.135 44.71L144.989 121.28Z" fill="#455A64"/>
<path d="M151.683 139.65C149.648 140.991 147.955 142.798 146.74 144.924C145.526 147.051 144.824 149.437 144.692 151.89V388.73C144.692 393.24 147.827 395.07 151.683 392.82L271.764 322.69C273.797 321.345 275.489 319.535 276.703 317.407C277.917 315.279 278.62 312.893 278.755 310.44V73.5998C278.755 69.1098 275.611 67.2798 271.764 69.5198L151.683 139.65Z" fill="#37474F"/>
<path d="M269.906 304.55V70.6099L151.683 139.61C149.648 140.951 147.955 142.758 146.74 144.884C145.526 147.011 144.824 149.397 144.692 151.85V385.85L262.915 316.85C264.953 315.499 266.648 313.681 267.862 311.544C269.077 309.407 269.777 307.011 269.906 304.55Z" fill="#415DA1"/>
<path opacity="0.6" d="M269.906 304.55V70.6099L151.683 139.61C149.648 140.951 147.955 142.758 146.74 144.884C145.526 147.011 144.824 149.397 144.692 151.85V385.85L262.915 316.85C264.953 315.499 266.648 313.681 267.862 311.544C269.077 309.407 269.777 307.011 269.906 304.55Z" fill="white"/>
<path d="M201.713 97.9201L223 85.4901C224.266 84.7501 225.294 85.2701 225.294 86.6701C225.237 87.4501 225 88.2057 224.601 88.8761C224.203 89.5465 223.654 90.113 223 90.5301L201.713 103C200.447 103.75 199.419 103.22 199.419 101.83C199.469 101.041 199.702 100.276 200.101 99.5961C200.5 98.9165 201.052 98.3421 201.713 97.9201Z" fill="black"/>
<path d="M238.236 76.5598C239.423 75.8698 240.392 76.4298 240.392 77.8198C240.35 78.5766 240.134 79.3129 239.759 79.9694C239.385 80.626 238.863 81.1844 238.236 81.5998C237.04 82.2898 236.081 81.7298 236.081 80.3398C236.121 79.5827 236.337 78.8458 236.712 78.189C237.086 77.5322 237.609 76.974 238.236 76.5598Z" fill="black"/>
<path d="M246.828 71.5299C248.015 70.8299 248.984 71.3899 248.984 72.7899C248.943 73.5455 248.727 74.2807 248.352 74.9357C247.977 75.5908 247.455 76.1472 246.828 76.5599C245.642 77.2599 244.673 76.6999 244.673 75.2999C244.714 74.5443 244.93 73.8091 245.305 73.154C245.679 72.499 246.201 71.9425 246.828 71.5299Z" fill="black"/>
<path d="M177.845 111.83C179.041 111.13 180.01 111.7 180.01 113.09C179.97 113.847 179.753 114.583 179.376 115.238C179 115.894 178.475 116.45 177.845 116.86C176.658 117.56 175.689 117 175.689 115.61C175.729 114.853 175.944 114.115 176.319 113.458C176.694 112.801 177.216 112.243 177.845 111.83Z" fill="black"/>
<path d="M186.516 106.79C187.712 106.1 188.681 106.66 188.681 108.05C188.64 108.807 188.424 109.543 188.05 110.2C187.675 110.857 187.153 111.415 186.526 111.83C185.329 112.53 184.36 111.96 184.36 110.57C184.402 109.813 184.619 109.077 184.993 108.42C185.367 107.764 185.889 107.205 186.516 106.79Z" fill="black"/>
<path d="M269.906 280V304.57C269.668 308.745 267.814 312.657 264.745 315.46C264.183 315.976 263.57 316.432 262.916 316.82L260.671 318.11C250.507 309.55 242.795 303 242.795 303C225.294 282.1 227.311 266.35 229.447 266.17C229.694 266.17 230.119 266.05 230.713 265.92C236.374 264.777 242.216 264.926 247.813 266.357C253.409 267.787 258.62 270.464 263.064 274.19C264.755 275.54 267.098 277.56 269.906 280Z" fill="#FFA8A7"/>
<path d="M264.745 315.44C264.183 315.956 263.57 316.412 262.916 316.8L260.671 318.11L169.273 371.48C166.406 360.38 161.679 341.99 161.62 341.66C161.62 341.49 171.952 325.88 172.654 307.66C173.356 289.44 168.343 281.45 166.722 279.66C167.454 279.36 183.748 274.72 183.748 274.72L216.238 268.16L230.673 265.87C230.673 265.87 250.25 275.57 260.938 297.25C263.85 302.839 265.168 309.137 264.745 315.44Z" fill="#415DA1"/>
<path opacity="0.2" d="M264.745 315.44C264.183 315.956 263.57 316.412 262.916 316.8L260.671 318.11L169.273 371.48C166.406 360.38 161.679 341.99 161.62 341.66C161.62 341.49 171.952 325.88 172.654 307.66C173.356 289.44 168.343 281.45 166.722 279.66C167.454 279.36 183.748 274.72 183.748 274.72L216.238 268.16L230.673 265.87C230.673 265.87 250.25 275.57 260.938 297.25C263.85 302.839 265.168 309.137 264.745 315.44Z" fill="black"/>
<path d="M166.741 279.67C156.973 280.77 150.427 285.48 144.673 295.35V385.84L158.387 377.84L171.131 342.84C171.131 342.84 186.832 290.38 166.741 279.67Z" fill="#FFA8A7"/>
<path d="M182.452 262.3C182.798 261.07 179.921 257.06 179.278 255.95C178.023 253.77 176.638 251.66 175.195 249.6C172.14 245.26 169.262 240.82 166.118 236.6C162.557 232.041 159.527 227.082 157.091 221.82C154.056 214.92 152.533 207.15 153.987 199.74C155.44 192.33 160.156 185.38 167.018 182.39C169.984 167.96 182.739 156.14 197.224 154.39C212.223 152.57 228.112 160.6 242.587 153.81C244.386 152.96 246.137 151.81 248.114 151.64C252.534 151.19 256.212 155.7 256.627 160.18C257.042 164.66 255.104 168.98 253.236 173.05C254.945 173.583 256.466 174.603 257.616 175.988C258.766 177.373 259.497 179.064 259.72 180.859C259.943 182.654 259.65 184.476 258.875 186.106C258.1 187.736 256.877 189.106 255.352 190.05C257.833 196.58 255.401 204.25 250.764 209.43C246.127 214.61 239.621 217.69 233.065 219.92C226.51 222.15 219.708 223.69 213.37 226.46C205.935 229.778 199.312 234.708 193.969 240.901C188.626 247.095 184.695 254.4 182.452 262.3Z" fill="#263238"/>
<path d="M239.908 181C243.309 184.5 250.171 192.89 249.41 223.35C248.757 249.17 240.511 255.53 236.309 257.35C232.107 259.17 224.137 258.04 216.356 256.71V269.31C216.356 269.31 227.4 277.06 230.198 284.1C232.354 289.6 218.591 297.24 197.699 288.1C189.156 284.38 182.255 274.89 182.255 274.89L182.541 237.6C182.541 237.6 177.944 242.09 170.192 235.2C163.785 229.51 161.64 219.94 166.653 214.81C171.665 209.68 180.91 211.11 184.45 218.44C184.45 218.44 198.44 219.61 215.002 210.44C231.563 201.27 238.741 191 239.908 181Z" fill="#FFA8A7"/>
<path d="M220.499 218.74C220.502 219.377 220.32 220.001 219.976 220.535C219.631 221.068 219.139 221.487 218.561 221.74C217.983 221.993 217.344 222.068 216.723 221.957C216.103 221.845 215.529 221.552 215.072 221.113C214.616 220.674 214.297 220.109 214.155 219.489C214.013 218.868 214.055 218.219 214.275 217.622C214.495 217.025 214.883 216.506 215.392 216.131C215.901 215.755 216.508 215.54 217.137 215.51C217.569 215.495 217.998 215.568 218.402 215.723C218.805 215.878 219.174 216.112 219.487 216.413C219.8 216.714 220.05 217.074 220.224 217.474C220.398 217.873 220.491 218.304 220.499 218.74Z" fill="#263238"/>
<path d="M218.047 237.87L230.09 240.08C229.982 240.891 229.714 241.671 229.301 242.374C228.889 243.077 228.34 243.689 227.689 244.174C227.037 244.658 226.296 245.005 225.509 245.193C224.723 245.382 223.906 245.408 223.109 245.27C221.482 244.94 220.045 243.984 219.101 242.604C218.157 241.223 217.779 239.527 218.047 237.87Z" fill="#B16668"/>
<path d="M223.1 245.27C223.91 245.415 224.742 245.388 225.542 245.19C225.483 243.821 224.905 242.528 223.927 241.58C222.948 240.631 221.646 240.101 220.292 240.1C219.566 240.098 218.848 240.252 218.186 240.55C218.475 241.729 219.091 242.799 219.961 243.636C220.832 244.472 221.921 245.039 223.1 245.27Z" fill="#F28F8F"/>
<path d="M246.028 208.3L238.701 205.3C238.87 204.808 239.136 204.356 239.483 203.971C239.83 203.586 240.251 203.277 240.72 203.062C241.188 202.847 241.696 202.73 242.211 202.72C242.725 202.709 243.237 202.804 243.714 203C244.699 203.414 245.488 204.195 245.919 205.182C246.35 206.169 246.389 207.285 246.028 208.3Z" fill="#263238"/>
<path d="M244.337 216.34C244.342 216.977 244.162 217.602 243.819 218.136C243.476 218.67 242.985 219.091 242.407 219.346C241.83 219.6 241.191 219.677 240.571 219.568C239.95 219.458 239.375 219.167 238.917 218.729C238.459 218.292 238.139 217.728 237.995 217.108C237.851 216.487 237.891 215.838 238.109 215.24C238.327 214.643 238.714 214.123 239.222 213.746C239.73 213.369 240.336 213.152 240.965 213.12C241.396 213.107 241.825 213.18 242.228 213.334C242.63 213.489 242.999 213.723 243.312 214.022C243.625 214.321 243.877 214.68 244.053 215.078C244.229 215.476 244.325 215.905 244.337 216.34Z" fill="#263238"/>
<path d="M229.289 215.03L231.504 233.93L241.134 229.29L229.289 215.03Z" fill="#F28F8F"/>
<path d="M216.307 256.75C208.1 255.65 191.213 250.7 188.622 243.94C188.622 243.94 189.482 248.19 194.554 252.57C199.627 256.95 216.307 261.92 216.307 261.92V256.75Z" fill="#F28F8F"/>
<path d="M183.154 228C184.193 227.911 185.204 227.615 186.13 227.131C187.056 226.646 187.878 225.982 188.55 225.176C189.223 224.37 189.731 223.438 190.047 222.433C190.363 221.428 190.48 220.371 190.392 219.32C190.303 218.269 190.011 217.247 189.532 216.31C189.053 215.374 188.397 214.542 187.6 213.862C186.803 213.183 185.881 212.668 184.888 212.349C183.894 212.029 182.848 211.911 181.81 212L183.154 228Z" fill="#263238"/>
<path d="M250.289 310.42C256.102 307.02 260.809 298.78 260.809 291.99C260.809 285.2 256.102 282.46 250.289 285.85C244.475 289.24 239.778 297.49 239.778 304.27C239.778 311.05 244.485 313.81 250.289 310.42Z" fill="#F28F8F"/>
<path fill-rule="evenodd" clip-rule="evenodd" d="M244.327 306C244.673 305.66 246.304 304 246.611 303.67C246.767 303.524 246.886 303.343 246.96 303.141C247.034 302.94 247.06 302.723 247.036 302.51C247.036 301.96 246.987 300.51 246.987 300.1C246.983 299.9 247.022 299.701 247.103 299.518C247.183 299.335 247.302 299.171 247.451 299.04C248.305 298.066 249.306 297.236 250.417 296.58C251.251 296.098 252.179 295.807 253.136 295.73C253.473 295.73 253.463 296.08 253.453 296.43C253.443 296.78 253.453 297.18 253.453 297.55C253.453 297.66 253.453 297.75 253.453 297.84C253.474 298.035 253.507 298.229 253.552 298.42C253.601 298.74 253.759 298.81 253.918 298.82C254.076 298.83 255.559 299.12 256.172 299.22C256.785 299.32 256.904 298.87 257.042 298.6C257.18 298.33 257.348 298.05 257.507 297.75C257.743 297.275 257.871 296.752 257.882 296.22C258.033 294.933 257.721 293.633 257.002 292.56C256.783 292.297 256.505 292.091 256.192 291.96C255.461 291.71 254.672 291.685 253.927 291.89C251.162 292.387 248.653 293.84 246.828 296C243.615 299.69 243.862 300 243.486 300.89C242.938 302.237 242.724 303.7 242.864 305.15C243.14 306.15 243.546 306.6 243.694 306.59C243.842 306.58 243.991 306.36 244.327 306Z" fill="white"/>
<path opacity="0.5" d="M222.179 326.83C227.983 323.44 232.699 315.19 232.699 308.41C232.699 301.63 227.983 298.87 222.179 302.27C216.375 305.67 211.659 313.91 211.659 320.69C211.659 327.47 216.375 330.22 222.179 326.83Z" fill="white"/>
<path d="M222.268 318.44C220.874 319.26 219.737 318.39 219.737 316.5V310.58C219.751 309.621 219.987 308.679 220.427 307.83C220.867 306.98 221.497 306.247 222.268 305.69C223.663 304.87 224.8 305.74 224.8 307.62V313.55C224.784 314.508 224.546 315.449 224.107 316.298C223.667 317.147 223.038 317.88 222.268 318.44Z" fill="white"/>
<path d="M221.061 321C220.5 321.001 219.951 320.838 219.479 320.53C218.898 320.084 218.438 319.496 218.144 318.82C217.85 318.145 217.731 317.405 217.799 316.67C217.799 316.511 217.861 316.358 217.972 316.246C218.084 316.133 218.235 316.07 218.392 316.07C218.549 316.07 218.7 316.133 218.811 316.246C218.923 316.358 218.985 316.511 218.985 316.67C218.928 317.202 219.001 317.74 219.198 318.237C219.394 318.734 219.708 319.174 220.112 319.52C220.398 319.696 220.725 319.793 221.06 319.802C221.395 319.811 221.726 319.731 222.021 319.57C225.491 317.98 225.768 313.82 225.718 312.11C225.718 311.95 225.779 311.797 225.887 311.682C225.996 311.566 226.144 311.498 226.302 311.49C226.379 311.489 226.456 311.503 226.528 311.532C226.6 311.561 226.665 311.604 226.721 311.659C226.776 311.714 226.82 311.779 226.85 311.852C226.88 311.924 226.895 312.001 226.895 312.08C227.004 316.14 225.362 319.35 222.505 320.67C222.052 320.881 221.56 320.993 221.061 321Z" fill="white"/>
<path d="M220.765 323.86C220.634 323.86 220.507 323.817 220.403 323.736C220.299 323.656 220.225 323.543 220.191 323.415C220.157 323.288 220.166 323.152 220.216 323.03C220.266 322.908 220.355 322.806 220.468 322.74L223.434 320.99C223.502 320.949 223.576 320.923 223.654 320.911C223.731 320.9 223.81 320.905 223.886 320.926C223.962 320.946 224.032 320.982 224.094 321.031C224.156 321.08 224.207 321.141 224.245 321.21C224.321 321.348 224.341 321.511 224.301 321.665C224.26 321.818 224.162 321.949 224.028 322.03L221.061 323.78C220.973 323.837 220.869 323.864 220.765 323.86Z" fill="white"/>
<path opacity="0.5" d="M194.069 343.25C199.873 339.86 204.579 331.61 204.579 324.82C204.579 318.03 199.873 315.29 194.069 318.68C188.265 322.07 183.549 330.32 183.549 337.11C183.549 343.9 188.255 346.64 194.069 343.25Z" fill="white"/>
<path d="M192.765 330.75C192.446 330.752 192.132 330.67 191.855 330.51C191.522 330.288 191.255 329.98 191.081 329.617C190.907 329.255 190.833 328.852 190.866 328.45C190.91 327.507 191.176 326.589 191.642 325.771C192.108 324.954 192.761 324.261 193.546 323.75C193.857 323.479 194.243 323.313 194.652 323.274C195.06 323.235 195.471 323.326 195.826 323.534C196.181 323.741 196.464 324.056 196.635 324.433C196.805 324.81 196.856 325.232 196.779 325.64C196.735 326.583 196.469 327.501 196.003 328.319C195.537 329.136 194.884 329.829 194.099 330.34C193.697 330.591 193.237 330.733 192.765 330.75Z" fill="white"/>
<path d="M202.929 324.43C202.861 324.316 202.751 324.233 202.624 324.199C202.496 324.166 202.361 324.184 202.247 324.25L201.109 324.92V323.25C201.107 323.118 201.054 322.993 200.962 322.899C200.87 322.806 200.745 322.753 200.615 322.75C200.484 322.75 200.358 322.803 200.266 322.896C200.173 322.99 200.121 323.117 200.121 323.25V325.49L198.479 326.49C198.387 326.546 198.314 326.631 198.274 326.732C198.233 326.833 198.226 326.944 198.254 327.05C198.282 327.155 198.344 327.248 198.429 327.315C198.514 327.382 198.619 327.419 198.727 327.42C198.814 327.422 198.9 327.397 198.974 327.35L200.121 326.69V328.17C200.121 328.303 200.173 328.43 200.266 328.524C200.358 328.617 200.484 328.67 200.615 328.67C200.745 328.667 200.87 328.614 200.962 328.521C201.054 328.428 201.107 328.302 201.109 328.17V326.11L202.741 325.11C202.855 325.045 202.939 324.937 202.974 324.809C203.009 324.682 202.993 324.545 202.929 324.43Z" fill="white"/>
<path d="M197.975 331.43C197.408 331.144 196.774 331.02 196.142 331.069C195.511 331.118 194.904 331.34 194.386 331.71L192.913 332.57C191.574 333.438 190.46 334.617 189.662 336.008C188.864 337.4 188.406 338.963 188.325 340.57V341.63C189.779 342.44 191.756 342.3 193.951 341.02C196.291 339.55 198.224 337.502 199.567 335.07V334.81C199.619 334.155 199.499 333.497 199.219 332.904C198.94 332.311 198.511 331.802 197.975 331.43Z" fill="white"/>
<path opacity="0.5" d="M165.95 359.67C171.764 356.27 176.47 348.02 176.47 341.24C176.47 334.46 171.764 331.71 165.95 335.1C160.136 338.49 155.43 346.74 155.43 353.52C155.43 360.3 160.146 363.06 165.95 359.67Z" fill="white"/>
<path d="M165.949 354.72C167.781 353.518 169.306 351.895 170.399 349.983C171.491 348.071 172.122 345.925 172.238 343.72C172.238 339.72 169.42 338.03 165.949 340.05C164.122 341.256 162.6 342.88 161.508 344.791C160.415 346.702 159.783 348.846 159.661 351.05C159.671 355.11 162.479 356.75 165.949 354.72Z" fill="white"/>
<path opacity="0.3" d="M165.95 167.36C171.764 163.97 176.47 155.72 176.47 148.93C176.47 142.14 171.764 139.4 165.95 142.79C160.136 146.18 155.43 154.43 155.43 161.22C155.43 168.01 160.146 170.75 165.95 167.36Z" fill="white"/>
<path d="M165.949 147.73C164.122 148.936 162.6 150.56 161.508 152.471C160.415 154.382 159.783 156.526 159.661 158.73C159.661 161.14 160.65 162.73 162.192 163.13L161.5 166.64L164.763 163C165.193 162.849 165.607 162.655 165.999 162.42C167.831 161.218 169.355 159.595 170.448 157.683C171.541 155.772 172.171 153.625 172.287 151.42C172.238 147.35 169.42 145.71 165.949 147.73Z" fill="white"/>
<path opacity="0.3" d="M194.059 150.94C199.873 147.55 204.579 139.3 204.579 132.52C204.579 125.74 199.873 122.98 194.059 126.37C188.245 129.76 183.549 138 183.549 144.8C183.549 151.6 188.255 154.33 194.059 150.94Z" fill="white"/>
<path d="M198.805 129.65L197.124 130.65V129.76C197.124 129.19 196.828 128.91 196.462 129.12L191.667 131.92C191.455 132.087 191.285 132.301 191.17 132.546C191.055 132.79 190.998 133.059 191.004 133.33V134.22L189.323 135.22C188.885 135.567 188.533 136.013 188.295 136.521C188.056 137.03 187.938 137.587 187.949 138.15V146.84C187.949 148.02 188.562 148.61 189.323 148.17L198.805 142.63C199.242 142.282 199.593 141.836 199.832 141.328C200.07 140.819 200.189 140.262 200.18 139.7V131C200.18 129.8 199.567 129.2 198.805 129.65ZM191.232 141.92C191.193 141.971 191.146 142.015 191.093 142.05C190.955 142.12 190.836 142.05 190.777 141.96C190.556 141.387 190.449 140.775 190.46 140.16C190.46 137.48 192.082 134.36 194.059 133.16C194.255 133.048 194.46 132.954 194.672 132.88L194.089 132.49C194.01 132.398 193.959 132.284 193.943 132.163C193.927 132.043 193.947 131.92 194 131.81C194.109 131.54 194.307 131.4 194.445 131.49L195.77 132.38C195.815 132.422 195.851 132.473 195.875 132.53C195.899 132.587 195.91 132.648 195.908 132.71C195.907 132.874 195.867 133.035 195.79 133.18L194.554 135.37C194.522 135.431 194.478 135.486 194.425 135.53C194.407 135.555 194.383 135.575 194.355 135.589C194.328 135.603 194.298 135.61 194.267 135.61C194.236 135.61 194.206 135.603 194.179 135.589C194.151 135.575 194.127 135.555 194.109 135.53C194.051 135.417 194.02 135.292 194.02 135.165C194.02 135.038 194.051 134.913 194.109 134.8L194.643 133.85C194.426 133.918 194.218 134.008 194.02 134.12C193.136 134.763 192.413 135.606 191.908 136.582C191.404 137.557 191.131 138.639 191.113 139.74C191.103 140.239 191.191 140.735 191.37 141.2C191.408 141.322 191.415 141.452 191.391 141.578C191.367 141.703 191.312 141.821 191.232 141.92ZM194.059 142.92C193.862 143.037 193.653 143.134 193.436 143.21L193.98 143.65C194.045 143.751 194.079 143.869 194.079 143.99C194.079 144.11 194.045 144.228 193.98 144.33C193.942 144.429 193.881 144.518 193.802 144.59C193.763 144.622 193.714 144.64 193.664 144.64C193.613 144.64 193.564 144.622 193.525 144.59L192.27 143.59C192.225 143.544 192.192 143.489 192.171 143.428C192.151 143.368 192.144 143.304 192.151 143.24C192.153 143.078 192.197 142.919 192.28 142.78L193.605 140.69C193.753 140.46 193.951 140.42 194.049 140.6C194.098 140.72 194.117 140.85 194.105 140.979C194.093 141.107 194.05 141.231 193.98 141.34L193.397 142.26C193.611 142.194 193.816 142.103 194.01 141.99C194.909 141.357 195.646 140.518 196.162 139.541C196.677 138.564 196.957 137.477 196.976 136.37C196.987 135.874 196.899 135.381 196.719 134.92C196.687 134.794 196.687 134.663 196.718 134.537C196.749 134.411 196.811 134.296 196.897 134.2C197.075 133.99 197.273 133.98 197.352 134.2C197.574 134.769 197.681 135.378 197.668 135.99C197.668 138.63 196.047 141.75 194.059 142.91V142.92Z" fill="white"/>
<path d="M255.579 88.6699L223.939 107.12C222.692 107.94 221.654 109.048 220.91 110.351C220.166 111.654 219.737 113.117 219.658 114.62V170.29C219.658 173.05 221.566 174.17 223.939 172.79L255.579 154.34C256.824 153.517 257.861 152.409 258.604 151.107C259.348 149.804 259.778 148.342 259.86 146.84V91.1699C259.86 88.4099 257.942 87.2899 255.579 88.6699Z" fill="#455A64"/>
<path d="M259.505 149.05C258.846 151.231 257.445 153.105 255.55 154.34L253.78 155.34L252.939 155.84C250.141 151.91 247.679 148.27 247.679 148.27C246.906 146.134 246.246 143.957 245.702 141.75C245.279 140.066 244.969 138.356 244.772 136.63C246.558 136.084 248.464 136.084 250.25 136.63C252.03 137.478 253.495 138.88 254.432 140.63C255.441 142.22 257.567 145.79 259.505 149.05Z" fill="#415DA1"/>
<path opacity="0.3" d="M259.505 149.05C258.846 151.231 257.445 153.105 255.55 154.34L253.78 155.34L252.939 155.84C250.141 151.91 247.679 148.27 247.679 148.27C246.906 146.134 246.246 143.957 245.702 141.75C245.279 140.066 244.969 138.356 244.772 136.63C246.558 136.084 248.464 136.084 250.25 136.63C252.03 137.478 253.495 138.88 254.432 140.63C255.441 142.22 257.567 145.79 259.505 149.05Z" fill="black"/>
<path d="M253.809 155.37L252.969 155.86L244.852 160.6L243.606 161.32L227.351 170.8L226.688 171.18L226.609 168.35L227.43 155.23C227.43 152.7 228.725 142.63 228.725 142.63L232.413 141.14L234.638 140.25L235.37 139.96L235.666 139.84L241.816 137.35C242.221 137.2 242.617 137.08 242.993 136.98C243.116 136.941 243.241 136.911 243.368 136.89C243.848 136.765 244.338 136.685 244.832 136.65C249.4 136.29 251.842 139.76 252.969 145.31C253.436 148.645 253.717 152.003 253.809 155.37Z" fill="#415DA1"/>
<path d="M230.198 158.67C230.198 158.67 228.655 164.67 227.35 170.8L226.688 171.19L223.722 172.92C221.467 174.09 219.688 172.92 219.688 170.29V157.7C220.518 152.42 221.467 148.86 222.842 146.52C224.216 144.18 226.431 143.46 228.725 142.63C230.811 144.2 231.671 151.7 230.198 158.67Z" fill="#415DA1"/>
<path opacity="0.3" d="M230.198 158.67C230.198 158.67 228.655 164.67 227.35 170.8L226.688 171.19L223.722 172.92C221.467 174.09 219.688 172.92 219.688 170.29V157.7C220.518 152.42 221.467 148.86 222.842 146.52C224.216 144.18 226.431 143.46 228.725 142.63C230.811 144.2 231.671 151.7 230.198 158.67Z" fill="black"/>
<path d="M233.075 113.58C232.444 113.816 231.866 114.176 231.374 114.639C230.881 115.103 230.485 115.661 230.208 116.28C229.535 118.01 229.772 121.85 230.672 125.93C231.159 128.52 231.915 131.051 232.927 133.48C233.082 133.796 233.309 134.07 233.589 134.28C233.869 134.491 234.194 134.631 234.538 134.69L234.429 129.69L234.271 126.22C235.323 124.361 236.046 122.331 236.407 120.22C236.684 116.94 236.1 115.72 236.1 115.72L233.075 113.58Z" fill="#263238"/>
<path d="M232.58 114.28L229.614 113.28C229.736 112.795 230.034 112.375 230.447 112.101C230.861 111.827 231.361 111.72 231.849 111.8C232.263 112.038 232.571 112.429 232.707 112.891C232.844 113.353 232.798 113.851 232.58 114.28Z" fill="#263238"/>
<path d="M236.467 117.84C236.467 123.01 240.095 126.55 244.525 125.75C248.955 124.95 252.544 120.09 252.534 114.91C252.524 109.73 248.915 106.19 244.476 107C240.036 107.81 236.457 112.66 236.467 117.84Z" fill="#263238"/>
<path d="M234.39 125.64C233.668 126.5 233.075 124.71 232.472 124.08C231.869 123.45 229.881 122.8 228.893 125.41C227.904 128.02 229.802 131.09 231.285 131.63C233.461 132.42 234.43 129.69 234.43 129.69L234.657 140.98C236.763 144.33 241.776 145.03 244.179 143.88C246.818 142.63 245.167 140.58 243.397 139.07V135.63C244.617 135.634 245.832 135.486 247.016 135.19C248.994 134.47 249.982 132.55 250.605 129.94C251.766 123.812 251.766 117.517 250.605 111.39C248.391 109.79 240.718 111.49 236.091 115.75C236.437 122.6 235.112 124.78 234.39 125.64Z" fill="#FFA8A7"/>
<path d="M251.713 105.68C251.653 105.56 251.554 105.45 251.426 105.47C251.319 105.504 251.226 105.57 251.159 105.66C250.61 106.262 250.022 106.826 249.399 107.35C249.552 106.423 249.552 105.477 249.399 104.55C249.31 103.99 249.172 102.7 248.568 102.67C248.212 102.67 247.906 103.05 247.639 103.39C245.217 106.46 242.072 105.8 239.166 106.39C236.733 106.91 233.797 108.59 232.699 111.55C232.195 112.9 232.106 114.25 233.105 114.95C234.002 115.484 235.031 115.747 236.071 115.71C240.916 115.83 247.857 116.92 251.436 111.01C251.955 110.136 252.216 109.129 252.187 108.11C252.199 107.271 252.034 106.439 251.703 105.67L251.713 105.68Z" fill="#263238"/>
<path d="M243.387 135.63C243.387 135.63 238.968 135.39 237.455 134.72C236.526 134.303 235.77 133.571 235.319 132.65C235.542 133.617 235.956 134.528 236.535 135.33C237.673 136.8 243.457 137 243.457 137L243.387 135.63Z" fill="#F28F8F"/>
<path d="M242.241 123C242.25 123.274 242.168 123.544 242.009 123.767C241.85 123.99 241.622 124.152 241.361 124.23C240.877 124.31 240.471 123.91 240.471 123.31C240.463 123.035 240.544 122.765 240.703 122.543C240.863 122.32 241.091 122.157 241.351 122.08C241.885 122 242.241 122.41 242.241 123Z" fill="#263238"/>
<path d="M241.291 119.28L239.403 120.84C239.276 120.526 239.249 120.179 239.327 119.849C239.405 119.519 239.584 119.222 239.838 119C239.942 118.897 240.068 118.821 240.208 118.778C240.347 118.735 240.494 118.727 240.637 118.755C240.78 118.782 240.914 118.845 241.028 118.936C241.142 119.027 241.232 119.145 241.291 119.28Z" fill="#263238"/>
<path d="M242.082 128.87L245.731 129.8C245.631 130.371 245.32 130.881 244.86 131.227C244.401 131.573 243.828 131.728 243.259 131.66C242.999 131.557 242.763 131.402 242.563 131.205C242.363 131.009 242.203 130.774 242.094 130.514C241.984 130.254 241.927 129.975 241.925 129.693C241.923 129.411 241.976 129.131 242.082 128.87Z" fill="#B16668"/>
<path d="M242.706 130.13C242.475 130.131 242.248 130.175 242.033 130.26C242.087 130.586 242.23 130.891 242.447 131.138C242.664 131.386 242.945 131.567 243.259 131.66C243.689 131.76 244.14 131.685 244.515 131.45C244.39 131.065 244.147 130.73 243.822 130.493C243.497 130.256 243.106 130.129 242.706 130.13Z" fill="#F28F8F"/>
<path d="M249.795 118.59L248.064 117.36C248.119 117.218 248.203 117.09 248.31 116.983C248.418 116.877 248.547 116.796 248.689 116.745C248.83 116.693 248.981 116.673 249.131 116.686C249.281 116.699 249.426 116.745 249.557 116.82C249.798 117.038 249.954 117.337 249.997 117.661C250.041 117.985 249.969 118.314 249.795 118.59Z" fill="#263238"/>
<path d="M249.222 121.43C249.23 121.704 249.149 121.974 248.99 122.197C248.83 122.419 248.602 122.582 248.342 122.66C247.847 122.75 247.452 122.34 247.452 121.75C247.443 121.475 247.525 121.205 247.684 120.983C247.843 120.76 248.071 120.597 248.332 120.52C248.806 120.43 249.222 120.84 249.222 121.43Z" fill="#263238"/>
<path d="M245.078 121.21L245.385 127.36L248.163 125.75L245.078 121.21Z" fill="#F28F8F"/>
<path d="M395.218 186.1C402.96 185.57 406.875 187.15 411.749 195.61C417.207 205.08 428.726 228.61 429.418 230.2C430.743 233.2 431.346 236.38 428.538 239.03C420.856 246.32 406.43 258.56 406.43 258.56L401.071 245.36L412.323 232.69L402.821 213.64L395.218 186.1Z" fill="#FFA8A7"/>
<path d="M412.323 232.69C413.519 234.797 414.916 236.78 416.495 238.61C414.275 237.681 412.425 236.031 411.235 233.92L412.323 232.69Z" fill="#F28F8F"/>
<path d="M393.418 186.13C396.292 185.541 399.25 185.5 402.139 186.01C406.094 186.93 409.445 190.07 412.817 196.1C416.189 202.13 423.535 217.5 423.535 217.5C423.535 217.5 420.737 223.71 409.396 227.78L395.722 207.88L393.418 186.13Z" fill="#415DA1"/>
<path opacity="0.3" d="M393.418 186.13C396.292 185.541 399.25 185.5 402.139 186.01C406.094 186.93 409.445 190.07 412.817 196.1C416.189 202.13 423.535 217.5 423.535 217.5C423.535 217.5 420.737 223.71 409.396 227.78L395.722 207.88L393.418 186.13Z" fill="black"/>
<path d="M326.916 426.61C326.511 427.945 326.477 429.367 326.817 430.72C327.203 431.54 329.645 434.26 334.609 435.25C339.572 436.24 346.404 435.25 349.341 435.07C352.277 434.89 361.512 436.07 364.449 436.43C369.056 437.06 372.606 436.04 374.336 434.35C374.616 434.012 374.822 433.619 374.942 433.195C375.061 432.771 375.09 432.326 375.028 431.89C375.014 430.766 374.851 429.65 374.544 428.57L326.916 426.61Z" fill="#37474F"/>
<path d="M373.713 423.69C373.802 424.07 373.891 424.46 373.96 424.86C374.412 426.842 374.556 428.883 374.385 430.91C373.792 432.38 372.161 433.2 370.846 433.62C367.375 434.73 364.735 434.55 360.889 433.82C357.017 433.244 353.105 433 349.192 433.09C346.167 433.3 342.004 433.88 338.969 433.6C336.396 433.488 333.856 432.965 331.445 432.05C329.467 431.18 327.361 430.05 326.867 427.95C326.274 423.52 328.113 421.56 330.199 420.33C332.285 419.1 335.212 419.19 338.366 418.98C341.223 418.78 343.309 418.78 345.841 418.58C348.042 418.477 350.229 418.172 352.376 417.67C354.284 417.06 356.252 414.59 357.063 414.5C357.063 414.5 369.768 414.4 370.984 414.5C372.388 414.62 372.813 419.01 372.962 419.97C373.1 420.72 373.13 421.52 373.327 422.24C373.476 422.72 373.604 423.2 373.713 423.69Z" fill="#455A64"/>
<path d="M334.559 433C334.163 429.81 333.639 422.9 339.443 418.9H340.184C337.559 418.132 334.772 418.132 332.146 418.9C327.499 420.15 325.442 423.95 326.599 427.97C326.599 427.94 327.637 431.83 334.559 433Z" fill="#FAFAFA"/>
<path d="M351.516 417.9C349.637 419.58 348.985 423.41 348.985 423.41C348.738 424.85 346.167 425.06 346.414 423.68C346.806 421.771 347.561 419.957 348.639 418.34C349.521 417.869 350.535 417.714 351.516 417.9Z" fill="#FAFAFA"/>
<path d="M346.245 418.55C344.832 419.96 343.906 421.794 343.605 423.78C343.348 425.15 341.203 425.13 341.351 423.78C341.351 423.78 341.608 420.39 343.615 418.78C344.003 418.531 344.445 418.38 344.903 418.34C345.36 418.3 345.821 418.372 346.245 418.55Z" fill="#FAFAFA"/>
<path d="M371.409 405.12C371.409 405.12 371.073 413.39 370.618 416.12C370.341 417.74 368.255 419.43 363.044 419.25C359.376 419.13 356.499 419.44 356.647 416.54L356.963 408.1L371.409 405.12Z" fill="#FFA8A7"/>
<path d="M379.546 385.64C379.358 387.89 379.062 389.93 379.971 392.41C381.276 395.97 384.045 397.61 385.666 399.01C387.383 400.721 388.963 402.567 390.393 404.53C391.984 406.53 392.37 407.75 394.802 409.81C396.345 411.1 400.656 412.16 403.305 411.02C405.382 410.13 406.104 409.41 405.975 406.2C405.846 402.99 395.712 401.88 395.712 401.88L379.546 385.64Z" fill="#37474F"/>
<path d="M404.66 396.61C405.53 396.92 405.748 398.51 405.876 401.66C405.975 404.04 407.023 407.53 403.602 409.03C400.853 410.24 396.453 409.44 394.595 407.19C392.271 404.39 390.699 401.92 387.387 398.5C384.51 395.5 381.524 394.5 380.238 388.6C379.418 384.78 380.07 383.2 382.74 382.11C386.408 380.6 392.172 385.52 395.04 386.29C397.521 387 403.8 396.29 404.66 396.61Z" fill="#455A64"/>
<path d="M395.04 386.29L394.555 386.13C392.921 386.195 391.331 386.691 389.944 387.568C388.557 388.445 387.42 389.673 386.645 391.13C386.151 392.13 387.634 392.98 388.553 392.13C390.61 388.21 394.812 387.34 396.463 387.13C396.048 386.758 395.564 386.473 395.04 386.29Z" fill="#FAFAFA"/>
<path d="M397.413 388.09C395.869 388.237 394.386 388.772 393.099 389.645C391.811 390.518 390.758 391.702 390.037 393.09C389.542 394.09 391.026 394.93 391.955 394.09C392.652 392.861 393.604 391.8 394.746 390.979C395.888 390.159 397.193 389.6 398.57 389.34C398.174 388.89 397.788 388.47 397.413 388.09Z" fill="#FAFAFA"/>
<path d="M405.154 390.91L404.66 397.56C404.66 397.56 400.487 400.65 394.505 397.82C394.327 397.45 393.823 391.51 393.823 391.51L405.154 390.91Z" fill="#FFA8A7"/>
<path d="M381.929 393C381.929 393 382.216 385.93 392.133 384.95L392.706 385.26C391.577 383.484 389.837 382.194 387.822 381.64C384.53 380.78 381.89 381.64 380.189 383.75C378.488 385.86 380.209 391.61 381.929 393Z" fill="#FAFAFA"/>
<path d="M408.051 346.64C406.637 335.01 406.074 328.52 406.074 328.52C406.074 328.52 405.787 312.16 406.776 297.06C407.211 290.41 407.428 283.06 407.567 276.43C407.741 269.056 407.161 261.683 405.836 254.43C405.836 254.43 354.917 244.19 354.284 263.09C353.522 285.73 354.116 331.24 354.432 337.15C354.887 345.46 354.343 353.82 354.857 369.95C355.292 383.32 356.291 410.82 356.291 410.82C363.291 413.24 371.577 410.82 371.577 410.82C371.577 410.82 376.847 372.47 377.45 362.92C378.093 352.65 377.015 347.44 377.015 347.44L382.285 299.58C382.285 299.58 382.68 314.94 383.135 323.24C383.59 331.54 384.766 336.61 386.902 352.07C388.751 365.47 393.556 392.51 393.556 392.51C397.296 393.978 401.444 393.978 405.184 392.51C405.184 392.51 409.475 358.27 408.051 346.64Z" fill="#455A64"/>
<path d="M401.071 280.55C401.071 280.55 394.694 288.78 386.507 292.32C386.507 292.32 382.948 321.26 382.977 320.69L382.048 291.56C382.048 291.56 394.288 286.08 401.071 280.55Z" fill="#37474F"/>
<path d="M374.811 178.88L375.611 196.1L392.499 195.19L391.975 175.17L374.811 178.88Z" fill="#FFA8A7"/>
<path d="M409.07 194.87C407.656 190.17 402.742 186.3 396.543 186.11C395.168 186.11 392.261 186.11 392.261 186.11C391.559 189.01 382.769 190.11 375.255 188.3C372.981 188.91 363.539 191.21 361.65 191.84C356.252 193.66 354.581 199.23 353.74 217.05C353.74 217.05 353.908 252.19 353.74 268.96C363.242 274.03 377.935 273.4 388.346 272.33C404.759 270.65 407.201 264.64 407.201 264.64C406.519 254.86 406.934 251.18 407.201 241.52C407.399 234.27 409.465 226.59 410.108 218.37C411.097 206.16 410.039 198.1 409.07 194.87Z" fill="#415DA1"/>
<path d="M363.499 157.74C363.499 157.74 359.475 163.92 359.94 164.52C360.404 165.12 363.361 165.68 363.361 165.68L363.499 157.74Z" fill="#F28F8F"/>
<path d="M374.632 140.65C366.485 142.39 363.232 144.8 362.768 158.87C362.273 172.56 363.974 177.07 365.734 178.87C366.93 180.11 373.594 180.34 376.956 179.4C381.158 178.23 390.67 174.82 395.119 167.94C400.359 159.85 401.734 148.88 396.108 144.38C388.218 138.09 377.945 139.94 374.632 140.65Z" fill="#FFA8A7"/>
<path d="M365.724 178.91C366.712 179.91 371.359 180.26 374.86 179.83L374.81 177.83C371.906 178.903 368.794 179.273 365.724 178.91Z" fill="#F28F8F"/>
<path d="M361.65 145.93C363.676 147.404 366.192 148.018 368.66 147.64C368.61 148.742 368.9 149.832 369.491 150.76C370.318 152.025 371.573 152.942 373.02 153.34C372.131 155.106 371.657 157.057 371.636 159.04C371.58 159.666 371.715 160.294 372.022 160.84C372.117 161.038 372.267 161.204 372.453 161.318C372.639 161.432 372.853 161.49 373.071 161.485C373.289 161.48 373.5 161.412 373.68 161.288C373.861 161.165 374.002 160.992 374.088 160.79C374.546 159.726 375.123 158.72 375.809 157.79C376.685 156.711 377.924 155.999 379.289 155.79C384.411 155.23 385.043 161.99 382.997 164.79C379.645 169.38 376.807 166.28 376.807 166.28C376.671 168.436 376.991 170.597 377.746 172.618C378.501 174.639 379.675 176.474 381.187 178C384.82 179.077 388.668 179.177 392.35 178.29C396.898 171.97 399.756 168.9 402.168 163.45C407.29 151.92 404.818 144.69 400.863 141.64C400.072 136.32 395.92 133.94 391.223 132.85C384.173 131.21 377.579 135.44 370.598 133.85C369.45 133.61 368.314 133.309 367.197 132.95C366.767 132.745 366.277 132.709 365.822 132.85C365.573 133.021 365.378 133.261 365.261 133.541C365.143 133.821 365.108 134.13 365.16 134.43C365.249 135.79 366.613 137.3 367.306 138.03C365.781 138.174 364.245 138.083 362.747 137.76C362.221 137.679 361.684 137.7 361.166 137.82C360.596 138.042 360.112 138.444 359.786 138.966C359.46 139.489 359.309 140.104 359.356 140.72C359.351 141.703 359.553 142.676 359.949 143.575C360.344 144.473 360.924 145.276 361.65 145.93Z" fill="#263238"/>
<path d="M400.992 143.44L405.866 140.53C405.484 139.876 404.862 139.403 404.135 139.213C403.408 139.024 402.637 139.134 401.99 139.52C401.344 139.906 400.875 140.536 400.688 141.271C400.501 142.006 400.61 142.786 400.992 143.44Z" fill="#263238"/>
<path d="M302.297 205.71C303.621 208.23 318.235 235.29 322.487 239.38C325.512 242.3 330.199 244.28 335.053 240.07C344.1 232.22 357.626 218.88 357.626 218.88C368.611 212.41 369.758 197.88 364.794 192.8C364.794 192.8 360.385 189.45 353.79 195.72C342.835 206.14 328.824 221.72 328.824 221.72C326.125 218.12 323.732 215.27 320.816 211.17C318.492 207.9 314.883 204.47 314.735 200.17C314.656 197.95 315.467 195.73 315.803 193.55C316.228 190.71 316.623 187.89 317.088 185.05C317.256 184.492 317.203 183.889 316.94 183.37C316.64 183.065 316.236 182.888 315.812 182.875C315.387 182.862 314.973 183.014 314.656 183.3C313.932 183.952 313.382 184.777 313.054 185.7L311.739 188.6C311.531 189.06 311.235 189.6 310.75 189.6C309.514 189.6 308.852 186.39 308.634 185.51C308.25 183.775 308.1 181.996 308.189 180.22C308.239 178.88 308.269 177.29 307.201 176.5C306.714 176.236 306.171 176.099 305.619 176.099C305.067 176.099 304.523 176.236 304.037 176.5C301.292 177.618 299.06 179.733 297.778 182.43C296.008 186.24 296.789 190.67 297.778 194.58C298.847 198.457 300.363 202.192 302.297 205.71Z" fill="#FFA8A7"/>
<path d="M328.825 221.76C326.066 224.82 324.445 230.88 324.445 230.88C324.445 230.88 324.148 224.46 327.411 219.88L328.825 221.76Z" fill="#F28F8F"/>
<path d="M365.882 190.73C361.571 190.94 357.408 192.07 354.126 194.87C351.634 197 333.837 215.16 333.837 215.16C333.837 215.16 337.535 225.16 346.908 230.45L364.053 215.16C364.053 215.16 373.386 202.53 365.882 190.73Z" fill="#415DA1"/>
<g opacity="0.3">
<path d="M365.882 190.73C361.571 190.94 357.408 192.07 354.126 194.87C351.634 197 333.837 215.16 333.837 215.16C333.837 215.16 337.535 225.16 346.908 230.45L364.053 215.16C364.053 215.16 373.386 202.53 365.882 190.73Z" fill="black"/>
</g>
</svg>
