<svg width="189" height="50" viewBox="0 0 189 50" fill="none" xmlns="http://www.w3.org/2000/svg">
<g clip-path="url(#clip0_162_95)">
<path d="M29.744 9.31836H29.7358V9.33557H29.744V9.31836Z" fill="#415DA1"/>
<path d="M40.6843 7.83896H36.2937V12.2808H40.6843V7.83896Z" fill="#415DA1"/>
<path d="M47.0615 12.1729H42.6709V16.6147H47.0615V12.1729Z" fill="#415DA1"/>
<path d="M43.6699 36.2666H39.2793V40.7084H43.6699V36.2666Z" fill="#415DA1"/>
<path d="M40.5635 27.6328H36.1729V32.0746H40.5635V27.6328Z" fill="#415DA1"/>
<path d="M36.3496 33.4854H31.959V37.9272H36.3496V33.4854Z" fill="#415DA1"/>
<path d="M35.1895 4.64079H30.7988V9.0826H35.1895V4.64079Z" fill="#415DA1"/>
<path d="M40.9558 17.4647H36.5652V21.9065H40.9558V17.4647Z" fill="#415DA1"/>
<path d="M35.6988 21.7217H31.3081V26.1635H35.6988V21.7217Z" fill="#415DA1"/>
<path d="M31.017 31.5518V27.1074L26.6221 27.1109V31.5518H31.017Z" fill="#415DA1"/>
<path d="M36.3163 48.4867C35.5332 45.8571 34.9816 43.1625 34.6679 40.4345H29.7263V35.9948H25.3365V31.553H20.9458V27.1112H25.3365V22.6295H29.731V18.2081H34.1199V13.7654L29.7357 13.7607V9.33619L25.3335 9.33358V4.89091L29.7293 4.88007V1.73175C27.6304 1.04478 25.4497 0.646745 23.2459 0.548364C12.4786 -0.0151521 3.25727 6.98112 3.55421 16.6303C3.5932 17.9038 3.81344 19.7794 3.8083 21.0049C3.79845 25.3578 0.0753747 27.1459 0.00381841 28.5313C-0.114014 30.8062 2.52757 30.0957 3.45909 33.3138C4.6417 37.3993 2.94491 42.0583 8.45004 41.7705C10.646 41.6812 14.2148 40.819 15.7441 42.2577C16.7193 43.1749 17.5047 47.1785 17.8111 48.9501C17.8524 49.1882 17.9756 49.4039 18.1588 49.5592C18.342 49.7144 18.5734 49.7993 18.8124 49.7988H35.3385C35.4961 49.7992 35.6517 49.7625 35.7928 49.6916C35.934 49.6206 36.0568 49.5174 36.1517 49.3901C36.2466 49.2628 36.3109 49.1149 36.3394 48.9581C36.368 48.8013 36.3601 48.6399 36.3163 48.4867ZM16.8418 13.7793H12.4512V9.33619H16.8418V13.7793ZM21.2295 11.0345H25.6201V15.4763H21.2295V11.0345ZM17.9443 21.4735V17.0312H22.335V21.4735H17.9443ZM23.4782 41.4857H19.0875V37.043H23.4782V41.4857Z" fill="#415DA1"/>
<path d="M60.9897 37.6964H57.2271V10.2325H60.9088V13.3022C61.9607 11.3376 64.2668 9.78223 67.4226 9.78223C73.2486 9.78223 76.3639 14.3254 76.3639 20.0556C76.3639 25.9086 73.0058 30.4518 67.3012 30.4518C64.3073 30.4518 62.0416 29.0192 60.9897 27.2593V37.6964ZM72.4799 20.0556C72.4799 16.1264 70.2951 13.1794 66.7348 13.1794C63.2553 13.1794 60.9492 16.1264 60.9492 20.0556C60.9492 24.1077 63.2553 27.0137 66.7348 27.0137C70.2546 27.0137 72.4799 24.1077 72.4799 20.0556ZM79.3982 24.8035L82.8372 23.5756C83.0799 25.6221 84.6174 27.2593 87.3685 27.2593C89.5128 27.2593 90.6861 26.0314 90.6861 24.6398C90.6861 23.4119 89.796 22.4705 88.1777 22.1021L84.8601 21.3654C81.8257 20.7105 80.0051 18.6231 80.0051 15.8398C80.0051 12.4836 83.1204 9.61851 86.9235 9.61851C92.264 9.61851 93.9228 13.1385 94.3274 14.8985L90.9693 16.1673C90.8075 15.144 89.9983 12.8929 86.9235 12.8929C84.9815 12.8929 83.6868 14.1617 83.6868 15.5124C83.6868 16.6994 84.4151 17.5589 85.912 17.8863L89.0678 18.5821C92.5877 19.3598 94.4487 21.5291 94.4487 24.4351C94.4487 27.2183 92.1426 30.5336 87.3281 30.5336C81.9876 30.5336 79.7219 27.0546 79.3982 24.8035ZM103.269 29.9197H99.506V10.2325H103.269V29.9197ZM98.6564 2.78323C98.6564 1.22789 99.8702 0 101.367 0C102.905 0 104.118 1.22789 104.118 2.78323C104.118 4.29763 102.905 5.52553 101.367 5.52553C99.8702 5.52553 98.6564 4.29763 98.6564 2.78323ZM112.008 20.0147C112.008 24.0667 114.071 27.0546 117.712 27.0546C121.192 27.0546 123.336 23.9849 123.336 19.9328C123.336 15.8808 121.232 13.0975 117.753 13.0975C114.273 13.0975 112.008 15.9626 112.008 20.0147ZM123.376 27.2593V26.9318C122.446 28.8146 120.383 30.4518 117.348 30.4518C111.644 30.4518 108.124 25.8676 108.124 20.0147C108.124 14.4482 111.846 9.70037 117.348 9.70037C120.787 9.70037 122.648 11.4194 123.296 13.0157V0.286508H127.058V26.2769C127.058 28.1597 127.22 29.5923 127.26 29.9197H123.579C123.498 29.4695 123.376 28.4462 123.376 27.2593ZM136 18.0501H146.64C146.559 15.2259 144.739 13.0157 141.3 13.0157C138.103 13.0157 136.161 15.5124 136 18.0501ZM147.206 23.1663L150.484 24.3123C149.391 27.7914 146.276 30.5336 141.745 30.5336C136.525 30.5336 131.954 26.6862 131.954 20.0147C131.954 13.8343 136.364 9.61851 141.259 9.61851C147.247 9.61851 150.605 13.7933 150.605 19.9328C150.605 20.424 150.565 20.9151 150.524 21.1607H135.878C135.959 24.6807 138.467 27.1365 141.745 27.1365C144.9 27.1365 146.478 25.3765 147.206 23.1663ZM172.129 10.2325L164.361 29.9197H160.517L152.628 10.2325H156.916L162.459 25.4174L168.043 10.2325H172.129ZM173.949 24.8035L177.388 23.5756C177.631 25.6221 179.169 27.2593 181.92 27.2593C184.064 27.2593 185.237 26.0314 185.237 24.6398C185.237 23.4119 184.347 22.4705 182.729 22.1021L179.411 21.3654C176.377 20.7105 174.556 18.6231 174.556 15.8398C174.556 12.4836 177.672 9.61851 181.475 9.61851C186.815 9.61851 188.474 13.1385 188.879 14.8985L185.521 16.1673C185.359 15.144 184.55 12.8929 181.475 12.8929C179.533 12.8929 178.238 14.1617 178.238 15.5124C178.238 16.6994 178.966 17.5589 180.463 17.8863L183.619 18.5821C187.139 19.3598 189 21.5291 189 24.4351C189 27.2183 186.694 30.5336 181.879 30.5336C176.539 30.5336 174.273 27.0546 173.949 24.8035Z" fill="#415DA1"/>
<path d="M59.8611 50C58.3462 50 57.2271 48.9579 57.2271 47.3208C57.2271 45.6838 58.3462 44.6453 59.8611 44.6453C61.0088 44.6453 61.9284 45.2402 62.2955 46.2283L61.2975 46.596C61.0694 45.9903 60.524 45.6405 59.8611 45.6405C58.9736 45.6405 58.2928 46.2679 58.2928 47.3208C58.2928 48.3738 58.9735 49.0047 59.8611 49.0047C60.524 49.0047 61.0694 48.6514 61.2975 48.0456L62.2955 48.4134C61.9284 49.4014 61.0088 50 59.8611 50ZM66.3481 48.9723H67.9628V49.9279H65.2788V44.7175H66.3481V48.9723ZM71.0958 44.2305L72.0296 42.9035L72.5358 43.2677L71.7267 44.2305L71.0958 44.2305ZM70.8855 49.9279V44.7175H71.9548V49.9279H70.8855ZM78.9088 44.7175H79.9745V49.9279H78.7377L76.4566 46.203V49.9279H75.3908V44.7175H76.6134L78.9088 48.4206V44.7175ZM83.4141 49.9279V44.7175H84.4834V49.9279H83.4141ZM90.2005 50C88.6857 50 87.5665 48.9579 87.5665 47.3208C87.5665 45.6838 88.6857 44.6453 90.2005 44.6453C91.3482 44.6453 92.2678 45.2402 92.6349 46.2283L91.6369 46.596C91.4088 45.9903 90.8635 45.6405 90.2005 45.6405C89.313 45.6405 88.6322 46.2679 88.6322 47.3208C88.6322 48.3738 89.313 49.0047 90.2005 49.0047C90.8635 49.0047 91.4088 48.6514 91.6369 48.0456L92.6349 48.4134C92.2678 49.4014 91.3482 50 90.2005 50ZM99.0651 49.9279L98.6909 48.8533H96.5274L96.1531 49.9279H95.0589L96.9551 44.7175H98.2632L100.159 49.9279H99.0651ZM96.8408 47.9483H98.3771L97.6107 45.7379L96.8408 47.9483ZM107.042 49.9279V44.7175H108.906C110.549 44.7175 111.362 45.7632 111.362 47.321C111.362 48.8823 110.549 49.928 108.906 49.928L107.042 49.9279ZM108.111 48.9723H108.853C109.801 48.9723 110.236 48.3738 110.236 47.3208C110.236 46.2679 109.801 45.6693 108.853 45.6693H108.111V48.9723ZM117.457 45.6694H115.546V46.8522H117.239V47.7933H115.546V48.9724H117.457V49.928H114.47V44.7176H117.457V45.6694ZM126.81 44.7175C127.818 44.7175 128.446 45.4748 128.446 46.4015C128.446 47.3498 127.818 48.0602 126.81 48.0602H125.737V49.928H124.667V44.7177L126.81 44.7175ZM126.631 47.155C127.166 47.155 127.415 46.8557 127.415 46.3869C127.415 45.9362 127.166 45.6225 126.631 45.6225H125.737V47.155H126.631ZM133.161 50C132.056 50 131.194 49.4627 131.037 48.4855L132.142 48.2295C132.213 48.8136 132.637 49.1165 133.204 49.1165C133.639 49.1165 133.985 48.9218 133.981 48.4819C133.977 47.9915 133.407 47.8365 132.78 47.6417C132.024 47.4037 131.215 47.1225 131.215 46.1633C131.215 45.1933 131.999 44.6453 133.033 44.6453C133.938 44.6453 134.851 45.0167 135.057 46.0155L134.024 46.2751C133.928 45.7558 133.582 45.5287 133.097 45.5287C132.666 45.5287 132.299 45.709 132.299 46.1381C132.299 46.5383 132.805 46.6717 133.389 46.8484C134.166 47.0864 135.086 47.3893 135.086 48.4278C135.086 49.5347 134.17 50 133.161 50ZM138.18 49.9279V44.7175H139.249V49.9279H138.18ZM144.966 50C143.451 50 142.332 48.9579 142.332 47.3208C142.332 45.6838 143.451 44.6453 144.966 44.6453C146.114 44.6453 147.034 45.2402 147.401 46.2283L146.403 46.596C146.175 45.9903 145.629 45.6405 144.966 45.6405C144.079 45.6405 143.398 46.2679 143.398 47.3208C143.398 48.3738 144.079 49.0047 144.966 49.0047C145.629 49.0047 146.175 48.6514 146.403 48.0456L147.401 48.4134C147.033 49.4014 146.114 50 144.966 50ZM152.665 50C151.15 50 150.031 48.9543 150.031 47.3208C150.031 45.6838 151.15 44.6453 152.665 44.6453C154.176 44.6453 155.296 45.6838 155.296 47.3208C155.296 48.9543 154.176 50 152.665 50ZM152.665 49.0084C153.553 49.0084 154.233 48.3774 154.233 47.3209C154.233 46.2679 153.553 45.6405 152.665 45.6405C151.778 45.6405 151.097 46.2679 151.097 47.3209C151.097 48.3774 151.778 49.0084 152.665 49.0084ZM159.455 48.9723H161.07V49.9279H158.386V44.7175H159.455V48.9723ZM166.274 50C164.759 50 163.64 48.9543 163.64 47.3208C163.64 45.6838 164.759 44.6453 166.274 44.6453C167.785 44.6453 168.904 45.6838 168.904 47.3208C168.904 48.9543 167.785 50 166.274 50ZM166.274 49.0084C167.161 49.0084 167.842 48.3774 167.842 47.3209C167.842 46.2679 167.161 45.6405 166.274 45.6405C165.386 45.6405 164.705 46.2679 164.705 47.3209C164.705 48.3774 165.386 49.0084 166.274 49.0084ZM174.222 50C172.736 50 171.642 48.9615 171.642 47.3353C171.642 45.6874 172.761 44.6453 174.276 44.6453C175.27 44.6453 176.093 45.0888 176.542 45.8713L175.605 46.3761C175.334 45.8424 174.849 45.5864 174.276 45.5864C173.384 45.5864 172.714 46.2066 172.714 47.31C172.714 48.3738 173.342 49.0588 174.315 49.0588C174.974 49.0588 175.58 48.7271 175.726 47.9663H174.318V47.0973H176.739V49.9278H175.897V49.2067C175.566 49.7007 175.01 50 174.222 50ZM179.954 49.9279V44.7175H181.023V49.9279H179.954ZM187.906 49.9279L187.531 48.8533H185.368L184.994 49.9279H183.899L185.796 44.7175H187.104L189 49.9279H187.906ZM185.681 47.9483H187.218L186.451 45.7379L185.681 47.9483Z" fill="#415DA1"/>
</g>
<defs>
<clipPath id="clip0_162_95">
<rect width="189" height="50" fill="white"/>
</clipPath>
</defs>
</svg>
