<svg width="171" height="45" viewBox="0 0 171 45" fill="none" xmlns="http://www.w3.org/2000/svg">
<g clip-path="url(#clip0_1279_130)">
<path d="M26.7793 8.38672H26.7711V8.40363H26.7793V8.38672Z" fill="#F5F5F5"/>
<path d="M36.6279 7.05566H32.675V11.0533H36.6279V7.05566Z" fill="#F5F5F5"/>
<path d="M42.3694 10.9561H38.4165V14.9537H42.3694V10.9561Z" fill="#F5F5F5"/>
<path d="M39.3159 32.6406H35.363V36.6383H39.3159V32.6406Z" fill="#F5F5F5"/>
<path d="M36.5192 24.8701H32.5663V28.8677H36.5192V24.8701Z" fill="#F5F5F5"/>
<path d="M32.7255 30.1367H28.7726V34.1343H32.7255V30.1367Z" fill="#F5F5F5"/>
<path d="M31.6809 4.17773H27.728V8.17536H31.6809V4.17773Z" fill="#F5F5F5"/>
<path d="M36.8725 15.7188H32.9196V19.7164H36.8725V15.7188Z" fill="#F5F5F5"/>
<path d="M32.1395 19.5508H28.1866V23.5484H32.1395V19.5508Z" fill="#F5F5F5"/>
<path d="M27.9245 28.3984V24.3984L23.9678 24.4016V28.3984H27.9245Z" fill="#F5F5F5"/>
<path d="M32.6955 43.6389C31.9905 41.2722 31.4938 38.8471 31.2115 36.3919H26.7625V32.3962H22.8104V28.3986H18.8575V24.401H22.8104V20.3675H26.7667V16.3882H30.7181V12.3898L26.771 12.3855V8.40345L22.8077 8.4011V4.4027L26.7652 4.39294V1.55945C24.8756 0.941181 22.9123 0.582949 20.9282 0.494407C11.2345 -0.012758 2.93252 6.28389 3.19985 14.9681C3.23495 16.1143 3.43323 17.8024 3.4286 18.9053C3.41973 22.8229 0.0678597 24.4322 0.00343771 25.679C-0.102646 27.7264 2.27557 27.087 3.11421 29.9833C4.17891 33.6602 2.6513 37.8533 7.60755 37.5943C9.58457 37.5139 12.7976 36.738 14.1743 38.0328C15.0523 38.8583 15.7594 42.4615 16.0353 44.056C16.0725 44.2703 16.1834 44.4644 16.3483 44.6041C16.5132 44.7439 16.7216 44.8203 16.9368 44.8198H31.8152C31.9571 44.8202 32.0971 44.7872 32.2242 44.7233C32.3513 44.6595 32.4619 44.5666 32.5473 44.452C32.6327 44.3374 32.6906 44.2043 32.7163 44.0631C32.742 43.922 32.7349 43.7768 32.6955 43.6389ZM15.1627 12.4022H11.2098V8.40345H15.1627V12.4022ZM19.1129 9.93196H23.0657V13.9296H19.1129V9.93196ZM16.1552 19.327V15.329H20.1081V19.327H16.1552ZM21.1373 37.338H17.1844V33.3396H21.1373V37.338Z" fill="#F5F5F5"/>
<path d="M54.9088 33.9267H51.5214V9.20921H54.836V11.972C55.783 10.2038 57.8592 8.804 60.7004 8.804C65.9455 8.804 68.7502 12.8929 68.7502 18.0501C68.7502 23.3177 65.7269 27.4066 60.5911 27.4066C57.8957 27.4066 55.8559 26.1173 54.9088 24.5333V33.9267ZM65.2534 18.0501C65.2534 14.5137 63.2865 11.8615 60.0811 11.8615C56.9486 11.8615 54.8724 14.5137 54.8724 18.0501C54.8724 21.6969 56.9486 24.3123 60.0811 24.3123C63.2501 24.3123 65.2534 21.6969 65.2534 18.0501ZM71.482 22.3231L74.5781 21.218C74.7967 23.0599 76.1808 24.5333 78.6577 24.5333C80.5882 24.5333 81.6445 23.4282 81.6445 22.1758C81.6445 21.0707 80.8431 20.2234 79.3862 19.8919L76.3993 19.2288C73.6675 18.6394 72.0284 16.7608 72.0284 14.2559C72.0284 11.2352 74.8331 8.65666 78.257 8.65666C83.065 8.65666 84.5584 11.8246 84.9227 13.4086L81.8995 14.5506C81.7538 13.6296 81.0253 11.6036 78.257 11.6036C76.5086 11.6036 75.343 12.7455 75.343 13.9612C75.343 15.0294 75.9987 15.803 77.3464 16.0977L80.1875 16.7239C83.3564 17.4238 85.032 19.3762 85.032 21.9916C85.032 24.4965 82.9558 27.4803 78.6212 27.4803C73.8132 27.4803 71.7734 24.3492 71.482 22.3231ZM92.9725 26.9277H89.585V9.20921H92.9725V26.9277ZM88.8201 2.5049C88.8201 1.1051 89.9129 0 91.2606 0C92.6447 0 93.7374 1.1051 93.7374 2.5049C93.7374 3.86787 92.6447 4.97297 91.2606 4.97297C89.9129 4.97297 88.8201 3.86787 88.8201 2.5049ZM100.84 18.0132C100.84 21.6601 102.698 24.3492 105.976 24.3492C109.109 24.3492 111.039 21.5864 111.039 17.9395C111.039 14.2927 109.145 11.7878 106.013 11.7878C102.88 11.7878 100.84 14.3664 100.84 18.0132ZM111.076 24.5333V24.2386C110.238 25.9331 108.38 27.4066 105.648 27.4066C100.512 27.4066 97.3435 23.2809 97.3435 18.0132C97.3435 13.0034 100.695 8.73033 105.648 8.73033C108.744 8.73033 110.42 10.2775 111.003 11.7141V0.257858H114.39V23.6493C114.39 25.3437 114.536 26.633 114.572 26.9277H111.258C111.185 26.5225 111.076 25.6016 111.076 24.5333ZM122.44 16.245H132.02C131.947 13.7033 130.308 11.7141 127.212 11.7141C124.334 11.7141 122.586 13.9612 122.44 16.245ZM132.53 20.8497L135.48 21.8811C134.497 25.0122 131.692 27.4803 127.612 27.4803C122.914 27.4803 118.798 24.0176 118.798 18.0132C118.798 12.4509 122.768 8.65666 127.175 8.65666C132.566 8.65666 135.589 12.414 135.589 17.9395C135.589 18.3816 135.553 18.8236 135.516 19.0446H122.331C122.404 22.2126 124.662 24.4228 127.612 24.4228C130.453 24.4228 131.874 22.8388 132.53 20.8497ZM154.967 9.20921L147.974 26.9277H144.513L137.41 9.20921H141.272L146.262 22.8757L151.288 9.20921H154.967ZM156.606 22.3231L159.702 21.218C159.921 23.0599 161.305 24.5333 163.782 24.5333C165.712 24.5333 166.769 23.4282 166.769 22.1758C166.769 21.0707 165.967 20.2234 164.51 19.8919L161.524 19.2288C158.792 18.6394 157.153 16.7608 157.153 14.2559C157.153 11.2352 159.957 8.65666 163.381 8.65666C168.189 8.65666 169.683 11.8246 170.047 13.4086L167.024 14.5506C166.878 13.6296 166.149 11.6036 163.381 11.6036C161.633 11.6036 160.467 12.7455 160.467 13.9612C160.467 15.0294 161.123 15.803 162.471 16.0977L165.312 16.7239C168.481 17.4238 170.156 19.3762 170.156 21.9916C170.156 24.4965 168.08 27.4803 163.745 27.4803C158.937 27.4803 156.898 24.3492 156.606 22.3231Z" fill="#F5F5F5"/>
<path d="M54.9088 33.9267H51.5214V9.20921H54.836V11.972C55.783 10.2038 57.8592 8.804 60.7004 8.804C65.9455 8.804 68.7502 12.8929 68.7502 18.0501C68.7502 23.3177 65.7269 27.4066 60.5911 27.4066C57.8957 27.4066 55.8559 26.1173 54.9088 24.5333V33.9267ZM65.2534 18.0501C65.2534 14.5137 63.2865 11.8615 60.0811 11.8615C56.9486 11.8615 54.8724 14.5137 54.8724 18.0501C54.8724 21.6969 56.9486 24.3123 60.0811 24.3123C63.2501 24.3123 65.2534 21.6969 65.2534 18.0501ZM71.482 22.3231L74.5781 21.218C74.7967 23.0599 76.1808 24.5333 78.6577 24.5333C80.5882 24.5333 81.6445 23.4282 81.6445 22.1758C81.6445 21.0707 80.8431 20.2234 79.3862 19.8919L76.3993 19.2288C73.6675 18.6394 72.0284 16.7608 72.0284 14.2559C72.0284 11.2352 74.8331 8.65666 78.257 8.65666C83.065 8.65666 84.5584 11.8246 84.9227 13.4086L81.8995 14.5506C81.7538 13.6296 81.0253 11.6036 78.257 11.6036C76.5086 11.6036 75.343 12.7455 75.343 13.9612C75.343 15.0294 75.9987 15.803 77.3464 16.0977L80.1875 16.7239C83.3564 17.4238 85.032 19.3762 85.032 21.9916C85.032 24.4965 82.9558 27.4803 78.6212 27.4803C73.8132 27.4803 71.7734 24.3492 71.482 22.3231ZM92.9725 26.9277H89.585V9.20921H92.9725V26.9277ZM88.8201 2.5049C88.8201 1.1051 89.9129 0 91.2606 0C92.6447 0 93.7374 1.1051 93.7374 2.5049C93.7374 3.86787 92.6447 4.97297 91.2606 4.97297C89.9129 4.97297 88.8201 3.86787 88.8201 2.5049ZM100.84 18.0132C100.84 21.6601 102.698 24.3492 105.976 24.3492C109.109 24.3492 111.039 21.5864 111.039 17.9395C111.039 14.2927 109.145 11.7878 106.013 11.7878C102.88 11.7878 100.84 14.3664 100.84 18.0132ZM111.076 24.5333V24.2386C110.238 25.9331 108.38 27.4066 105.648 27.4066C100.512 27.4066 97.3435 23.2809 97.3435 18.0132C97.3435 13.0034 100.695 8.73033 105.648 8.73033C108.744 8.73033 110.42 10.2775 111.003 11.7141V0.257858H114.39V23.6493C114.39 25.3437 114.536 26.633 114.572 26.9277H111.258C111.185 26.5225 111.076 25.6016 111.076 24.5333ZM122.44 16.245H132.02C131.947 13.7033 130.308 11.7141 127.212 11.7141C124.334 11.7141 122.586 13.9612 122.44 16.245ZM132.53 20.8497L135.48 21.8811C134.497 25.0122 131.692 27.4803 127.612 27.4803C122.914 27.4803 118.798 24.0176 118.798 18.0132C118.798 12.4509 122.768 8.65666 127.175 8.65666C132.566 8.65666 135.589 12.414 135.589 17.9395C135.589 18.3816 135.553 18.8236 135.516 19.0446H122.331C122.404 22.2126 124.662 24.4228 127.612 24.4228C130.453 24.4228 131.874 22.8388 132.53 20.8497ZM154.967 9.20921L147.974 26.9277H144.513L137.41 9.20921H141.272L146.262 22.8757L151.288 9.20921H154.967ZM156.606 22.3231L159.702 21.218C159.921 23.0599 161.305 24.5333 163.782 24.5333C165.712 24.5333 166.769 23.4282 166.769 22.1758C166.769 21.0707 165.967 20.2234 164.51 19.8919L161.524 19.2288C158.792 18.6394 157.153 16.7608 157.153 14.2559C157.153 11.2352 159.957 8.65666 163.381 8.65666C168.189 8.65666 169.683 11.8246 170.047 13.4086L167.024 14.5506C166.878 13.6296 166.149 11.6036 163.381 11.6036C161.633 11.6036 160.467 12.7455 160.467 13.9612C160.467 15.0294 161.123 15.803 162.471 16.0977L165.312 16.7239C168.481 17.4238 170.156 19.3762 170.156 21.9916C170.156 24.4965 168.08 27.4803 163.745 27.4803C158.937 27.4803 156.898 24.3492 156.606 22.3231Z" fill="#F5F5F5"/>
<path d="M53.8928 45.0001C52.529 45.0001 51.5214 44.0622 51.5214 42.5888C51.5214 41.1155 52.529 40.1808 53.8928 40.1808C54.926 40.1808 55.754 40.7163 56.0845 41.6055L55.186 41.9365C54.9806 41.3913 54.4896 41.0765 53.8928 41.0765C53.0938 41.0765 52.4808 41.6412 52.4808 42.5888C52.4808 43.5365 53.0937 44.1044 53.8928 44.1044C54.4896 44.1044 54.9806 43.7863 55.186 43.2411L56.0845 43.5721C55.7539 44.4613 54.926 45.0001 53.8928 45.0001ZM59.7331 44.0752H61.1867V44.9352H58.7704V40.2459H59.7331V44.0752ZM64.0073 39.8076L64.8481 38.6133L65.3037 38.9411L64.5753 39.8075L64.0073 39.8076ZM63.818 44.9352V40.2459H64.7807V44.9352H63.818ZM71.0414 40.2459H72.0009V44.9352H70.8874L68.8336 41.5828V44.9352H67.8742V40.2459H68.9748L71.0414 43.5787V40.2459ZM75.0975 44.9352V40.2459H76.0602V44.9352H75.0975ZM81.2073 45.0001C79.8435 45.0001 78.8359 44.0622 78.8359 42.5888C78.8359 41.1155 79.8435 40.1808 81.2073 40.1808C82.2406 40.1808 83.0685 40.7163 83.399 41.6055L82.5005 41.9365C82.2951 41.3913 81.8042 41.0765 81.2073 41.0765C80.4083 41.0765 79.7954 41.6412 79.7954 42.5888C79.7954 43.5365 80.4083 44.1044 81.2073 44.1044C81.8042 44.1044 82.2951 43.7863 82.5005 43.2411L83.399 43.5721C83.0685 44.4613 82.2406 45.0001 81.2073 45.0001ZM89.1881 44.9352L88.8511 43.9681H86.9033L86.5664 44.9352H85.5813L87.2884 40.2459H88.4661L90.1733 44.9352H89.1881ZM87.1856 43.1535H88.5686L87.8787 41.1642L87.1856 43.1535ZM96.3696 44.9352V40.2459H98.0478C99.5272 40.2459 100.259 41.187 100.259 42.589C100.259 43.9942 99.5271 44.9353 98.0478 44.9353L96.3696 44.9352ZM97.3322 44.0752H97.9997C98.8533 44.0752 99.2448 43.5365 99.2448 42.5888C99.2448 41.6412 98.8533 41.1025 97.9997 41.1025H97.3322V44.0752ZM105.746 41.1026H104.026V42.167H105.55V43.014H104.026V44.0752H105.746V44.9352H103.057V40.2459H105.746V41.1026ZM114.166 40.2459C115.074 40.2459 115.639 40.9274 115.639 41.7614C115.639 42.6149 115.074 43.2542 114.166 43.2542H113.2V44.9353H112.238V40.246L114.166 40.2459ZM114.006 42.4396C114.487 42.4396 114.712 42.1702 114.712 41.7483C114.712 41.3427 114.487 41.0603 114.006 41.0603H113.2V42.4396H114.006ZM119.885 45.0001C118.89 45.0001 118.113 44.5165 117.972 43.6371L118.967 43.4066C119.031 43.9324 119.413 44.205 119.923 44.205C120.315 44.205 120.626 44.0297 120.623 43.6338C120.62 43.1924 120.106 43.0529 119.541 42.8776C118.861 42.6634 118.133 42.4103 118.133 41.5471C118.133 40.6741 118.839 40.1808 119.769 40.1808C120.584 40.1808 121.406 40.5151 121.592 41.414L120.661 41.6477C120.575 41.1803 120.263 40.9759 119.827 40.9759C119.439 40.9759 119.108 41.1382 119.108 41.5244C119.108 41.8846 119.564 42.0046 120.09 42.1637C120.79 42.3778 121.618 42.6504 121.618 43.5851C121.618 44.5814 120.793 45.0001 119.885 45.0001ZM124.403 44.9352V40.2459H125.366V44.9352H124.403ZM130.513 45.0001C129.149 45.0001 128.141 44.0622 128.141 42.5888C128.141 41.1155 129.149 40.1808 130.513 40.1808C131.546 40.1808 132.374 40.7163 132.704 41.6055L131.806 41.9365C131.601 41.3913 131.11 41.0765 130.513 41.0765C129.714 41.0765 129.101 41.6412 129.101 42.5888C129.101 43.5365 129.714 44.1044 130.513 44.1044C131.11 44.1044 131.601 43.7863 131.806 43.2411L132.704 43.5721C132.374 44.4613 131.546 45.0001 130.513 45.0001ZM137.444 45.0001C136.08 45.0001 135.073 44.059 135.073 42.5888C135.073 41.1155 136.08 40.1808 137.444 40.1808C138.805 40.1808 139.812 41.1155 139.812 42.5888C139.812 44.0589 138.805 45.0001 137.444 45.0001ZM137.444 44.1076C138.243 44.1076 138.856 43.5397 138.856 42.5889C138.856 41.6412 138.243 41.0766 137.444 41.0766C136.645 41.0766 136.032 41.6412 136.032 42.5889C136.032 43.5397 136.645 44.1076 137.444 44.1076ZM143.557 44.0752H145.011V44.9352H142.594V40.2459H143.557V44.0752ZM149.696 45.0001C148.332 45.0001 147.324 44.059 147.324 42.5888C147.324 41.1155 148.332 40.1808 149.696 40.1808C151.056 40.1808 152.064 41.1155 152.064 42.5888C152.064 44.0589 151.056 45.0001 149.696 45.0001ZM149.696 44.1076C150.495 44.1076 151.108 43.5397 151.108 42.5889C151.108 41.6412 150.495 41.0766 149.696 41.0766C148.897 41.0766 148.284 41.6412 148.284 42.5889C148.284 43.5397 148.897 44.1076 149.696 44.1076ZM156.852 45.0001C155.514 45.0001 154.528 44.0654 154.528 42.6018C154.528 41.1187 155.536 40.1808 156.9 40.1808C157.795 40.1808 158.536 40.58 158.941 41.2842L158.097 41.7386C157.853 41.2583 157.416 41.0279 156.9 41.0279C156.098 41.0279 155.494 41.586 155.494 42.5791C155.494 43.5365 156.059 44.153 156.935 44.153C157.529 44.153 158.074 43.8545 158.206 43.1697H156.938V42.3876H159.117V44.9351H158.36V44.2861C158.062 44.7307 157.561 45.0001 156.852 45.0001ZM162.012 44.9352V40.2459H162.974V44.9352H162.012ZM169.171 44.9352L168.834 43.9681H166.886L166.549 44.9352H165.564L167.271 40.2459H168.449L170.156 44.9352H169.171ZM167.168 43.1535H168.552L167.862 41.1642L167.168 43.1535Z" fill="#F5F5F5"/>
</g>
<defs>
<clipPath id="clip0_1279_130">
<rect width="170.156" height="45" fill="white"/>
</clipPath>
</defs>
</svg>
