<svg width="56" height="57" viewBox="0 0 56 57" fill="none" xmlns="http://www.w3.org/2000/svg">
<path d="M35.3956 10.0328H35.3843V10.0525H35.3956V10.0328Z" fill="#415DA1"/>
<path d="M48.4127 8.34656H43.188V13.4096H48.4127V8.34656Z" fill="#415DA1"/>
<path d="M56.001 13.2866H50.7764V18.3497H56.001V13.2866Z" fill="#415DA1"/>
<path d="M51.9654 40.7503H46.7407V45.8134H51.9654V40.7503Z" fill="#415DA1"/>
<path d="M48.2686 30.9089H43.0439V35.9719H48.2686V30.9089Z" fill="#415DA1"/>
<path d="M43.2545 37.58H38.0298V42.643H43.2545V37.58Z" fill="#415DA1"/>
<path d="M41.8736 4.70099H36.6489V9.76406H41.8736V4.70099Z" fill="#415DA1"/>
<path d="M48.7354 19.3186H43.5107V24.3817H48.7354V19.3186Z" fill="#415DA1"/>
<path d="M42.48 24.171H37.2554V29.234H42.48V24.171Z" fill="#415DA1"/>
<path d="M36.909 35.376V30.31L31.6792 30.3139V35.376H36.909Z" fill="#415DA1"/>
<path d="M43.2148 54.6795C42.2829 51.6821 41.6266 48.6106 41.2533 45.5011H35.3729V40.4405H30.1493V35.3774H24.9246V30.3143H30.1493V25.2058H35.3785V20.166H40.6012V15.1019L35.3842 15.0965V10.0532L30.1457 10.0502V4.98613L35.3765 4.97378V1.38511C32.879 0.602053 30.2841 0.148346 27.6616 0.0362053C14.849 -0.606129 3.87601 7.36869 4.22936 18.3674C4.27575 19.8191 4.53783 21.9571 4.53171 23.3539C4.51998 28.3157 0.0896926 30.3539 0.00454374 31.933C-0.135671 34.5261 3.0077 33.7162 4.11616 37.3845C5.52341 42.0414 3.50432 47.352 10.0552 47.0239C12.6683 46.9221 16.915 45.9394 18.7347 47.5793C19.8952 48.6248 20.8298 53.1883 21.1944 55.2077C21.2436 55.4792 21.3901 55.725 21.6081 55.902C21.8261 56.079 22.1016 56.1758 22.386 56.1752H42.0513C42.2388 56.1757 42.4239 56.1338 42.5919 56.053C42.7598 55.9721 42.906 55.8544 43.0189 55.7093C43.1318 55.5642 43.2083 55.3956 43.2423 55.2168C43.2763 55.0381 43.2669 54.8541 43.2148 54.6795ZM20.041 15.1177H14.8164V10.0532H20.041V15.1177ZM25.2621 11.9891H30.4868V17.0521H25.2621V11.9891ZM21.3529 23.888V18.8245H26.5776V23.888H21.3529ZM27.938 46.6993H22.7133V41.6352H27.938V46.6993Z" fill="#415DA1"/>
</svg>
