<svg width="284" height="354" viewBox="0 0 284 354" fill="none" xmlns="http://www.w3.org/2000/svg">
<path d="M192.597 344.571H112.331C102.731 310.511 95.0088 284.571 95.0088 284.571H171.112C171.112 284.571 180.514 310.261 192.597 344.571Z" fill="#37474F"/>
<path d="M124.087 344.571H122.436C117.68 328.521 112.736 312.571 107.891 296.501C107.822 296.291 108.148 296.191 108.228 296.401C109.216 299.181 110.205 301.961 111.194 304.751C115.821 317.911 120.063 331.211 124.087 344.571Z" fill="#263238"/>
<path d="M169.371 284.6C169.282 286.21 165.04 300.94 162.845 322.98C162.044 331.11 161.135 338.76 160.166 344.57H53.6495C43.1096 311.63 58.7514 284.57 58.7514 284.57C58.7514 284.57 169.381 284.53 169.371 284.6Z" fill="#37474F"/>
<path d="M148.083 321.081C148.458 326.611 148.587 332.151 148.518 337.681C148.344 339.973 148.324 342.275 148.458 344.571H146.609C146.164 341.061 146.609 336.691 146.609 333.241C146.55 318.951 144.751 304.821 142.575 290.721C142.573 290.657 142.594 290.595 142.632 290.546C142.671 290.496 142.726 290.461 142.787 290.448C142.848 290.435 142.912 290.444 142.967 290.474C143.023 290.504 143.066 290.552 143.089 290.611C145.784 300.567 147.457 310.778 148.083 321.081Z" fill="#263238"/>
<path d="M161.293 328.221C161.194 331.161 160.403 338.991 158.119 344.571H156.527C159.622 336.941 159.444 322.051 159.217 318.571C158.574 308.371 157.793 298.791 156.083 288.051C156.023 287.711 156.577 287.691 156.646 288.001C159.662 300.961 161.708 314.921 161.293 328.221Z" fill="#263238"/>
<path d="M60.2246 298.9C57.1398 312.39 58.6426 326.9 61.5891 340.25C61.8956 341.7 62.2416 343.141 62.5778 344.571H60.9761C56.6157 325.961 55.2809 306.7 62.9535 288.65C63.0524 288.43 63.3787 288.65 63.2897 288.84C62.0168 292.11 60.9922 295.473 60.2246 298.9Z" fill="#263238"/>
<path d="M237.059 87.8508L219.558 144.191C218.856 145.831 219.618 147.251 221.239 147.341L250.387 149.021C251.28 149.007 252.15 148.737 252.896 148.241C253.642 147.745 254.233 147.044 254.599 146.221L272.06 89.9208C272.762 88.2708 272.001 86.8608 270.379 86.7708L241.311 85.0908C240.416 85.0933 239.54 85.3544 238.787 85.8434C238.033 86.3324 237.434 87.0288 237.059 87.8508Z" fill="#37474F"/>
<path d="M240.519 88.0605L223.058 144.36C222.356 146 223.118 147.41 224.749 147.51L253.887 149.19C254.78 149.175 255.651 148.904 256.399 148.408C257.146 147.913 257.739 147.213 258.109 146.39L275.56 90.0805C276.262 88.4405 275.511 87.0805 273.879 86.9405L244.731 85.2505C243.839 85.2686 242.969 85.5421 242.224 86.0394C241.478 86.5367 240.887 87.2375 240.519 88.0605Z" fill="#455A64"/>
<path d="M248.361 91.1305C248.322 91.6256 248.139 92.0979 247.835 92.4876C247.531 92.8774 247.119 93.1672 246.652 93.3202C246.185 93.4732 245.683 93.4827 245.211 93.3474C244.738 93.2121 244.316 92.9381 243.998 92.56C243.679 92.182 243.479 91.7169 243.422 91.2237C243.365 90.7304 243.454 90.2312 243.678 89.7891C243.901 89.347 244.25 88.9819 244.678 88.7401C245.107 88.4982 245.597 88.3905 246.087 88.4305C246.742 88.4841 247.35 88.7985 247.776 89.3047C248.203 89.8109 248.413 90.4676 248.361 91.1305Z" fill="#263238"/>
<path d="M138.216 168.96C152.384 205.57 186.387 254.15 201.692 255.37C208.97 255.96 221.863 258.59 231.977 250.76C254.046 233.68 273.791 199.5 278.665 179.51C280.406 172.4 246.808 154.51 241.311 160.02C228.458 172.94 212.786 198.93 210.66 198.63C202.869 197.51 173.899 169.63 153.699 150.04C129.179 126.24 132.55 154.37 138.216 168.96Z" fill="#EB9481"/>
<path d="M281.949 142.391C279.24 127.531 276.293 124.141 280.585 110.391C283.402 101.391 278.914 95.6605 272.002 102.601C260.691 113.941 260.207 133.851 262.006 140.801L281.949 142.391Z" fill="#EB9481"/>
<path d="M276.569 185.671C276.569 185.671 284.341 165.741 283.006 149.671C282.077 138.531 277.39 114.511 247.659 100.011C240.609 96.5708 228.151 96.7308 237.653 106.581C244.396 113.581 250.773 115.951 253.967 120.741C253.967 120.741 238.147 122.841 235.003 130.121C232.272 136.487 229.989 143.04 228.171 149.731C229.305 150.35 230.478 150.894 231.681 151.361C231.681 151.361 228.962 158.271 233.48 168.631L276.569 185.671Z" fill="#EB9481"/>
<path d="M280.445 139.131C276.283 135.051 267.315 126.561 257.586 122.191C246.789 117.341 224.681 110.941 221.22 119.041C218.689 124.981 226.915 128.181 226.915 128.181C226.915 128.181 217.226 127.481 216.098 133.351C215.11 138.701 221.576 140.791 221.576 140.791C221.576 140.791 215.644 141.391 215.644 146.741C215.644 153.171 228.092 150.861 233.648 157.391C234.874 158.851 280.445 139.131 280.445 139.131Z" fill="#EB9481"/>
<path d="M254.421 134.591C249.883 131.401 237.741 126.841 227.112 128.031C226.865 128.031 226.756 128.251 226.984 128.271C236.339 129.283 245.539 131.439 254.382 134.691C254.441 134.721 254.471 134.621 254.421 134.591Z" fill="#263238"/>
<path d="M249.22 145.481C245.028 143.131 232.313 139.001 221.536 140.571C221.299 140.571 221.2 140.811 221.427 140.831C230.803 141.349 240.091 142.943 249.112 145.581C249.125 145.595 249.143 145.604 249.163 145.605C249.182 145.606 249.201 145.599 249.216 145.586C249.23 145.572 249.239 145.554 249.24 145.534C249.24 145.515 249.234 145.495 249.22 145.481Z" fill="#263238"/>
<path d="M182.441 171.941L177.042 178.571L175.925 179.951L154.301 206.371C154.301 206.371 134.734 174.051 130.78 155.671C128.416 144.671 130.117 138.121 134.873 136.931C135.227 136.847 135.588 136.793 135.951 136.771C139.026 136.501 143.158 138.141 148.102 141.831C162.023 152.231 182.441 171.941 182.441 171.941Z" fill="#415DA1"/>
<path d="M181.235 170.851C180.736 172.508 180.125 174.128 179.406 175.701L182.372 172.101C182.38 172.058 182.38 172.014 182.372 171.971C182.283 171.791 181.878 171.401 181.235 170.851ZM148.024 141.851C146.102 143.086 144.342 144.561 142.783 146.241C138.047 151.254 135.399 157.917 135.388 164.851C135.402 166.713 135.521 168.572 135.744 170.421C136.231 171.561 136.726 172.701 137.227 173.841C137.138 173.101 137.039 172.371 136.94 171.621C136.251 167.628 136.197 163.55 136.782 159.541C137.406 156.38 138.596 153.36 140.292 150.631C142.381 147.22 145.166 144.298 148.459 142.061C148.33 141.981 148.221 141.891 148.103 141.801L148.024 141.851Z" fill="white"/>
<path d="M150.101 195.381C151.267 192.601 163.28 175.911 173.286 165.311C173.317 165.276 173.359 165.255 173.404 165.252C173.45 165.249 173.495 165.265 173.529 165.296C173.563 165.326 173.583 165.369 173.586 165.415C173.589 165.461 173.574 165.506 173.543 165.541C172.555 166.841 152.78 193.65 150.447 195.681C150.259 195.851 150.021 195.581 150.101 195.381Z" fill="#263238"/>
<path opacity="0.05" d="M168.144 189.481L154.302 206.361C154.302 206.361 134.735 174.051 130.78 155.671C128.051 142.991 130.711 136.251 137.207 136.761L168.144 189.481Z" fill="black"/>
<path d="M172.099 289.041C169.331 292.041 52.2745 304.691 51.6021 303.871C49.8125 301.661 60.5799 182.011 108.533 138.181C116.987 130.461 131.917 132.661 138.838 136.631C142.289 138.631 148.3 155.151 154.183 174.461C158.633 189.211 173.8 287.101 172.099 289.041Z" fill="#415DA1"/>
<path d="M172.099 289.041C171.486 289.711 165.178 290.871 155.755 292.251L154.688 292.401C149.922 293.091 144.425 293.831 138.492 294.581L137.207 294.751C120.27 296.901 100.07 299.201 83.5383 300.961L83.0044 301.011C65.2071 302.911 51.8296 304.151 51.6022 303.871C51.3748 303.591 51.3748 298.601 52.1559 290.741C52.1559 290.411 52.2251 290.061 52.2547 289.741C54.1234 271.571 59.3044 238.561 69.8443 206.631C70.0124 206.111 70.1904 205.631 70.3585 205.081C73.5123 195.562 77.2335 186.244 81.5015 177.181C81.63 176.911 81.7487 176.651 81.8871 176.381C86.0651 167.489 91.099 159.034 96.9158 151.141C97.1136 150.881 97.3015 150.631 97.5091 150.391C100.815 146.001 104.505 141.921 108.533 138.201C109.663 137.182 110.916 136.312 112.261 135.611C112.568 135.451 112.884 135.301 113.2 135.161C117.416 133.371 122.01 132.683 126.558 133.161L127.685 133.281C131.584 133.666 135.372 134.814 138.838 136.661C140.193 137.451 141.953 140.471 143.94 145.061C144.039 145.261 144.128 145.481 144.217 145.701C147.183 152.701 150.733 163.141 154.183 174.491C155.399 178.491 157.426 188.691 159.671 201.411L159.819 202.271C160.6 206.661 161.401 211.361 162.202 216.201C162.321 216.891 162.439 217.571 162.548 218.261C164.179 228.141 165.811 238.521 167.264 248.201C167.314 248.591 167.373 248.991 167.442 249.371C168.668 257.651 169.756 265.371 170.596 271.761C170.656 272.271 170.715 272.761 170.784 273.261C171.901 282.441 172.475 288.571 172.099 289.041Z" fill="#415DA1"/>
<path d="M134.013 277.441C132.019 274.621 129.479 272.24 126.548 270.441C123.4 268.59 119.929 267.371 116.325 266.851C112.548 266.191 108.583 265.851 105.043 264.191C101.662 262.641 99.289 259.871 96.9259 257.081C96.303 256.351 95.6603 255.621 95.0077 254.921C95.7493 254.411 96.5007 253.921 97.2719 253.411C101.711 250.651 106.615 248.571 110.719 245.291C114.432 242.379 117.032 238.255 118.075 233.621C119.072 229.054 118.728 224.293 117.086 219.921C115.342 215.51 112.469 211.647 108.761 208.731C104.96 205.787 100.613 203.643 95.9786 202.427C91.3441 201.211 86.5156 200.947 81.7785 201.651C77.815 202.186 73.9546 203.325 70.3289 205.031C70.1609 205.551 69.9829 206.031 69.8148 206.581C71.5723 205.686 73.3973 204.934 75.2726 204.331C84.3184 201.325 94.1687 202.025 102.71 206.281C106.829 208.353 110.394 211.399 113.102 215.161C115.707 218.882 117.175 223.294 117.323 227.851C117.529 232.354 116.253 236.799 113.695 240.491C110.729 244.561 106.21 247.021 101.919 249.371C99.2692 250.831 96.6985 252.371 94.197 254.081C92.7506 252.564 91.0149 251.36 89.0951 250.541C85.9056 249.364 82.411 249.342 79.2078 250.481C72.2372 252.851 68.0944 259.681 67.2935 266.851C66.9029 270.849 67.3614 274.886 68.6382 278.691C65.7323 281.703 62.483 284.355 58.9585 286.591C56.8425 287.914 54.5703 288.962 52.1956 289.711C52.1956 290.051 52.1263 290.401 52.0967 290.711C52.5218 290.591 52.947 290.461 53.3623 290.311C59.4232 288.241 64.4657 284.261 69.0238 279.791C70.2928 283.261 71.9516 286.573 73.9675 289.661C76.5773 293.734 79.5922 297.528 82.965 300.981L83.4989 300.931C81.549 298.849 79.7232 296.652 78.0312 294.351C74.4867 289.751 71.6745 284.619 69.6961 279.141C71.3869 277.441 73.0183 275.671 74.6398 273.921C77.7642 270.481 80.8392 266.921 84.1712 263.711C87.2776 260.69 90.6279 257.938 94.1871 255.481C96.3129 257.771 98.142 260.361 100.456 262.481C103.185 264.775 106.467 266.296 109.967 266.891C113.596 267.661 117.333 267.971 120.903 269.081C124.081 270.095 127 271.802 129.455 274.081C131.93 276.309 133.913 279.04 135.276 282.094C136.639 285.149 137.351 288.46 137.365 291.811C137.359 292.798 137.283 293.784 137.138 294.761L138.423 294.591C139.134 288.517 137.56 282.395 134.013 277.441ZM88.7392 258.131C84.9916 261.253 81.4785 264.652 78.2289 268.301C75.2627 271.521 72.4053 274.891 69.3303 278.041C68.7884 276.263 68.411 274.439 68.2032 272.591C67.4319 265.591 69.5379 257.591 75.4901 253.411C78.209 251.475 81.4811 250.494 84.804 250.621C88.0605 250.849 91.1149 252.3 93.3664 254.691C91.7943 255.781 90.242 256.911 88.7392 258.131ZM167.215 248.131C163.794 250.901 160.541 253.921 156.715 256.131C151.207 259.311 143.634 261.001 138.621 255.951C136.532 253.901 135.274 251.137 135.091 248.199C134.909 245.261 135.814 242.36 137.632 240.061C139.61 237.261 142.052 234.911 143.97 232.061C145.542 229.678 146.915 227.166 148.073 224.551C150.529 225.297 153.16 225.202 155.558 224.281C158.483 223.092 160.923 220.934 162.479 218.161C162.37 217.471 162.252 216.791 162.133 216.101C161.358 217.637 160.358 219.046 159.167 220.281C158.068 221.464 156.722 222.383 155.227 222.973C153.732 223.563 152.126 223.808 150.525 223.691C149.878 223.625 149.236 223.508 148.607 223.341C148.755 223.031 148.894 222.711 149.032 222.341C151.81 215.921 154.134 209.131 158.504 203.571C158.892 203.07 159.305 202.59 159.74 202.131L159.592 201.271C155.479 205.591 152.829 211.211 150.486 216.641C149.566 218.771 148.666 220.911 147.687 223.031C145.493 222.24 143.504 220.954 141.874 219.271C136.505 213.741 136.1 205.201 136.653 197.921C137.009 193.481 137.642 189.061 137.859 184.621C137.906 180.237 137.575 175.857 136.871 171.531C136.181 167.538 136.128 163.46 136.713 159.451C137.337 156.29 138.527 153.27 140.223 150.541C141.316 148.726 142.617 147.048 144.098 145.541C144.009 145.321 143.92 145.101 143.822 144.901C143.446 145.261 143.08 145.631 142.714 146.021C137.951 151.1 135.324 157.851 135.388 164.851C135.388 169.411 136.287 173.901 136.633 178.441C136.869 183.118 136.647 187.808 135.971 192.441C135.051 200.531 134.231 209.441 138.403 216.801C140.373 220.263 143.474 222.922 147.173 224.321C146.709 225.321 146.234 226.321 145.72 227.241C144.811 228.949 143.794 230.596 142.675 232.171C141.617 233.631 140.43 234.991 139.263 236.361C137.118 238.891 134.933 241.651 134.32 244.991C133.793 247.859 134.232 250.824 135.566 253.411C136.853 256.035 139.013 258.116 141.666 259.291C144.878 260.543 148.419 260.639 151.692 259.561C157.881 257.731 162.568 253.321 167.442 249.341C167.324 248.961 167.264 248.561 167.215 248.171V248.131ZM170.735 273.191C167.62 270.691 164.298 268.191 160.225 267.861C158.233 267.629 156.226 268.13 154.569 269.271C153.054 270.428 151.926 272.026 151.336 273.851C149.987 277.871 150.145 282.252 151.781 286.161C152.725 288.431 154.064 290.511 155.736 292.301L154.668 292.451C153.558 291.236 152.592 289.893 151.791 288.451C150.656 286.393 149.902 284.143 149.566 281.811C148.953 277.761 149.566 273.201 152.196 269.951C155.054 266.431 159.71 266.071 163.715 267.551C166.21 268.571 168.526 269.989 170.577 271.751C170.606 272.241 170.666 272.741 170.735 273.231V273.191ZM126.618 134.791C126.974 134.291 127.3 133.791 127.606 133.251L126.479 133.131C124.185 136.692 121.458 139.947 118.362 142.821L117.749 143.411C117.125 141.201 116.147 139.109 114.852 137.221C114.33 136.483 113.751 135.787 113.121 135.141C112.805 135.281 112.489 135.431 112.182 135.591C114.254 137.722 115.79 140.325 116.661 143.181C116.76 143.511 116.849 143.841 116.938 144.181C114.259 146.866 111.124 149.041 107.683 150.601C104.44 151.931 100.485 152.201 97.4301 150.381C97.2225 150.621 97.0346 150.871 96.8369 151.131C99.3655 152.598 102.342 153.065 105.192 152.441C109.73 151.571 113.606 148.541 116.997 145.531L117.225 145.331C118.648 151.511 118.114 158.031 119.074 164.331C120.171 171.501 123.572 178.751 121.822 186.091C121.247 188.968 119.698 191.553 117.442 193.401C116.084 194.34 114.522 194.934 112.888 195.132C111.255 195.33 109.598 195.128 108.059 194.541C101.059 192.271 96.9753 185.541 91.1813 181.401C88.2109 179.454 85.074 177.781 81.8081 176.401C81.6697 176.671 81.5511 176.931 81.4225 177.201C83.4 178.151 85.3775 179.041 87.177 180.051C88.5928 180.806 89.9482 181.672 91.2308 182.641C92.7299 183.832 94.1563 185.115 95.5021 186.481C98.1816 189.121 100.812 191.931 104.074 193.861C107.041 195.611 110.59 196.721 114.031 196.051C115.507 195.721 116.897 195.078 118.109 194.164C119.32 193.251 120.327 192.087 121.061 190.751C122.567 188.048 123.344 184.993 123.315 181.891C123.315 177.891 122.237 173.891 121.278 170.021C120.737 167.962 120.304 165.876 119.983 163.771C119.726 161.911 119.578 160.051 119.469 158.181C119.359 154.477 119.055 150.782 118.559 147.111C118.421 146.261 118.253 145.421 118.055 144.581C121.261 141.651 124.133 138.367 126.618 134.791Z" fill="white"/>
<path d="M97.1437 154.851C77.8732 195.421 52.0772 296.241 48.2903 311.061C45.7097 321.121 97.6479 331.311 99.0223 324.321C100.604 316.321 120.468 198.321 118.49 155.821C117.413 132.561 103.808 140.851 97.1437 154.851Z" fill="#EB9481"/>
<path d="M99.6649 319.671C99.0519 327.311 94.7212 342.85 91.0827 345.38C87.4442 347.91 67.4816 348.47 57.4657 349.01C47.4499 349.55 45.2944 346.85 45.2747 343.32C45.2549 339.79 66.305 338.03 66.305 338.03C66.305 338.03 38.6205 347.68 31.6104 349.38C24.6002 351.08 8.5333 356.11 5.90327 350.31C4.63769 347.69 8.95846 344.75 8.95846 344.75C8.95846 344.75 2.22518 347.13 0.959601 343.75C-0.483951 339.9 4.84533 337.46 4.84533 337.46C4.84533 337.46 0.613543 338.56 0.356473 335.37C-0.236768 328.26 26.3206 323.37 26.3206 323.37C26.3206 323.37 6.36798 334.54 5.4089 328.76C4.084 320.76 45.5812 309.7 49.7635 305.96C52.8034 303.113 55.6229 300.034 58.1974 296.75L99.6649 319.671Z" fill="#EB9481"/>
<path d="M45.5423 345.08C45.4467 344.587 45.4704 344.077 45.6116 343.595C45.7528 343.113 46.0072 342.672 46.3531 342.31C47.0397 341.604 47.8385 341.02 48.7161 340.58C50.5274 339.676 52.4173 338.943 54.3618 338.39C58.2673 337.16 62.2717 336.23 66.2266 334.96C62.0494 335.115 57.9091 335.811 53.907 337.03C51.8645 337.618 49.914 338.493 48.113 339.63C47.1816 340.214 46.3803 340.987 45.7598 341.9C45.4565 342.367 45.2772 342.905 45.2391 343.462C45.201 344.019 45.3054 344.576 45.5423 345.08Z" fill="#263238"/>
<path d="M8.95898 344.75C11.8164 343.88 14.6244 342.9 17.4225 341.92C20.2207 340.94 23.0089 339.92 25.7971 338.92L34.1322 335.78C36.9105 334.78 39.679 333.7 42.487 332.69C39.545 333.178 36.6383 333.863 33.7861 334.74C30.9188 335.56 28.1108 336.56 25.3126 337.58C22.5145 338.6 19.756 339.72 17.0369 340.93C14.3179 342.14 11.5989 343.33 8.95898 344.75Z" fill="#263238"/>
<path d="M35.3274 325.921C32.6112 326.246 29.9215 326.767 27.2791 327.481C24.6271 328.17 22.0131 329.001 19.4483 329.971C16.8796 330.928 14.3674 332.033 11.9241 333.281C9.46897 334.502 7.10318 335.899 4.84473 337.461C7.38577 336.461 9.84772 335.281 12.369 334.281C14.8903 333.281 17.4016 332.281 19.9427 331.281C22.4837 330.281 25.0347 329.411 27.5856 328.501C30.1365 327.591 32.7369 326.781 35.3274 325.921Z" fill="#263238"/>
<path d="M30.8387 319.351C26.4534 319.927 22.1619 321.084 18.0742 322.791C13.9509 324.416 10.0578 326.584 6.49609 329.241C10.5796 327.521 14.5444 325.731 18.5982 324.121C22.652 322.511 26.7553 320.941 30.8387 319.351Z" fill="#263238"/>
<path d="M119.489 201.46L73.1963 201.69C73.1963 201.69 85.7631 164.06 97.7268 148.51C109.69 132.96 119.291 135.01 120.359 153.31C121.427 171.61 119.489 201.46 119.489 201.46Z" fill="#415DA1"/>
<path d="M120.358 153.311C120.417 154.141 120.457 155.011 120.486 155.881C120.486 156.271 120.486 156.661 120.546 157.061C121.198 175.391 119.498 201.461 119.498 201.461L106.921 201.531H105.665L73.2051 201.711C73.2051 201.711 78.5343 185.711 85.5346 170.331C85.7719 169.821 85.9993 169.331 86.2564 168.791C89.8257 161.071 93.8004 153.621 97.7158 148.531C109.689 132.961 119.28 135.021 120.358 153.311Z" fill="#415DA1"/>
<path d="M81.9766 201.651L91.3794 201.591C88.2546 201.221 85.0966 201.241 81.9766 201.651ZM120.013 163.731C119.756 161.871 119.608 160.011 119.499 158.141C119.389 154.437 119.085 150.742 118.589 147.071C118.451 146.221 118.283 145.381 118.085 144.541C118.263 144.361 118.451 144.201 118.639 144.011C118.5 143.651 118.362 143.311 118.214 143.011C118.075 143.161 117.917 143.291 117.779 143.441C117.511 142.48 117.181 141.538 116.79 140.621C116.251 139.909 115.579 139.311 114.812 138.861C115.642 140.225 116.306 141.686 116.79 143.211C116.889 143.541 116.978 143.871 117.067 144.211C114.388 146.896 111.253 149.071 107.812 150.631C104.302 152.081 99.9517 152.271 96.8175 149.911C96.6296 150.171 96.4516 150.421 96.2737 150.691C97.581 151.598 99.0585 152.223 100.615 152.53C102.171 152.836 103.772 152.816 105.321 152.471C109.859 151.601 113.735 148.571 117.126 145.561L117.353 145.361C118.777 151.541 118.243 158.061 119.202 164.361C119.568 166.701 120.191 169.061 120.765 171.421C120.765 170.091 120.765 168.761 120.765 167.421C120.419 166.161 120.181 164.951 120.013 163.731ZM117.472 193.351C116.114 194.29 114.552 194.884 112.918 195.082C111.285 195.28 109.628 195.078 108.089 194.491C101.089 192.221 97.0053 185.491 91.2113 181.351C88.5224 179.569 85.6797 178.036 82.7181 176.771C82.5896 177.041 82.4808 177.321 82.3622 177.601C84.0035 178.391 85.6547 179.161 87.207 180.011C88.6228 180.766 89.9782 181.632 91.2608 182.601C92.7599 183.792 94.1863 185.075 95.5321 186.441C98.2116 189.081 100.842 191.891 104.104 193.821C107.071 195.571 110.62 196.681 114.061 196.011C116.407 195.508 118.505 194.192 119.993 192.291C119.993 191.701 120.053 191.081 120.072 190.441C119.397 191.57 118.515 192.558 117.472 193.351Z" fill="white"/>
<path d="M79.159 190.85C82.1252 189.93 103.492 188.501 118.639 189.521C118.686 189.521 118.732 189.539 118.765 189.573C118.798 189.607 118.817 189.653 118.817 189.701C118.817 189.748 118.798 189.794 118.765 189.828C118.732 189.862 118.686 189.88 118.639 189.88C116.968 189.98 82.323 191.88 79.159 191.34C78.8525 191.33 78.9019 190.96 79.159 190.85Z" fill="#263238"/>
<path d="M122.426 173.081C122.426 173.049 122.413 173.018 122.391 172.996C122.369 172.973 122.338 172.961 122.307 172.961C122.275 172.961 122.245 172.973 122.223 172.996C122.201 173.018 122.188 173.049 122.188 173.081C121.765 174.673 121.435 176.289 121.199 177.921C121.13 178.291 121.081 178.671 121.012 179.041C120.883 175.041 120.695 171.151 120.488 167.231C120.488 167.051 120.191 167.051 120.201 167.231C120.32 180.821 119.964 193.231 119.143 201.091L115.129 201.431C115.073 201.442 115.023 201.473 114.986 201.517C114.95 201.562 114.931 201.618 114.931 201.676C114.931 201.733 114.95 201.789 114.986 201.834C115.023 201.879 115.073 201.909 115.129 201.921L120.231 202.101C120.448 202.101 121.298 190.781 121.091 181.861C121.368 180.571 121.664 179.291 121.872 177.991C122.18 176.371 122.365 174.729 122.426 173.081Z" fill="#263238"/>
<path d="M79.4541 201.701C77.3679 201.831 75.2817 201.941 73.2053 202.001H72.79L72.9186 201.591C73.7293 199.011 74.5599 196.441 75.4695 193.901C76.3791 191.361 77.2987 188.811 78.2874 186.301C79.2761 183.791 80.2649 181.301 81.4217 178.821C82.5785 176.341 83.6859 173.911 84.9811 171.541L82.0149 179.101L79.1674 186.661L76.3198 194.231L73.4822 201.851L73.2053 201.451C75.2817 201.461 77.3679 201.571 79.4541 201.701Z" fill="#263238"/>
<path d="M135.991 157.361C128.951 159.711 115.662 149.701 110.017 141.141C109.631 140.551 110.017 115.671 109.621 110.741C109.532 109.741 140.934 115.561 140.934 115.561C140.934 115.561 138.809 126.181 139.6 134.781C139.679 135.501 142.793 155.091 135.991 157.361Z" fill="#EB9481"/>
<path d="M140.944 115.551C140.944 115.701 140.796 116.321 140.637 117.321C140.361 119.021 139.945 121.771 139.698 124.891C139.393 128.169 139.37 131.468 139.629 134.751C139.639 134.979 139.665 135.206 139.708 135.431V135.541C139.777 135.941 139.837 136.481 139.906 137.121C138.93 137.342 137.938 137.485 136.94 137.551C120.22 138.631 112.824 118.421 110.59 110.601L111.124 110.651C111.944 110.711 113.032 110.841 114.337 111.011L115.326 111.151C117.412 111.451 119.904 111.851 122.494 112.271C123.345 112.411 124.195 112.541 125.065 112.701C126.924 113.031 128.802 113.351 130.543 113.641C131.294 113.791 132.035 113.921 132.728 114.041C133.42 114.161 134.26 114.311 134.962 114.431L135.951 114.611L136.435 114.711L139.036 115.181L140.282 115.401C140.458 115.43 140.633 115.47 140.806 115.521C140.855 115.521 140.875 115.521 140.895 115.521L140.944 115.551Z" fill="#263238"/>
<path d="M103.611 74.4909C100.645 85.6209 107.427 117.251 115.406 124.091C126.994 134.001 145.434 134.371 153.651 120.431C161.561 106.921 152.039 65.8409 143.17 59.6809C130.099 50.6109 108.001 58.0509 103.611 74.4909Z" fill="#EB9481"/>
<path d="M108.148 105.45C113.734 103.63 111.262 88.9305 111.262 88.9305C111.262 88.9305 117.926 84.9305 117.837 71.1705C117.837 71.1705 125.035 83.4405 148.32 76.2205C148.299 71.8257 146.916 67.5481 144.365 63.9905C147.448 67.7084 150.226 71.675 152.67 75.8505C152.67 75.8505 154.816 54.8505 136.683 50.8505C129.465 49.2605 119.35 51.6805 105.191 62.2505C105.191 62.2505 100.554 53.3805 98.9821 54.9405C97.41 56.5005 102.413 64.6605 102.413 64.6605C102.413 64.6605 95.215 63.7605 94.3252 65.4105C93.554 66.8305 100.436 67.4105 100.436 67.4105C100.436 67.4105 90.5482 72.6605 94.5031 84.5105C98.0527 95.3505 105.379 106.36 108.148 105.45Z" fill="#263238"/>
<path d="M102.294 66.8505C99.2674 67.2938 96.5054 68.8406 94.5278 71.1999C92.5502 73.5592 91.4934 76.5681 91.5564 79.6605C91.6651 83.1905 93.1779 86.7505 94.839 89.8105C96.7096 93.0588 98.9859 96.0501 101.612 98.7105C101.75 98.8605 101.968 98.6105 101.819 98.4605C99.5025 95.933 97.5849 93.0592 96.1342 89.9405C94.5817 87.0336 93.5001 83.8938 92.9307 80.6405C92.5496 77.612 93.3079 74.5493 95.0551 72.0598C96.8023 69.5702 99.4108 67.8358 102.363 67.2005C102.404 67.1864 102.439 67.1578 102.46 67.12C102.482 67.0821 102.489 67.0376 102.48 66.9948C102.472 66.952 102.448 66.9137 102.414 66.8872C102.38 66.8606 102.337 66.8476 102.294 66.8505Z" fill="#263238"/>
<path d="M122.495 49.9607C118.606 51.619 114.949 53.7876 111.619 56.4107C108.334 58.7494 105.472 61.6415 103.155 64.9607C103.047 65.1307 103.264 65.3307 103.403 65.1707C108.593 59.5407 115.356 55.2807 122.189 51.9207C128.546 48.7707 136.486 47.3407 142.576 51.9207C142.585 51.9334 142.597 51.9438 142.61 51.9511C142.624 51.9585 142.639 51.9625 142.654 51.963C142.669 51.9635 142.685 51.9603 142.699 51.9538C142.712 51.9473 142.725 51.9376 142.734 51.9255C142.744 51.9134 142.75 51.8992 142.754 51.8841C142.757 51.8689 142.757 51.8532 142.753 51.8382C142.749 51.8231 142.742 51.8092 142.732 51.7975C142.722 51.7858 142.709 51.7766 142.695 51.7707C137.079 46.8507 128.991 47.3007 122.495 49.9607Z" fill="#263238"/>
<path d="M111.559 100.401C111.559 100.401 104.282 90.2108 99.694 92.8508C95.1062 95.4908 100.683 110.331 106.14 112.291C106.824 112.591 107.559 112.748 108.304 112.753C109.049 112.759 109.787 112.611 110.474 112.321C111.161 112.031 111.783 111.603 112.302 111.063C112.822 110.523 113.228 109.883 113.497 109.181L111.559 100.401Z" fill="#EB9481"/>
<path d="M101.396 97.0605C101.307 97.0605 101.297 97.1805 101.396 97.2105C105.222 98.7105 107.279 102.211 108.732 105.921C107.585 104.521 106.033 103.761 104.164 105.151C104.065 105.221 104.164 105.381 104.263 105.351C104.929 105.125 105.648 105.113 106.32 105.318C106.993 105.522 107.587 105.931 108.02 106.491C108.734 107.424 109.35 108.429 109.859 109.491C110.037 109.831 110.65 109.641 110.522 109.241C110.52 109.214 110.52 109.187 110.522 109.161C110.492 104.281 106.616 97.4805 101.396 97.0605Z" fill="#263238"/>
<path d="M136.219 92.6508C136.219 92.5808 136.08 92.7808 136.09 92.8708C136.535 94.9708 136.683 97.4608 134.914 98.5008C134.903 98.5055 134.894 98.5132 134.888 98.5229C134.881 98.5327 134.878 98.5441 134.878 98.5558C134.878 98.5675 134.881 98.5789 134.888 98.5887C134.894 98.5984 134.903 98.6061 134.914 98.6108C137.198 97.8508 136.97 94.5808 136.219 92.6508Z" fill="#263238"/>
<path d="M133.964 90.7809C130.563 91.1309 131.493 98.0009 134.647 97.6809C137.801 97.3609 136.822 90.4909 133.964 90.7809Z" fill="#263238"/>
<path d="M148.192 90.1707C148.192 90.0907 148.37 90.2507 148.38 90.3407C148.607 92.4707 149.22 94.8807 151.218 95.3407C151.277 95.3407 151.287 95.4607 151.218 95.4607C148.845 95.4407 148.064 92.2307 148.192 90.1707Z" fill="#263238"/>
<path d="M149.774 87.6908C153.126 86.9608 154.322 93.7908 151.218 94.4608C148.113 95.1308 146.966 88.3008 149.774 87.6908Z" fill="#263238"/>
<path d="M130.781 88.8508C131.637 88.4601 132.472 88.0228 133.282 87.5408C134.229 87.2104 135.04 86.5699 135.586 85.7208C135.706 85.4222 135.725 85.0921 135.641 84.7814C135.557 84.4706 135.374 84.1963 135.121 84.0008C134.557 83.6924 133.921 83.5419 133.28 83.5648C132.638 83.5876 132.015 83.783 131.473 84.1308C130.273 84.6603 129.31 85.6229 128.774 86.8308C128.668 87.1139 128.646 87.4218 128.709 87.7174C128.773 88.013 128.919 88.2839 129.131 88.4972C129.343 88.7106 129.612 88.8575 129.904 88.9202C130.197 88.983 130.501 88.9588 130.781 88.8508Z" fill="#263238"/>
<path d="M151.415 83.9308C150.477 83.868 149.543 83.7545 148.617 83.5908C147.617 83.6111 146.637 83.2984 145.829 82.7008C145.611 82.4637 145.478 82.1603 145.449 81.8381C145.421 81.516 145.498 81.1933 145.671 80.9208C146.091 80.4324 146.632 80.0663 147.239 79.8606C147.845 79.6549 148.495 79.617 149.121 79.7508C150.434 79.816 151.673 80.3804 152.592 81.3308C152.792 81.557 152.923 81.8373 152.968 82.1374C153.012 82.4375 152.97 82.7443 152.845 83.0203C152.72 83.2962 152.518 83.5294 152.264 83.6911C152.01 83.8528 151.715 83.9361 151.415 83.9308Z" fill="#263238"/>
<path d="M136.614 111.581C137.187 112.011 137.78 112.581 138.591 112.581C139.371 112.458 140.116 112.169 140.776 111.731C140.845 111.731 140.925 111.731 140.885 111.831C140.64 112.29 140.278 112.674 139.836 112.943C139.395 113.213 138.889 113.357 138.374 113.361C137.929 113.306 137.51 113.119 137.17 112.824C136.831 112.528 136.585 112.137 136.465 111.701C136.376 111.581 136.505 111.521 136.614 111.581Z" fill="#263238"/>
<path d="M137.958 104.901C138.607 105.668 139.406 106.292 140.304 106.733C141.202 107.173 142.181 107.421 143.179 107.461C144.049 107.505 144.922 107.425 145.769 107.221C145.934 107.192 146.096 107.152 146.254 107.101L146.709 106.961C146.817 106.924 146.911 106.852 146.975 106.756C147.039 106.66 147.071 106.546 147.065 106.431L147.015 106.211V106.021C146.827 104.381 146.333 101.911 146.333 101.911C146.966 102.131 150.169 103.081 150.011 102.231C148.627 95.2306 147.094 87.3906 144.257 80.6906C144.242 80.6389 144.208 80.5951 144.162 80.5688C144.115 80.5425 144.061 80.536 144.01 80.5506C143.958 80.5652 143.915 80.5997 143.889 80.6466C143.863 80.6935 143.857 80.7489 143.871 80.8006C144.939 87.6106 147.173 94.1806 148.35 101.001C147.21 100.639 146.025 100.447 144.83 100.431C144.613 100.531 145.868 105.191 145.898 105.931C145.9 105.957 145.9 105.984 145.898 106.011C143.228 106.741 141.063 106.191 138.166 104.711C137.958 104.581 137.81 104.751 137.958 104.901Z" fill="#263238"/>
<path d="M144.702 106.521C143.974 107.814 142.928 108.895 141.666 109.661C140.967 110.059 140.16 110.223 139.363 110.131C137.623 109.921 137.385 108.371 137.494 106.991C137.568 106.258 137.727 105.536 137.969 104.841C139.978 106.113 142.338 106.702 144.702 106.521Z" fill="#263238"/>
<path d="M141.666 109.661C140.967 110.059 140.16 110.223 139.363 110.131C137.623 109.921 137.385 108.371 137.494 106.991C139.323 106.931 141.271 107.911 141.666 109.661Z" fill="#FF9ABB"/>
<path d="M217.42 0.399492L178.602 23.0095C178.128 23.3187 177.732 23.7373 177.449 24.231C177.165 24.7247 177.001 25.2794 176.971 25.8495V73.0295C177.001 73.5994 177.166 74.1536 177.452 74.6458C177.737 75.1381 178.135 75.5542 178.612 75.8595L184.426 79.1595C184.931 79.4187 185.49 79.5537 186.057 79.5537C186.624 79.5537 187.183 79.4187 187.689 79.1595L226.516 56.5595C226.988 56.2459 227.381 55.8246 227.662 55.3296C227.944 54.8346 228.107 54.2797 228.138 53.7095V6.51949C228.108 5.95051 227.945 5.39691 227.661 4.9047C227.377 4.41248 226.981 3.99587 226.506 3.68949L220.702 0.38949C220.193 0.131669 219.63 -0.00171986 219.06 1.67417e-05C218.49 0.00175335 217.928 0.138569 217.42 0.399492Z" fill="#415DA1"/>
<path d="M186.097 78.1997V31.0197C186.127 30.4493 186.289 29.8941 186.571 29.399C186.853 28.9039 187.246 28.4828 187.718 28.1697L226.546 5.56972C227.436 5.03972 228.167 5.46972 228.167 6.56972V53.7397C228.136 54.3099 227.973 54.8649 227.692 55.3599C227.41 55.8548 227.018 56.2761 226.546 56.5897L187.718 79.1897C186.789 79.6697 186.097 79.2397 186.097 78.1997Z" fill="#415DA1"/>
<path opacity="0.2" d="M187.689 79.1394C187.181 79.3911 186.623 79.5219 186.057 79.5219C185.492 79.5219 184.934 79.3911 184.426 79.1394L178.612 75.8394C178.136 75.5336 177.738 75.1173 177.453 74.6252C177.168 74.133 177.002 73.5791 176.971 73.0094V25.8494C176.995 25.2524 177.176 24.6727 177.495 24.1694L186.542 29.3994C186.258 29.8915 186.104 30.4496 186.097 31.0194V78.1894C186.097 79.1494 186.73 79.7094 187.689 79.1394Z" fill="black"/>
<path opacity="0.4" d="M228.117 6.21947C227.989 5.38947 227.317 5.09947 226.506 5.56947L187.688 28.1695C187.211 28.4766 186.816 28.8994 186.541 29.3995L177.484 24.1695C177.753 23.6903 178.137 23.2877 178.602 22.9995L217.429 0.399467C217.935 0.145715 218.491 0.0136719 219.056 0.0136719C219.62 0.0136719 220.177 0.145715 220.682 0.399467L226.496 3.69946C226.928 3.97894 227.296 4.34824 227.575 4.78275C227.855 5.21727 228.04 5.70705 228.117 6.21947Z" fill="white"/>
<path d="M176.971 42.0195L163.9 55.4695C163.75 55.6242 163.636 55.8107 163.566 56.0156C163.496 56.2204 163.471 56.4385 163.495 56.6539C163.519 56.8694 163.59 57.0768 163.702 57.2611C163.815 57.4454 163.967 57.602 164.147 57.7195C164.414 57.8995 173.194 62.9895 173.194 62.9895L186.097 47.3195L176.971 42.0195Z" fill="#415DA1"/>
<path opacity="0.1" d="M176.971 42.0195L163.9 55.4695C163.75 55.6242 163.636 55.8107 163.566 56.0156C163.496 56.2204 163.471 56.4385 163.495 56.6539C163.519 56.8694 163.59 57.0768 163.702 57.2611C163.815 57.4454 163.967 57.602 164.147 57.7195C164.414 57.8995 173.194 62.9895 173.194 62.9895L186.097 47.3195L176.971 42.0195Z" fill="black"/>
<path d="M186.097 47.3193L173.016 60.7793C172.808 60.9978 172.672 61.2766 172.627 61.5768C172.583 61.877 172.632 62.1837 172.768 62.4544C172.904 62.725 173.12 62.946 173.386 63.0867C173.652 63.2274 173.955 63.2808 174.252 63.2393L186.117 61.5093C187.333 61.4993 187.333 47.3193 186.097 47.3193Z" fill="#415DA1"/>
<path d="M195.293 35.5293L211.805 25.8793C213.11 25.1093 214.178 25.7293 214.178 27.2593V47.6493C214.131 48.4806 213.892 49.2891 213.48 50.0099C213.067 50.7307 212.494 51.3436 211.805 51.7993L195.293 61.4493C193.978 62.2093 192.92 61.5993 192.92 60.0693V39.6793C192.965 38.8476 193.204 38.0384 193.616 37.3174C194.028 36.5964 194.603 35.9838 195.293 35.5293Z" fill="white"/>
<path d="M218.024 31.4494L222.602 26.6094C223.155 26.0094 223.59 26.1994 223.59 27.0194V40.7794C223.583 41.1832 223.43 41.5706 223.161 41.8688C222.892 42.167 222.524 42.3557 222.127 42.3994L218.459 42.7294C218.272 42.7493 218.083 42.7287 217.904 42.6691C217.726 42.6094 217.562 42.5121 217.424 42.3834C217.285 42.2548 217.175 42.0978 217.102 41.923C217.028 41.7482 216.992 41.5595 216.995 41.3694V34.0094C217.05 33.0649 217.412 32.1651 218.024 31.4494Z" fill="white"/>
</svg>
