<svg width="15" height="9" viewBox="0 0 15 9" fill="none" xmlns="http://www.w3.org/2000/svg">
<g clip-path="url(#clip0_228_2050)">
<mask id="mask0_228_2050" style="mask-type:luminance" maskUnits="userSpaceOnUse" x="1" y="0" width="13" height="9">
<path d="M1.30005 8.98047L1.30005 0.980469L13.7 0.980469L13.7 8.98047L1.30005 8.98047Z" fill="white"/>
</mask>
<g mask="url(#mask0_228_2050)">
<path d="M1.30075 1.92182C1.29671 1.73843 1.34985 1.55835 1.45279 1.40658C1.55572 1.25481 1.70333 1.1389 1.87511 1.07498C2.04695 1.01105 2.23442 1.00232 2.41145 1.04998C2.58848 1.09764 2.74627 1.19933 2.86288 1.34091L7.48587 6.74191L12.1078 1.34091C12.1796 1.24292 12.2709 1.16083 12.3759 1.09979C12.4809 1.03875 12.5973 1.00006 12.7179 0.986163C12.8386 0.97238 12.9608 0.983683 13.0769 1.01938C13.193 1.05507 13.3005 1.11438 13.3926 1.19358C13.4848 1.27274 13.5597 1.3701 13.6125 1.47956C13.6653 1.58901 13.695 1.70822 13.6997 1.82969C13.7042 1.95108 13.6837 2.07209 13.6395 2.18522C13.5954 2.29835 13.5284 2.40118 13.4428 2.4873L8.15614 8.67114C8.07333 8.7682 7.97047 8.84614 7.85466 8.89957C7.73885 8.953 7.61284 8.98068 7.48532 8.98066C7.3578 8.98068 7.23178 8.953 7.11597 8.89957C7.00016 8.84614 6.89731 8.7682 6.8145 8.67114L1.52289 2.4873C1.38492 2.33082 1.3068 2.13047 1.30241 1.92182H1.30075Z" fill="#39394A"/>
</g>
</g>
<defs>
<clipPath id="clip0_228_2050">
<rect width="14" height="8" fill="white" transform="translate(0.5 0.980469)"/>
</clipPath>
</defs>
</svg>
