<svg width="12" height="10" viewBox="0 0 12 10" fill="none" xmlns="http://www.w3.org/2000/svg">
<g clip-path="url(#clip0_228_1808)">
<mask id="mask0_228_1808" style="mask-type:luminance" maskUnits="userSpaceOnUse" x="0" y="0" width="12" height="9">
<path d="M12 0.620117H0V8.82559H12V0.620117Z" fill="white"/>
</mask>
<g mask="url(#mask0_228_1808)">
<path d="M11.8232 4.28328L8.3419 0.802012C8.09937 0.559486 7.71032 0.559486 7.46779 0.802012C7.22526 1.04454 7.22526 1.43359 7.46779 1.67612L9.89305 4.10138H0.621474C0.277895 4.10138 0 4.37928 0 4.72286C0 5.06644 0.277895 5.34433 0.621474 5.34433H9.888L7.46274 7.76959C7.22021 8.01212 7.22021 8.40117 7.46274 8.6437C7.70526 8.88622 8.09432 8.88622 8.33684 8.6437L11.8181 5.16244C11.9394 5.04117 12 4.88454 12 4.72286C12 4.56117 11.9444 4.40454 11.8232 4.28328Z" fill="#415DA1"/>
</g>
</g>
<defs>
<clipPath id="clip0_228_1808">
<rect width="12" height="9" fill="white" transform="translate(0 0.620117)"/>
</clipPath>
</defs>
</svg>
