<svg width="70" height="75" viewBox="0 0 70 75" fill="none" xmlns="http://www.w3.org/2000/svg">
<rect width="70" height="74" transform="translate(0 0.799988)" fill="#67B0CF"/>
<g clip-path="url(#clip0_68_927)">
<path d="M43.6749 39.7551C43.3624 39.4426 43.0255 39.2033 42.6642 39.0373C42.3028 38.8713 41.9269 38.7883 41.5362 38.7883C41.1456 38.7883 40.7696 38.8713 40.4083 39.0373C40.047 39.2033 39.7003 39.4426 39.3683 39.7551L37.3761 41.7473C37.298 41.7082 37.2149 41.6691 37.1271 41.6301C37.0392 41.591 36.9562 41.5422 36.878 41.4836C36.7804 41.4445 36.6778 41.3957 36.5704 41.3371C36.463 41.2785 36.3605 41.2199 36.2628 41.1613C35.3253 40.5754 34.4269 39.8869 33.5675 39.0959C32.7081 38.3049 31.8683 37.4113 31.048 36.4152C30.6573 35.9074 30.3253 35.4387 30.0519 35.009C29.7784 34.5793 29.544 34.1496 29.3487 33.7199C29.6026 33.4855 29.8517 33.2463 30.0958 33.0021C30.3399 32.758 30.5792 32.5187 30.8136 32.2844C30.8917 32.1867 30.9796 32.0939 31.0772 32.006C31.1749 31.9182 31.2628 31.8254 31.3409 31.7277C32.005 31.0637 32.337 30.3361 32.337 29.5451C32.337 28.7541 32.005 28.0266 31.3409 27.3625L29.6124 25.634C29.5147 25.5363 29.4171 25.4338 29.3194 25.3264C29.2218 25.2189 29.1241 25.1164 29.0265 25.0187C28.8312 24.8234 28.6358 24.6281 28.4405 24.4328C28.2452 24.2375 28.0499 24.0422 27.8546 23.8469C27.5421 23.5344 27.2052 23.3 26.8439 23.1437C26.4825 22.9875 26.1065 22.9094 25.7159 22.9094C25.3253 22.9094 24.9493 22.9875 24.588 23.1437C24.2267 23.3 23.8897 23.5344 23.5772 23.8469C23.5772 23.8469 23.5675 23.8469 23.548 23.8469L21.4093 26.0441C20.9991 26.4348 20.6817 26.8791 20.4571 27.3771C20.2325 27.8752 20.0909 28.4074 20.0323 28.9738C19.9542 29.8918 20.0177 30.7609 20.2228 31.5812C20.4278 32.4016 20.6378 33.0949 20.8526 33.6613C21.3605 35.048 22.0099 36.4006 22.8009 37.7189C23.5919 39.0373 24.5538 40.3801 25.6866 41.7473C26.3897 42.5871 27.1222 43.3683 27.8839 44.091C28.6456 44.8332 29.4415 45.5314 30.2716 46.1857C31.1017 46.84 31.9562 47.4406 32.8351 47.9875C33.7335 48.5539 34.6612 49.0617 35.6183 49.5109C36.3409 49.8625 37.1759 50.2092 38.1231 50.551C39.0704 50.8928 40.0909 51.1027 41.1847 51.1808C41.2433 51.1808 41.3067 51.1808 41.3751 51.1808C41.4435 51.1808 41.5167 51.1808 41.5948 51.1808C42.3175 51.1808 42.9864 51.049 43.6017 50.7853C44.2169 50.5217 44.7589 50.1262 45.2276 49.5988C45.2472 49.5988 45.2569 49.5988 45.2569 49.5988C45.2569 49.5988 45.2569 49.5891 45.2569 49.5695C45.4327 49.3742 45.6134 49.1838 45.7989 48.9982C45.9845 48.8127 46.1749 48.6223 46.3702 48.4269C46.5069 48.3098 46.6437 48.1828 46.7804 48.0461C46.9171 47.9094 47.0538 47.7629 47.1905 47.6066C47.503 47.2941 47.7423 46.9523 47.9083 46.5812C48.0743 46.2101 48.1573 45.8293 48.1573 45.4387C48.1573 45.048 48.0743 44.6672 47.9083 44.2961C47.7423 43.925 47.4933 43.5734 47.1612 43.2414L43.6749 39.7551ZM45.9601 46.4348C45.8233 46.5715 45.6915 46.6984 45.5646 46.8156C45.4376 46.9328 45.3058 47.0598 45.169 47.1965C44.9737 47.3918 44.7687 47.5969 44.5538 47.8117C44.339 48.0266 44.1339 48.2414 43.9386 48.4562C43.6261 48.8078 43.2745 49.0666 42.8839 49.2326C42.4933 49.3986 42.0538 49.4816 41.5655 49.4816C41.5265 49.4816 41.4825 49.4816 41.4337 49.4816C41.3849 49.4816 41.3312 49.4816 41.2726 49.4816C40.3351 49.4035 39.4415 49.2131 38.5919 48.9103C37.7423 48.6076 36.9952 48.3 36.3507 47.9875C35.4522 47.5578 34.5831 47.0793 33.7433 46.5519C32.9034 46.0246 32.0929 45.4582 31.3116 44.8527C30.5304 44.2473 29.7784 43.593 29.0558 42.8898C28.3331 42.1867 27.6495 41.4445 27.005 40.6633C25.9308 39.3547 25.0226 38.0851 24.2804 36.8547C23.5382 35.6242 22.923 34.3644 22.4347 33.0754C22.1417 32.2941 21.9415 31.5812 21.8341 30.9367C21.7267 30.2922 21.6925 29.6867 21.7315 29.1203C21.7706 28.7492 21.8585 28.4074 21.9952 28.0949C22.1319 27.7824 22.337 27.4992 22.6105 27.2453L24.7491 25.0773C24.9054 24.9211 25.0665 24.8088 25.2325 24.7404C25.3985 24.6721 25.5597 24.6379 25.7159 24.6379C25.9112 24.6379 26.0919 24.6867 26.2579 24.7844C26.4239 24.882 26.5558 24.9797 26.6534 25.0773C26.8487 25.2726 27.0392 25.4631 27.2247 25.6486C27.4103 25.8342 27.6007 26.0246 27.796 26.2199C27.8937 26.3176 27.9962 26.4201 28.1036 26.5275C28.211 26.6349 28.3136 26.7375 28.4112 26.8351L30.1397 28.5637C30.4718 28.8957 30.6378 29.2228 30.6378 29.5451C30.6378 29.8674 30.4718 30.1945 30.1397 30.5266C30.0421 30.6242 29.9493 30.717 29.8614 30.8049C29.7735 30.8928 29.6808 30.9855 29.5831 31.0832C29.3292 31.3566 29.0704 31.6203 28.8067 31.8742C28.5431 32.1281 28.2745 32.3723 28.0011 32.6066C28.0011 32.6262 27.9962 32.6359 27.9864 32.6359C27.9767 32.6359 27.9718 32.6359 27.9718 32.6359C27.6983 32.9094 27.5616 33.173 27.5616 33.4269C27.5616 33.6808 27.5909 33.8957 27.6495 34.0715C27.6495 34.091 27.6495 34.1057 27.6495 34.1154C27.6495 34.1252 27.6593 34.1301 27.6788 34.1301C27.8937 34.6769 28.1671 35.2189 28.4991 35.756C28.8312 36.2932 29.2315 36.8644 29.7003 37.4699H29.7296C30.589 38.5441 31.4874 39.506 32.4249 40.3557C33.3624 41.2053 34.339 41.9523 35.3546 42.5969C35.4718 42.675 35.5987 42.7482 35.7355 42.8166C35.8722 42.8849 35.9991 42.9484 36.1163 43.007C36.2335 43.0656 36.3458 43.1242 36.4532 43.1828C36.5606 43.2414 36.6632 43.3 36.7608 43.3586C36.7608 43.3586 36.7706 43.3635 36.7901 43.3732C36.8097 43.383 36.8194 43.3879 36.8194 43.3879C36.9366 43.4465 37.044 43.4904 37.1417 43.5197C37.2394 43.549 37.3468 43.5637 37.464 43.5637C37.7179 43.5637 37.9278 43.5051 38.0939 43.3879C38.2599 43.2707 38.3624 43.1828 38.4015 43.1242L40.5694 40.9562C40.6866 40.8391 40.8282 40.7316 40.9942 40.634C41.1603 40.5363 41.3409 40.4875 41.5362 40.4875C41.7315 40.4875 41.9073 40.5363 42.0636 40.634C42.2198 40.7316 42.3468 40.8293 42.4444 40.9269C42.4444 40.9465 42.4444 40.9562 42.4444 40.9562C42.4444 40.9562 42.4542 40.9562 42.4737 40.9562L45.9601 44.4426C46.2726 44.7746 46.4288 45.1066 46.4288 45.4387C46.4288 45.7707 46.2726 46.1027 45.9601 46.4348ZM36.1749 28.3C37.0147 28.4562 37.8058 28.7248 38.548 29.1057C39.2901 29.4865 39.964 29.9797 40.5694 30.5851C41.1554 31.1906 41.6437 31.8644 42.0343 32.6066C42.4249 33.3488 42.6886 34.1301 42.8253 34.9504C42.8644 35.1652 42.962 35.3361 43.1183 35.4631C43.2745 35.59 43.4601 35.6535 43.6749 35.6535C43.6944 35.6535 43.714 35.6535 43.7335 35.6535C43.753 35.6535 43.7823 35.6535 43.8214 35.6535C44.0558 35.6144 44.2413 35.4973 44.378 35.3019C44.5147 35.1066 44.5636 34.8918 44.5245 34.6574C44.3487 33.6613 44.0265 32.7141 43.5577 31.8156C43.089 30.9172 42.4933 30.1066 41.7706 29.384C41.048 28.6613 40.2374 28.0656 39.339 27.5969C38.4405 27.1281 37.4933 26.8058 36.4972 26.6301C36.2628 26.591 36.048 26.6398 35.8526 26.7766C35.6573 26.9133 35.5401 27.0988 35.5011 27.3332C35.462 27.548 35.506 27.7531 35.6329 27.9484C35.7599 28.1437 35.9405 28.2609 36.1749 28.3ZM49.9444 34.423C49.8077 33.5832 49.6026 32.7726 49.3292 31.9914C49.0753 31.2101 48.7579 30.4533 48.3771 29.7209C47.9962 28.9885 47.5616 28.2805 47.0733 27.5969C46.5655 26.9328 46.0187 26.298 45.4327 25.6926C44.8272 25.1066 44.1925 24.5695 43.5284 24.0812C42.8448 23.5734 42.1368 23.134 41.4044 22.7629C40.672 22.3918 39.9151 22.0695 39.1339 21.7961C38.3526 21.5422 37.5519 21.3371 36.7315 21.1808C36.4972 21.1418 36.2823 21.1906 36.087 21.3273C35.8917 21.4641 35.7745 21.6496 35.7355 21.884C35.6964 22.1183 35.7452 22.3332 35.8819 22.5285C36.0187 22.7238 36.2042 22.841 36.4386 22.8801C37.923 23.134 39.3243 23.6027 40.6427 24.2863C41.961 24.9699 43.1573 25.8488 44.2315 26.923C45.3058 27.9777 46.1847 29.1691 46.8683 30.4973C47.5519 31.8254 48.0108 33.2219 48.2452 34.6867C48.2843 34.9016 48.3868 35.0724 48.5528 35.1994C48.7189 35.3264 48.8995 35.3898 49.0948 35.3898C49.1339 35.3898 49.1632 35.3898 49.1827 35.3898C49.2022 35.3898 49.2218 35.3898 49.2413 35.3898C49.4757 35.3508 49.6612 35.2336 49.798 35.0383C49.9347 34.843 49.9835 34.6379 49.9444 34.423Z" fill="white"/>
</g>
<defs>
<clipPath id="clip0_68_927">
<rect width="30" height="30" fill="white" transform="matrix(1 0 0 -1 20 50.8)"/>
</clipPath>
</defs>
</svg>
