<svg width="500" height="501" viewBox="0 0 500 501" fill="none" xmlns="http://www.w3.org/2000/svg">
<path d="M334 35.3506C334 35.3506 256.6 7.83061 180.63 51.6506C104.66 95.4706 66.3 182.441 33.38 252.111C0.459974 321.781 19.38 392.661 77.38 424.971C135.38 457.281 174.81 409.651 256.17 407.331C337.53 405.011 359.44 416.641 427 370.681C494.56 324.721 506.71 216.171 453.46 135.861C400.21 55.5506 334 35.3506 334 35.3506Z" fill="#415DA1"/>
<path opacity="0.7" d="M334 35.3506C334 35.3506 256.6 7.83061 180.63 51.6506C104.66 95.4706 66.3 182.441 33.38 252.111C0.459974 321.781 19.38 392.661 77.38 424.971C135.38 457.281 174.81 409.651 256.17 407.331C337.53 405.011 359.44 416.641 427 370.681C494.56 324.721 506.71 216.171 453.46 135.861C400.21 55.5506 334 35.3506 334 35.3506Z" fill="white"/>
<path d="M40.0001 229.441C44.0001 229.151 51.8701 224.781 51.8701 224.771C51.8701 224.761 47.4201 220.471 47.1001 220.231C43.4301 217.501 34.7401 214.381 30.5701 217.351C29.8886 217.863 29.3228 218.513 28.9098 219.259C28.4967 220.004 28.2456 220.829 28.1729 221.678C28.1003 222.528 28.2076 223.383 28.488 224.188C28.7684 224.993 29.2155 225.73 29.8001 226.351C32.1901 229.061 36.6001 229.691 40.0001 229.441Z" fill="#415DA1"/>
<path d="M54.8902 251.041C58.5202 249.751 64.5402 243.951 65.0102 243.491C68.3216 246.936 71.8558 250.159 75.5902 253.141C77.7602 254.881 80.0002 256.581 82.2602 258.241C81.1202 257.641 80.0802 257.101 79.9302 257.041C75.6702 255.381 66.4602 254.661 63.2202 258.631C62.7008 259.305 62.3291 260.08 62.1295 260.908C61.9298 261.735 61.9065 262.595 62.0612 263.431C62.2159 264.268 62.5451 265.063 63.0274 265.764C63.5096 266.465 64.1341 267.057 64.8602 267.501C67.8602 269.501 72.3002 268.941 75.5202 267.801C78.7402 266.661 84.0102 261.801 85.3802 260.501L88.0002 262.401C92.2102 265.401 96.4302 268.401 100.47 271.451C101.9 272.531 103.27 273.641 104.64 274.751C103.64 274.211 102.75 273.751 102.64 273.751C98.3802 272.081 89.1702 271.371 85.9302 275.341C85.4123 276.015 85.042 276.791 84.8431 277.618C84.6443 278.445 84.6215 279.304 84.7761 280.141C84.9307 280.977 85.2594 281.771 85.7407 282.472C86.2221 283.174 86.8454 283.766 87.5702 284.211C90.5702 286.211 95.0102 285.651 98.2302 284.511C101.45 283.371 106.23 278.981 107.85 277.441C109.21 278.621 110.59 279.801 111.85 281.001C112.7 281.841 113.58 282.591 114.38 283.481L116.81 286.051C118.3 287.751 119.81 289.481 121.25 291.171C122.25 292.331 123.15 293.461 124.08 294.601C122.68 293.511 119.88 291.441 119.62 291.291C115.67 289.001 106.67 286.901 102.87 290.291C102.257 290.877 101.774 291.587 101.452 292.372C101.13 293.158 100.977 294.002 101.003 294.851C101.028 295.699 101.232 296.533 101.6 297.298C101.968 298.063 102.493 298.741 103.14 299.291C105.82 301.711 110.27 301.831 113.63 301.191C117.33 300.491 123.9 295.891 124.72 295.311C126.25 297.191 127.72 299.041 129.09 300.801C132.75 305.541 135.8 309.801 138.17 313.151L141.17 311.561C138.67 308.131 135.41 303.801 131.45 298.921C129.91 297.001 128.22 294.981 126.45 292.921C128.123 290.953 129.679 288.89 131.11 286.741C134.76 288.031 142.25 287.841 143.22 287.811C143.45 290.221 143.66 292.571 143.82 294.811C144.26 300.611 144.47 305.691 144.58 309.761L147.86 308.041C147.65 304.221 147.34 299.671 146.86 294.551C146.63 292.091 146.33 289.481 146 286.791C146.95 286.521 154.67 284.261 157.53 281.791C160.13 279.571 162.82 276.021 162.61 272.411C162.588 271.56 162.388 270.723 162.021 269.954C161.654 269.186 161.129 268.504 160.481 267.952C159.833 267.4 159.076 266.991 158.259 266.751C157.442 266.511 156.584 266.446 155.74 266.561C150.74 267.381 146.74 275.711 146.01 280.231C146.01 280.501 145.85 283.441 145.81 285.301C145.67 284.201 145.54 283.141 145.39 282.011C145.09 279.781 144.72 277.561 144.39 275.181C144.17 274.031 143.94 272.871 143.71 271.711C143.48 270.551 143.14 269.341 142.86 268.141C142.15 265.381 141.3 262.621 140.38 259.851C142.38 259.591 149.25 258.541 152.17 256.731C155.09 254.921 158.27 251.831 158.61 248.231C158.717 247.386 158.645 246.529 158.399 245.714C158.153 244.899 157.738 244.145 157.182 243.501C156.625 242.857 155.94 242.337 155.169 241.975C154.399 241.614 153.561 241.418 152.71 241.401C147.59 241.401 142.38 249.081 141.02 253.401C140.93 253.671 140.31 256.911 140.02 258.701C139.45 257.041 138.89 255.381 138.27 253.701C136.46 248.911 134.48 244.121 132.52 239.331C131.92 237.871 131.35 236.401 130.76 234.931C131.45 234.841 139.71 233.781 142.97 231.751C145.88 229.951 149.08 226.851 149.41 223.251C149.517 222.407 149.445 221.55 149.199 220.736C148.953 219.921 148.538 219.168 147.981 218.525C147.425 217.881 146.739 217.362 145.969 217.002C145.198 216.641 144.361 216.446 143.51 216.431C138.39 216.431 133.19 224.101 131.82 228.431C131.72 228.761 130.82 233.431 130.65 234.621C129.36 231.391 128.11 228.161 127 224.921C125.466 220.622 124.207 216.229 123.23 211.771C123.55 211.771 132.17 210.651 135.52 208.581C138.42 206.781 141.62 203.681 141.95 200.081C142.058 199.237 141.988 198.38 141.743 197.565C141.498 196.75 141.084 195.996 140.529 195.352C139.973 194.707 139.288 194.187 138.518 193.825C137.748 193.463 136.911 193.268 136.06 193.251C130.93 193.251 125.73 200.931 124.36 205.251C124.26 205.601 123.3 210.621 123.19 211.541C123.13 211.281 123.05 211.011 123 210.751C122.182 206.19 121.774 201.564 121.78 196.931C121.78 194.371 121.86 191.931 122.02 189.541C123.65 189.541 131.02 189.261 134.29 187.731C137.56 186.201 140.9 183.531 141.62 179.981C141.82 179.154 141.843 178.294 141.688 177.458C141.533 176.621 141.204 175.827 140.722 175.126C140.24 174.425 139.616 173.834 138.89 173.39C138.165 172.946 137.354 172.66 136.51 172.551C131.41 172.031 125.4 179.051 123.57 183.241C123.47 183.461 122.71 185.891 122.18 187.671C122.27 186.601 122.34 185.491 122.45 184.461C122.84 180.611 123.45 177.101 123.99 174.001C124.32 172.241 124.66 170.661 124.99 169.181C126.57 168.311 132.88 164.741 134.99 161.951C137.1 159.161 138.92 155.181 137.93 151.701C137.727 150.87 137.35 150.092 136.825 149.417C136.299 148.742 135.637 148.186 134.882 147.786C134.126 147.385 133.294 147.149 132.441 147.093C131.587 147.037 130.732 147.162 129.93 147.461C125.16 149.341 123.06 158.341 123.36 162.901C123.36 163.301 124.5 169.421 124.59 169.381L124.68 169.321C124.34 170.741 123.99 172.321 123.68 173.941C123.06 177.031 122.38 180.531 121.9 184.391C121.33 188.545 120.996 192.728 120.9 196.921C120.798 201.606 121.113 206.291 121.84 210.921V211.081C121.17 209.741 119.15 206.081 118.97 205.791C116.33 202.051 109.04 196.371 104.15 197.901C103.346 198.177 102.609 198.619 101.987 199.199C101.365 199.779 100.871 200.483 100.538 201.265C100.205 202.048 100.041 202.891 100.055 203.742C100.069 204.592 100.262 205.43 100.62 206.201C102.04 209.531 106.04 211.501 109.35 212.331C113.09 213.261 121.35 211.741 121.96 211.621C122.817 216.32 123.986 220.957 125.46 225.501C126.31 228.161 127.24 230.801 128.21 233.441C127.59 232.301 127.02 231.291 126.93 231.151C124.29 227.411 117.01 221.741 112.12 223.261C111.315 223.536 110.577 223.977 109.954 224.557C109.331 225.136 108.837 225.84 108.504 226.623C108.171 227.406 108.006 228.25 108.021 229.101C108.036 229.952 108.23 230.79 108.59 231.561C110 234.891 114 236.861 117.31 237.691C120.62 238.521 127.71 237.371 129.56 237.041C129.94 238.041 130.32 239.041 130.7 240.041C132.55 244.881 134.42 249.691 136.11 254.481C136.71 256.161 137.23 257.841 137.76 259.481C137.21 258.481 136.76 257.621 136.65 257.481C134.02 253.741 126.73 248.061 121.84 249.591C121.034 249.864 120.295 250.305 119.671 250.884C119.047 251.463 118.552 252.168 118.219 252.951C117.886 253.735 117.722 254.579 117.738 255.431C117.753 256.282 117.948 257.12 118.31 257.891C119.73 261.211 123.72 263.191 127.03 264.011C130.34 264.831 136.74 263.811 138.95 263.431C139.44 265.161 139.95 266.901 140.34 268.611C140.58 269.781 140.9 270.891 141.08 272.081C141.26 273.271 141.49 274.411 141.69 275.561C142 277.791 142.32 280.091 142.57 282.271C142.75 283.791 142.89 285.271 143.04 286.701C142.47 285.021 141.27 281.701 141.14 281.481C139.217 277.945 136.417 274.963 133.01 272.821C132.819 272.415 132.588 272.03 132.32 271.671C131.832 270.967 131.2 270.375 130.467 269.934C129.733 269.492 128.915 269.21 128.065 269.107C127.215 269.004 126.353 269.082 125.535 269.336C124.717 269.59 123.962 270.014 123.32 270.581C119.56 274.051 120.83 283.201 122.75 287.351C122.86 287.601 124.39 290.121 125.38 291.691C124.65 290.851 123.96 290.031 123.21 289.181C121.73 287.491 120.21 285.841 118.57 284.061L116.08 281.541C115.27 280.681 114.3 279.881 113.41 279.031C111.3 277.121 109.06 275.291 106.77 273.491C108.25 272.191 113.44 267.491 114.88 264.381C116.32 261.271 117.27 256.931 115.56 253.741C115.183 252.977 114.65 252.302 113.995 251.758C113.34 251.215 112.578 250.815 111.759 250.585C110.939 250.355 110.081 250.299 109.238 250.423C108.396 250.546 107.589 250.845 106.87 251.301C102.63 254.161 102.5 263.401 103.77 267.791C103.84 268.071 105.11 271.121 105.84 272.791C104.45 271.721 103.07 270.651 101.64 269.611C97.4902 266.611 93.1902 263.711 88.9202 260.801L85.0202 258.101C85.5502 257.641 91.8502 252.201 93.4602 248.711C94.8802 245.611 95.8402 241.261 94.1302 238.071C93.7405 237.335 93.2033 236.687 92.5522 236.168C91.9012 235.65 91.1501 235.27 90.346 235.055C89.5419 234.839 88.702 234.791 87.8786 234.914C87.0551 235.037 86.266 235.329 85.5602 235.771C81.3102 238.631 81.1802 247.871 82.4502 252.261C82.5502 252.591 84.3702 256.981 84.8902 258.071C82.0402 256.071 79.2102 254.071 76.5002 252.001C72.8242 249.2 69.3366 246.16 66.0602 242.901C66.3002 242.691 72.9002 237.041 74.5502 233.471C75.9802 230.361 76.9302 226.011 75.2302 222.821C74.8533 222.057 74.32 221.382 73.6651 220.838C73.0102 220.295 72.2483 219.895 71.4288 219.665C70.6093 219.435 69.7506 219.379 68.9084 219.503C68.0662 219.626 67.2593 219.925 66.5402 220.381C62.2902 223.251 62.1602 232.481 63.4302 236.881C63.5302 237.221 65.5002 241.941 65.9202 242.771C65.7302 242.581 65.5102 242.411 65.3302 242.211C62.1293 238.859 59.2344 235.228 56.6802 231.361C55.2402 229.241 53.9902 227.141 52.8102 225.061C54.1502 224.141 60.2102 219.841 62.0402 216.781C63.8702 213.721 65.2302 209.641 63.8902 206.281C63.5994 205.48 63.1436 204.751 62.5523 204.138C61.9611 203.526 61.2476 203.045 60.4583 202.726C59.6689 202.407 58.8214 202.258 57.9707 202.288C57.1199 202.318 56.285 202.527 55.5202 202.901C50.9902 205.281 49.8402 214.451 50.6202 218.901C50.6202 219.151 51.3702 221.591 51.9102 223.371C51.3902 222.421 50.8402 221.461 50.3702 220.541C48.5702 217.111 47.1302 213.861 45.8802 210.971C45.1902 209.321 44.5902 207.811 44.0502 206.401C44.8802 204.801 48.1802 198.341 48.4002 194.851C48.6202 191.361 47.9302 187.041 45.1902 184.681C44.5638 184.101 43.8219 183.66 43.0133 183.387C42.2046 183.114 41.3474 183.014 40.4977 183.096C39.648 183.177 38.8251 183.437 38.0828 183.858C37.3405 184.279 36.6955 184.853 36.1902 185.541C33.2602 189.741 36.4702 198.401 39.1902 202.041C39.4302 202.361 43.7402 206.851 43.7802 206.761V206.671C44.2802 208.041 44.8302 209.501 45.4602 211.091C46.6402 214.021 48.0102 217.311 49.7402 220.791C51.612 224.569 53.7022 228.235 56.0002 231.771C58.5057 235.741 61.3568 239.482 64.5202 242.951L64.6402 243.061C63.3402 242.321 59.6402 240.361 59.3202 240.241C55.0602 238.581 45.8502 237.861 42.6102 241.831C42.0779 242.505 41.695 243.285 41.487 244.118C41.279 244.952 41.2507 245.821 41.4039 246.666C41.5571 247.511 41.8883 248.315 42.3756 249.022C42.8629 249.73 43.4951 250.326 44.2302 250.771C47.2502 252.771 51.6702 252.181 54.8902 251.041Z" fill="#415DA1"/>
<path d="M121.39 188.771C121.49 188.771 120.06 182.771 119.92 182.351C118.37 178.051 112.84 170.651 107.72 170.821C106.87 170.875 106.041 171.106 105.287 171.501C104.533 171.896 103.871 172.445 103.342 173.113C102.814 173.781 102.433 174.552 102.222 175.377C102.011 176.202 101.977 177.062 102.12 177.901C102.61 181.481 105.94 184.441 108.92 186.111C112.42 188.121 121.39 188.771 121.39 188.771Z" fill="#415DA1"/>
<path d="M428.68 382.251C425.68 382.031 419.86 378.791 419.86 378.781C419.86 378.771 423.17 375.581 423.41 375.401C426.13 373.401 432.6 371.051 435.7 373.261C436.205 373.642 436.623 374.125 436.928 374.679C437.233 375.232 437.419 375.844 437.473 376.474C437.527 377.104 437.447 377.738 437.24 378.335C437.033 378.932 436.703 379.479 436.27 379.941C434.49 381.971 431.22 382.431 428.68 382.251Z" fill="#415DA1"/>
<path d="M417.62 398.311C414.92 397.311 410.45 393.041 410.09 392.701C407.63 395.261 405.005 397.656 402.23 399.871C400.62 401.171 398.95 402.421 397.23 403.661C398.08 403.211 398.85 402.811 398.96 402.771C402.13 401.531 408.96 401.001 411.38 403.951C411.767 404.452 412.044 405.028 412.193 405.643C412.343 406.258 412.361 406.898 412.247 407.52C412.132 408.143 411.889 408.734 411.531 409.256C411.173 409.779 410.709 410.22 410.17 410.551C407.92 412.031 404.64 411.611 402.24 410.771C399.84 409.931 395.93 406.311 394.91 405.341L393 406.771C389.87 409.011 386.74 411.231 383.73 413.501C382.67 414.301 381.65 415.131 380.64 415.951C381.39 415.551 382.04 415.221 382.14 415.181C385.31 413.941 392.14 413.411 394.56 416.361C394.946 416.862 395.223 417.439 395.371 418.055C395.52 418.67 395.537 419.31 395.422 419.933C395.307 420.555 395.062 421.147 394.703 421.668C394.345 422.19 393.88 422.63 393.34 422.961C391.1 424.441 387.81 424.021 385.42 423.181C383.03 422.341 379.48 419.071 378.27 417.931C377.27 418.801 376.27 419.681 375.27 420.571C374.64 421.191 373.98 421.751 373.38 422.411L371.58 424.331C370.47 425.581 369.33 426.881 368.28 428.131C367.55 429.001 366.86 429.841 366.17 430.681C367.22 429.871 369.3 428.331 369.49 428.221C372.43 426.521 379.12 424.951 381.95 427.511C382.408 427.947 382.768 428.475 383.008 429.061C383.248 429.646 383.361 430.275 383.342 430.908C383.322 431.54 383.169 432.161 382.893 432.73C382.617 433.299 382.224 433.804 381.74 434.211C379.74 436.011 376.44 436.101 373.94 435.631C371.2 435.101 366.31 431.691 365.7 431.251C364.56 432.651 363.47 434.031 362.46 435.341C359.73 438.861 357.46 441.991 355.7 444.521L353.46 443.341C355.33 440.781 357.75 437.561 360.69 433.941C361.84 432.511 363.09 431.011 364.4 429.481C363.177 428.012 362.042 426.473 361 424.871C358.29 425.871 352.72 425.691 352 425.661C351.82 427.461 351.66 429.211 351.54 430.861C351.22 435.171 351.06 438.951 350.98 441.981L348.54 440.701C348.7 437.851 348.93 434.471 349.3 430.701C349.47 428.871 349.69 426.931 349.93 424.931C349.23 424.731 343.49 423.051 341.36 421.231C339.43 419.581 337.43 416.951 337.59 414.231C337.605 413.598 337.754 412.976 338.026 412.405C338.298 411.834 338.687 411.327 339.168 410.916C339.65 410.506 340.212 410.202 340.819 410.023C341.426 409.845 342.063 409.796 342.69 409.881C346.45 410.491 349.41 416.681 349.93 420.051C349.93 420.241 350.04 422.431 350.07 423.811C350.18 423.001 350.27 422.211 350.39 421.371C350.61 419.711 350.88 418.061 351.17 416.291C351.33 415.441 351.5 414.581 351.67 413.711C351.84 412.841 352.09 411.951 352.3 411.061C352.83 409.011 353.46 406.951 354.15 404.901C352.69 404.701 347.55 403.901 345.38 402.581C343.21 401.261 340.85 398.931 340.6 396.261C340.52 395.633 340.573 394.996 340.755 394.39C340.937 393.784 341.245 393.224 341.658 392.745C342.071 392.266 342.58 391.879 343.153 391.609C343.725 391.34 344.348 391.194 344.98 391.181C348.79 391.181 352.66 396.891 353.67 400.131C353.74 400.341 354.2 402.751 354.43 404.081C354.85 402.841 355.27 401.611 355.73 400.381C357.08 396.821 358.55 393.261 360 389.701C360.45 388.611 360.88 387.521 361.32 386.431C360.8 386.361 354.66 385.571 352.24 384.071C350.08 382.731 347.7 380.421 347.45 377.751C347.372 377.123 347.426 376.485 347.609 375.879C347.793 375.274 348.101 374.713 348.515 374.234C348.929 373.755 349.439 373.369 350.012 373.099C350.584 372.83 351.207 372.684 351.84 372.671C355.64 372.671 359.51 378.381 360.53 381.671C360.6 381.911 361.27 385.381 361.4 386.271C362.35 383.871 363.29 381.461 364.11 379.061C365.24 375.818 366.156 372.504 366.85 369.141C366.61 369.141 360.21 368.311 357.72 366.771C355.56 365.431 353.18 363.131 352.93 360.451C352.852 359.823 352.906 359.185 353.089 358.579C353.273 357.974 353.581 357.413 353.995 356.934C354.409 356.455 354.919 356.069 355.492 355.799C356.064 355.53 356.687 355.384 357.32 355.371C361.13 355.371 365 361.081 366.01 364.371C366.09 364.621 366.8 368.371 366.89 369.041C366.89 368.851 366.99 368.651 367.02 368.451C367.63 365.061 367.934 361.624 367.93 358.181C367.93 356.271 367.87 354.451 367.75 352.681C366.54 352.681 361.02 352.481 358.63 351.341C356.24 350.201 353.72 348.211 353.18 345.581C353.032 344.965 353.014 344.326 353.129 343.704C353.244 343.081 353.489 342.49 353.847 341.968C354.206 341.447 354.67 341.007 355.21 340.676C355.749 340.346 356.353 340.133 356.98 340.051C360.77 339.671 365.24 344.881 366.6 348.001C366.68 348.171 367.24 350.001 367.6 351.291C367.54 350.501 367.48 349.671 367.4 348.911C367.11 346.041 366.67 343.441 366.26 341.131C366.01 339.831 365.76 338.651 365.52 337.551C364.35 336.901 359.66 334.251 358.09 332.171C356.52 330.091 355.17 327.171 355.9 324.551C356.053 323.937 356.332 323.362 356.722 322.864C357.111 322.365 357.6 321.954 358.158 321.657C358.717 321.36 359.331 321.184 359.962 321.139C360.593 321.095 361.226 321.184 361.82 321.401C365.36 322.801 366.93 329.491 366.7 332.881C366.7 333.181 365.85 337.731 365.79 337.701H365.72C365.98 338.751 366.24 339.881 366.5 341.131C366.96 343.431 367.5 346.031 367.82 348.901C368.234 351.988 368.468 355.096 368.52 358.211C368.6 361.701 368.369 365.191 367.83 368.641V368.761C368.33 367.761 369.83 365.031 369.97 364.831C371.97 362.051 377.35 357.831 380.97 358.961C381.569 359.165 382.117 359.494 382.581 359.924C383.044 360.355 383.412 360.878 383.66 361.46C383.908 362.041 384.031 362.669 384.02 363.301C384.01 363.934 383.867 364.557 383.6 365.131C382.54 367.601 379.6 369.071 377.11 369.691C374.33 370.381 368.22 369.251 367.74 369.161C367.098 372.654 366.226 376.102 365.13 379.481C364.5 381.481 363.81 383.421 363.13 385.381C363.59 384.541 364.01 383.781 364.08 383.681C366.08 380.901 371.46 376.681 375.08 377.811C375.679 378.016 376.228 378.346 376.691 378.777C377.155 379.209 377.522 379.733 377.77 380.315C378.018 380.898 378.141 381.526 378.131 382.159C378.12 382.793 377.977 383.416 377.71 383.991C376.65 386.461 373.71 387.931 371.22 388.541C368.73 389.151 363.49 388.311 362.11 388.061L361.27 390.311C359.89 393.911 358.5 397.491 357.27 401.041C356.82 402.291 356.43 403.541 356.04 404.791C356.45 404.041 356.8 403.411 356.87 403.321C358.82 400.541 364.24 396.321 367.87 397.451C368.468 397.656 369.015 397.985 369.478 398.416C369.94 398.847 370.307 399.371 370.554 399.952C370.801 400.534 370.923 401.161 370.912 401.793C370.901 402.425 370.757 403.048 370.49 403.621C369.44 406.101 366.49 407.561 364 408.181C361.51 408.801 356.79 408.021 355.14 407.741C354.78 409.031 354.41 410.321 354.14 411.591C353.96 412.461 353.72 413.291 353.59 414.171C353.46 415.051 353.29 415.911 353.14 416.761C352.91 418.421 352.67 420.131 352.49 421.761C352.35 422.891 352.25 423.971 352.14 425.051C352.56 423.801 353.45 421.371 353.54 421.171C354.974 418.543 357.057 416.326 359.59 414.731C359.693 414.397 359.83 414.075 360 413.771C360.362 413.253 360.829 412.817 361.371 412.491C361.913 412.166 362.517 411.958 363.144 411.882C363.772 411.805 364.408 411.862 365.012 412.048C365.616 412.234 366.174 412.545 366.65 412.961C369.45 415.541 368.51 422.341 367.08 425.431C367 425.611 365.86 427.481 365.13 428.651C365.66 428.031 366.18 427.421 366.74 426.791C367.84 425.531 368.97 424.301 370.19 422.981L372.04 421.111C372.64 420.471 373.36 419.871 374.04 419.241C375.61 417.821 377.27 416.461 378.98 415.121C377.88 414.121 373.98 410.671 372.98 408.351C371.98 406.031 371.2 402.811 372.47 400.441C372.749 399.872 373.145 399.369 373.632 398.964C374.119 398.559 374.686 398.262 375.295 398.091C375.905 397.92 376.544 397.88 377.17 397.973C377.797 398.066 378.396 398.29 378.93 398.631C382.09 400.751 382.18 407.631 381.24 410.891C381.18 411.091 380.24 413.361 379.7 414.591C380.7 413.801 381.76 413.001 382.82 412.231C385.91 410.001 389.1 407.841 392.28 405.681L395.18 403.681C394.78 403.341 390.1 399.301 388.91 396.681C387.84 394.381 387.13 391.141 388.4 388.771C388.679 388.202 389.075 387.699 389.562 387.294C390.049 386.889 390.616 386.592 391.225 386.421C391.835 386.25 392.474 386.21 393.1 386.303C393.727 386.396 394.326 386.62 394.86 386.961C398.02 389.091 398.11 395.961 397.17 399.221C397.1 399.471 395.74 402.731 395.35 403.541C397.48 402.061 399.58 400.541 401.59 399.021C404.325 396.939 406.92 394.681 409.36 392.261C409.17 392.101 404.27 387.901 403.04 385.261C401.98 382.951 401.27 379.711 402.54 377.351C402.819 376.783 403.215 376.28 403.702 375.875C404.188 375.47 404.755 375.172 405.364 375C405.973 374.828 406.612 374.787 407.239 374.878C407.865 374.97 408.465 375.192 409 375.531C412.15 377.661 412.25 384.531 411.31 387.791C411.23 388.051 409.77 391.561 409.46 392.171L409.9 391.761C412.275 389.263 414.426 386.563 416.33 383.691C417.39 382.121 418.33 380.551 419.2 379.011C418.2 378.321 413.71 375.121 412.34 372.851C410.97 370.581 409.97 367.541 410.97 365.051C411.185 364.455 411.523 363.912 411.962 363.456C412.401 363 412.931 362.641 413.518 362.403C414.105 362.166 414.735 362.054 415.368 362.076C416 362.098 416.621 362.253 417.19 362.531C420.56 364.301 421.41 371.121 420.83 374.471C420.83 374.651 420.27 376.471 419.83 377.791C420.22 377.081 420.62 376.371 420.98 375.681C422.32 373.131 423.38 370.681 424.31 368.571C424.83 367.341 425.31 366.221 425.68 365.171C425.06 363.991 422.61 359.171 422.44 356.591C422.27 354.011 422.79 350.781 424.83 349.031C425.294 348.602 425.844 348.276 426.443 348.074C427.042 347.871 427.676 347.798 428.306 347.857C428.935 347.916 429.545 348.108 430.095 348.419C430.645 348.729 431.124 349.153 431.5 349.661C433.68 352.791 431.29 359.231 429.24 361.931C429.06 362.171 425.86 365.511 425.82 365.441V365.371C425.45 366.371 425.04 367.481 424.57 368.661C423.69 370.831 422.67 373.281 421.38 375.871C420.024 378.675 418.508 381.4 416.84 384.031C414.98 386.985 412.858 389.766 410.5 392.341L410.41 392.431C411.41 391.881 414.14 390.431 414.41 390.331C417.57 389.091 424.41 388.561 426.83 391.511C427.216 392.012 427.493 392.589 427.641 393.205C427.79 393.82 427.807 394.46 427.692 395.083C427.577 395.705 427.332 396.297 426.973 396.818C426.615 397.34 426.15 397.78 425.61 398.111C423.3 399.571 420 399.151 417.62 398.311Z" fill="#415DA1"/>
<path d="M368.18 352.051C368.11 352.051 369.18 347.551 369.27 347.271C370.43 344.081 374.54 338.571 378.34 338.711C378.972 338.749 379.588 338.92 380.149 339.213C380.71 339.506 381.203 339.914 381.596 340.411C381.988 340.907 382.272 341.481 382.428 342.094C382.583 342.708 382.608 343.347 382.5 343.971C382.14 346.631 379.66 348.831 377.45 350.071C374.85 351.531 368.18 352.051 368.18 352.051Z" fill="#415DA1"/>
<path d="M426.2 213.682C445.944 212.102 460.67 194.816 459.09 175.072C457.511 155.328 440.224 140.602 420.48 142.182C400.736 143.762 386.011 161.048 387.59 180.792C389.17 200.536 406.456 215.262 426.2 213.682Z" stroke="#263238" stroke-width="0.72648" stroke-linecap="round" stroke-linejoin="round"/>
<path d="M421.42 187.77C419.508 187.77 417.674 187.011 416.322 185.659C414.97 184.307 414.21 182.473 414.21 180.56V157.66C414.209 156.713 414.394 155.774 414.756 154.898C415.118 154.022 415.649 153.226 416.318 152.556C416.988 151.885 417.783 151.353 418.659 150.99C419.534 150.627 420.472 150.44 421.42 150.44C422.368 150.44 423.307 150.627 424.183 150.99C425.059 151.353 425.855 151.885 426.525 152.555C427.196 153.226 427.728 154.021 428.09 154.897C428.453 155.773 428.64 156.712 428.64 157.66V180.53C428.644 181.481 428.46 182.422 428.099 183.301C427.738 184.18 427.206 184.979 426.535 185.652C425.864 186.324 425.067 186.858 424.189 187.222C423.311 187.585 422.37 187.772 421.42 187.77Z" stroke="#263238" stroke-miterlimit="10"/>
<path d="M421.48 192.931C418.099 192.928 414.858 191.584 412.467 189.193C410.077 186.803 408.733 183.561 408.73 180.181V169.441C408.73 169.091 408.869 168.755 409.117 168.507C409.364 168.26 409.7 168.121 410.05 168.121C410.4 168.121 410.736 168.26 410.983 168.507C411.231 168.755 411.37 169.091 411.37 169.441V180.181C411.453 182.808 412.555 185.301 414.442 187.13C416.33 188.96 418.856 189.983 421.485 189.983C424.114 189.983 426.64 188.96 428.528 187.13C430.415 185.301 431.517 182.808 431.6 180.181V169.441C431.6 169.091 431.739 168.755 431.987 168.507C432.234 168.26 432.57 168.121 432.92 168.121C433.27 168.121 433.606 168.26 433.853 168.507C434.101 168.755 434.24 169.091 434.24 169.441V180.181C434.235 183.562 432.888 186.804 430.496 189.194C428.104 191.584 424.862 192.928 421.48 192.931Z" stroke="#263238" stroke-miterlimit="10"/>
<path d="M421.48 206.661C421.13 206.661 420.794 206.521 420.547 206.274C420.299 206.026 420.16 205.691 420.16 205.341V191.611C420.16 191.26 420.299 190.925 420.547 190.677C420.794 190.43 421.13 190.291 421.48 190.291C421.83 190.291 422.166 190.43 422.413 190.677C422.661 190.925 422.8 191.26 422.8 191.611V205.341C422.8 205.691 422.661 206.026 422.413 206.274C422.166 206.521 421.83 206.661 421.48 206.661Z" stroke="#263238" stroke-miterlimit="10"/>
<path d="M430.28 207.361H412.68C412.33 207.361 411.994 207.222 411.746 206.974C411.499 206.727 411.36 206.391 411.36 206.041C411.36 205.691 411.499 205.355 411.746 205.107C411.994 204.86 412.33 204.721 412.68 204.721H430.28C430.453 204.721 430.625 204.755 430.785 204.821C430.945 204.888 431.091 204.985 431.213 205.107C431.336 205.23 431.433 205.375 431.499 205.536C431.566 205.696 431.6 205.867 431.6 206.041C431.6 206.214 431.566 206.386 431.499 206.546C431.433 206.706 431.336 206.852 431.213 206.974C431.091 207.097 430.945 207.194 430.785 207.26C430.625 207.327 430.453 207.361 430.28 207.361Z" stroke="#263238" stroke-miterlimit="10"/>
<path d="M100.186 113.203C117.107 106.142 125.101 86.7004 118.04 69.7787C110.979 52.857 91.5367 44.8635 74.615 51.9246C57.6933 58.9858 49.6998 78.4277 56.7609 95.3494C63.8221 112.271 83.264 120.265 100.186 113.203Z" stroke="#263238" stroke-width="0.724166" stroke-linecap="round" stroke-linejoin="round"/>
<path d="M107.88 72.8406L98.1798 78.4406V73.8506C98.1798 72.7897 97.7584 71.7723 97.0083 71.0222C96.2581 70.272 95.2407 69.8506 94.1798 69.8506H72.3198C71.259 69.8506 70.2415 70.272 69.4914 71.0222C68.7412 71.7723 68.3198 72.7897 68.3198 73.8506V91.4906C68.3198 92.5515 68.7412 93.5689 69.4914 94.319C70.2415 95.0692 71.259 95.4906 72.3198 95.4906H94.2198C95.2807 95.4906 96.2981 95.0692 97.0482 94.319C97.7984 93.5689 98.2198 92.5515 98.2198 91.4906V86.9006L107.92 92.5006L107.88 72.8406Z" stroke="#263238" stroke-miterlimit="10"/>
<path d="M424.92 297.061C435.264 297.061 443.65 288.675 443.65 278.331C443.65 267.986 435.264 259.601 424.92 259.601C414.576 259.601 406.19 267.986 406.19 278.331C406.19 288.675 414.576 297.061 424.92 297.061Z" stroke="#263238" stroke-width="0.724166" stroke-linecap="round" stroke-linejoin="round"/>
<path d="M436.47 272.841L431 276.001V273.411C431 273.118 430.942 272.828 430.83 272.557C430.718 272.287 430.554 272.041 430.347 271.834C430.14 271.627 429.894 271.462 429.623 271.35C429.353 271.238 429.063 271.181 428.77 271.181H416.41C416.117 271.181 415.827 271.238 415.557 271.35C415.286 271.462 415.04 271.627 414.833 271.834C414.626 272.041 414.462 272.287 414.35 272.557C414.238 272.828 414.18 273.118 414.18 273.411V283.361C414.18 283.654 414.238 283.943 414.35 284.214C414.462 284.485 414.626 284.73 414.833 284.938C415.04 285.145 415.286 285.309 415.557 285.421C415.827 285.533 416.117 285.591 416.41 285.591H428.77C429.063 285.591 429.353 285.533 429.623 285.421C429.894 285.309 430.14 285.145 430.347 284.938C430.554 284.73 430.718 284.485 430.83 284.214C430.942 283.943 431 283.654 431 283.361V280.771L436.47 283.931V272.841Z" stroke="#263238" stroke-miterlimit="10"/>
<path d="M83.5739 415.507C95.023 412.805 102.114 401.333 99.4115 389.884C96.7093 378.435 85.2374 371.344 73.7883 374.046C62.3392 376.748 55.2485 388.22 57.9507 399.669C60.6529 411.118 72.1248 418.209 83.5739 415.507Z" stroke="#263238" stroke-width="0.724166" stroke-linecap="round" stroke-linejoin="round"/>
<path d="M89.48 390.271H67.92C67.3224 390.269 66.7319 390.4 66.1906 390.653C65.6493 390.906 65.1705 391.275 64.7885 391.735C64.4064 392.194 64.1304 392.732 63.9803 393.311C63.8302 393.889 63.8096 394.493 63.92 395.081L64.54 398.451C64.5826 398.684 64.7065 398.894 64.8896 399.044C65.0727 399.194 65.3032 399.274 65.54 399.271H72C72.2652 399.271 72.5195 399.165 72.7071 398.978C72.8946 398.79 73 398.536 73 398.271V394.601H84.37V398.271C84.37 398.536 84.4753 398.79 84.6629 398.978C84.8504 399.165 85.1048 399.271 85.37 399.271H91.87C92.1068 399.274 92.3372 399.194 92.5204 399.044C92.7035 398.894 92.8274 398.684 92.87 398.451L93.49 395.081C93.6005 394.492 93.5797 393.887 93.429 393.308C93.2783 392.729 93.0015 392.19 92.6183 391.731C92.2351 391.271 91.7551 390.902 91.2125 390.649C90.67 390.397 90.0784 390.268 89.48 390.271Z" stroke="#263238" stroke-miterlimit="10"/>
<path d="M339.87 47.8406H268.24L265.24 53.3606C263.632 56.261 261.277 58.6782 258.419 60.3613C255.562 62.0444 252.306 62.932 248.99 62.932C245.674 62.932 242.418 62.0444 239.56 60.3613C236.703 58.6782 234.348 56.261 232.74 53.3606L229.74 47.8406H158.16C156.366 47.8168 154.585 48.1466 152.918 48.8112C151.252 49.4757 149.733 50.4621 148.448 51.7138C147.162 52.9656 146.136 54.4583 145.428 56.1066C144.72 57.7549 144.343 59.5267 144.32 61.3206V430.181C144.343 431.974 144.72 433.745 145.428 435.393C146.137 437.041 147.163 438.533 148.448 439.784C149.734 441.035 151.253 442.02 152.919 442.684C154.586 443.347 156.366 443.676 158.16 443.651H339.87C341.662 443.674 343.442 443.345 345.107 442.681C346.773 442.017 348.291 441.031 349.575 439.78C350.859 438.529 351.884 437.038 352.592 435.391C353.3 433.744 353.676 431.973 353.7 430.181V61.3206C353.678 59.5271 353.302 57.7556 352.595 56.1074C351.888 54.4591 350.863 52.9663 349.578 51.7145C348.294 50.4626 346.775 49.4761 345.11 48.8114C343.444 48.1467 341.663 47.8168 339.87 47.8406Z" fill="#D6D6D6"/>
<path d="M339.3 53.1406H324.86V61.0606H339.3V53.1406Z" stroke="#263238" stroke-width="0.821067" stroke-linecap="round" stroke-linejoin="round"/>
<path d="M336.12 53.1406H324.86V61.0606H336.12V53.1406Z" fill="#263238" stroke="#263238" stroke-width="0.725073" stroke-linecap="round" stroke-linejoin="round"/>
<path d="M341.3 55.3604H339.27V58.8504H341.3V55.3604Z" fill="#263238" stroke="#263238" stroke-width="0.725073" stroke-linecap="round" stroke-linejoin="round"/>
<path d="M158.89 55.6006H156.24V60.1406H158.89V55.6006Z" fill="#263238" stroke="#263238" stroke-width="0.883086" stroke-linecap="round" stroke-linejoin="round"/>
<path d="M163.05 54.0005H160.4V60.1305H163.05V54.0005Z" fill="#263238" stroke="#263238" stroke-width="0.883086" stroke-linecap="round" stroke-linejoin="round"/>
<path d="M167.21 52.1206H164.56V60.1406H167.21V52.1206Z" fill="#263238" stroke="#263238" stroke-width="0.883086" stroke-linecap="round" stroke-linejoin="round"/>
<path d="M150.72 63.7705H347.26" stroke="#263238" stroke-linecap="round" stroke-linejoin="round"/>
<path opacity="0.2" d="M286.43 298.101C285.83 293.591 285.08 288.581 284.49 284.781C289.547 278.083 292.841 270.222 294.07 261.921C294.67 257.311 294.56 249.161 294.13 240.141C295.584 239.024 296.699 237.525 297.35 235.811C299.42 230.811 306.41 215.271 298.35 210.631C296.975 209.702 295.301 209.324 293.66 209.571C294.183 206.178 295.123 202.863 296.46 199.701C300.7 190.271 308.72 181.321 305.46 168.121C302.2 154.921 288 147.851 283.7 153.511C279.4 159.171 279.46 163.881 271.45 157.751C263.44 151.621 252.13 143.141 234.69 147.851C217.25 152.561 215.36 156.851 223.85 165.761C223.85 165.761 196.04 164.351 188.97 179.901C183.97 190.821 192.27 195.701 197.48 198.451C196.817 198.755 196.275 199.273 195.94 199.921L181.94 227.061L185.45 190.761C185.542 189.708 185.232 188.659 184.58 187.827C183.929 186.995 182.986 186.441 181.942 186.277C180.898 186.113 179.831 186.352 178.956 186.945C178.082 187.537 177.465 188.44 177.23 189.471L168.85 226.251L166.04 225.891L167.8 189.051C167.856 188.009 167.51 186.985 166.834 186.191C166.158 185.396 165.204 184.89 164.166 184.777C163.129 184.665 162.088 184.954 161.258 185.585C160.427 186.216 159.87 187.141 159.7 188.171L154.04 225.171L148.94 224.881V195.481C148.938 194.899 148.81 194.325 148.567 193.797C148.323 193.269 147.969 192.799 147.528 192.42C147.087 192.04 146.57 191.76 146.011 191.598C145.452 191.436 144.865 191.396 144.29 191.481V318.351L144.98 317.071L147.63 319.121L161.53 300.011L156.12 297.241C161 289.071 168 276.821 168 276.821C168 276.821 181.59 274.391 185.5 267.441C189.41 260.491 192 251.771 196.74 245.301C201.48 238.831 205.86 236.181 207.59 230.971C207.595 230.921 207.595 230.871 207.59 230.821C209.8 236.051 213.96 241.171 215.79 243.531C218.31 246.771 221.64 248.081 223.09 246.431C223.22 247.431 223.35 248.481 223.49 249.521C225.14 257.751 227.03 265.381 228.99 269.461C230.814 272.982 233.176 276.197 235.99 278.991C235.151 278.491 234.15 278.34 233.201 278.572C232.253 278.804 231.433 279.4 230.92 280.231C229.939 281.405 229.159 282.733 228.61 284.161C224.95 292.851 216.74 303.161 217.42 309.311C217.42 309.491 217.42 309.761 217.48 310.081C208 310.901 183.79 313.241 180.12 316.171C177.49 318.281 159.29 335.701 144.28 350.171V421.921L176.14 402.561L181.59 443.681H324.79V303.481C308.79 300.591 287.61 297.881 287.61 297.881L286.43 298.101ZM208.29 219.501C206.29 221.501 205.91 224.061 206.4 226.821C204.75 226.381 201.96 227.321 198.91 229.661C193.26 234.011 187.62 238.781 187.62 238.781L198.13 212.211L198.39 212.431C202.51 215.431 207.5 216.921 209.63 218.361C209.151 218.701 208.703 219.083 208.29 219.501Z" fill="black"/>
<path d="M204.24 447.401H355.79V298.701C338.88 295.641 316.43 292.771 316.43 292.771L246.22 305.361C246.22 305.361 207.48 308.261 202.64 312.141C197.8 316.021 143 369.01 143 369.01V437.23L198.43 403.551L204.24 447.401Z" fill="#F5F5F5"/>
<path d="M300.89 434.33C300.785 434.435 300.727 434.577 300.727 434.725C300.727 434.873 300.785 435.015 300.89 435.12L309.35 443.12C309.454 443.216 309.589 443.269 309.73 443.27C309.884 443.27 310.031 443.209 310.14 443.1C310.244 442.995 310.303 442.853 310.303 442.705C310.303 442.557 310.244 442.415 310.14 442.31L301.68 434.31C301.627 434.259 301.565 434.218 301.496 434.191C301.428 434.164 301.354 434.151 301.281 434.153C301.207 434.155 301.134 434.172 301.067 434.202C301 434.232 300.94 434.276 300.89 434.33Z" fill="#B2B2B2"/>
<path d="M311.63 373.601C311.525 373.496 311.383 373.438 311.235 373.438C311.087 373.438 310.945 373.496 310.84 373.601L305.32 379.511C305.331 379.434 305.324 379.356 305.302 379.281C305.279 379.207 305.241 379.139 305.19 379.081C305.085 378.976 304.943 378.917 304.795 378.917C304.647 378.917 304.505 378.976 304.4 379.081L298.93 384.081C298.828 384.187 298.771 384.328 298.771 384.476C298.771 384.623 298.828 384.764 298.93 384.871C299.035 384.975 299.177 385.034 299.325 385.034C299.473 385.034 299.615 384.975 299.72 384.871L304.16 380.871L303.91 381.141C303.839 381.221 303.793 381.319 303.777 381.425C303.761 381.531 303.775 381.639 303.818 381.737C303.861 381.834 303.931 381.918 304.02 381.977C304.109 382.036 304.213 382.069 304.32 382.071C304.395 382.071 304.469 382.057 304.538 382.028C304.607 381.998 304.669 381.955 304.72 381.901L311.72 374.431C311.774 374.373 311.815 374.304 311.841 374.229C311.866 374.153 311.874 374.074 311.866 373.995C311.857 373.916 311.832 373.84 311.791 373.772C311.75 373.704 311.695 373.645 311.63 373.601Z" fill="#B2B2B2"/>
<path d="M305.71 335.341C305.618 335.226 305.484 335.153 305.338 335.136C305.193 335.119 305.046 335.16 304.93 335.251L297.46 341.251C297.347 341.344 297.276 341.478 297.261 341.624C297.246 341.77 297.289 341.916 297.38 342.031C297.431 342.096 297.496 342.149 297.57 342.186C297.645 342.222 297.727 342.241 297.81 342.241C297.937 342.239 298.059 342.197 298.16 342.121L305.62 336.121C305.734 336.028 305.808 335.895 305.825 335.749C305.841 335.603 305.8 335.456 305.71 335.341Z" fill="#B2B2B2"/>
<path d="M205.16 328.1L212.16 320.64C212.262 320.534 212.319 320.393 212.319 320.245C212.319 320.098 212.262 319.957 212.16 319.85C212.054 319.748 211.912 319.691 211.765 319.691C211.618 319.691 211.476 319.748 211.37 319.85L204.37 327.32C204.317 327.371 204.275 327.431 204.247 327.498C204.218 327.565 204.203 327.638 204.203 327.71C204.203 327.783 204.218 327.855 204.247 327.923C204.275 327.99 204.317 328.05 204.37 328.1C204.469 328.197 204.602 328.251 204.74 328.25C204.816 328.256 204.893 328.246 204.966 328.22C205.038 328.194 205.104 328.153 205.16 328.1Z" fill="#B2B2B2"/>
<path d="M294.82 362.62C294.897 362.621 294.973 362.605 295.044 362.574C295.115 362.543 295.178 362.498 295.23 362.44C295.283 362.39 295.324 362.33 295.353 362.262C295.382 362.195 295.396 362.123 295.396 362.05C295.396 361.978 295.382 361.905 295.353 361.838C295.324 361.771 295.283 361.711 295.23 361.66L286.78 353.66C286.671 353.569 286.531 353.523 286.389 353.532C286.247 353.54 286.114 353.602 286.016 353.705C285.918 353.808 285.863 353.944 285.862 354.087C285.861 354.229 285.914 354.366 286.01 354.47L294.47 362.47C294.566 362.559 294.69 362.612 294.82 362.62Z" fill="#B2B2B2"/>
<path d="M278.4 382.521H278.47C278.543 382.511 278.613 382.487 278.677 382.45C278.74 382.413 278.796 382.364 278.84 382.305C278.885 382.247 278.918 382.18 278.936 382.109C278.955 382.038 278.96 381.964 278.95 381.891L277.46 370.451C277.451 370.378 277.427 370.309 277.391 370.246C277.355 370.182 277.307 370.127 277.249 370.082C277.192 370.038 277.126 370.005 277.056 369.986C276.985 369.967 276.912 369.962 276.84 369.971C276.768 369.98 276.698 370.003 276.635 370.039C276.572 370.076 276.516 370.124 276.472 370.181C276.427 370.239 276.394 370.305 276.375 370.375C276.356 370.445 276.351 370.519 276.36 370.591L277.85 382.041C277.869 382.173 277.935 382.295 278.036 382.383C278.137 382.471 278.266 382.52 278.4 382.521Z" fill="#B2B2B2"/>
<path d="M290.44 421.401L283.44 428.861C283.387 428.911 283.345 428.972 283.317 429.039C283.288 429.106 283.273 429.178 283.273 429.251C283.273 429.323 283.288 429.396 283.317 429.463C283.345 429.53 283.387 429.59 283.44 429.641C283.542 429.738 283.679 429.792 283.82 429.791C283.895 429.79 283.968 429.775 284.037 429.746C284.106 429.717 284.168 429.674 284.22 429.621L291.22 422.151C291.319 422.043 291.372 421.901 291.366 421.754C291.361 421.608 291.297 421.47 291.19 421.371C291.083 421.271 290.94 421.218 290.794 421.224C290.647 421.23 290.509 421.293 290.41 421.401H290.44Z" fill="#B2B2B2"/>
<path d="M203.76 384.511C203.829 384.525 203.901 384.525 203.97 384.511C204.038 384.483 204.1 384.442 204.153 384.391C204.205 384.339 204.246 384.277 204.274 384.209C204.302 384.141 204.316 384.068 204.316 383.994C204.315 383.921 204.299 383.848 204.27 383.781L199.27 371.841C199.211 371.706 199.101 371.6 198.965 371.544C198.829 371.488 198.677 371.487 198.54 371.541C198.404 371.598 198.296 371.707 198.24 371.844C198.183 371.98 198.184 372.134 198.24 372.271L203.24 384.211C203.288 384.306 203.363 384.384 203.455 384.438C203.548 384.491 203.654 384.516 203.76 384.511Z" fill="#B2B2B2"/>
<path d="M312.74 422.831C312.866 422.829 312.989 422.787 313.09 422.711L320.55 416.711C320.618 416.67 320.677 416.615 320.723 416.549C320.768 416.484 320.799 416.409 320.813 416.331C320.827 416.252 320.825 416.172 320.805 416.095C320.786 416.017 320.75 415.945 320.701 415.882C320.651 415.82 320.589 415.769 320.518 415.732C320.447 415.696 320.369 415.675 320.29 415.671C320.21 415.667 320.131 415.68 320.056 415.71C319.982 415.739 319.915 415.784 319.86 415.841L312.39 421.841C312.333 421.886 312.286 421.943 312.251 422.007C312.216 422.071 312.194 422.141 312.186 422.214C312.179 422.287 312.186 422.36 312.207 422.43C312.228 422.5 312.263 422.565 312.31 422.621C312.36 422.687 312.425 422.741 312.5 422.777C312.574 422.814 312.657 422.832 312.74 422.831Z" fill="#B2B2B2"/>
<path d="M311.26 350.901C311.203 350.764 311.094 350.656 310.957 350.6C310.82 350.544 310.667 350.544 310.53 350.601C310.463 350.629 310.401 350.67 310.35 350.723C310.299 350.775 310.259 350.837 310.232 350.905C310.205 350.973 310.192 351.045 310.193 351.118C310.194 351.192 310.21 351.264 310.24 351.331L315.24 363.271C315.283 363.371 315.354 363.456 315.444 363.517C315.535 363.577 315.641 363.61 315.75 363.611C315.823 363.626 315.897 363.626 315.97 363.611C316.105 363.551 316.211 363.442 316.267 363.306C316.323 363.17 316.324 363.017 316.27 362.881L311.26 350.901Z" fill="#B2B2B2"/>
<path d="M313.73 415.36H313.81C313.881 415.351 313.95 415.327 314.013 415.29C314.075 415.254 314.13 415.205 314.173 415.148C314.217 415.09 314.249 415.025 314.267 414.955C314.285 414.885 314.29 414.812 314.28 414.74L312.79 403.29C312.77 403.145 312.694 403.014 312.578 402.924C312.462 402.834 312.315 402.793 312.17 402.81C312.097 402.82 312.027 402.844 311.963 402.881C311.9 402.918 311.844 402.968 311.799 403.026C311.755 403.085 311.722 403.151 311.703 403.222C311.685 403.293 311.68 403.368 311.69 403.44L313.18 414.88C313.199 415.013 313.265 415.134 313.366 415.222C313.467 415.31 313.596 415.359 313.73 415.36Z" fill="#B2B2B2"/>
<path d="M145.41 433.131C145.462 433.08 145.504 433.02 145.533 432.953C145.562 432.886 145.576 432.814 145.576 432.741C145.576 432.668 145.562 432.596 145.533 432.529C145.504 432.462 145.462 432.401 145.41 432.351C145.359 432.299 145.298 432.258 145.231 432.231C145.164 432.203 145.092 432.188 145.02 432.188C144.947 432.188 144.876 432.203 144.809 432.231C144.742 432.258 144.681 432.299 144.63 432.351L143.32 433.541V435.041L145.41 433.131Z" fill="#B2B2B2"/>
<path d="M174 374.621C173.948 374.672 173.908 374.732 173.88 374.799C173.852 374.866 173.838 374.938 173.838 375.011C173.838 375.083 173.852 375.155 173.88 375.222C173.908 375.289 173.948 375.349 174 375.401L182.46 383.401C182.563 383.498 182.699 383.551 182.84 383.551C182.915 383.551 182.99 383.535 183.059 383.504C183.128 383.473 183.19 383.427 183.24 383.371C183.291 383.319 183.332 383.259 183.36 383.192C183.388 383.125 183.402 383.053 183.402 382.981C183.402 382.908 183.388 382.836 183.36 382.769C183.332 382.702 183.291 382.642 183.24 382.591L174.78 374.591C174.67 374.495 174.529 374.446 174.384 374.451C174.239 374.457 174.102 374.517 174 374.621Z" fill="#B2B2B2"/>
<path d="M184.76 349.771C184.71 349.718 184.649 349.676 184.582 349.647C184.515 349.619 184.443 349.604 184.37 349.604C184.297 349.604 184.225 349.619 184.158 349.647C184.091 349.676 184.03 349.718 183.98 349.771L178.5 354.771C178.396 354.875 178.337 355.017 178.337 355.165C178.337 355.314 178.396 355.456 178.5 355.561C178.552 355.618 178.615 355.663 178.686 355.694C178.756 355.725 178.833 355.741 178.91 355.741C179.048 355.741 179.181 355.687 179.28 355.591L184.76 350.591C184.816 350.538 184.861 350.475 184.892 350.404C184.923 350.334 184.939 350.257 184.939 350.181C184.939 350.104 184.923 350.027 184.892 349.957C184.861 349.886 184.816 349.823 184.76 349.771Z" fill="#B2B2B2"/>
<path d="M194.79 333.911C194.832 334.011 194.902 334.098 194.993 334.158C195.084 334.219 195.191 334.251 195.3 334.251C195.369 334.265 195.441 334.265 195.51 334.251C195.578 334.223 195.64 334.182 195.693 334.131C195.745 334.079 195.786 334.017 195.814 333.949C195.842 333.881 195.856 333.808 195.856 333.734C195.855 333.661 195.839 333.588 195.81 333.521L191.33 322.771L190.46 323.581L194.79 333.911Z" fill="#B2B2B2"/>
<path d="M193.74 356.241C193.648 356.126 193.514 356.053 193.368 356.036C193.223 356.019 193.076 356.06 192.96 356.151L185.5 362.151C185.386 362.243 185.312 362.376 185.295 362.522C185.279 362.668 185.32 362.815 185.41 362.931C185.462 362.997 185.529 363.05 185.605 363.087C185.682 363.123 185.766 363.142 185.85 363.141C185.974 363.141 186.094 363.098 186.19 363.021L193.66 357.021C193.717 356.975 193.764 356.918 193.799 356.854C193.834 356.79 193.856 356.72 193.863 356.647C193.871 356.575 193.864 356.501 193.843 356.431C193.821 356.362 193.787 356.297 193.74 356.241Z" fill="#B2B2B2"/>
<path d="M192.44 399.971L186.96 404.971C186.856 405.075 186.797 405.217 186.797 405.366C186.797 405.514 186.856 405.656 186.96 405.761C187.012 405.818 187.075 405.863 187.146 405.894C187.216 405.925 187.293 405.941 187.37 405.941C187.508 405.939 187.64 405.885 187.74 405.791L193.22 400.791C193.324 400.686 193.383 400.544 193.383 400.396C193.383 400.247 193.324 400.105 193.22 400.001C193.171 399.947 193.112 399.904 193.046 399.873C192.98 399.843 192.909 399.826 192.836 399.823C192.764 399.82 192.691 399.832 192.623 399.857C192.555 399.883 192.493 399.921 192.44 399.971Z" fill="#B2B2B2"/>
<path d="M166.44 403.42H166.51C166.586 403.412 166.659 403.388 166.725 403.35C166.791 403.313 166.849 403.262 166.895 403.201C166.941 403.14 166.974 403.071 166.992 402.997C167.01 402.922 167.013 402.846 167 402.77L165.51 391.33C165.485 391.189 165.407 391.062 165.291 390.976C165.175 390.89 165.031 390.853 164.888 390.871C164.745 390.889 164.615 390.961 164.524 391.073C164.433 391.184 164.389 391.327 164.4 391.47L165.9 402.92C165.91 403.057 165.971 403.184 166.072 403.277C166.172 403.369 166.303 403.421 166.44 403.42Z" fill="#B2B2B2"/>
<path d="M157 370.081C157.077 370.081 157.153 370.065 157.224 370.034C157.295 370.003 157.358 369.958 157.41 369.901L164.41 362.441C164.501 362.33 164.546 362.19 164.536 362.047C164.526 361.905 164.463 361.771 164.358 361.674C164.253 361.577 164.115 361.524 163.973 361.525C163.83 361.526 163.693 361.582 163.59 361.681L156.59 369.151C156.539 369.202 156.498 369.262 156.47 369.329C156.442 369.396 156.428 369.468 156.428 369.541C156.428 369.613 156.442 369.685 156.47 369.752C156.498 369.819 156.539 369.879 156.59 369.931C156.645 369.981 156.71 370.021 156.78 370.046C156.85 370.072 156.925 370.084 157 370.081Z" fill="#B2B2B2"/>
<path d="M143.36 391.381L145.88 389.381C145.974 389.283 146.03 389.155 146.037 389.019C146.044 388.883 146.001 388.75 145.916 388.643C145.832 388.537 145.712 388.465 145.578 388.44C145.444 388.416 145.306 388.441 145.19 388.511L143.36 389.971V391.381Z" fill="#B2B2B2"/>
<path d="M150.8 403.85C150.732 403.877 150.67 403.917 150.618 403.967C150.566 404.018 150.524 404.079 150.496 404.146C150.468 404.214 150.454 404.286 150.455 404.359C150.455 404.432 150.471 404.504 150.5 404.57L155.5 416.52C155.544 416.621 155.617 416.707 155.709 416.768C155.802 416.828 155.91 416.86 156.02 416.86C156.089 416.874 156.16 416.874 156.23 416.86C156.297 416.833 156.358 416.793 156.409 416.742C156.461 416.69 156.502 416.63 156.53 416.563C156.557 416.496 156.572 416.424 156.572 416.352C156.572 416.279 156.558 416.207 156.53 416.14L151.53 404.19C151.508 404.118 151.471 404.05 151.421 403.993C151.371 403.935 151.31 403.889 151.241 403.857C151.172 403.825 151.097 403.808 151.021 403.807C150.945 403.806 150.87 403.82 150.8 403.85Z" fill="#B2B2B2"/>
<path d="M211.84 436.111C211.943 436.208 212.079 436.261 212.22 436.261C212.295 436.262 212.369 436.247 212.438 436.218C212.507 436.189 212.569 436.145 212.62 436.091L219.62 428.621C219.719 428.513 219.772 428.371 219.766 428.225C219.761 428.078 219.697 427.94 219.59 427.841C219.482 427.741 219.34 427.689 219.194 427.694C219.047 427.7 218.909 427.763 218.81 427.871L211.81 435.331C211.76 435.384 211.722 435.446 211.697 435.514C211.671 435.582 211.66 435.655 211.663 435.727C211.665 435.8 211.682 435.871 211.713 435.937C211.743 436.002 211.786 436.062 211.84 436.111Z" fill="#B2B2B2"/>
<path d="M254.53 437.981C254.473 437.847 254.365 437.741 254.231 437.685C254.096 437.629 253.945 437.627 253.81 437.681C253.742 437.708 253.68 437.749 253.627 437.801C253.575 437.852 253.534 437.914 253.506 437.982C253.478 438.05 253.464 438.123 253.464 438.197C253.465 438.27 253.481 438.343 253.51 438.411L257.15 447.161H258.36L254.53 437.981Z" fill="#B2B2B2"/>
<path d="M230 440.77C229.895 440.666 229.753 440.607 229.605 440.607C229.457 440.607 229.315 440.666 229.21 440.77C229.106 440.875 229.047 441.017 229.047 441.165C229.047 441.314 229.106 441.456 229.21 441.56L235.12 447.13H236.74L230 440.77Z" fill="#B2B2B2"/>
<path d="M322.08 386.54C321.975 386.436 321.833 386.377 321.685 386.377C321.537 386.377 321.395 386.436 321.29 386.54C321.186 386.645 321.127 386.787 321.127 386.935C321.127 387.084 321.186 387.226 321.29 387.33L329.74 395.33C329.847 395.427 329.986 395.481 330.13 395.48C330.249 395.488 330.368 395.457 330.468 395.392C330.569 395.327 330.646 395.232 330.688 395.12C330.731 395.009 330.737 394.886 330.704 394.771C330.672 394.656 330.604 394.554 330.51 394.48L322.08 386.54Z" fill="#B2B2B2"/>
<path d="M276.29 340.77C276.186 340.669 276.046 340.612 275.9 340.612C275.754 340.612 275.615 340.669 275.51 340.77L268.51 348.24C268.457 348.291 268.415 348.351 268.387 348.418C268.358 348.485 268.344 348.558 268.344 348.63C268.344 348.703 268.358 348.775 268.387 348.842C268.415 348.909 268.457 348.97 268.51 349.02C268.613 349.117 268.749 349.171 268.89 349.17C268.966 349.171 269.041 349.155 269.109 349.124C269.178 349.093 269.24 349.047 269.29 348.99L276.29 341.53C276.386 341.427 276.439 341.291 276.439 341.15C276.439 341.01 276.386 340.874 276.29 340.77Z" fill="#B2B2B2"/>
<path d="M230.63 341.771C230.707 341.771 230.783 341.755 230.854 341.724C230.925 341.693 230.988 341.648 231.04 341.591C231.093 341.54 231.134 341.48 231.163 341.413C231.192 341.346 231.206 341.273 231.206 341.201C231.206 341.128 231.192 341.056 231.163 340.989C231.134 340.922 231.093 340.861 231.04 340.811L222.58 332.811C222.529 332.758 222.469 332.716 222.402 332.687C222.335 332.659 222.263 332.644 222.19 332.644C222.117 332.644 222.045 332.659 221.978 332.687C221.911 332.716 221.85 332.758 221.8 332.811C221.748 332.862 221.708 332.922 221.68 332.989C221.652 333.056 221.638 333.128 221.638 333.201C221.638 333.273 221.652 333.345 221.68 333.412C221.708 333.479 221.748 333.539 221.8 333.591L230.26 341.591C230.355 341.696 230.488 341.761 230.63 341.771Z" fill="#B2B2B2"/>
<path d="M229.14 417.85H229.21C229.283 417.841 229.353 417.816 229.417 417.779C229.48 417.742 229.536 417.693 229.581 417.635C229.625 417.576 229.658 417.51 229.677 417.438C229.695 417.367 229.7 417.293 229.69 417.22L228.2 405.77C228.175 405.628 228.097 405.502 227.981 405.416C227.866 405.33 227.721 405.293 227.578 405.311C227.435 405.329 227.305 405.401 227.214 405.513C227.123 405.624 227.079 405.767 227.09 405.91L228.59 417.36C228.603 417.496 228.667 417.623 228.769 417.714C228.871 417.805 229.003 417.853 229.14 417.85Z" fill="#B2B2B2"/>
<path d="M339.74 411.91L334.26 416.91C334.159 416.98 334.084 417.081 334.047 417.197C334.01 417.314 334.013 417.44 334.056 417.554C334.098 417.669 334.178 417.766 334.282 417.831C334.386 417.895 334.508 417.923 334.63 417.91C334.769 417.91 334.904 417.86 335.01 417.77L340.48 412.77C340.588 412.672 340.654 412.535 340.661 412.389C340.669 412.242 340.618 412.099 340.52 411.99C340.471 411.937 340.412 411.893 340.347 411.862C340.281 411.831 340.21 411.813 340.138 411.809C339.992 411.801 339.848 411.852 339.74 411.95V411.91Z" fill="#B2B2B2"/>
<path d="M346.59 383.771C346.533 383.637 346.425 383.531 346.291 383.475C346.156 383.419 346.006 383.417 345.87 383.471C345.802 383.498 345.74 383.539 345.687 383.591C345.635 383.642 345.594 383.704 345.566 383.772C345.538 383.84 345.524 383.913 345.524 383.987C345.525 384.06 345.541 384.133 345.57 384.201L350.57 396.141C350.612 396.243 350.685 396.33 350.777 396.391C350.87 396.452 350.979 396.483 351.09 396.481C351.159 396.495 351.231 396.495 351.3 396.481C351.436 396.423 351.544 396.314 351.601 396.178C351.657 396.041 351.657 395.887 351.6 395.751L346.59 383.771Z" fill="#B2B2B2"/>
<path d="M341 368.18C340.954 368.123 340.898 368.076 340.834 368.041C340.77 368.006 340.699 367.984 340.627 367.977C340.554 367.97 340.481 367.977 340.411 367.998C340.341 368.019 340.276 368.054 340.22 368.1L332.75 374.1C332.693 374.146 332.646 374.202 332.611 374.267C332.576 374.331 332.554 374.401 332.547 374.474C332.539 374.546 332.546 374.62 332.567 374.689C332.589 374.759 332.623 374.824 332.67 374.88C332.721 374.946 332.786 374.999 332.86 375.036C332.935 375.072 333.017 375.091 333.1 375.09C333.227 375.09 333.35 375.048 333.45 374.97L340.91 368.97C340.968 368.925 341.016 368.868 341.052 368.803C341.088 368.739 341.111 368.668 341.12 368.594C341.128 368.521 341.122 368.446 341.101 368.375C341.081 368.304 341.046 368.238 341 368.18Z" fill="#B2B2B2"/>
<path d="M325.46 431.21C325.325 431.27 325.219 431.379 325.163 431.515C325.107 431.651 325.106 431.804 325.16 431.94L330.16 443.88C330.201 443.982 330.271 444.07 330.362 444.132C330.453 444.194 330.56 444.229 330.67 444.23C330.742 444.244 330.817 444.244 330.89 444.23C331.024 444.173 331.13 444.066 331.186 443.931C331.242 443.797 331.243 443.646 331.19 443.51L326.19 431.56C326.165 431.489 326.127 431.424 326.076 431.368C326.026 431.311 325.965 431.266 325.898 431.233C325.83 431.201 325.756 431.182 325.681 431.178C325.606 431.174 325.531 431.185 325.46 431.21Z" fill="#B2B2B2"/>
<path d="M227.06 376.871C227.15 376.76 227.196 376.62 227.186 376.477C227.176 376.335 227.113 376.201 227.008 376.104C226.903 376.007 226.765 375.954 226.623 375.955C226.48 375.956 226.343 376.012 226.24 376.111L219.24 383.581C219.188 383.632 219.148 383.693 219.12 383.76C219.092 383.826 219.078 383.898 219.078 383.971C219.078 384.043 219.092 384.115 219.12 384.182C219.148 384.249 219.188 384.31 219.24 384.361C219.344 384.456 219.479 384.509 219.62 384.511C219.697 384.511 219.773 384.495 219.844 384.464C219.915 384.433 219.978 384.388 220.03 384.331L227.06 376.871Z" fill="#B2B2B2"/>
<path d="M256.44 370.671C256.348 370.556 256.214 370.483 256.068 370.466C255.923 370.449 255.776 370.49 255.66 370.581L248.2 376.581C248.101 376.649 248.028 376.748 247.991 376.863C247.954 376.977 247.956 377.1 247.995 377.214C248.035 377.327 248.111 377.424 248.211 377.49C248.311 377.557 248.43 377.588 248.55 377.581C248.674 377.581 248.794 377.538 248.89 377.461L256.36 371.461C256.418 371.415 256.467 371.358 256.503 371.293C256.539 371.228 256.561 371.157 256.569 371.083C256.576 371.009 256.568 370.934 256.546 370.864C256.524 370.793 256.488 370.727 256.44 370.671Z" fill="#B2B2B2"/>
<path d="M255.14 414.401L249.67 419.401C249.577 419.474 249.509 419.575 249.477 419.689C249.444 419.803 249.449 419.924 249.49 420.035C249.532 420.147 249.607 420.242 249.706 420.308C249.804 420.373 249.921 420.406 250.04 420.401C250.176 420.4 250.307 420.35 250.41 420.261L255.88 415.261C255.934 415.212 255.977 415.153 256.009 415.088C256.04 415.022 256.058 414.951 256.061 414.879C256.065 414.806 256.055 414.734 256.03 414.666C256.006 414.597 255.968 414.534 255.92 414.481C255.871 414.427 255.813 414.383 255.747 414.352C255.682 414.321 255.611 414.303 255.538 414.299C255.466 414.295 255.393 414.306 255.325 414.33C255.257 414.355 255.194 414.392 255.14 414.441V414.401Z" fill="#B2B2B2"/>
<path d="M235.11 364.11C235.248 364.111 235.381 364.057 235.48 363.96L240.96 358.96C241.064 358.856 241.123 358.714 241.123 358.565C241.123 358.417 241.064 358.275 240.96 358.17C240.909 358.119 240.848 358.078 240.781 358.05C240.714 358.023 240.642 358.008 240.57 358.008C240.497 358.008 240.426 358.023 240.359 358.05C240.292 358.078 240.231 358.119 240.18 358.17L234.71 363.17C234.617 363.244 234.549 363.345 234.517 363.459C234.484 363.573 234.489 363.694 234.53 363.805C234.572 363.917 234.647 364.012 234.746 364.077C234.844 364.143 234.961 364.176 235.08 364.17L235.11 364.11Z" fill="#B2B2B2"/>
<path d="M261.27 385.931C261.134 385.988 261.026 386.097 260.97 386.234C260.913 386.37 260.913 386.524 260.97 386.661L265.97 398.601C266.012 398.701 266.082 398.788 266.173 398.848C266.264 398.909 266.371 398.941 266.48 398.941C266.549 398.955 266.621 398.955 266.69 398.941C266.758 398.913 266.82 398.872 266.873 398.821C266.925 398.769 266.966 398.707 266.994 398.639C267.022 398.571 267.036 398.498 267.036 398.424C267.035 398.351 267.019 398.278 266.99 398.211L261.99 386.271C261.938 386.131 261.834 386.018 261.699 385.954C261.565 385.89 261.411 385.882 261.27 385.931Z" fill="#B2B2B2"/>
<path d="M241.51 314.44C241.465 314.383 241.409 314.334 241.345 314.299C241.282 314.263 241.211 314.24 241.139 314.232C241.066 314.223 240.993 314.229 240.922 314.25C240.852 314.27 240.787 314.304 240.73 314.35L233.27 320.35C233.156 320.443 233.082 320.576 233.065 320.722C233.048 320.868 233.09 321.015 233.18 321.13C233.232 321.197 233.299 321.25 233.375 321.287C233.452 321.323 233.535 321.342 233.62 321.34C233.744 321.341 233.864 321.298 233.96 321.22L241.43 315.22C241.487 315.175 241.534 315.118 241.569 315.054C241.604 314.99 241.626 314.92 241.633 314.847C241.641 314.775 241.634 314.701 241.612 314.631C241.591 314.562 241.556 314.497 241.51 314.44Z" fill="#B2B2B2"/>
<path d="M246.34 329.701C246.206 329.76 246.099 329.869 246.043 330.005C245.987 330.141 245.986 330.294 246.04 330.431L251.04 342.371C251.082 342.471 251.152 342.558 251.243 342.618C251.334 342.679 251.441 342.711 251.55 342.711C251.619 342.726 251.691 342.726 251.76 342.711C251.828 342.683 251.891 342.642 251.943 342.591C251.995 342.539 252.036 342.477 252.064 342.409C252.092 342.341 252.106 342.268 252.106 342.194C252.105 342.121 252.089 342.048 252.06 341.981L247.06 330.041C247.008 329.901 246.904 329.788 246.769 329.724C246.635 329.66 246.481 329.652 246.34 329.701Z" fill="#B2B2B2"/>
<path d="M241.08 429.3C241.206 429.299 241.329 429.257 241.43 429.181L248.89 423.181C249.004 423.089 249.077 422.956 249.093 422.811C249.109 422.665 249.066 422.52 248.975 422.406C248.883 422.291 248.75 422.218 248.605 422.203C248.46 422.187 248.314 422.229 248.2 422.32L240.73 428.32C240.673 428.366 240.626 428.423 240.591 428.487C240.556 428.551 240.534 428.621 240.527 428.694C240.519 428.766 240.526 428.84 240.547 428.91C240.569 428.979 240.603 429.044 240.65 429.1C240.702 429.164 240.767 429.216 240.842 429.25C240.916 429.285 240.998 429.302 241.08 429.3Z" fill="#B2B2B2"/>
<path d="M214.21 361.62H214.28C214.353 361.611 214.423 361.586 214.487 361.549C214.55 361.512 214.606 361.463 214.65 361.405C214.695 361.346 214.728 361.28 214.746 361.208C214.765 361.137 214.77 361.063 214.76 360.99L213.27 349.55C213.261 349.478 213.237 349.408 213.201 349.345C213.165 349.282 213.117 349.227 213.059 349.182C213.002 349.137 212.936 349.105 212.866 349.085C212.796 349.066 212.722 349.061 212.65 349.07C212.578 349.08 212.508 349.103 212.445 349.139C212.382 349.175 212.326 349.223 212.282 349.281C212.237 349.339 212.204 349.404 212.185 349.475C212.166 349.545 212.161 349.618 212.17 349.69L213.66 361.14C213.675 361.275 213.74 361.399 213.842 361.487C213.943 361.576 214.075 361.624 214.21 361.62Z" fill="#B2B2B2"/>
<path d="M245.18 397.77C245.283 397.867 245.419 397.921 245.56 397.92C245.636 397.921 245.71 397.905 245.779 397.874C245.848 397.843 245.91 397.797 245.96 397.74C246.011 397.689 246.052 397.629 246.08 397.562C246.108 397.495 246.122 397.423 246.122 397.35C246.122 397.278 246.108 397.206 246.08 397.139C246.052 397.072 246.011 397.012 245.96 396.96L237.5 388.96C237.395 388.859 237.256 388.802 237.11 388.802C236.964 388.802 236.824 388.859 236.72 388.96C236.667 389.011 236.625 389.071 236.597 389.138C236.568 389.205 236.553 389.277 236.553 389.35C236.553 389.423 236.568 389.495 236.597 389.562C236.625 389.629 236.667 389.69 236.72 389.74L245.18 397.77Z" fill="#B2B2B2"/>
<path d="M204.6 447.161H356.15V298.461C339.24 295.401 316.79 292.531 316.79 292.531L246.58 305.121C246.58 305.121 207.84 308.021 203 311.901C198.16 315.781 143.36 368.771 143.36 368.771V436.991L198.79 403.311L204.6 447.161Z" stroke="#263238" stroke-linecap="round" stroke-linejoin="round"/>
<path d="M302.75 343.85C302.75 343.85 292.1 363.71 286.75 381.14C281.4 398.57 272.75 447.96 272.75 447.96H319.75C319.75 447.96 324.59 385.96 332.82 364.67C341.05 343.38 342.02 339.5 342.02 339.5L302.75 343.85Z" fill="#415DA1" stroke="#263238" stroke-linecap="round" stroke-linejoin="round"/>
<path d="M255.56 332.491C255.56 332.491 278.56 353.641 304.56 362.171C330.56 370.701 348.19 351.811 349.75 345.311C351.31 338.811 305.67 345.851 285.64 339.171C265.61 332.491 253.33 325.071 255.56 332.491Z" fill="#263238" stroke="#263238" stroke-linecap="round" stroke-linejoin="round"/>
<path d="M262.56 273.161C262.56 273.161 258.2 268.801 254.33 278.001C250.8 286.391 243.5 307.101 243.19 306.091C245.13 312.381 242.19 321.581 259.19 334.651C276.19 347.721 303.06 357.411 318.26 357.411C334.73 357.411 345.86 352.571 349.74 345.311C353.62 338.051 354.09 329.311 354.09 323.521C354.09 317.731 352.64 312.381 349.74 304.151C346.84 295.921 332.31 287.691 325.53 279.941C318.75 272.191 325 274.131 311 268.771C297 263.411 279 265.871 273.72 266.831C268.44 267.791 262.56 273.161 262.56 273.161Z" fill="#263238" stroke="#263238" stroke-linecap="round" stroke-linejoin="round"/>
<path d="M261.59 264.931C261.59 264.931 263.53 293.011 265 300.771C266.47 308.531 295.51 324.981 305.67 324.011C315.83 323.041 317.29 308.521 316.33 299.321C315.37 290.121 312.45 272.201 312.45 272.201C312.45 272.201 285.34 280.921 275.65 273.201C265.96 265.481 261.59 264.931 261.59 264.931Z" fill="#FFBE9D" stroke="#263238" stroke-linecap="round" stroke-linejoin="round"/>
<path d="M265.24 294.871C278.046 293.087 290.617 289.904 302.73 285.381L313.26 277.381C312.77 274.271 312.43 272.181 312.43 272.181C312.43 272.181 285.32 280.901 275.63 273.181C265.94 265.461 261.63 264.951 261.63 264.951C261.63 264.951 262.94 283.951 264.21 294.951C264.53 294.931 264.88 294.921 265.24 294.871Z" fill="#263238" stroke="#263238" stroke-linecap="round" stroke-linejoin="round"/>
<path d="M346.76 299.261C347.23 303.261 346.89 311.211 337.61 313.351C325.02 316.251 295.97 313.351 276.12 303.661C259 295.341 257 278.421 256.78 273.851C255.741 275.09 254.914 276.492 254.33 278.001C250.45 287.201 241.77 298.091 242.49 304.631C242.76 307.031 242.22 321.581 259.17 334.631C276.12 347.681 303.04 357.391 318.24 357.391C334.71 357.391 345.84 352.551 349.72 345.291C353.6 338.031 354.07 329.291 354.07 323.501C354.07 317.711 352.62 312.361 349.72 304.131C349.017 302.351 348.016 300.704 346.76 299.261Z" fill="#415DA1" stroke="#263238" stroke-linecap="round" stroke-linejoin="round"/>
<path d="M348.14 322.77C349.483 321.386 350.739 319.92 351.9 318.38" stroke="#263238" stroke-linecap="round" stroke-linejoin="round"/>
<path d="M249.8 287.701C249.8 287.701 244.47 303.241 268 324.111C288.23 342.051 321.94 343.251 342.83 327.411" stroke="#263238" stroke-linecap="round" stroke-linejoin="round"/>
<path d="M250.24 299.69C250.24 299.69 249.35 327.21 277.32 345.86" stroke="#263238" stroke-linecap="round" stroke-linejoin="round"/>
<path d="M249.25 152.67C249.25 152.67 219.81 151.17 212.32 167.67C204.83 184.17 225.8 187.67 225.32 190.12C224.84 192.57 216.83 198.12 222.32 202.12C227.81 206.12 234.8 207.6 235.32 209.6C235.84 211.6 239.81 220.08 239.81 220.08C239.81 220.08 244.81 223.08 248.29 221.08C251.77 219.08 250.78 210.08 253.78 205.61C256.78 201.14 256.78 195.61 266.78 188.14C276.78 180.67 300.21 180.14 304.2 181.66C308.19 183.18 314.2 183.66 316.68 187.66C319.16 191.66 318.68 212.1 320.68 212.1C322.68 212.1 321.68 198.63 326.17 188.65C330.66 178.67 339.17 169.19 335.65 155.22C332.13 141.25 317.19 133.77 312.7 139.76C308.21 145.75 308.2 150.76 299.7 144.25C291.2 137.74 279.19 128.77 260.72 133.71C242.25 138.65 240.27 143.19 249.25 152.67Z" fill="#263238" stroke="#263238" stroke-linecap="round" stroke-linejoin="round"/>
<path d="M263.86 138.911C262.564 138.441 261.224 138.106 259.86 137.911" stroke="#7D7D7D" stroke-linecap="round" stroke-linejoin="round"/>
<path d="M283.59 175.041C283.59 175.041 293.78 169.821 293.78 162.041C293.78 153.041 280.78 145.561 270.78 141.431" stroke="#7D7D7D" stroke-linecap="round" stroke-linejoin="round"/>
<path d="M280.91 175.93C280.91 175.93 284.2 164.56 272.42 158.93C264.03 154.93 253.64 154.46 253.64 154.46" stroke="#7D7D7D" stroke-linecap="round" stroke-linejoin="round"/>
<path d="M223.93 168.291C222.64 168.291 221.51 168.291 220.56 168.291" stroke="#7D7D7D" stroke-linecap="round" stroke-linejoin="round"/>
<path d="M272 171.911C272 171.911 266.19 165.201 251.43 166.541C242.38 167.371 234.84 167.851 229.12 168.111" stroke="#7D7D7D" stroke-linecap="round" stroke-linejoin="round"/>
<path d="M317.44 162.101C318.758 161.151 319.996 160.094 321.14 158.941C327.4 152.691 321.14 143.741 321.14 143.741" stroke="#7D7D7D" stroke-linecap="round" stroke-linejoin="round"/>
<path d="M308.18 166.541C310.198 166.046 312.141 165.286 313.96 164.281" stroke="#7D7D7D" stroke-linecap="round" stroke-linejoin="round"/>
<path d="M246.89 185.67C246.89 185.67 235.24 196.02 229.42 197.31" stroke="#7D7D7D" stroke-linecap="round" stroke-linejoin="round"/>
<path d="M317.93 206.551C317.93 206.551 319.51 195.261 328.08 200.171C336.65 205.081 329.25 221.571 327.08 226.821C324.91 232.071 320.33 234.341 319.02 229.521C317.71 224.701 317.93 206.551 317.93 206.551Z" fill="#FFBE9D" stroke="#263238" stroke-linecap="round" stroke-linejoin="round"/>
<path d="M244.26 213.041C244.26 213.041 239.77 202.561 232.78 209.551C225.79 216.541 237.27 230.551 240.78 235.001C244.29 239.451 249.26 240.491 249.26 235.501C249.26 230.511 244.26 213.041 244.26 213.041Z" fill="#FFBE9D" stroke="#263238" stroke-linecap="round" stroke-linejoin="round"/>
<path d="M245.48 205.9C245.48 205.9 248.75 249.97 254.74 262.44C260.73 274.91 281.68 290.38 295.65 289.88C309.62 289.38 321.65 269.88 323.59 254.46C325.53 239.04 320.1 185.6 320.1 185.6C320.1 185.6 315.61 170.13 307.63 169.13C299.65 168.13 291.16 176.13 282.68 176.62C274.2 177.11 267.68 168.62 258.73 172.13C249.78 175.64 245.73 183.13 249.25 186.13C252.77 189.13 256.25 191.62 252.25 197.13C248.25 202.64 245.48 205.9 245.48 205.9Z" fill="#FFBE9D" stroke="#263238" stroke-linecap="round" stroke-linejoin="round"/>
<path d="M317.11 195.081C317.11 195.081 314.61 192.081 309.11 192.081C305.724 192.128 302.427 193.172 299.63 195.081" stroke="#263238" stroke-width="3" stroke-linecap="round" stroke-linejoin="round"/>
<path d="M278.69 200.071C278.69 200.071 268.21 195.581 260.22 204.561" stroke="#263238" stroke-width="3" stroke-linecap="round" stroke-linejoin="round"/>
<path d="M274.2 214.291C274.2 216.911 272.97 219.031 271.45 219.031C269.93 219.031 268.71 216.911 268.71 214.291C268.71 211.671 269.94 209.551 271.45 209.551C272.96 209.551 274.2 211.671 274.2 214.291Z" fill="#263238"/>
<path d="M306.63 210.301C306.63 212.921 305.4 215.041 303.88 215.041C302.36 215.041 301.14 212.921 301.14 210.301C301.14 207.681 302.37 205.561 303.88 205.561C305.39 205.561 306.63 207.681 306.63 210.301Z" fill="#263238"/>
<path d="M265.21 221.031L275.19 221.531" stroke="#263238" stroke-linecap="round" stroke-linejoin="round"/>
<path d="M304.63 219.531L312.62 215.541" stroke="#263238" stroke-linecap="round" stroke-linejoin="round"/>
<path d="M323.59 254.461C324.37 248.461 324.02 236.781 323.3 224.711C323.017 228.548 322.278 232.338 321.1 236.001C318.6 243.001 318.6 245.481 317.1 247.001C315.6 248.521 314.1 245.001 311.61 241.511C309.12 238.021 286.66 241.511 286.66 241.511C284.16 241.011 272.19 243.011 266.66 245.011C261.13 247.011 260.17 253.491 260.66 256.011C261.15 258.531 255.18 252.521 252.18 244.011C249.18 235.501 246.18 220.561 246.18 220.561C246.18 220.561 247.44 230.561 248.84 241.371C250.58 250.081 252.6 258.161 254.67 262.471C260.67 274.941 281.61 290.411 295.58 289.911C309.55 289.411 321.6 269.921 323.59 254.461Z" fill="#263238" stroke="#263238" stroke-linecap="round" stroke-linejoin="round"/>
<path d="M264.77 273.511C264.77 273.511 270.93 281.581 283.27 286.801" stroke="#7D7D7D" stroke-linecap="round" stroke-linejoin="round"/>
<path d="M280.68 254.46C280.68 254.46 284.17 260.94 291.68 261.94C299.19 262.94 301.16 251.46 301.16 251.46L281.7 252.46C281.7 252.46 279.68 251.46 280.68 254.46Z" fill="white" stroke="#263238" stroke-linecap="round" stroke-linejoin="round"/>
<path d="M278.69 252.46C278.69 252.46 280.69 264.46 291.16 266.46C301.63 268.46 304.16 250.46 304.16 250.46L278.69 252.46Z" fill="#FF8F56" stroke="#263238" stroke-linecap="round" stroke-linejoin="round"/>
<path d="M285.43 252.911C285.43 252.911 286.43 258.791 291.55 259.771C296.67 260.751 297.92 251.931 297.92 251.931L285.43 252.911Z" fill="#263238" stroke="#263238" stroke-linecap="round" stroke-linejoin="round"/>
<path d="M309.12 248.97C309.12 248.97 296.65 254.46 289.12 254.46C283.88 254.304 278.682 253.464 273.66 251.96C273.66 251.96 287.66 247.96 294.11 247.96C300.56 247.96 309.12 248.97 309.12 248.97Z" fill="#FF8F56" stroke="#263238" stroke-linecap="round" stroke-linejoin="round"/>
<path d="M298.15 198.071C298.15 198.071 292.15 206.561 292.66 208.071C293.17 209.581 300.66 236.021 297.15 240.011C293.64 244.001 288.15 243.501 284.15 241.011C280.15 238.521 276.15 234.531 277.67 232.531C278.693 231.283 280.099 230.408 281.67 230.041" fill="#FFBE9D"/>
<path d="M298.15 198.071C298.15 198.071 292.15 206.561 292.66 208.071C293.17 209.581 300.66 236.021 297.15 240.011C293.64 244.001 288.15 243.501 284.15 241.011C280.15 238.521 276.15 234.531 277.67 232.531C278.693 231.283 280.099 230.408 281.67 230.041" stroke="#263238" stroke-linecap="round" stroke-linejoin="round"/>
<path d="M148.83 291.571L157.23 270.241C157.23 270.241 158.23 268.241 154.08 262.751C149.93 257.261 151.59 251.121 154.35 239.621C156.69 229.851 160.35 194.171 161.42 183.691C161.503 182.83 161.846 182.015 162.403 181.354C162.961 180.694 163.706 180.218 164.54 179.991C165.178 179.815 165.847 179.789 166.497 179.915C167.146 180.041 167.758 180.314 168.284 180.715C168.81 181.115 169.237 181.632 169.531 182.224C169.825 182.817 169.979 183.469 169.98 184.131V215.261L175.38 215.571L181.38 176.381C181.537 175.414 182.019 174.53 182.746 173.873C183.473 173.217 184.402 172.828 185.38 172.771C185.987 172.737 186.593 172.832 187.161 173.049C187.728 173.266 188.244 173.6 188.674 174.029C189.104 174.458 189.439 174.973 189.657 175.54C189.875 176.107 189.972 176.714 189.94 177.321L188.08 216.321L191.08 216.701L199.93 177.771C200.163 176.705 200.783 175.764 201.669 175.129C202.556 174.493 203.646 174.209 204.73 174.331C205.882 174.459 206.938 175.036 207.669 175.935C208.401 176.835 208.749 177.986 208.64 179.141L204.92 217.571L219.7 188.841C220.069 188.126 220.674 187.561 221.412 187.242C222.15 186.923 222.977 186.869 223.75 187.091C224.217 187.223 224.651 187.452 225.025 187.762C225.398 188.073 225.702 188.458 225.917 188.894C226.132 189.329 226.253 189.805 226.272 190.29C226.292 190.775 226.209 191.259 226.03 191.711L210.9 229.971C210.9 229.971 216.9 224.911 222.85 220.311C228.8 215.711 233.85 216.181 232.04 221.691C230.23 227.201 225.61 229.971 220.55 236.861C215.49 243.751 212.73 252.951 208.55 260.311C204.37 267.671 190.02 270.241 190.02 270.241C190.02 270.241 174.07 298.471 172.69 299.391L148.83 291.571Z" fill="#FFBE9D" stroke="#263238" stroke-linecap="round" stroke-linejoin="round"/>
<path d="M165.44 215.061L207.81 218.021" stroke="#263238" stroke-linecap="round" stroke-linejoin="round"/>
<path d="M178.58 264.981C178.58 264.981 174.12 256.171 184.69 242.841C195.26 229.511 201.24 231.351 201.24 231.351" fill="#FFB792"/>
<path d="M178.58 264.981C178.58 264.981 174.12 256.171 184.69 242.841C195.26 229.511 201.24 231.351 201.24 231.351" stroke="#263238" stroke-linecap="round" stroke-linejoin="round"/>
<path d="M141.63 356.811L168.14 308.581L144.24 287.431L141.63 289.531V356.811Z" fill="#F5F5F5"/>
<path d="M144 311.861C144.127 311.862 144.251 311.82 144.35 311.741L151.82 305.741C151.923 305.644 151.985 305.512 151.995 305.372C152.005 305.231 151.961 305.092 151.873 304.982C151.784 304.872 151.658 304.8 151.518 304.779C151.378 304.758 151.236 304.791 151.12 304.871L143.66 310.871C143.546 310.963 143.472 311.096 143.455 311.242C143.439 311.388 143.48 311.535 143.57 311.651C143.621 311.717 143.686 311.77 143.76 311.806C143.835 311.842 143.917 311.861 144 311.861Z" fill="#B2B2B2"/>
<path d="M157.49 320.541C157.433 320.407 157.325 320.301 157.191 320.245C157.056 320.189 156.905 320.187 156.77 320.241C156.634 320.298 156.526 320.407 156.47 320.544C156.413 320.681 156.413 320.834 156.47 320.971L158.57 325.971L159.25 324.731L157.49 320.541Z" fill="#B2B2B2"/>
<path d="M141.63 356.811L168.14 308.581L144.24 287.431L141.63 289.531V356.811Z" stroke="#263238" stroke-linecap="round" stroke-linejoin="round"/>
<path d="M148.37 276.86L141.63 286.67V294.18L168.6 315.02L183.31 294.79L148.37 276.86Z" fill="#F5F5F5" stroke="#263238" stroke-linecap="round" stroke-linejoin="round"/>
<path d="M200.395 430.15C208.232 429.372 213.954 422.388 213.176 414.551C212.398 406.714 205.414 400.991 197.577 401.769C189.74 402.547 184.017 409.531 184.796 417.368C185.574 425.205 192.558 430.928 200.395 430.15Z" fill="white" stroke="#263238" stroke-width="0.724166" stroke-linecap="round" stroke-linejoin="round"/>
<path d="M199 419.481C198.236 419.481 197.504 419.177 196.963 418.637C196.423 418.097 196.12 417.364 196.12 416.601V407.481C196.12 406.717 196.423 405.984 196.963 405.444C197.504 404.904 198.236 404.601 199 404.601C199.762 404.603 200.492 404.908 201.03 405.448C201.568 405.987 201.87 406.718 201.87 407.481V416.601C201.87 417.363 201.568 418.094 201.03 418.634C200.492 419.173 199.762 419.478 199 419.481Z" fill="#263238"/>
<path d="M199 421.55C197.651 421.548 196.358 421.011 195.404 420.057C194.45 419.103 193.913 417.81 193.91 416.46V412.18C193.91 412.04 193.966 411.905 194.065 411.806C194.165 411.706 194.299 411.65 194.44 411.65C194.509 411.65 194.577 411.664 194.641 411.691C194.705 411.718 194.763 411.757 194.811 411.806C194.86 411.856 194.898 411.914 194.923 411.978C194.949 412.043 194.961 412.111 194.96 412.18V416.46C194.96 417.531 195.385 418.557 196.142 419.314C196.898 420.07 197.925 420.495 198.995 420.495C200.065 420.495 201.091 420.07 201.848 419.314C202.605 418.557 203.03 417.531 203.03 416.46V412.18C203.03 412.04 203.086 411.905 203.185 411.806C203.285 411.706 203.419 411.65 203.56 411.65C203.7 411.65 203.835 411.706 203.935 411.806C204.034 411.905 204.09 412.04 204.09 412.18V416.46C204.087 417.81 203.55 419.103 202.596 420.057C201.642 421.011 200.349 421.548 199 421.55Z" fill="#263238"/>
<path d="M199 427.021C198.859 427.021 198.725 426.965 198.625 426.865C198.526 426.766 198.47 426.631 198.47 426.491V421.021C198.47 420.88 198.526 420.745 198.625 420.646C198.725 420.547 198.859 420.491 199 420.491C199.141 420.491 199.275 420.547 199.375 420.646C199.474 420.745 199.53 420.88 199.53 421.021V426.491C199.53 426.631 199.474 426.766 199.375 426.865C199.275 426.965 199.141 427.021 199 427.021Z" fill="#263238"/>
<path d="M202.5 427.301H195.5C195.365 427.293 195.237 427.234 195.144 427.135C195.051 427.037 195 426.906 195 426.771C195 426.701 195.014 426.633 195.041 426.569C195.067 426.505 195.106 426.448 195.156 426.399C195.205 426.351 195.264 426.313 195.328 426.287C195.392 426.262 195.461 426.249 195.53 426.251H202.53C202.668 426.251 202.8 426.305 202.898 426.403C202.995 426.5 203.05 426.633 203.05 426.771C203.052 426.842 203.038 426.914 203.011 426.98C202.983 427.046 202.943 427.106 202.891 427.156C202.839 427.206 202.778 427.244 202.711 427.269C202.643 427.294 202.572 427.305 202.5 427.301Z" fill="#263238"/>
<path d="M296.721 429.796C304.383 427.975 309.118 420.287 307.297 412.625C305.476 404.963 297.788 400.228 290.126 402.049C282.464 403.87 277.729 411.558 279.55 419.22C281.371 426.882 289.059 431.617 296.721 429.796Z" fill="white" stroke="#263238" stroke-width="0.724166" stroke-linecap="round" stroke-linejoin="round"/>
<path d="M302.19 411.77L298 414.18V412.18C298 411.73 297.821 411.297 297.502 410.978C297.183 410.66 296.751 410.48 296.3 410.48H286.89C286.439 410.48 286.007 410.66 285.688 410.978C285.369 411.297 285.19 411.73 285.19 412.18V419.77C285.19 420.221 285.369 420.654 285.688 420.973C286.007 421.291 286.439 421.47 286.89 421.47H296.3C296.751 421.47 297.183 421.291 297.502 420.973C297.821 420.654 298 420.221 298 419.77V417.77L302.16 420.18L302.19 411.77Z" fill="#263238"/>
<path d="M249.51 429.803C257.173 427.982 261.908 420.294 260.086 412.632C258.265 404.97 250.578 400.235 242.916 402.056C235.253 403.877 230.518 411.565 232.339 419.227C234.161 426.889 241.848 431.624 249.51 429.803Z" fill="#263238" stroke="#263238" stroke-width="0.724166" stroke-linecap="round" stroke-linejoin="round"/>
<path d="M253.41 412.94H239C238.6 412.94 238.205 413.027 237.842 413.196C237.48 413.366 237.159 413.613 236.903 413.92C236.647 414.228 236.462 414.588 236.361 414.975C236.261 415.362 236.246 415.767 236.32 416.16L236.74 418.41C236.768 418.565 236.85 418.705 236.97 418.805C237.091 418.906 237.243 418.961 237.4 418.96H241.75C241.928 418.96 242.098 418.89 242.224 418.764C242.349 418.639 242.42 418.468 242.42 418.29V415.84H250V418.29C250 418.468 250.071 418.639 250.196 418.764C250.322 418.89 250.492 418.96 250.67 418.96H255C255.157 418.961 255.309 418.906 255.43 418.805C255.55 418.705 255.632 418.565 255.66 418.41L256.08 416.16C256.153 415.768 256.14 415.364 256.039 414.978C255.939 414.591 255.755 414.232 255.5 413.924C255.245 413.617 254.926 413.369 254.565 413.199C254.204 413.029 253.809 412.941 253.41 412.94Z" fill="#415DA1"/>
<path d="M363.9 174.611C364.092 174.612 364.283 174.575 364.462 174.502C364.64 174.43 364.802 174.322 364.939 174.187C365.075 174.051 365.184 173.889 365.258 173.712C365.332 173.534 365.37 173.343 365.37 173.151V133.821C365.37 133.628 365.332 133.437 365.258 133.26C365.184 133.082 365.075 132.92 364.939 132.785C364.802 132.649 364.64 132.542 364.462 132.469C364.283 132.396 364.092 132.359 363.9 132.361H360.08V57.2406C360.081 54.7604 359.594 52.3042 358.646 50.0125C357.697 47.7207 356.307 45.6382 354.554 43.8839C352.8 42.1297 350.719 40.7381 348.427 39.7887C346.136 38.8393 343.68 38.3506 341.2 38.3506H156.82C154.34 38.3506 151.884 38.8393 149.593 39.7887C147.301 40.7381 145.22 42.1297 143.466 43.8839C141.713 45.6382 140.322 47.7207 139.374 50.0125C138.426 52.3042 137.939 54.7604 137.94 57.2406V444.891C137.94 449.898 139.929 454.7 143.47 458.241C147.01 461.781 151.813 463.771 156.82 463.771H341.2C346.207 463.771 351.009 461.781 354.55 458.241C358.091 454.7 360.08 449.898 360.08 444.891V208.421H363.9C364.288 208.421 364.66 208.267 364.936 207.994C365.211 207.72 365.367 207.349 365.37 206.961V189.461C365.37 189.268 365.332 189.077 365.258 188.9C365.184 188.722 365.075 188.56 364.939 188.425C364.802 188.289 364.64 188.182 364.462 188.109C364.283 188.036 364.092 187.999 363.9 188.001H360.08V174.611H363.9ZM353.7 430.181C353.676 431.973 353.3 433.744 352.592 435.391C351.885 437.038 350.859 438.529 349.575 439.78C348.291 441.031 346.773 442.017 345.107 442.681C343.442 443.345 341.663 443.674 339.87 443.651H158.16C156.367 443.676 154.586 443.347 152.919 442.684C151.253 442.02 149.734 441.035 148.448 439.784C147.163 438.533 146.137 437.041 145.429 435.393C144.72 433.745 144.343 431.974 144.32 430.181V61.3206C144.343 59.5267 144.72 57.755 145.428 56.1066C146.137 54.4583 147.163 52.9656 148.448 51.7139C149.733 50.4621 151.252 49.4758 152.919 48.8112C154.585 48.1466 156.366 47.8168 158.16 47.8406H229.78L232.78 53.3606C234.388 56.261 236.743 58.6782 239.6 60.3613C242.458 62.0444 245.714 62.932 249.03 62.932C252.346 62.932 255.602 62.0444 258.46 60.3613C261.317 58.6782 263.672 56.261 265.28 53.3606L268.28 47.8406H339.91C343.525 47.8032 347.007 49.2016 349.593 51.7288C352.178 54.2559 353.655 57.7055 353.7 61.3206V430.181Z" fill="#263238" stroke="#263238" stroke-linecap="round" stroke-linejoin="round"/>
<path d="M253.94 49.9505C253.94 48.9759 253.651 48.0231 253.11 47.2126C252.568 46.4021 251.799 45.7702 250.899 45.3967C249.999 45.0233 249.008 44.9251 248.052 45.1145C247.096 45.3039 246.217 45.7725 245.527 46.4609C244.837 47.1494 244.367 48.0269 244.176 48.9826C243.984 49.9383 244.081 50.9292 244.452 51.8302C244.824 52.7312 245.454 53.5019 246.264 54.0448C247.073 54.5877 248.025 54.8785 249 54.8805C249.648 54.8818 250.29 54.7553 250.89 54.5081C251.489 54.2609 252.033 53.898 252.492 53.4401C252.951 52.9822 253.315 52.4382 253.564 51.8394C253.812 51.2407 253.94 50.5988 253.94 49.9505Z" fill="white" stroke="#263238" stroke-linecap="round" stroke-linejoin="round"/>
<path d="M220.5 72.3203H159.65V177.07H220.5V72.3203Z" fill="white" stroke="white" stroke-width="3" stroke-linecap="round" stroke-linejoin="round"/>
<path d="M220.5 177.07V145.071C220.013 144.42 219.437 143.841 218.79 143.35C213.7 139.5 197.88 141.481 194.89 141.651C191.9 141.821 187.49 141.81 187.49 141.81C187.49 141.81 178.69 142.121 171.29 142.431C169.065 142.576 166.902 143.223 164.963 144.323C163.023 145.422 161.357 146.946 160.09 148.78V177.07H220.5Z" fill="#415DA1" stroke="#263238" stroke-linecap="round" stroke-linejoin="round"/>
<path d="M181 141.85C178.931 142.215 177.036 143.237 175.595 144.765C174.153 146.292 173.243 148.244 173 150.33C171.92 157.89 174.54 162.52 180.71 166.68C184.346 169.134 187.786 171.865 191 174.85C191 174.85 204.11 163.75 206.11 156.65C208.11 149.55 205.19 143.39 201.95 142.31C198.71 141.23 181 141.85 181 141.85Z" fill="#A98273" stroke="#263238" stroke-miterlimit="10"/>
<path d="M220.5 177.07V169.58L218.02 170.23L217.17 177.07H220.5Z" fill="#A98273" stroke="#263238" stroke-miterlimit="10"/>
<path d="M166.27 177.071L165.74 174.851L160.09 174.291V177.071H166.27Z" fill="#A98273" stroke="#263238" stroke-miterlimit="10"/>
<path d="M162.66 160.82L165.78 174.22" stroke="#263238" stroke-miterlimit="10"/>
<path d="M218 128.77C218.54 128.35 219.51 127.77 220.53 126.99V97.5104C219.39 96.5104 217.59 95.9304 217.18 94.6504C216.56 92.7504 218.62 90.2104 217.18 87.8804C215.74 85.5504 210.18 87.6704 207.51 87.0304C204.84 86.3904 204.22 85.1304 203.2 82.8004C202.18 80.4704 198.23 81.5304 197 81.7704C195.77 82.0104 200.08 77.7704 197.82 75.2104C195.56 72.6504 188.15 75.0004 187.33 77.5404C186.51 80.0804 183.42 77.5404 182.6 75.4204C181.78 73.3004 175.82 71.4204 175.82 75.2104C175.803 75.922 175.929 76.6298 176.192 77.2914C176.455 77.9529 176.849 78.5546 177.35 79.0604C175.4 77.8304 172.27 76.3004 170.26 77.5404C167.18 79.4404 171.91 81.9804 171.91 81.9804H166.15C164.028 82.0924 161.957 82.6766 160.09 83.6904V91.5204V139.92C162.29 139.92 163.89 139.25 163.89 140.36C163.89 142.05 164.51 145.22 167.8 143.96C171.09 142.7 173.8 140.36 173.8 142.05C173.8 143.74 175.44 146.92 177.5 146.05C179.56 145.18 181 140.97 182.23 142.88C183.46 144.79 186.55 147.74 188.61 145.63C190.67 143.52 191.69 141.82 194.16 144.99C196.63 148.16 199.71 148.8 200.53 145.63C201.35 142.46 203.21 143.94 206.29 145.63C209.37 147.32 213.9 146.47 213.9 143.3C213.9 140.13 212.25 137.38 214.31 136.95C216.37 136.52 220.48 135.26 219.45 133.14C218.42 131.02 216.33 129.99 218 128.77Z" fill="#263238"/>
<path d="M217.36 174.83C217.987 169.797 218.62 164.767 219.26 159.74" stroke="#263238" stroke-miterlimit="10"/>
<path d="M181.63 153.11C181.63 153.11 182.09 144.93 182.09 142.11V135.63L196.89 134.7C196.89 134.7 197.66 146.27 200.75 151.05" fill="#A98273"/>
<path d="M181.63 153.11C181.63 153.11 182.09 144.93 182.09 142.11V135.63L196.89 134.7C196.89 134.7 197.66 146.27 200.75 151.05" stroke="#263238" stroke-miterlimit="10"/>
<path d="M171.74 118.25C171.74 118.25 168.59 121.7 168.59 122.88C168.59 124.06 170.76 127.21 172.43 127.7C174.1 128.19 174.69 127.02 174.69 126.33C174.69 125.64 171.74 118.25 171.74 118.25Z" fill="#B78876" stroke="#263238" stroke-linecap="round" stroke-linejoin="round"/>
<path d="M203.22 116.87C203.22 116.87 207.47 118.8 207.94 119.87C208.41 120.94 207.65 124.7 206.3 125.81C206.13 126.013 205.911 126.169 205.664 126.263C205.417 126.358 205.149 126.388 204.887 126.351C204.625 126.314 204.377 126.211 204.166 126.052C203.955 125.892 203.787 125.682 203.68 125.44C203.41 124.82 203.22 116.87 203.22 116.87Z" fill="#B78876" stroke="#263238" stroke-miterlimit="10"/>
<path d="M176.53 98.8401C176.53 98.8401 170.82 102.57 170.16 107.84C169.5 113.11 174.16 130.01 176.09 132.84C178.02 135.67 188.82 142.27 191.89 141.84C194.96 141.41 202.21 131.52 203.53 129.32C204.85 127.12 203.75 110.67 202.65 103.64C201.55 96.6101 193.87 95.0801 186.65 95.0801C179.43 95.0801 176.53 98.8401 176.53 98.8401Z" fill="#B78876" stroke="#263238" stroke-linecap="round" stroke-linejoin="round"/>
<path d="M184.06 115.88C184.06 116.88 183.55 117.74 182.91 117.74C182.27 117.74 181.76 116.9 181.76 115.88C181.76 114.86 182.28 114.01 182.91 114.01C183.54 114.01 184.06 114.85 184.06 115.88Z" fill="#263238"/>
<path d="M196.38 114.45C196.38 115.45 195.87 116.31 195.23 116.31C194.59 116.31 194.08 115.48 194.08 114.45C194.08 113.42 194.6 112.59 195.23 112.59C195.86 112.59 196.38 113.42 196.38 114.45Z" fill="#263238"/>
<path d="M191 112.62C191 112.62 190.53 118.26 191.79 118.62C193.05 118.98 194.14 121.75 191.79 122.69C189.44 123.63 188.34 122.54 188.02 121.44" stroke="#263238" stroke-linecap="round" stroke-linejoin="round"/>
<path d="M179.68 118.73L183.91 118.58" stroke="#263238" stroke-width="0.5" stroke-linecap="round" stroke-linejoin="round"/>
<path d="M194.88 117.32L198.49 115.6" stroke="#263238" stroke-width="0.5" stroke-linecap="round" stroke-linejoin="round"/>
<path d="M174.55 97.0902C174.55 97.0902 178.28 98.1802 176.97 99.9402C175.66 101.7 173.02 104.55 174.97 104.94C176.92 105.33 177.39 105.82 176.07 106.25C174.75 106.68 172.34 108.67 175.85 109.11C179.36 109.55 180.85 108.67 182 105.6C183.15 102.53 183.09 103.4 185.73 104.94C188.37 106.48 190.34 101.65 189.24 99.9402C188.14 98.2302 186.39 99.5002 186.61 96.8702C186.7 95.3602 187.232 93.91 188.14 92.7002L191.43 94.7002C191.43 94.7002 188.8 96.9002 190.78 98.8702C192.76 100.84 195.17 101.29 193.63 101.73C192.09 102.17 189.9 104.8 192.75 105.24C195.6 105.68 197.58 103.7 197.58 101.94C197.58 100.18 196.26 98.4302 197.58 97.1202L200.43 94.2602C200.43 94.2602 200 90.7702 192.11 89.4002C184.22 88.0302 177.85 91.4002 176.53 92.7002C175.21 94.0002 174.55 97.0902 174.55 97.0902Z" fill="#263238"/>
<path d="M182 126.89C182 126.89 185.28 131.36 187.22 132.44C189.16 133.52 193.03 133.11 194.79 131.69C196.55 130.27 197.9 125.25 197.9 125.25C195.245 126.513 192.374 127.257 189.44 127.44C186.947 127.575 184.446 127.39 182 126.89Z" fill="#AA6550" stroke="#263238" stroke-width="0.5" stroke-miterlimit="10"/>
<path d="M185.52 128.24C186.083 128.929 186.793 129.483 187.597 129.864C188.401 130.244 189.28 130.441 190.17 130.44C191.451 130.357 192.68 129.903 193.707 129.132C194.734 128.361 195.513 127.307 195.95 126.1L183.95 127.24L185.52 128.24Z" fill="white" stroke="#263238" stroke-linecap="round" stroke-linejoin="round"/>
<path d="M198.23 124.59C197.292 125.206 196.192 125.526 195.07 125.51C193.584 125.604 192.113 125.855 190.68 126.26C189.47 126.013 188.218 126.061 187.03 126.4C185.187 126.699 183.31 126.722 181.46 126.47C181.46 126.47 184.07 128.25 190.39 127.78C197.62 127.25 198.23 124.59 198.23 124.59Z" fill="#AA6550" stroke="#263238" stroke-width="0.5" stroke-miterlimit="10"/>
<path d="M177.22 112.23C178.05 111.151 179.136 110.295 180.38 109.74C183.07 108.43 184.73 109.08 184.73 109.08" stroke="#263238" stroke-width="2" stroke-miterlimit="10" stroke-linecap="round"/>
<path d="M191.75 107.28C192.556 106.844 193.441 106.573 194.352 106.484C195.264 106.395 196.185 106.489 197.06 106.76C197.946 107.046 198.733 107.577 199.33 108.29" stroke="#263238" stroke-width="2" stroke-miterlimit="10" stroke-linecap="round"/>
<path d="M33 463.771H480" stroke="#263238" stroke-linecap="round" stroke-linejoin="round"/>
</svg>
