<svg width="23" height="21" viewBox="0 0 23 21" fill="none" xmlns="http://www.w3.org/2000/svg">
<mask id="mask0_1144_2265" style="mask-type:luminance" maskUnits="userSpaceOnUse" x="0" y="0" width="23" height="21">
<path d="M-9.15527e-05 7.00003C-9.15527e-05 3.13402 3.4324 0 7.66661 0H15.3333C19.5675 0 23 3.13402 23 7.00003V14.0001C23 17.8661 19.5675 21.0001 15.3333 21.0001H7.66661C3.4324 21.0001 -9.15527e-05 17.8661 -9.15527e-05 14.0001V7.00003Z" fill="white"/>
</mask>
<g mask="url(#mask0_1144_2265)">
<path fill-rule="evenodd" clip-rule="evenodd" d="M11.4999 3.28126C9.77983 3.28126 8.38535 4.55445 8.38535 6.12502C8.38535 7.69559 9.77983 8.96878 11.4999 8.96878C13.2201 8.96878 14.6145 7.69559 14.6145 6.12502C14.6145 4.55445 13.2201 3.28126 11.4999 3.28126ZM6.94785 6.12502C6.94785 3.82958 8.98589 1.96875 11.4999 1.96875C14.014 1.96875 16.052 3.82958 16.052 6.12502C16.052 8.4205 14.014 10.2813 11.4999 10.2813C8.98589 10.2813 6.94785 8.4205 6.94785 6.12502Z" fill="#5A6570"/>
<path fill-rule="evenodd" clip-rule="evenodd" d="M9.58328 13.7813C7.86313 13.7813 6.46868 15.0545 6.46868 16.625V18.375C6.46868 18.7375 6.14688 19.0313 5.74993 19.0313C5.35297 19.0313 5.03117 18.7375 5.03117 18.375V16.625C5.03117 14.3295 7.06922 12.4688 9.58328 12.4688H13.4166C15.9307 12.4688 17.9687 14.3295 17.9687 16.625V18.375C17.9687 18.7375 17.6469 19.0313 17.25 19.0313C16.853 19.0313 16.5312 18.7375 16.5312 18.375V16.625C16.5312 15.0545 15.1367 13.7813 13.4166 13.7813H9.58328Z" fill="#5A6570"/>
</g>
</svg>
