<svg width="500" height="496" viewBox="0 0 500 496" fill="none" xmlns="http://www.w3.org/2000/svg">
<path d="M396.17 77.8502C396.17 77.8502 345.64 36.5802 279.92 54.8502C214.2 73.1202 186.68 129.79 149 168.72C129.26 189.1 100.1 196.61 76.6505 212.3C1.65046 262.47 12.7705 375.3 70.5905 417.8C120.65 454.64 183.2 458.49 264.59 431.32C345.98 404.15 404.22 387.83 454.69 310C505.16 232.17 458.42 133.86 396.17 77.8502Z" fill="#415DA1"/>
<path opacity="0.7" d="M396.17 77.8502C396.17 77.8502 345.64 36.5802 279.92 54.8502C214.2 73.1202 186.68 129.79 149 168.72C129.26 189.1 100.1 196.61 76.6505 212.3C1.65046 262.47 12.7705 375.3 70.5905 417.8C120.65 454.64 183.2 458.49 264.59 431.32C345.98 404.15 404.22 387.83 454.69 310C505.16 232.17 458.42 133.86 396.17 77.8502Z" fill="#F4EBFF"/>
<path d="M45.7002 437H481" stroke="#263238" stroke-linecap="round" stroke-linejoin="round"/>
<path d="M30 437H38.72" stroke="#263238" stroke-linecap="round" stroke-linejoin="round"/>
<path d="M138.92 93H53.54V231H138.92V93Z" stroke="#263238" stroke-miterlimit="10"/>
<path d="M128.35 110.09H64.1104V213.92H128.35V110.09Z" stroke="#263238" stroke-miterlimit="10"/>
<path d="M452 93H366.62V231H452V93Z" stroke="#263238" stroke-miterlimit="10"/>
<path d="M441.43 110.09H377.19V213.92H441.43V110.09Z" stroke="#263238" stroke-miterlimit="10"/>
<path d="M174.28 162.32H166.14V202.74H174.28V162.32Z" fill="#263238"/>
<mask id="mask0_1144_3269" style="mask-type:luminance" maskUnits="userSpaceOnUse" x="166" y="162" width="9" height="41">
<path d="M174.28 162.32H166.14V202.74H174.28V162.32Z" fill="white"/>
</mask>
<g mask="url(#mask0_1144_3269)">
<path d="M175.39 167.06H165.71V168.84H175.39V167.06Z" fill="#415DA1"/>
<path d="M175.39 196.51H165.71V198.29H175.39V196.51Z" fill="#415DA1"/>
</g>
<path d="M183.37 162.32H175.23V202.74H183.37V162.32Z" fill="#263238"/>
<mask id="mask1_1144_3269" style="mask-type:luminance" maskUnits="userSpaceOnUse" x="175" y="162" width="9" height="41">
<path d="M183.37 162.32H175.23V202.74H183.37V162.32Z" fill="white"/>
</mask>
<g mask="url(#mask1_1144_3269)">
<path d="M184.481 167.06H174.801V168.84H184.481V167.06Z" fill="#415DA1"/>
<path d="M184.481 196.51H174.801V198.29H184.481V196.51Z" fill="#415DA1"/>
</g>
<path d="M332.53 202.83V194.69H292.11V202.83H332.53Z" fill="#263238"/>
<mask id="mask2_1144_3269" style="mask-type:luminance" maskUnits="userSpaceOnUse" x="292" y="194" width="41" height="9">
<path d="M332.53 202.83V194.69H292.11V202.83H332.53Z" fill="white"/>
</mask>
<g mask="url(#mask2_1144_3269)">
<path d="M327.781 203.93V194.25H326.001V203.93H327.781Z" fill="#415DA1"/>
<path d="M298.331 203.93V194.25H296.551V203.93H298.331Z" fill="#415DA1"/>
</g>
<path d="M332.521 194.58V186.44H292.101V194.58H332.521Z" fill="#263238"/>
<mask id="mask3_1144_3269" style="mask-type:luminance" maskUnits="userSpaceOnUse" x="292" y="186" width="41" height="9">
<path d="M332.52 194.58V186.44H292.1V194.58H332.52Z" fill="white"/>
</mask>
<g mask="url(#mask3_1144_3269)">
<path d="M327.779 195.68V186H325.999V195.68H327.779Z" fill="#415DA1"/>
<path d="M298.34 195.68V186H296.56V195.68H298.34Z" fill="#415DA1"/>
</g>
<path d="M190.896 161.986L183.104 164.342L194.801 203.033L202.592 200.677L190.896 161.986Z" fill="#263238"/>
<mask id="mask4_1144_3269" style="mask-type:luminance" maskUnits="userSpaceOnUse" x="183" y="161" width="20" height="43">
<path d="M190.896 161.987L183.104 164.342L194.801 203.033L202.592 200.678L190.896 161.987Z" fill="white"/>
</mask>
<g mask="url(#mask4_1144_3269)">
<path d="M193.334 166.215L184.068 169.016L184.583 170.719L193.849 167.918L193.334 166.215Z" fill="#415DA1"/>
<path d="M201.847 194.396L192.581 197.197L193.096 198.901L202.362 196.1L201.847 194.396Z" fill="#415DA1"/>
</g>
<path d="M250.19 189.79C250.19 189.79 243.86 182.28 245.05 179.32C246.24 176.36 248.05 179.91 248.05 179.91C248.05 179.91 242.72 167.91 247.66 167.26C252.6 166.61 254.97 176.55 254.97 176.55C254.97 176.55 256.75 166.27 259.91 169.63C263.07 172.99 259.32 181.69 259.32 181.69C259.32 181.69 265.84 176.55 264.26 180.9C262.68 185.25 256.15 190.38 256.15 190.38L250.19 189.79Z" fill="#415DA1"/>
<path d="M251 190C251 190 242.5 183.08 245.86 181.5C249.22 179.92 251.19 183.28 251.19 183.28C251.19 183.28 249.19 171.22 252.97 171.22C256.75 171.22 255.97 180.71 255.97 180.71C255.97 180.71 258.14 173.2 260.12 175.97C262.1 178.74 257.35 190.79 257.35 190.79" stroke="#263238" stroke-miterlimit="10"/>
<path d="M260.66 188.01H245.84L247.32 202.44H259.18L260.66 188.01Z" fill="#263238"/>
<path d="M201.53 130.74H186.12V147.46H201.53V130.74Z" fill="#415DA1"/>
<path d="M197.62 116.11H190.04V132.83H197.62V116.11Z" fill="#415DA1"/>
<path d="M174.28 107.32H166.14V147.74H174.28V107.32Z" fill="#263238"/>
<mask id="mask5_1144_3269" style="mask-type:luminance" maskUnits="userSpaceOnUse" x="166" y="107" width="9" height="41">
<path d="M174.28 107.32H166.14V147.74H174.28V107.32Z" fill="white"/>
</mask>
<g mask="url(#mask5_1144_3269)">
<path d="M175.39 112.06H165.71V113.84H175.39V112.06Z" fill="#415DA1"/>
<path d="M175.39 141.51H165.71V143.29H175.39V141.51Z" fill="#415DA1"/>
</g>
<path d="M341.312 107.583L333.299 106.152L326.197 145.943L334.21 147.374L341.312 107.583Z" fill="#263238"/>
<mask id="mask6_1144_3269" style="mask-type:luminance" maskUnits="userSpaceOnUse" x="326" y="106" width="16" height="42">
<path d="M341.312 107.583L333.299 106.152L326.197 145.943L334.21 147.374L341.312 107.583Z" fill="white"/>
</mask>
<g mask="url(#mask6_1144_3269)">
<path d="M341.581 112.449L332.052 110.749L331.739 112.501L341.268 114.202L341.581 112.449Z" fill="#415DA1"/>
<path d="M336.398 141.438L326.868 139.737L326.555 141.49L336.085 143.19L336.398 141.438Z" fill="#415DA1"/>
</g>
<path d="M183.37 107.32H175.23V147.74H183.37V107.32Z" fill="#263238"/>
<mask id="mask7_1144_3269" style="mask-type:luminance" maskUnits="userSpaceOnUse" x="175" y="107" width="9" height="41">
<path d="M183.37 107.32H175.23V147.74H183.37V107.32Z" fill="white"/>
</mask>
<g mask="url(#mask7_1144_3269)">
<path d="M184.481 112.06H174.801V113.84H184.481V112.06Z" fill="#415DA1"/>
<path d="M184.481 141.51H174.801V143.29H184.481V141.51Z" fill="#415DA1"/>
</g>
<path d="M233.62 107.32H225.48V147.74H233.62V107.32Z" fill="#263238"/>
<mask id="mask8_1144_3269" style="mask-type:luminance" maskUnits="userSpaceOnUse" x="225" y="107" width="9" height="41">
<path d="M233.62 107.32H225.48V147.74H233.62V107.32Z" fill="white"/>
</mask>
<g mask="url(#mask8_1144_3269)">
<path d="M234.72 112.06H225.04V113.84H234.72V112.06Z" fill="#415DA1"/>
<path d="M234.72 141.51H225.04V143.29H234.72V141.51Z" fill="#415DA1"/>
</g>
<path d="M241.84 107.32H233.7V147.74H241.84V107.32Z" fill="#6B6B6B"/>
<mask id="mask9_1144_3269" style="mask-type:luminance" maskUnits="userSpaceOnUse" x="233" y="107" width="9" height="41">
<path d="M241.84 107.32H233.7V147.74H241.84V107.32Z" fill="white"/>
</mask>
<g mask="url(#mask9_1144_3269)">
<path d="M242.94 112.06H233.26V113.84H242.94V112.06Z" fill="#415DA1"/>
<path d="M242.94 141.51H233.26V143.29H242.94V141.51Z" fill="#415DA1"/>
</g>
<path d="M250.06 107.32H241.92V147.74H250.06V107.32Z" fill="#263238"/>
<mask id="mask10_1144_3269" style="mask-type:luminance" maskUnits="userSpaceOnUse" x="241" y="107" width="10" height="41">
<path d="M250.06 107.32H241.92V147.74H250.06V107.32Z" fill="white"/>
</mask>
<g mask="url(#mask10_1144_3269)">
<path d="M251.16 112.06H241.479V113.84H251.16V112.06Z" fill="#415DA1"/>
<path d="M251.16 141.51H241.479V143.29H251.16V141.51Z" fill="#415DA1"/>
</g>
<path d="M258.28 107.32H250.14V147.74H258.28V107.32Z" fill="#6B6B6B"/>
<mask id="mask11_1144_3269" style="mask-type:luminance" maskUnits="userSpaceOnUse" x="250" y="107" width="9" height="41">
<path d="M258.28 107.32H250.14V147.74H258.28V107.32Z" fill="white"/>
</mask>
<g mask="url(#mask11_1144_3269)">
<path d="M259.379 112.06H249.699V113.84H259.379V112.06Z" fill="#415DA1"/>
<path d="M259.379 141.51H249.699V143.29H259.379V141.51Z" fill="#415DA1"/>
</g>
<path d="M266.5 107.32H258.36V147.74H266.5V107.32Z" fill="#263238"/>
<mask id="mask12_1144_3269" style="mask-type:luminance" maskUnits="userSpaceOnUse" x="258" y="107" width="9" height="41">
<path d="M266.5 107.32H258.36V147.74H266.5V107.32Z" fill="white"/>
</mask>
<g mask="url(#mask12_1144_3269)">
<path d="M267.6 112.06H257.92V113.84H267.6V112.06Z" fill="#415DA1"/>
<path d="M267.6 141.51H257.92V143.29H267.6V141.51Z" fill="#415DA1"/>
</g>
<path d="M326.05 147.82V139.68H285.63V147.82H326.05Z" fill="#263238"/>
<mask id="mask13_1144_3269" style="mask-type:luminance" maskUnits="userSpaceOnUse" x="285" y="139" width="42" height="9">
<path d="M326.05 147.82V139.68H285.63V147.82H326.05Z" fill="white"/>
</mask>
<g mask="url(#mask13_1144_3269)">
<path d="M321.3 148.93V139.25H319.52V148.93H321.3Z" fill="#415DA1"/>
<path d="M291.86 148.93V139.25H290.08V148.93H291.86Z" fill="#415DA1"/>
</g>
<path d="M159.83 92.6699V207.18H346V92.6699H159.83ZM280.77 96.9999V147.67H225V96.9999H280.77ZM164.58 96.9999H220.3V147.67H164.58V96.9999ZM164.58 202.86V152.18H220.3V202.86H164.58ZM225.04 202.86V152.18H280.77V202.86H225.04ZM341.24 202.86H285.51V152.18H341.24V202.86ZM285.51 147.67V96.9999H341.24V147.67H285.51Z" stroke="#263238" stroke-linecap="round" stroke-linejoin="round"/>
<path d="M207.05 368.28H190.61V437H207.05V368.28Z" fill="white" stroke="#263238" stroke-linecap="round" stroke-linejoin="round"/>
<path d="M315.201 368.28H298.761V437H315.201V368.28Z" fill="white" stroke="#263238" stroke-linecap="round" stroke-linejoin="round"/>
<path d="M315.21 361.01H190.61V371.77H315.21V361.01Z" fill="white" stroke="#263238" stroke-linecap="round" stroke-linejoin="round"/>
<path d="M244.25 348.13C242.718 345.703 241.049 343.366 239.25 341.13C236.75 338.13 229.75 332.38 229.75 332.38L238.75 337.13C238.75 337.13 237.25 332.88 235.75 329.38C234.25 325.88 231.75 317.38 231.75 317.38C231.75 317.38 237.75 327.63 239.25 329.38C240.75 331.13 243.25 334.88 243.25 334.88C243.25 334.88 243.5 325.38 244.75 322.38C246 319.38 251.25 312.38 251.25 312.38C251.25 312.38 249.5 323.38 249.5 324.63C249.5 325.88 250.25 333.63 250.25 333.63L253.25 317.88L253.5 328.88L255.75 317.13C255.75 317.13 257.5 326.13 258 328.88C258.323 330.948 258.49 333.037 258.5 335.13L260.75 326.88L266.25 317.38C266.25 317.38 266.25 328.13 266 329.13C265.75 330.13 265.5 336.63 265.5 336.63L268.75 333.13L266.25 340.88L269.5 341.38L271 342.63C271 342.63 265 344.42 262.36 345.15C259.72 345.88 254.75 348.88 254.75 348.88L244.25 348.13Z" fill="#415DA1"/>
<path d="M246 348.13C246 348.13 241.75 338.88 237.5 336.63C233.25 334.38 231.25 333.38 231.25 333.38C231.25 333.38 237.5 333.63 240.75 335.88C242.824 337.4 244.533 339.364 245.75 341.63C245.089 338.506 244.754 335.323 244.75 332.13C244.75 326.88 246 315.63 246 315.63C246 315.63 245.75 329.63 247 334.38C247.887 337.562 249.058 340.658 250.5 343.63C250.5 343.63 251 339.13 251.75 334.63C252.686 330.238 253.854 325.898 255.25 321.63L253.25 339.63C254.591 337.388 255.761 335.048 256.75 332.63C258.25 328.88 265.75 323.88 265.75 323.88C265.75 323.88 260 331.13 258.75 335.13C257.5 339.13 256.25 342.63 256.25 342.63C257.634 340.484 259.317 338.548 261.25 336.88C264.25 334.38 269.75 332.88 269.75 332.88C269.75 332.88 262.25 338.38 261.5 340.13C260.75 341.88 259.5 345.13 259.5 345.13C259.5 345.13 266.5 339.13 272.5 337.38C272.5 337.38 263.25 343.88 260.75 348.38L246 348.13Z" stroke="#263238" stroke-linecap="round" stroke-linejoin="round"/>
<path d="M240.78 346.15C240.368 347.612 240.15 349.121 240.13 350.64C240.13 359.8 245.59 360.56 252.32 360.56C259.05 360.56 264.51 360.05 264.51 350.64C264.49 349.121 264.272 347.612 263.86 346.15H240.78Z" fill="#263238" stroke="#263238" stroke-linecap="round" stroke-linejoin="round"/>
<path d="M240.13 350.64C240.13 350.84 240.13 351.02 240.13 351.22H264.47C264.47 351.02 264.47 350.84 264.47 350.64C264.47 350.23 264.47 349.81 264.41 349.38H240.19C240.15 349.793 240.13 350.213 240.13 350.64Z" fill="#415DA1"/>
<path d="M264.29 353.53C264.29 353.25 264.37 352.95 264.4 352.64H240.24C240.24 352.95 240.31 353.25 240.36 353.53H264.29Z" fill="#415DA1"/>
<path d="M451.169 367.81L456.799 436.56H454.829L444.689 368.38L451.169 367.81Z" fill="white" stroke="#263238" stroke-linecap="round" stroke-linejoin="round"/>
<path d="M408.919 367.81L414.549 436.56H412.579L402.439 368.38L408.919 367.81Z" fill="white" stroke="#263238" stroke-linecap="round" stroke-linejoin="round"/>
<path d="M403.85 367.81L398.21 436.56H400.19L410.33 368.38L403.85 367.81Z" fill="white" stroke="#263238" stroke-linecap="round" stroke-linejoin="round"/>
<path d="M355.96 367.81L350.33 436.56H352.3L362.44 368.38L355.96 367.81Z" fill="white" stroke="#263238" stroke-linecap="round" stroke-linejoin="round"/>
<path d="M407.49 258.06H470C470 258.06 477.5 260.14 474.17 268.9C470.84 277.66 452.1 370.2 452.1 370.2H352.88L346.63 312.67C346.63 312.67 345.37 304.33 351.21 303.08C357.05 301.83 380.81 302.66 385.4 300.16C389.99 297.66 400.32 261.39 400.32 261.39C400.32 261.39 401.23 257.21 407.49 258.06Z" fill="#415DA1" stroke="#263238" stroke-linecap="round" stroke-linejoin="round"/>
<path d="M402.73 357.1H352.85" stroke="#263238" stroke-linecap="round" stroke-linejoin="round"/>
<path d="M439.68 185.73C435.529 182.579 430.607 180.6 425.43 180C417.38 179.31 405.66 189 405.43 194.25C405.2 199.5 402.22 198.62 401.3 201.61C400.38 204.6 404.05 204.13 404.05 206.2C404.05 208.27 399.23 210.8 399.69 212.64C400.15 214.48 405.2 216.32 405.2 217.46C405.2 218.6 402.44 220.68 404.74 222.52C407.04 224.36 409.34 222.98 410.26 225.28C411.18 227.58 413.26 229.88 413.94 228.28C414.62 226.68 412.33 217.28 413.25 210.58C414.17 203.88 416.01 200.93 423.13 198.17C430.25 195.41 435.31 193.34 438.3 190.58C441.29 187.82 439.68 185.73 439.68 185.73Z" fill="#263238"/>
<mask id="mask14_1144_3269" style="mask-type:luminance" maskUnits="userSpaceOnUse" x="399" y="179" width="42" height="50">
<path d="M439.68 185.73C435.529 182.579 430.607 180.6 425.43 180C417.38 179.31 405.66 189 405.43 194.25C405.2 199.5 402.22 198.62 401.3 201.61C400.38 204.6 404.05 204.13 404.05 206.2C404.05 208.27 399.23 210.8 399.69 212.64C400.15 214.48 405.2 216.32 405.2 217.46C405.2 218.6 402.44 220.68 404.74 222.52C407.04 224.36 409.34 222.98 410.26 225.28C411.18 227.58 413.26 229.88 413.94 228.28C414.62 226.68 412.33 217.28 413.25 210.58C414.17 203.88 416.01 200.93 423.13 198.17C430.25 195.41 435.31 193.34 438.3 190.58C441.29 187.82 439.68 185.73 439.68 185.73Z" fill="white"/>
</mask>
<g mask="url(#mask14_1144_3269)">
<path d="M429.83 186.62C429.83 186.62 423.83 182.32 419.51 186.04C415.19 189.76 415.51 194.35 412.34 195.79C409.17 197.23 404.6 198.08 406.34 202.09C408.08 206.1 411.22 212.09 407.78 213.27C404.34 214.45 401.78 217.57 402.9 218.72" stroke="#666666" stroke-linecap="round" stroke-linejoin="round"/>
</g>
<path d="M439.68 185.73C435.529 182.579 430.607 180.6 425.43 180C417.38 179.31 405.66 189 405.43 194.25C405.2 199.5 402.22 198.62 401.3 201.61C400.38 204.6 404.05 204.13 404.05 206.2C404.05 208.27 399.23 210.8 399.69 212.64C400.15 214.48 405.2 216.32 405.2 217.46C405.2 218.6 402.44 220.68 404.74 222.52C407.04 224.36 409.34 222.98 410.26 225.28C411.18 227.58 413.26 229.88 413.94 228.28C414.62 226.68 412.33 217.28 413.25 210.58C414.17 203.88 416.01 200.93 423.13 198.17C430.25 195.41 435.31 193.34 438.3 190.58C441.29 187.82 439.68 185.73 439.68 185.73Z" stroke="#263238" stroke-linecap="round" stroke-linejoin="round"/>
<path d="M424.999 190.55C424.999 190.55 413.509 195.84 411.899 200.21C410.289 204.58 411.439 212.39 410.979 213.54C410.519 214.69 406.839 216.76 407.299 217.67C408.031 218.686 408.881 219.612 409.829 220.43C409.829 220.43 410.289 232.38 413.279 233.3C416.269 234.22 424.279 231.7 424.279 231.7L429.109 249.39L448.869 243.88L441.519 227.1C441.519 227.1 450.519 215.38 451.399 207.56C452.279 199.74 444.509 189.17 438.759 188.02C433.009 186.87 425.889 190.09 425.889 190.09L424.999 190.55Z" fill="#AC715F" stroke="#263238" stroke-linecap="round" stroke-linejoin="round"/>
<path d="M415.2 214.22C415.769 214.22 416.23 213.244 416.23 212.04C416.23 210.836 415.769 209.86 415.2 209.86C414.631 209.86 414.17 210.836 414.17 212.04C414.17 213.244 414.631 214.22 415.2 214.22Z" fill="#263238"/>
<path d="M413.71 205.72C413.71 205.72 416.24 202.72 418.99 206.18" stroke="#263238" stroke-linecap="round" stroke-linejoin="round"/>
<path d="M401.479 303.41C401.479 303.41 381.639 307.7 378.569 308.11C375.499 308.52 372.229 307.3 371.409 307.11C370.589 306.92 364.049 303.63 363.229 303.63C362.409 303.63 359.959 305.68 357.299 306.29C354.639 306.9 351.169 305.68 350.549 306.91C349.929 308.14 352.799 308.54 354.229 308.75C355.659 308.96 358.939 308.95 358.939 308.95C358.939 308.95 353.619 312.02 352.799 312.43C351.979 312.84 346.459 311.2 346.869 313.04C347.279 314.88 355.459 315.91 358.939 316.31C362.419 316.71 371.409 313.66 371.409 313.66C371.409 313.66 383.269 316.31 388.409 316.11C393.549 315.91 400.469 315.5 400.469 315.5L401.479 303.41Z" fill="#AC715F" stroke="#263238" stroke-linecap="round" stroke-linejoin="round"/>
<path d="M355.87 315.68C355.87 315.68 347.69 312.41 349.33 312.41C350.97 312.41 355.05 314.25 355.05 314.25C355.05 314.25 351.98 311.39 353.05 311.39C354.12 311.39 360 314 360 314C360 314 356.11 311.75 358.36 312.16C360.61 312.57 365.36 314 365.36 314" fill="#AC715F"/>
<path d="M355.87 315.68C355.87 315.68 347.69 312.41 349.33 312.41C350.97 312.41 355.05 314.25 355.05 314.25C355.05 314.25 351.98 311.39 353.05 311.39C354.12 311.39 360 314 360 314C360 314 356.11 311.75 358.36 312.16C360.61 312.57 365.36 314 365.36 314" stroke="#263238" stroke-linecap="round" stroke-linejoin="round"/>
<path d="M336.66 314.59C336.66 314.59 322.66 314.59 319.56 322.45C316.46 330.31 341.56 420.51 341.56 420.51C341.56 420.51 332.67 430.42 326.51 432.82C320.35 435.22 319.33 435.9 321.72 436.58C324.11 437.26 335.4 437.58 341.22 435.9C347.04 434.22 354.9 429.74 357.98 428.37C361.06 427 356.61 424.27 354.56 419.14C352.51 414.01 344.85 382.65 344.51 372.73C344.17 362.81 340.74 335.45 340.74 335.45C340.74 335.45 351.69 343.32 372.21 347.08C392.73 350.84 372.9 325.53 363.66 319.72C354.42 313.91 336.66 314.59 336.66 314.59Z" fill="#263238" stroke="#263238" stroke-linecap="round" stroke-linejoin="round"/>
<path d="M345 425.29L341 421.1C339 423.24 331.75 430.77 326.49 432.82C320.33 435.21 319.31 435.9 321.7 436.58C324.09 437.26 335.38 437.58 341.2 435.9C347.02 434.22 354.88 429.74 357.96 428.37C360.85 427.09 357.11 424.6 354.96 420.06L345 425.29Z" fill="white" stroke="#263238" stroke-linecap="round" stroke-linejoin="round"/>
<path d="M321.41 435C320.12 435.75 320.34 436.15 321.74 436.55C324.14 437.24 335.42 437.55 341.24 435.87C347.06 434.19 354.92 429.71 358 428.34C359.41 427.71 359.23 426.79 358.43 425.49C351.62 428.69 337.3 435.31 334.81 435.64C331.78 436.07 322.85 435.18 321.41 435Z" fill="#263238" stroke="#263238" stroke-linecap="round" stroke-linejoin="round"/>
<path d="M447.49 241.12L424.28 247.78C424.28 247.78 422.21 256.29 416.01 260.89C409.81 265.49 402.01 269.89 400.15 277.66C398.29 285.43 398.77 292.83 399.23 299.73C399.69 306.63 394.17 321.1 394.17 321.1C394.17 321.1 359 313.52 347.28 314C335.56 314.48 327.06 312.85 325.22 324.57C323.38 336.29 331.22 417.35 331.22 417.35C331.22 417.35 319.27 428.35 313.98 431.61C308.69 434.87 304.33 436.89 307.32 438.04C310.31 439.19 325.25 437.58 330.76 436.66C336.27 435.74 345.93 435.28 347.31 432.06C348.69 428.84 343.86 413.91 344.09 412.53C344.32 411.15 344.76 378.81 346.83 367.09C348.205 358.565 349.126 349.972 349.59 341.35C349.59 341.35 400.85 355.6 413.49 355.6C426.13 355.6 434.4 353.76 438.08 332.6C441.76 311.44 438.77 308.46 443.14 299.96C447.51 291.46 451.64 280.88 452.14 267.78C452.64 254.68 447.49 241.12 447.49 241.12Z" fill="white" stroke="#263238" stroke-linecap="round" stroke-linejoin="round"/>
<path d="M407.12 333.4C399.2 326.99 395.85 322.83 394.48 320.26C394.29 320.8 394.17 321.1 394.17 321.1C394.17 321.1 359 313.52 347.28 314C335.56 314.48 327.06 312.85 325.22 324.57C323.38 336.29 331.22 417.35 331.22 417.35C331.22 417.35 319.27 428.35 313.98 431.61C308.69 434.87 304.33 436.89 307.32 438.04C310.31 439.19 325.25 437.58 330.76 436.66C336.27 435.74 345.93 435.28 347.31 432.06C348.69 428.84 343.86 413.91 344.09 412.53C344.32 411.15 344.76 378.81 346.83 367.09C348.205 358.565 349.126 349.973 349.59 341.35C349.59 341.35 400.85 355.6 413.49 355.6C422.75 355.6 429.67 354.6 434.15 345.75C426.06 343.83 415.55 340.22 407.12 333.4Z" fill="#263238" stroke="#263238" stroke-linecap="round" stroke-linejoin="round"/>
<path d="M330.42 418.06C327.67 420.56 318.42 428.86 313.97 431.59C308.69 434.8 304.32 436.87 307.31 438.02C310.3 439.17 325.24 437.56 330.75 436.64C336.26 435.72 345.92 435.26 347.3 432.04C348.12 430.13 346.74 424.04 345.54 419.16L334.06 422.9L330.42 418.06Z" fill="white" stroke="#263238" stroke-linecap="round" stroke-linejoin="round"/>
<path d="M307.31 438C310.31 439.15 325.24 437.54 330.75 436.62C336.26 435.7 345.92 435.24 347.3 432.02C347.361 431.875 347.408 431.724 347.44 431.57C336.15 433.91 316.65 435.57 306.69 436.33C306.11 437 306.2 437.6 307.31 438Z" fill="#263238" stroke="#263238" stroke-linecap="round" stroke-linejoin="round"/>
<path d="M424.279 247.78C424.279 247.78 422.209 256.29 416.009 260.89C409.809 265.49 402.009 269.89 400.149 277.66C398.289 285.43 398.769 292.83 399.229 299.73C399.689 306.63 394.169 321.1 394.169 321.1C394.169 321.1 389.929 320.19 383.899 319.01C385.319 327.93 391.789 353.42 419.289 355.36C428.679 354.47 434.989 350.31 438.069 332.6C441.749 311.45 438.759 308.46 443.129 299.96C447.499 291.46 451.629 280.88 452.129 267.78C452.629 254.68 447.529 241.12 447.529 241.12L424.279 247.78Z" fill="white" stroke="#263238" stroke-linecap="round" stroke-linejoin="round"/>
<path d="M422.21 253.76L448.87 246.63" stroke="#263238" stroke-linecap="round" stroke-linejoin="round"/>
<path d="M366.57 283.17C366.57 283.17 365.48 276.24 364.21 277.23C362.94 278.22 364.5 284.37 364.5 284.37C365.212 284.618 365.956 284.763 366.71 284.8" fill="#AC715F"/>
<path d="M366.57 283.17C366.57 283.17 365.48 276.24 364.21 277.23C362.94 278.22 364.5 284.37 364.5 284.37C365.212 284.618 365.956 284.763 366.71 284.8" stroke="#263238" stroke-linecap="round" stroke-linejoin="round"/>
<path d="M447.719 258.82C447.719 258.82 446.339 252.15 437.839 253.3C429.339 254.45 426.349 258.59 424.049 269.85C421.749 281.11 418.299 299.5 418.299 299.5C418.299 299.5 388.879 281.11 384.519 278.12C380.159 275.13 374.629 274.68 372.109 276.51C369.589 278.34 362.679 285.02 362.679 285.02C362.679 285.02 359.229 278.12 358.769 280.42C358.309 282.72 359.919 288.7 363.369 290.08C366.819 291.46 373.009 286.69 373.699 286.46C374.389 286.23 369.559 291.29 371.169 291.52C372.779 291.75 374.169 289.68 377.169 287.84C379.155 286.55 380.943 284.981 382.479 283.18C382.479 283.18 398.799 298.81 403.849 302.72C408.899 306.63 422.669 317 425.429 317C428.189 317 431.859 312.63 433.699 308.72C435.539 304.81 446.799 279.72 448.409 267.58" fill="#AC715F"/>
<path d="M447.719 258.82C447.719 258.82 446.339 252.15 437.839 253.3C429.339 254.45 426.349 258.59 424.049 269.85C421.749 281.11 418.299 299.5 418.299 299.5C418.299 299.5 388.879 281.11 384.519 278.12C380.159 275.13 374.629 274.68 372.109 276.51C369.589 278.34 362.679 285.02 362.679 285.02C362.679 285.02 359.229 278.12 358.769 280.42C358.309 282.72 359.919 288.7 363.369 290.08C366.819 291.46 373.009 286.69 373.699 286.46C374.389 286.23 369.559 291.29 371.169 291.52C372.779 291.75 374.169 289.68 377.169 287.84C379.155 286.55 380.943 284.981 382.479 283.18C382.479 283.18 398.799 298.81 403.849 302.72C408.899 306.63 422.669 317 425.429 317C428.189 317 431.859 312.63 433.699 308.72C435.539 304.81 446.799 279.72 448.409 267.58" stroke="#263238" stroke-linecap="round" stroke-linejoin="round"/>
<path d="M373.7 286.46L374.7 284.6C374.271 283.761 373.904 282.892 373.6 282C373.553 281.606 373.598 281.207 373.732 280.834C373.866 280.461 374.084 280.124 374.37 279.85" fill="white"/>
<path d="M373.7 286.46L374.7 284.6C374.271 283.761 373.904 282.892 373.6 282C373.553 281.606 373.598 281.207 373.732 280.834C373.866 280.461 374.084 280.124 374.37 279.85" stroke="#263238" stroke-linecap="round" stroke-linejoin="round"/>
<path d="M364.27 286.83C364.27 286.83 356.8 279.67 356.2 281.95C355.6 284.23 362.91 290.08 362.91 290.08C363.504 290.204 364.122 290.126 364.666 289.858C365.21 289.589 365.648 289.146 365.91 288.6" fill="#AC715F"/>
<path d="M364.27 286.83C364.27 286.83 356.8 279.67 356.2 281.95C355.6 284.23 362.91 290.08 362.91 290.08C363.504 290.204 364.122 290.126 364.666 289.858C365.21 289.589 365.648 289.146 365.91 288.6" stroke="#263238" stroke-linecap="round" stroke-linejoin="round"/>
<path d="M367.31 287.16C367.31 287.16 363.81 277.43 362.26 279.16C360.71 280.89 364.65 289.42 364.65 289.42C364.65 289.42 365.21 291.49 369.35 288.66" fill="#AC715F"/>
<path d="M367.31 287.16C367.31 287.16 363.81 277.43 362.26 279.16C360.71 280.89 364.65 289.42 364.65 289.42C364.65 289.42 365.21 291.49 369.35 288.66" stroke="#263238" stroke-linecap="round" stroke-linejoin="round"/>
<path d="M466.089 302.05C466.089 302.05 450.749 314.9 432.329 316.18C413.909 317.46 405.879 320.85 404.709 331.01C403.539 341.17 402.149 369.89 402.149 369.89L451.769 370.2L463.279 315.67L466.089 302.05Z" fill="#415DA1" stroke="#263238" stroke-linecap="round" stroke-linejoin="round"/>
<path d="M453.61 316.69C453.61 316.69 449.01 322.83 437.5 323.85C425.99 324.87 417.29 326.41 414.5 330.25" stroke="#263238" stroke-linecap="round" stroke-linejoin="round"/>
<path d="M471.8 227.74C469.69 227.13 473.01 223.21 474.52 219.59C476.03 215.97 471.8 213.85 468.52 212.04C465.24 210.23 468.52 206.6 468.22 201.77C467.92 196.94 464.22 197.03 462.48 194.23C460.74 191.43 463.99 182.15 452.22 180.94C440.45 179.73 435.92 181.55 431.08 183.94C428.75 185.196 426.833 187.099 425.56 189.42C424.45 190.47 423.56 191.79 424.09 193.06C425.24 195.82 426.39 197.66 424.78 200.65C423.17 203.64 424.09 206.39 425.47 207.54C426.85 208.69 426.85 211.68 424.55 213.98C422.25 216.28 422.94 218.11 425.01 219.26C427.08 220.41 429.38 223.4 427.31 226.16C425.24 228.92 425.93 232.82 430.07 233.74C431.391 233.955 432.69 234.289 433.95 234.74L434.95 239.15C434.66 241.06 434.3 242.8 435.83 243.15C436.478 243.235 437.136 243.113 437.71 242.8C438.441 242.652 439.16 242.448 439.86 242.19C441.37 241.58 441.97 245.19 443.48 248.19C444.99 251.19 449.48 249.7 451.94 247.58C452.185 247.351 452.479 247.181 452.8 247.083C453.12 246.984 453.459 246.959 453.79 247.01C454.682 247.699 455.756 248.109 456.88 248.19C458.333 248.941 459.973 249.254 461.6 249.09C466.13 248.49 465.52 246.68 466.13 243.96C466.74 241.24 469.13 241.24 472.77 238.22C476.41 235.2 473.91 228.34 471.8 227.74Z" fill="#263238"/>
<mask id="mask15_1144_3269" style="mask-type:luminance" maskUnits="userSpaceOnUse" x="423" y="180" width="52" height="70">
<path d="M471.8 227.74C469.69 227.13 473.01 223.21 474.52 219.59C476.03 215.97 471.8 213.85 468.52 212.04C465.24 210.23 468.52 206.6 468.22 201.77C467.92 196.94 464.22 197.03 462.48 194.23C460.74 191.43 463.99 182.15 452.22 180.94C440.45 179.73 435.92 181.55 431.08 183.94C428.75 185.196 426.833 187.099 425.56 189.42C424.45 190.47 423.56 191.79 424.09 193.06C425.24 195.82 426.39 197.66 424.78 200.65C423.17 203.64 424.09 206.39 425.47 207.54C426.85 208.69 426.85 211.68 424.55 213.98C422.25 216.28 422.94 218.11 425.01 219.26C427.08 220.41 429.38 223.4 427.31 226.16C425.24 228.92 425.93 232.82 430.07 233.74C431.391 233.955 432.69 234.289 433.95 234.74L434.95 239.15C434.66 241.06 434.3 242.8 435.83 243.15C436.478 243.235 437.136 243.113 437.71 242.8C438.441 242.652 439.16 242.448 439.86 242.19C441.37 241.58 441.97 245.19 443.48 248.19C444.99 251.19 449.48 249.7 451.94 247.58C452.185 247.351 452.479 247.181 452.8 247.083C453.12 246.984 453.459 246.959 453.79 247.01C454.682 247.699 455.756 248.109 456.88 248.19C458.333 248.941 459.973 249.254 461.6 249.09C466.13 248.49 465.52 246.68 466.13 243.96C466.74 241.24 469.13 241.24 472.77 238.22C476.41 235.2 473.91 228.34 471.8 227.74Z" fill="white"/>
</mask>
<g mask="url(#mask15_1144_3269)">
<path d="M430.11 185.18C430.11 185.18 432.69 186.62 431.55 190.91C430.41 195.2 428.39 197.22 430.4 198.65C432.41 200.08 437.56 202.95 436.4 206.65C435.24 210.35 431.53 213.81 434.68 216.11C437.83 218.41 444.42 219.83 444.14 224.42C443.86 229.01 441.84 232.42 444.42 233.88C447 235.34 451.02 232.73 451.59 235.88C452.16 239.03 450.44 243.33 452.45 243.88C454.46 244.43 457.55 243.28 458.45 245.31C458.994 246.568 459.191 247.949 459.02 249.31" stroke="#666666" stroke-linecap="round" stroke-linejoin="round"/>
<path d="M435.56 181.46C435.56 181.46 441.56 183.18 441.29 188.05C441.02 192.92 438.71 200.05 440.72 201.23C442.73 202.41 448.17 204.1 447.6 207.83C447.03 211.56 445.02 214.7 446.74 216.14C448.46 217.58 453.61 220.14 453.61 222.44C453.61 224.74 450.75 224.74 452.75 227.89C454.75 231.04 461.07 230.75 461.35 235.05C461.63 239.35 459.92 241.65 460.78 242.51C461.64 243.37 463.93 245.94 464.78 246.23C465.63 246.52 465.07 250.53 465.07 250.53" stroke="#666666" stroke-linecap="round" stroke-linejoin="round"/>
<path d="M444.16 177.44C444.16 177.44 453.04 182.32 452.47 188.05C451.9 193.78 451.04 196.65 452.47 198.05C453.9 199.45 457.05 201.49 457.05 204.36" stroke="#666666" stroke-linecap="round" stroke-linejoin="round"/>
<path d="M458.2 211.84C458.2 211.84 457.63 217 459.92 218.14C462.21 219.28 467.66 225.02 467.66 228.14C467.66 231.26 465.94 234.45 467.95 236.74C469.995 238.82 472.198 240.739 474.54 242.48" stroke="#666666" stroke-linecap="round" stroke-linejoin="round"/>
</g>
<path d="M471.8 227.74C469.69 227.13 473.01 223.21 474.52 219.59C476.03 215.97 471.8 213.85 468.52 212.04C465.24 210.23 468.52 206.6 468.22 201.77C467.92 196.94 464.22 197.03 462.48 194.23C460.74 191.43 463.99 182.15 452.22 180.94C440.45 179.73 435.92 181.55 431.08 183.94C428.75 185.196 426.833 187.099 425.56 189.42C424.45 190.47 423.56 191.79 424.09 193.06C425.24 195.82 426.39 197.66 424.78 200.65C423.17 203.64 424.09 206.39 425.47 207.54C426.85 208.69 426.85 211.68 424.55 213.98C422.25 216.28 422.94 218.11 425.01 219.26C427.08 220.41 429.38 223.4 427.31 226.16C425.24 228.92 425.93 232.82 430.07 233.74C431.391 233.955 432.69 234.289 433.95 234.74L434.95 239.15C434.66 241.06 434.3 242.8 435.83 243.15C436.478 243.235 437.136 243.113 437.71 242.8C438.441 242.652 439.16 242.448 439.86 242.19C441.37 241.58 441.97 245.19 443.48 248.19C444.99 251.19 449.48 249.7 451.94 247.58C452.185 247.351 452.479 247.181 452.8 247.083C453.12 246.984 453.459 246.959 453.79 247.01C454.682 247.699 455.756 248.109 456.88 248.19C458.333 248.941 459.973 249.254 461.6 249.09C466.13 248.49 465.52 246.68 466.13 243.96C466.74 241.24 469.13 241.24 472.77 238.22C476.41 235.2 473.91 228.34 471.8 227.74Z" stroke="#263238" stroke-linecap="round" stroke-linejoin="round"/>
<path d="M54.1898 367.81L48.5498 436.56H50.5198L60.6598 368.38L54.1898 367.81Z" fill="#FFB9AF" stroke="#333B3F" stroke-linecap="round" stroke-linejoin="round"/>
<path d="M96.4398 367.81L90.7998 436.56H92.7698L102.91 368.38L96.4398 367.81Z" fill="#FFB9AF" stroke="#333B3F" stroke-linecap="round" stroke-linejoin="round"/>
<path d="M101.5 367.81L107.14 436.56H105.17L95.0303 368.38L101.5 367.81Z" fill="#FFB9AF" stroke="#333B3F" stroke-linecap="round" stroke-linejoin="round"/>
<path d="M149.39 367.81L155.02 436.56H153.05L142.91 368.38L149.39 367.81Z" fill="#FFB9AF" stroke="#333B3F" stroke-linecap="round" stroke-linejoin="round"/>
<path d="M97.8601 258.06H35.3301C35.3301 258.06 27.8301 260.14 31.1601 268.9C34.4901 277.66 53.2601 370.2 53.2601 370.2H152.47L158.73 312.67C158.73 312.67 159.98 304.33 154.14 303.08C148.3 301.83 124.54 302.66 119.96 300.16C115.38 297.66 105 261.39 105 261.39C105 261.39 104.12 257.21 97.8601 258.06Z" fill="#415DA1" stroke="#333B3F" stroke-linecap="round" stroke-linejoin="round"/>
<path d="M102.63 357.1H152.51" stroke="#333B3F" stroke-linecap="round" stroke-linejoin="round"/>
<path d="M71.0898 206.61C71.0898 206.61 71.9998 242.1 72.3998 245.29C72.6335 247.922 72.302 250.574 71.4277 253.068C70.5533 255.562 69.1561 257.84 67.3298 259.75C62.4498 265.01 42.7298 261.06 41.4198 256.18C40.1098 251.3 42.5398 243.18 42.5398 243.18C42.5398 243.18 34.9998 241.54 37.0998 235C39.1998 228.46 50.6198 216.79 55.8798 212.85C61.1398 208.91 67.1398 205.67 71.0898 206.61Z" fill="#544848" stroke="#333B3F" stroke-linecap="round" stroke-linejoin="round"/>
<path d="M57.3301 214.07C57.3301 214.07 45.6101 234.45 43.8301 239.8" stroke="#333B3F" stroke-linecap="round" stroke-linejoin="round"/>
<path d="M63.1904 213.05C63.1904 213.05 50.1904 239.8 47.9004 250.76" stroke="#333B3F" stroke-linecap="round" stroke-linejoin="round"/>
<path d="M63.7001 223.24C63.7001 223.24 58.5001 238 57.3301 243.63" stroke="#333B3F" stroke-linecap="round" stroke-linejoin="round"/>
<path d="M88.18 251.11C88.18 251.11 97.62 250.87 101.74 248.69C105.86 246.51 114.33 248.2 117.23 256.92C120.13 265.64 125.71 281.62 127.89 288.16C130.07 294.7 135.15 300.75 135.15 300.75L115.05 308.49L103.43 313.58C103.43 313.58 94.2301 276.78 91.0801 267.33C87.9301 257.88 87 252.32 88.18 251.11Z" fill="#787878" stroke="#333B3F" stroke-linecap="round" stroke-linejoin="round"/>
<path d="M170.59 375.57L178.34 391.72L180.31 390.78L175.12 376.62L170.59 375.57Z" fill="#333B3F" stroke="#333B3F" stroke-linecap="round" stroke-linejoin="round"/>
<path d="M173.19 342.9C173.19 342.9 183.09 366.35 185.19 368.55C187.29 370.75 198.82 376.25 200.55 376.49C202.28 376.73 206.28 376.69 205.94 377.66C205.6 378.63 188.34 387.99 185.32 386.75C182.3 385.51 181.44 382.81 178.22 381.13C175 379.45 170.54 377.19 168.55 373.04C166.56 368.89 169.87 365.16 169.87 365.16L160.82 349.09L173.19 342.9Z" fill="#FFB9AF" stroke="#333B3F" stroke-linecap="round" stroke-linejoin="round"/>
<path d="M200.58 376.49C199.983 376.351 199.401 376.157 198.84 375.91C195.67 378.91 189.01 381.85 180.7 376.31C176.369 373.506 172.517 370.025 169.29 366C168.582 367.008 168.144 368.181 168.02 369.407C167.896 370.633 168.089 371.87 168.58 373C170.58 377.15 175.03 379.41 178.25 381.09C181.47 382.77 182.34 385.47 185.35 386.71C188.36 387.95 205.63 378.59 205.97 377.62C206.31 376.65 202.3 376.74 200.58 376.49Z" fill="#333B3F" stroke="#333B3F" stroke-linecap="round" stroke-linejoin="round"/>
<path d="M159.16 298.85C159.16 298.85 173.65 332 177 338.76L181.84 348.44L163.44 357.65C163.44 357.65 143.34 319.39 143.34 313.82C143.34 308.25 147.09 302.46 149.51 299.56C151.93 296.66 159.16 298.85 159.16 298.85Z" fill="#333B3F" stroke="#333B3F" stroke-linecap="round" stroke-linejoin="round"/>
<path d="M154.001 389.12C154.001 389.12 152.791 414.54 153.751 417.45C154.711 420.36 162.751 430.28 164.171 431.25C165.591 432.22 169.251 433.91 168.521 434.64C167.791 435.37 148.191 436.34 146.011 433.91C143.831 431.48 144.801 424.71 142.621 421.81C140.441 418.91 136.811 418.9 136.811 414.3C136.811 409.7 141.411 407.76 141.411 407.76L140.201 389.36L154.001 389.12Z" fill="#FFB9AF" stroke="#333B3F" stroke-linecap="round" stroke-linejoin="round"/>
<path d="M164.21 431.25C163.596 430.743 163.03 430.181 162.52 429.57C159.84 430.57 156.94 431.22 154.76 430.52C149.44 428.83 145.32 425.44 144.11 418.66C143.36 414.44 140.25 411.91 138.02 410.6C137.253 411.681 136.843 412.975 136.85 414.3C136.85 418.9 140.48 418.9 142.66 421.81C144.84 424.72 143.87 431.49 146.05 433.91C148.23 436.33 167.84 435.37 168.56 434.64C169.28 433.91 165.66 432.22 164.21 431.25Z" fill="#333B3F" stroke="#333B3F" stroke-linecap="round" stroke-linejoin="round"/>
<path d="M137.57 417.45V435.37H139.75L141.2 420.36L137.57 417.45Z" fill="#333B3F" stroke="#333B3F" stroke-linecap="round" stroke-linejoin="round"/>
<path d="M145.08 313.58C145.08 313.58 161.54 315.27 161.3 326.41C161.06 337.55 160.3 390.57 160.3 390.57L138.06 393C138.06 393 133.21 365.64 134.42 354.5C135.63 343.36 137.57 341.18 137.57 341.18H101.5C101.5 341.18 105.13 332.95 116.75 324.23C128.37 315.51 145.08 313.58 145.08 313.58Z" fill="#333B3F" stroke="#333B3F" stroke-linecap="round" stroke-linejoin="round"/>
<path d="M108.76 256.19C108.925 258.955 109.259 261.706 109.76 264.43C110.48 268.06 114.36 269.75 115.57 275.08C116.78 280.41 114.84 282.83 115.08 288.4C115.32 293.97 118.72 301.47 119.2 304.14C119.68 306.81 116.78 308.98 112.66 311.64C108.54 314.3 72.7102 327.64 67.8702 322.29C63.0302 316.94 67.1402 309.46 66.1802 303.41C65.2202 297.36 60.3602 272.9 58.1802 263.41C56.0002 253.92 54.8402 249.28 60.0002 247.2C63.6302 245.75 76.5202 250.87 76.5202 250.87C76.5202 250.87 81.1302 251.35 91.0502 251.35" fill="#787878"/>
<path d="M108.76 256.19C108.925 258.955 109.259 261.706 109.76 264.43C110.48 268.06 114.36 269.75 115.57 275.08C116.78 280.41 114.84 282.83 115.08 288.4C115.32 293.97 118.72 301.47 119.2 304.14C119.68 306.81 116.78 308.98 112.66 311.64C108.54 314.3 72.7102 327.64 67.8702 322.29C63.0302 316.94 67.1402 309.46 66.1802 303.41C65.2202 297.36 60.3602 272.9 58.1802 263.41C56.0002 253.92 54.8402 249.28 60.0002 247.2C63.6302 245.75 76.5202 250.87 76.5202 250.87C76.5202 250.87 81.1302 251.35 91.0502 251.35" stroke="#333B3F" stroke-linecap="round" stroke-linejoin="round"/>
<path d="M71.2706 221.26V248.11C71.2706 248.11 76.3406 252.43 82.7306 257.5C89.1206 262.57 93.8106 263.5 94.7306 258.81C95.6506 254.12 91.5306 248.48 90.2206 247.17C88.9106 245.86 89.0906 234.78 89.0906 234.78C89.0906 234.78 75.4006 220.32 73.0006 218.81C70.6006 217.3 71.2706 221.26 71.2706 221.26Z" fill="#FFB9AF" stroke="#333B3F" stroke-linecap="round" stroke-linejoin="round"/>
<path d="M99.6297 190.27C99.6297 190.27 109.39 192.9 109.63 199.85C109.87 206.8 99.2497 209.43 98.1297 207C97.0097 204.57 95.4997 192.16 95.6797 190.47C95.8597 188.78 99.6297 190.27 99.6297 190.27Z" fill="#544848" stroke="#333B3F" stroke-linecap="round" stroke-linejoin="round"/>
<path d="M101.22 195.16C101.22 195.16 105.73 205.86 103.76 214.87C101.79 223.88 97.84 234.02 94.76 236.87C91.68 239.72 88 240.44 81.52 235.18C76.84 231.38 71.1 223.91 69.69 219.97C68.28 216.03 69.41 208.14 74.48 200.54C79.55 192.94 98.13 189.52 101.22 195.16Z" fill="#FFB9AF" stroke="#333B3F" stroke-linecap="round" stroke-linejoin="round"/>
<path d="M91.2606 214.73C91.9012 214.73 92.4206 213.848 92.4206 212.76C92.4206 211.672 91.9012 210.79 91.2606 210.79C90.6199 210.79 90.1006 211.672 90.1006 212.76C90.1006 213.848 90.6199 214.73 91.2606 214.73Z" fill="#333B3F"/>
<path d="M101.56 212.94C101.56 214.03 101.04 214.94 100.4 214.94C99.7605 214.94 99.2305 214.06 99.2305 212.94C99.2305 211.82 99.7505 210.94 100.4 210.94C101.05 210.94 101.56 211.85 101.56 212.94Z" fill="#333B3F"/>
<path d="M99.7702 208.46C99.7702 208.46 97.0802 210.79 97.7702 214.02C98.4602 217.25 99.7702 219.39 99.2002 220.47C98.6302 221.55 96.2002 221.54 96.2002 221.54" stroke="#333B3F" stroke-linecap="round" stroke-linejoin="round"/>
<path d="M86.6904 207.39C86.6904 207.39 90.9904 205.06 93.8604 206.13" stroke="#333B3F" stroke-linecap="round" stroke-linejoin="round"/>
<path d="M100.311 206.49C100.311 206.49 102.101 204.88 103.891 207.21" stroke="#333B3F" stroke-linecap="round" stroke-linejoin="round"/>
<path d="M92.43 225.48C91.4947 225.48 90.5792 225.21 89.7934 224.703C89.0076 224.196 88.3849 223.473 88 222.62" stroke="#333B3F" stroke-linecap="round" stroke-linejoin="round"/>
<path d="M53.3704 214.2C53.3704 214.2 76.3004 211.2 87.3704 205.42C98.4404 199.64 102.6 195.56 101.7 190.91C100.8 186.26 89.7004 178.55 77.3404 178.72C72.0785 178.841 66.971 180.522 62.6648 183.548C58.3586 186.574 55.0473 190.81 53.1504 195.72C50.3204 203.81 53.3704 214.2 53.3704 214.2Z" fill="#544848" stroke="#333B3F" stroke-linecap="round" stroke-linejoin="round"/>
<path d="M92.9998 189.6C87.9405 195.063 81.9932 199.631 75.4098 203.11C68.7696 206.411 61.6187 208.565 54.2598 209.48" stroke="#333B3F" stroke-linecap="round" stroke-linejoin="round"/>
<path d="M53.5098 206.93C59.6013 205.058 65.4905 202.583 71.0898 199.54" stroke="#333B3F" stroke-linecap="round" stroke-linejoin="round"/>
<path d="M74.9102 197.25C74.9102 197.25 85.1101 190.11 90.2001 185" stroke="#333B3F" stroke-linecap="round" stroke-linejoin="round"/>
<path d="M75.3105 214.59C75.3105 214.59 71.6505 206.42 67.4205 209.52C63.1905 212.62 66.0206 221.63 68.5506 223.32C71.0806 225.01 74.7505 222.48 74.7505 222.48" fill="#FFB9AF"/>
<path d="M75.3105 214.59C75.3105 214.59 71.6505 206.42 67.4205 209.52C63.1905 212.62 66.0206 221.63 68.5506 223.32C71.0806 225.01 74.7505 222.48 74.7505 222.48" stroke="#333B3F" stroke-linecap="round" stroke-linejoin="round"/>
<path d="M108 290.82C108 290.82 117.93 289.12 121.56 288.64C125.19 288.16 134.64 291.55 134.15 293.24C133.66 294.93 123.5 296.15 120.15 297.36C116.8 298.57 109.25 296.87 109.25 296.87L108 290.82Z" fill="#FFB9AF" stroke="#333B3F" stroke-linecap="round" stroke-linejoin="round"/>
<path d="M71.9998 250.38C71.9998 250.38 68.6098 245.06 60.6198 246.51C52.6298 247.96 50.1998 256.19 50.4498 264.43C50.6998 272.67 59.4498 308.74 62.5498 310.92C65.6498 313.1 109.73 300 109.73 300L108.03 290.8L75.0998 292.76L71.4698 263" fill="#787878"/>
<path d="M71.9998 250.38C71.9998 250.38 68.6098 245.06 60.6198 246.51C52.6298 247.96 50.1998 256.19 50.4498 264.43C50.6998 272.67 59.4498 308.74 62.5498 310.92C65.6498 313.1 109.73 300 109.73 300L108.03 290.8L75.0998 292.76L71.4698 263" stroke="#333B3F" stroke-linecap="round" stroke-linejoin="round"/>
<path d="M134.32 290.65L99.1699 307.29L108.55 311.27L153.53 295.57L134.32 290.65Z" fill="#FFB9AF" stroke="#333B3F" stroke-linecap="round" stroke-linejoin="round"/>
<path d="M161.73 304C161.73 304 159.39 295.56 153.53 295.56C147.67 295.56 110.19 307.75 97.2997 312.9C84.4097 318.05 73.3997 321.1 70.8197 325.09C68.2397 329.08 72.9296 344.3 81.1296 346.64C89.3296 348.98 103.86 345.94 109.95 342.64C116.04 339.34 157.75 309.84 157.75 309.84" fill="#333B3F"/>
<path d="M161.73 304C161.73 304 159.39 295.56 153.53 295.56C147.67 295.56 110.19 307.75 97.2997 312.9C84.4097 318.05 73.3997 321.1 70.8197 325.09C68.2397 329.08 72.9296 344.3 81.1296 346.64C89.3296 348.98 103.86 345.94 109.95 342.64C116.04 339.34 157.75 309.84 157.75 309.84" stroke="#333B3F" stroke-linecap="round" stroke-linejoin="round"/>
<path d="M39.3203 303.14C39.3203 303.14 54.3203 314.9 72.7003 316.14C91.0803 317.38 99.1503 320.81 100.32 330.97C101.49 341.13 102.88 369.85 102.88 369.85L53.2603 370.16L43.4903 321.79L39.3203 303.14Z" fill="#415DA1" stroke="#333B3F" stroke-linecap="round" stroke-linejoin="round"/>
<path d="M50.7002 316.69C50.7002 316.69 55.3002 322.83 66.8202 323.85C78.3402 324.87 87.0202 326.41 89.8202 330.25" stroke="#333B3F" stroke-linecap="round" stroke-linejoin="round"/>
</svg>
