<svg width="45" height="40" viewBox="0 0 45 40" fill="none" xmlns="http://www.w3.org/2000/svg">
<path d="M28.8633 20L43.6816 6.82812C44.5313 6.07289 45 5.06773 45 4C45 2.93227 44.5313 1.92711 43.6816 1.17188C42.832 0.416641 41.7012 0 40.5 0C39.2988 0 38.168 0.416641 37.3184 1.17188L22.5 14.3438L7.68164 1.17188C6.832 0.416641 5.7012 0 4.5 0C3.2988 0 2.168 0.416641 1.31836 1.17188C0.468721 1.92711 0 2.93227 0 4C0 5.06773 0.468721 6.07289 1.31836 6.82812L16.1367 20L1.31836 33.1719C0.468721 33.927 0 34.9323 0 36C0 37.0677 0.468721 38.0729 1.31836 38.8281C2.1694 39.5834 3.2988 40 4.5 40C5.7012 40 6.8306 39.5834 7.68164 38.8281L22.5 25.6562L37.3184 38.8281C38.1694 39.5834 39.2988 40 40.5 40C41.7012 40 42.8306 39.5834 43.6816 38.8281C44.5313 38.073 45 37.0677 45 36C45 34.9323 44.5313 33.9271 43.6816 33.1719L28.8633 20Z" fill="#415DA1"/>
</svg>
