<svg width="435" height="424" viewBox="0 0 435 424" fill="none" xmlns="http://www.w3.org/2000/svg">
<path d="M237.336 48.3271H237.289V48.4221H237.336V48.3271Z" fill="#415da1"/>
<path d="M309.954 40.2085H280.813V64.5702H309.954V40.2085Z" fill="#415da1"/>
<path d="M352.279 63.9766H323.139V88.3383H352.279V63.9766Z" fill="#415da1"/>
<path d="M329.768 196.125H300.627V220.487H329.768V196.125Z" fill="#415da1"/>
<path d="M309.15 148.772H280.009V173.134H309.15V148.772Z" fill="#415da1"/>
<path d="M281.184 180.87H252.044V205.232H281.184V180.87Z" fill="#415da1"/>
<path d="M273.483 22.6709H244.343V47.0326H273.483V22.6709Z" fill="#415da1"/>
<path d="M311.757 93.0039H282.616V117.366H311.757V93.0039Z" fill="#415da1"/>
<path d="M276.863 116.35H247.723V140.712H276.863V116.35Z" fill="#415da1"/>
<path d="M245.79 170.268V145.892L216.622 145.911V170.268H245.79Z" fill="#415da1"/>
<path d="M280.963 263.148C275.765 248.725 272.104 233.946 270.023 218.984H237.225V194.635H208.091V170.273H178.95V145.911H208.091V121.331H237.257V97.0807H266.386V72.7143L237.288 72.6881V48.4215L208.071 48.4073V24.0408L237.245 23.9814V6.71395C223.315 2.94618 208.842 0.763105 194.216 0.223523C122.754 -2.86716 61.5528 35.5048 63.5236 88.4268C63.7824 95.4118 65.2441 105.699 65.2099 112.42C65.1445 136.294 40.4348 146.101 39.9599 153.7C39.1779 166.176 56.7099 162.28 62.8923 179.93C70.7411 202.337 59.4797 227.89 96.0168 226.312C110.591 225.822 134.277 221.093 144.427 228.984C150.899 234.015 156.112 255.973 158.145 265.689C158.42 266.995 159.237 268.178 160.453 269.03C161.669 269.882 163.205 270.347 164.791 270.344H274.473C275.519 270.347 276.552 270.145 277.488 269.756C278.425 269.367 279.241 268.801 279.87 268.103C280.5 267.404 280.927 266.593 281.116 265.733C281.306 264.873 281.253 263.988 280.963 263.148ZM151.712 72.7904H122.572V48.4215H151.712V72.7904ZM180.833 57.7364H209.973V82.0981H180.833V57.7364ZM159.03 114.99V90.626H188.17V114.99H159.03ZM195.757 224.75H166.617V200.383H195.757V224.75Z" fill="#415da1"/>
<path d="M64.0349 356.584C64.0349 368.711 59.0201 379.625 49.762 386.228C45.133 389.462 39.8611 391.079 33.9462 391.079C23.5309 391.079 15.3015 386.228 9.38664 376.392V423.148H0V323.168H9.12947V337.72C15.6873 327.21 23.9166 321.955 33.9462 321.955C42.8185 321.955 50.7907 326.132 55.9341 332.735C60.9489 339.202 64.0349 347.826 64.0349 356.584ZM32.146 382.59C38.961 382.59 44.3615 380.03 48.4762 375.179C52.4623 370.193 54.5197 364.13 54.5197 356.854C54.5197 347.422 51.0479 339.202 44.1043 334.352C40.7612 331.926 36.6465 330.714 32.146 330.714C19.159 330.444 8.8723 343.11 9.25805 356.45C9.25805 363.456 11.3154 369.654 15.6873 374.775C20.0591 380.03 25.4596 382.59 32.146 382.59ZM122.669 371.137C122.669 377.065 120.483 381.916 116.111 385.554C111.74 389.327 106.339 391.213 100.038 391.213C89.7517 391.213 83.0653 386.767 79.5936 381.512C77.0219 377.874 76.1218 374.64 75.736 371.271L84.2226 368.981C85.2512 375.179 89.7517 382.725 99.9098 382.725C103.51 382.725 106.596 381.647 109.296 379.625C111.868 377.739 113.154 375.044 113.154 371.676C113.154 368.981 112.125 366.825 110.068 365.208C108.011 363.456 105.568 362.378 102.739 361.705L92.9663 359.414C82.4224 356.989 77.0219 351.06 77.0219 341.897C77.0219 335.025 80.3651 329.366 84.9941 326.402C89.4945 323.437 94.3807 321.955 98.7526 321.955C108.396 322.09 114.568 325.998 117.912 330.848C120.226 334.217 121.255 337.047 121.769 339.876L113.283 342.436C112.64 339.741 111.611 337.586 109.554 334.891C107.368 332.196 103.51 330.579 98.7526 330.579C95.2808 330.579 92.452 331.522 90.0089 333.678C87.5658 335.699 86.4085 338.259 86.4085 341.224C86.4085 346.479 90.0089 348.904 95.6666 350.386L105.953 352.812C114.311 354.833 122.669 360.357 122.669 371.137ZM138.999 304.439C137.714 302.957 136.942 301.205 136.942 299.184C136.942 297.163 137.714 295.411 138.999 293.929C140.285 292.581 142.085 291.773 144.014 291.773C145.943 291.773 147.615 292.581 148.9 293.929C150.315 295.411 150.958 297.163 150.958 299.184C150.958 301.205 150.315 302.957 148.9 304.439C147.615 305.786 145.943 306.595 144.014 306.595C142.085 306.595 140.285 305.786 138.999 304.439ZM139.257 390.135V323.168H148.643V390.135H139.257ZM165.102 356.584C165.102 347.826 168.188 339.202 173.331 332.735C178.475 326.132 186.318 321.955 195.062 321.955C200.977 321.955 206.249 323.707 210.235 326.671C214.221 329.636 217.05 332.87 219.879 337.181V288H229.137V390.135H220.007V375.853C214.093 386.093 205.735 391.079 195.062 391.079C186.19 391.079 178.346 387.036 173.203 380.703C168.188 374.37 165.102 365.747 165.102 356.584ZM196.991 382.59C210.106 382.725 220.265 369.924 220.007 356.45C220.007 347.691 215.893 339.337 208.821 334.352C205.22 331.926 201.234 330.714 196.991 330.714C190.176 330.714 184.775 333.139 180.789 338.125C176.675 343.11 174.617 349.308 174.617 356.854C174.617 366.151 178.218 374.101 185.033 378.952C188.504 381.377 192.49 382.59 196.991 382.59ZM306.673 359.683H254.982C255.368 366.286 257.683 371.676 262.054 375.987C266.426 380.434 271.698 382.59 277.87 382.59C287.514 382.59 294.715 377.604 297.672 368.307L305.902 371.002C304.101 377.335 300.63 382.32 295.486 385.958C290.343 389.462 284.557 391.348 277.999 391.348C271.955 391.348 266.426 389.731 261.411 386.632C256.397 383.533 252.539 379.356 249.839 373.966C247.01 368.711 245.596 362.917 245.596 356.584C245.596 350.521 246.881 344.862 249.582 339.607C252.153 334.217 255.882 330.04 260.769 326.806C265.526 323.572 270.927 321.955 276.713 321.955C283.014 321.955 288.543 323.437 293.172 326.537C297.801 329.501 301.273 333.678 303.458 338.798C305.773 343.918 306.802 349.712 306.802 356.45C306.802 357.123 306.802 358.201 306.673 359.683ZM255.111 351.329H297.415C296.772 345.131 294.586 340.146 290.986 336.238C287.385 332.465 282.628 330.579 276.713 330.579C271.184 330.579 266.555 332.6 262.44 336.642C258.325 340.819 255.882 345.67 255.111 351.329ZM352.192 390.135H342.291L315.16 323.168H325.446L347.306 379.356L369.551 323.168H379.452L352.192 390.135ZM435 371.137C435 377.065 432.814 381.916 428.442 385.554C424.07 389.327 418.67 391.213 412.369 391.213C402.082 391.213 395.396 386.767 391.924 381.512C389.353 377.874 388.453 374.64 388.067 371.271L396.553 368.981C397.582 375.179 402.082 382.725 412.241 382.725C415.841 382.725 418.927 381.647 421.627 379.625C424.199 377.739 425.485 375.044 425.485 371.676C425.485 368.981 424.456 366.825 422.399 365.208C420.341 363.456 417.898 362.378 415.069 361.705L405.297 359.414C394.753 356.989 389.353 351.06 389.353 341.897C389.353 335.025 392.696 329.366 397.325 326.402C401.825 323.437 406.711 321.955 411.083 321.955C420.727 322.09 426.899 325.998 430.242 330.848C432.557 334.217 433.586 337.047 434.1 339.876L425.613 342.436C424.97 339.741 423.942 337.586 421.884 334.891C419.698 332.196 415.841 330.579 411.083 330.579C407.612 330.579 404.783 331.522 402.34 333.678C399.897 335.699 398.739 338.259 398.739 341.224C398.739 346.479 402.34 348.904 407.997 350.386L418.284 352.812C426.642 354.833 435 360.357 435 371.137Z" fill="#415da1"/>
</svg>
