<svg width="19" height="19" viewBox="0 0 19 19" fill="none" xmlns="http://www.w3.org/2000/svg">
<path fill-rule="evenodd" clip-rule="evenodd" d="M12.4231 8.2821C11.2123 8.2821 10.2307 9.26367 10.2307 10.4744C10.2307 11.6852 11.2123 12.6667 12.4231 12.6667C13.6338 12.6667 14.6154 11.6852 14.6154 10.4744C14.6154 9.26367 13.6338 8.2821 12.4231 8.2821ZM8.7692 10.4744C8.7692 8.45641 10.4051 6.82056 12.4231 6.82056C14.4411 6.82056 16.0769 8.45641 16.0769 10.4744C16.0769 12.4924 14.4411 14.1283 12.4231 14.1283C10.4051 14.1283 8.7692 12.4924 8.7692 10.4744Z" fill="#5A6570"/>
<path fill-rule="evenodd" clip-rule="evenodd" d="M10.4743 12.1794C10.8779 12.1794 11.2051 12.5066 11.2051 12.9102V15.8333L11.9846 15.2487C12.2445 15.0538 12.6017 15.0538 12.8615 15.2487L13.641 15.8333V12.9102C13.641 12.5066 13.9682 12.1794 14.3718 12.1794C14.7754 12.1794 15.1026 12.5066 15.1026 12.9102V17.2948C15.1026 17.5717 14.9462 17.8247 14.6986 17.9484C14.451 18.0723 14.1548 18.0455 13.9333 17.8795L12.4231 16.7468L10.9128 17.8795C10.6913 18.0455 10.3951 18.0723 10.1475 17.9484C9.89995 17.8247 9.74356 17.5717 9.74356 17.2948V12.9102C9.74356 12.5066 10.0708 12.1794 10.4743 12.1794Z" fill="#5A6570"/>
<path fill-rule="evenodd" clip-rule="evenodd" d="M2.67943 1.46154C2.01123 1.46154 1.46148 2.01129 1.46148 2.6795V12.4231C1.46148 13.0958 2.00677 13.6411 2.67943 13.6411H7.55125C7.95483 13.6411 8.28202 13.9683 8.28202 14.3718C8.28202 14.7754 7.95483 15.1026 7.55125 15.1026H2.67943C1.19959 15.1026 -6.10352e-05 13.903 -6.10352e-05 12.4231V2.6795C-6.10352e-05 1.20411 1.20405 0 2.67943 0H16.3205C17.8004 0 19 1.19965 19 2.6795V12.4231C18.999 13.3795 18.4885 14.2635 17.6603 14.7416C17.3107 14.9434 16.8638 14.8237 16.662 14.4741C16.4602 14.1246 16.58 13.6777 16.9295 13.4759C17.306 13.2585 17.538 12.8571 17.5385 12.4223V2.6795C17.5385 2.00684 16.9932 1.46154 16.3205 1.46154H2.67943Z" fill="#5A6570"/>
<path fill-rule="evenodd" clip-rule="evenodd" d="M2.92302 4.62823C2.92302 4.22464 3.2502 3.89746 3.65379 3.89746H15.3461C15.7497 3.89746 16.0769 4.22464 16.0769 4.62823C16.0769 5.03182 15.7497 5.359 15.3461 5.359H3.65379C3.2502 5.359 2.92302 5.03182 2.92302 4.62823Z" fill="#5A6570"/>
<path fill-rule="evenodd" clip-rule="evenodd" d="M2.92302 7.55133C2.92302 7.14775 3.2502 6.82056 3.65379 6.82056H6.57688C6.98047 6.82056 7.30765 7.14775 7.30765 7.55133C7.30765 7.95491 6.98047 8.2821 6.57688 8.2821H3.65379C3.2502 8.2821 2.92302 7.95491 2.92302 7.55133Z" fill="#5A6570"/>
<path fill-rule="evenodd" clip-rule="evenodd" d="M2.92302 10.4744C2.92302 10.0708 3.2502 9.74365 3.65379 9.74365H5.60252C6.00611 9.74365 6.33329 10.0708 6.33329 10.4744C6.33329 10.878 6.00611 11.2052 5.60252 11.2052H3.65379C3.2502 11.2052 2.92302 10.878 2.92302 10.4744Z" fill="#5A6570"/>
</svg>
