<svg width="45" height="40" viewBox="0 0 45 40" fill="none" xmlns="http://www.w3.org/2000/svg">
<path d="M3.46154 8H41.5385C42.4565 8 43.337 7.57857 43.9861 6.82843C44.6353 6.07828 45 5.06087 45 4C45 2.93913 44.6353 1.92172 43.9861 1.17157C43.337 0.421427 42.4565 0 41.5385 0H3.46154C2.54348 0 1.66303 0.421427 1.01386 1.17157C0.364697 1.92172 0 2.93913 0 4C0 5.06087 0.364697 6.07828 1.01386 6.82843C1.66303 7.57857 2.54348 8 3.46154 8ZM41.5385 16H3.46154C2.54348 16 1.66303 16.4214 1.01386 17.1716C0.364697 17.9217 0 18.9391 0 20C0 21.0609 0.364697 22.0783 1.01386 22.8284C1.66303 23.5786 2.54348 24 3.46154 24H41.5385C42.4565 24 43.337 23.5786 43.9861 22.8284C44.6353 22.0783 45 21.0609 45 20C45 18.9391 44.6353 17.9217 43.9861 17.1716C43.337 16.4214 42.4565 16 41.5385 16ZM41.5385 32H3.46154C2.54348 32 1.66303 32.4214 1.01386 33.1716C0.364697 33.9217 0 34.9391 0 36C0 37.0609 0.364697 38.0783 1.01386 38.8284C1.66303 39.5786 2.54348 40 3.46154 40H41.5385C42.4565 40 43.337 39.5786 43.9861 38.8284C44.6353 38.0783 45 37.0609 45 36C45 34.9391 44.6353 33.9217 43.9861 33.1716C43.337 32.4214 42.4565 32 41.5385 32Z" fill="#415DA1"/>
</svg>
