<svg xmlns="http://www.w3.org/2000/svg" version="1.1" xmlns:xlink="http://www.w3.org/1999/xlink" xmlns:svgjs="http://svgjs.com/svgjs" width="1440" height="560" preserveAspectRatio="none" viewBox="0 0 1440 560"><g mask="url(&quot;#SvgjsMask1073&quot;)" fill="none"><rect width="1440" height="560" x="0" y="0" fill="rgba(233, 240, 255, 1)"></rect><path d="M 0,227 C 57.6,190.4 172.8,53.6 288,44 C 403.2,34.4 460.8,179.4 576,179 C 691.2,178.6 748.8,47.6 864,42 C 979.2,36.4 1036.8,137.8 1152,151 C 1267.2,164.2 1382.4,116.6 1440,108L1440 560L0 560z" fill="rgba(147, 167, 215, 1)"></path><path d="M 0,473 C 96,451.8 288,367.2 480,367 C 672,366.8 768,478.2 960,472 C 1152,465.8 1344,363.2 1440,336L1440 560L0 560z" fill="rgba(213, 224, 251, 1)"></path></g><defs><mask id="SvgjsMask1073"><rect width="1440" height="560" fill="#ffffff"></rect></mask></defs></svg>